<?xml version="1.0" encoding="UTF-8"?>
<!-- Generated by jsxcad -->
<!DOCTYPE svg PUBLIC "-//W3C//DTD SVG 1.1 Tiny//EN" "http://www.w3.org/Graphics/SVG/1.1/DTD/svg11-tiny.dtd">
<svg baseProfile="tiny" height="20 mm" width="35.99298 mm" viewBox="0 0 35.99298 20" version="1.1" stroke="black" stroke-width=".1" fill="none" xmlns="http://www.w3.org/2000/svg">
<path d="M35.96508 20 L35.96508 0 L35.88174 20 z"/>
<path d="M35.88174 20 L35.96508 0 L35.88174 0 z"/>
<path d="M35.88174 20 L35.88174 0 L35.74314 20 z"/>
<path d="M35.74314 20 L35.88174 0 L35.74314 0 z"/>
<path d="M35.74314 20 L35.74314 0 L35.54964 20 z"/>
<path d="M35.54964 20 L35.74314 0 L35.54964 0 z"/>
<path d="M35.54964 20 L35.54964 0 L35.30178 20 z"/>
<path d="M35.30178 20 L35.54964 0 L35.30178 0 z"/>
<path d="M35.30178 20 L35.30178 0 L35.00046 20 z"/>
<path d="M35.00046 20 L35.30178 0 L35.00046 0 z"/>
<path d="M35.00046 20 L35.00046 0 L34.64658 20 z"/>
<path d="M34.64658 20 L35.00046 0 L34.64658 0 z"/>
<path d="M34.64658 20 L34.64658 0 L34.2414 20 z"/>
<path d="M34.2414 20 L34.64658 0 L34.2414 0 z"/>
<path d="M34.2414 20 L34.2414 0 L33.78582 20 z"/>
<path d="M33.78582 20 L34.2414 0 L33.78582 0 z"/>
<path d="M33.78582 20 L33.78582 0 L33.28146 20 z"/>
<path d="M33.28146 20 L33.78582 0 L33.28146 0 z"/>
<path d="M32.95161 11.95756 L32.72976 20 L32.95161 20 z"/>
<path d="M32.95161 11.95756 L32.95161 0 L32.72976 0 z"/>
<path d="M32.95161 11.95756 L32.72976 0 L32.72976 20 z"/>
<path d="M33.28146 0 L32.95161 11.95756 L32.95161 20 z"/>
<path d="M33.28146 0 L32.95161 20 L33.28146 20 z"/>
<path d="M32.95161 11.95756 L33.28146 0 L32.95161 0 z"/>
<path d="M32.72976 20 L32.72976 0 L32.13252 20 z"/>
<path d="M32.13252 20 L32.72976 0 L32.13252 0 z"/>
<path d="M32.13252 20 L32.13252 0 L31.49172 20 z"/>
<path d="M31.49172 20 L32.13252 0 L31.49172 0 z"/>
<path d="M31.49172 20 L31.49172 0 L30.80898 20 z"/>
<path d="M30.80898 20 L31.49172 0 L30.80898 0 z"/>
<path d="M30.80898 20 L30.80898 0 L30.08682 20 z"/>
<path d="M30.08682 20 L30.80898 0 L30.08682 0 z"/>
<path d="M30.08682 20 L30.08682 0 L29.32722 20 z"/>
<path d="M29.32722 20 L30.08682 0 L29.32722 0 z"/>
<path d="M29.32722 20 L29.32722 0 L28.53252 20 z"/>
<path d="M28.53252 20 L29.32722 0 L28.53252 0 z"/>
<path d="M28.53252 20 L28.53252 0 L27.70542 20 z"/>
<path d="M27.70542 20 L28.53252 0 L27.70542 0 z"/>
<path d="M27.70542 20 L27.70542 0 L26.84808 20 z"/>
<path d="M26.84808 20 L27.70542 0 L26.84808 0 z"/>
<path d="M26.84808 20 L26.84808 0 L25.96356 20 z"/>
<path d="M25.96356 20 L26.84808 0 L25.96356 0 z"/>
<path d="M25.96356 20 L25.96356 0 L25.0542 20 z"/>
<path d="M25.0542 20 L25.96356 0 L25.0542 0 z"/>
<path d="M25.0542 20 L25.0542 0 L24.12324 20 z"/>
<path d="M24.12324 20 L25.0542 0 L24.12324 0 z"/>
<path d="M24.12324 20 L24.12324 0 L23.1732 20 z"/>
<path d="M23.1732 20 L24.12324 0 L23.1732 0 z"/>
<path d="M23.1732 20 L23.1732 0 L22.20714 20 z"/>
<path d="M22.20714 20 L23.1732 0 L22.20714 0 z"/>
<path d="M22.20714 20 L22.20714 0 L21.22812 20 z"/>
<path d="M21.22812 20 L22.20714 0 L21.22812 0 z"/>
<path d="M21.22812 20 L21.22812 0 L20.23902 20 z"/>
<path d="M20.23902 20 L21.22812 0 L20.23902 0 z"/>
<path d="M20.23902 20 L20.23902 0 L19.24308 20 z"/>
<path d="M19.24308 20 L20.23902 0 L19.24308 0 z"/>
<path d="M19.24308 20 L19.24308 0 L18.24318 20 z"/>
<path d="M18.24318 20 L19.24308 0 L18.24318 0 z"/>
<path d="M18.24318 20 L18.24318 0 L17.24256 20 z"/>
<path d="M17.24256 20 L18.24318 0 L17.24256 0 z"/>
<path d="M17.24256 20 L17.24256 0 L16.24428 20 z"/>
<path d="M16.24428 20 L17.24256 0 L16.24428 0 z"/>
<path d="M16.24428 20 L16.24428 0 L15.2514 20 z"/>
<path d="M15.2514 20 L16.24428 0 L15.2514 0 z"/>
<path d="M15.2514 20 L15.2514 0 L14.2668 20 z"/>
<path d="M14.2668 20 L15.2514 0 L14.2668 0 z"/>
<path d="M14.2668 20 L14.2668 0 L13.2939 20 z"/>
<path d="M13.2939 20 L14.2668 0 L13.2939 0 z"/>
<path d="M13.2939 20 L13.2939 0 L12.33558 20 z"/>
<path d="M12.33558 20 L13.2939 0 L12.33558 0 z"/>
<path d="M12.33558 20 L12.33558 0 L11.39472 20 z"/>
<path d="M11.39472 20 L12.33558 0 L11.39472 0 z"/>
<path d="M11.39472 20 L11.39472 0 L10.4742 20 z"/>
<path d="M10.4742 20 L11.39472 0 L10.4742 0 z"/>
<path d="M10.4742 20 L10.4742 0 L9.5769 20 z"/>
<path d="M9.5769 20 L10.4742 0 L9.5769 0 z"/>
<path d="M9.5769 20 L9.5769 0 L8.7057 20 z"/>
<path d="M8.7057 20 L9.5769 0 L8.7057 0 z"/>
<path d="M8.7057 20 L8.7057 0 L7.86312 20 z"/>
<path d="M7.86312 20 L8.7057 0 L7.86312 0 z"/>
<path d="M7.86312 20 L7.86312 0 L7.05186 20 z"/>
<path d="M7.05186 20 L7.86312 0 L7.05186 0 z"/>
<path d="M7.05186 20 L7.05186 0 L6.27444 20 z"/>
<path d="M6.27444 20 L7.05186 0 L6.27444 0 z"/>
<path d="M6.27444 20 L6.27444 0 L5.5332 20 z"/>
<path d="M5.5332 20 L6.27444 0 L5.5332 0 z"/>
<path d="M5.5332 20 L5.5332 0 L4.83048 20 z"/>
<path d="M4.83048 20 L5.5332 0 L4.83048 0 z"/>
<path d="M4.83048 20 L4.83048 0 L4.16844 20 z"/>
<path d="M4.16844 20 L4.83048 0 L4.16844 0 z"/>
<path d="M4.16844 20 L4.16844 0 L3.54924 20 z"/>
<path d="M3.54924 20 L4.16844 0 L3.54924 0 z"/>
<path d="M3.54924 0 L3.02928 18.09949 L3.02928 20 z"/>
<path d="M3.54924 0 L3.02928 20 L3.54924 20 z"/>
<path d="M3.02928 18.09949 L3.54924 0 L3.02928 0 z"/>
<path d="M3.02928 18.09949 L2.97468 20 L3.02928 20 z"/>
<path d="M3.02928 18.09949 L3.02928 0 L2.97468 0 z"/>
<path d="M3.02928 18.09949 L2.97468 0 L2.97468 20 z"/>
<path d="M2.97468 20 L2.97468 0 L2.44638 20 z"/>
<path d="M2.44638 20 L2.97468 0 L2.44638 0 z"/>
<path d="M2.44638 20 L2.44638 0 L1.96632 20 z"/>
<path d="M1.96632 20 L2.44638 0 L1.96632 0 z"/>
<path d="M1.96632 20 L1.96632 0 L1.53558 20 z"/>
<path d="M1.53558 20 L1.96632 0 L1.53558 0 z"/>
<path d="M1.53558 20 L1.53558 0 L1.15596 20 z"/>
<path d="M1.15596 20 L1.53558 0 L1.15596 0 z"/>
<path d="M1.15596 20 L1.15596 0 L0.82818 20 z"/>
<path d="M0.82818 20 L1.15596 0 L0.82818 0 z"/>
<path d="M0.82818 20 L0.82818 0 L0.5535 20 z"/>
<path d="M0.5535 20 L0.82818 0 L0.5535 0 z"/>
<path d="M0.5535 20 L0.5535 0 L0.33282 20 z"/>
<path d="M0.33282 20 L0.5535 0 L0.33282 0 z"/>
<path d="M0.33282 20 L0.33282 0 L0.16668 20 z"/>
<path d="M0.16668 20 L0.33282 0 L0.16668 0 z"/>
<path d="M0.16668 20 L0.16668 0 L0.05562 20 z"/>
<path d="M0.05562 20 L0.16668 0 L0.05562 0 z"/>
<path d="M0.05562 20 L0.05562 0 L0 20 z"/>
<path d="M0 20 L0.05562 0 L0 0 z"/>
<path d="M0 20 L0 0 L0 20 z"/>
<path d="M0 20 L0 0 L0 0 z"/>
<path d="M0 20 L0 0 L0.05562 20 z"/>
<path d="M0.05562 20 L0 0 L0.05562 0 z"/>
<path d="M0.05562 20 L0.05562 0 L0.16668 20 z"/>
<path d="M0.16668 20 L0.05562 0 L0.16668 0 z"/>
<path d="M0.16668 20 L0.16668 0 L0.33282 20 z"/>
<path d="M0.33282 20 L0.16668 0 L0.33282 0 z"/>
<path d="M0.33282 20 L0.33282 0 L0.5535 20 z"/>
<path d="M0.5535 20 L0.33282 0 L0.5535 0 z"/>
<path d="M0.5535 20 L0.5535 0 L0.82818 20 z"/>
<path d="M0.82818 20 L0.5535 0 L0.82818 0 z"/>
<path d="M0.82818 20 L0.82818 0 L1.15596 20 z"/>
<path d="M1.15596 20 L0.82818 0 L1.15596 0 z"/>
<path d="M1.15596 20 L1.15596 0 L1.53558 20 z"/>
<path d="M1.53558 20 L1.15596 0 L1.53558 0 z"/>
<path d="M1.53558 20 L1.53558 0 L1.96632 20 z"/>
<path d="M1.96632 20 L1.53558 0 L1.96632 0 z"/>
<path d="M1.96632 20 L1.96632 0 L2.44638 20 z"/>
<path d="M2.44638 20 L1.96632 0 L2.44638 0 z"/>
<path d="M2.44638 20 L2.44638 0 L2.97468 20 z"/>
<path d="M2.97468 20 L2.44638 0 L2.97468 0 z"/>
<path d="M2.97468 20 L2.97468 0 L3.54924 20 z"/>
<path d="M3.54924 20 L2.97468 0 L3.54924 0 z"/>
<path d="M3.54924 20 L3.54924 0 L4.16844 20 z"/>
<path d="M4.16844 20 L3.54924 0 L4.16844 0 z"/>
<path d="M4.16844 20 L4.16844 0 L4.83048 20 z"/>
<path d="M4.83048 20 L4.16844 0 L4.83048 0 z"/>
<path d="M4.83048 20 L4.83048 0 L5.5332 20 z"/>
<path d="M5.5332 20 L4.83048 0 L5.5332 0 z"/>
<path d="M5.5332 20 L5.5332 0 L6.27444 20 z"/>
<path d="M6.27444 20 L5.5332 0 L6.27444 0 z"/>
<path d="M6.27444 20 L6.27444 0 L7.05186 20 z"/>
<path d="M7.05186 20 L6.27444 0 L7.05186 0 z"/>
<path d="M7.05186 20 L7.05186 0 L7.86312 20 z"/>
<path d="M7.86312 20 L7.05186 0 L7.86312 0 z"/>
<path d="M7.86312 20 L7.86312 0 L8.7057 20 z"/>
<path d="M8.7057 20 L7.86312 0 L8.7057 0 z"/>
<path d="M8.7057 20 L8.7057 0 L9.5769 20 z"/>
<path d="M9.5769 20 L8.7057 0 L9.5769 0 z"/>
<path d="M9.5769 20 L9.5769 0 L10.4742 20 z"/>
<path d="M10.4742 20 L9.5769 0 L10.4742 0 z"/>
<path d="M10.4742 20 L10.4742 0 L11.39472 20 z"/>
<path d="M11.39472 20 L10.4742 0 L11.39472 0 z"/>
<path d="M11.39472 20 L11.39472 0 L12.33558 20 z"/>
<path d="M12.33558 20 L11.39472 0 L12.33558 0 z"/>
<path d="M12.33558 20 L12.33558 0 L13.2939 20 z"/>
<path d="M13.2939 20 L12.33558 0 L13.2939 0 z"/>
<path d="M13.2939 20 L13.2939 0 L14.2668 20 z"/>
<path d="M14.2668 20 L13.2939 0 L14.2668 0 z"/>
<path d="M14.2668 20 L14.2668 0 L15.2514 20 z"/>
<path d="M15.2514 20 L14.2668 0 L15.2514 0 z"/>
<path d="M15.2514 20 L15.2514 0 L16.24428 20 z"/>
<path d="M16.24428 20 L15.2514 0 L16.24428 0 z"/>
<path d="M16.24428 20 L16.24428 0 L17.24256 20 z"/>
<path d="M17.24256 20 L16.24428 0 L17.24256 0 z"/>
<path d="M17.24256 20 L17.24256 0 L18.24318 20 z"/>
<path d="M18.24318 20 L17.24256 0 L18.24318 0 z"/>
<path d="M18.24318 20 L18.24318 0 L19.24308 20 z"/>
<path d="M19.24308 20 L18.24318 0 L19.24308 0 z"/>
<path d="M19.24308 0 L19.99298 15.05914 L19.99298 20 z"/>
<path d="M19.24308 0 L19.99298 20 L19.24308 20 z"/>
<path d="M19.99298 15.05914 L19.24308 0 L19.99298 0 z"/>
<path d="M19.99298 15.05914 L20.23902 20 L19.99298 20 z"/>
<path d="M19.99298 15.05914 L19.99298 0 L20.23902 0 z"/>
<path d="M19.99298 15.05914 L20.23902 0 L20.23902 20 z"/>
<path d="M20.23902 20 L20.23902 0 L21.22812 20 z"/>
<path d="M21.22812 20 L20.23902 0 L21.22812 0 z"/>
<path d="M21.22812 20 L21.22812 0 L22.20714 20 z"/>
<path d="M22.20714 20 L21.22812 0 L22.20714 0 z"/>
<path d="M22.20714 20 L22.20714 0 L23.1732 20 z"/>
<path d="M23.1732 20 L22.20714 0 L23.1732 0 z"/>
<path d="M23.1732 20 L23.1732 0 L24.12324 20 z"/>
<path d="M24.12324 20 L23.1732 0 L24.12324 0 z"/>
<path d="M24.12324 20 L24.12324 0 L25.0542 20 z"/>
<path d="M25.0542 20 L24.12324 0 L25.0542 0 z"/>
<path d="M25.0542 20 L25.0542 0 L25.96356 20 z"/>
<path d="M25.96356 20 L25.0542 0 L25.96356 0 z"/>
<path d="M25.96356 20 L25.96356 0 L26.84808 20 z"/>
<path d="M26.84808 20 L25.96356 0 L26.84808 0 z"/>
<path d="M26.84808 20 L26.84808 0 L27.70542 20 z"/>
<path d="M27.70542 20 L26.84808 0 L27.70542 0 z"/>
<path d="M27.70542 20 L27.70542 0 L28.53252 20 z"/>
<path d="M28.53252 20 L27.70542 0 L28.53252 0 z"/>
<path d="M28.53252 20 L28.53252 0 L29.32722 20 z"/>
<path d="M29.32722 20 L28.53252 0 L29.32722 0 z"/>
<path d="M29.32722 20 L29.32722 0 L30.08682 20 z"/>
<path d="M30.08682 20 L29.32722 0 L30.08682 0 z"/>
<path d="M30.08682 20 L30.08682 0 L30.80898 20 z"/>
<path d="M30.80898 20 L30.08682 0 L30.80898 0 z"/>
<path d="M30.80898 20 L30.80898 0 L31.49172 20 z"/>
<path d="M31.49172 20 L30.80898 0 L31.49172 0 z"/>
<path d="M31.49172 20 L31.49172 0 L32.13252 20 z"/>
<path d="M32.13252 20 L31.49172 0 L32.13252 0 z"/>
<path d="M32.13252 20 L32.13252 0 L32.72976 20 z"/>
<path d="M32.72976 20 L32.13252 0 L32.72976 0 z"/>
<path d="M32.72976 0 L32.95161 8.04244 L32.95161 20 z"/>
<path d="M32.72976 0 L32.95161 20 L32.72976 20 z"/>
<path d="M32.95161 8.04244 L32.72976 0 L32.95161 0 z"/>
<path d="M32.95161 8.04244 L33.28146 20 L32.95161 20 z"/>
<path d="M32.95161 8.04244 L32.95161 0 L33.28146 0 z"/>
<path d="M32.95161 8.04244 L33.28146 0 L33.28146 20 z"/>
<path d="M33.28146 20 L33.28146 0 L33.78582 20 z"/>
<path d="M33.78582 20 L33.28146 0 L33.78582 0 z"/>
<path d="M33.78582 20 L33.78582 0 L34.2414 20 z"/>
<path d="M34.2414 20 L33.78582 0 L34.2414 0 z"/>
<path d="M34.2414 20 L34.2414 0 L34.64658 20 z"/>
<path d="M34.64658 20 L34.2414 0 L34.64658 0 z"/>
<path d="M34.64658 20 L34.64658 0 L35.00046 20 z"/>
<path d="M35.00046 20 L34.64658 0 L35.00046 0 z"/>
<path d="M35.00046 20 L35.00046 0 L35.30178 20 z"/>
<path d="M35.30178 20 L35.00046 0 L35.30178 0 z"/>
<path d="M35.30178 20 L35.30178 0 L35.54964 20 z"/>
<path d="M35.54964 20 L35.30178 0 L35.54964 0 z"/>
<path d="M35.54964 20 L35.54964 0 L35.74314 20 z"/>
<path d="M35.74314 20 L35.54964 0 L35.74314 0 z"/>
<path d="M35.74314 20 L35.74314 0 L35.88174 20 z"/>
<path d="M35.88174 20 L35.74314 0 L35.88174 0 z"/>
<path d="M35.88174 20 L35.88174 0 L35.96508 20 z"/>
<path d="M35.96508 20 L35.88174 0 L35.96508 0 z"/>
<path d="M35.96508 20 L35.96508 0 L35.99298 20 z"/>
<path d="M35.99298 20 L35.96508 0 L35.99298 0 z"/>
<path d="M35.99298 20 L35.99298 0 L35.96508 20 z"/>
<path d="M35.96508 20 L35.99298 0 L35.96508 0 z"/>
<path d="M3.02928 0 L3.54924 0 L5.78887 0 z"/>
<path d="M5.78887 0 L3.54924 0 L4.16844 0 z"/>
<path d="M5.78887 0 L4.16844 0 L8.38563 0 z"/>
<path d="M8.38563 0 L4.16844 0 L4.83048 0 z"/>
<path d="M8.38563 0 L4.83048 0 L10.61218 0 z"/>
<path d="M10.61218 0 L4.83048 0 L5.5332 0 z"/>
<path d="M10.61218 0 L5.5332 0 L12.54543 0 z"/>
<path d="M12.54543 0 L5.5332 0 L6.27444 0 z"/>
<path d="M12.54543 0 L6.27444 0 L14.24171 0 z"/>
<path d="M14.24171 0 L6.27444 0 L7.05186 0 z"/>
<path d="M14.24171 0 L7.05186 0 L15.74464 0 z"/>
<path d="M15.74464 0 L7.05186 0 L7.86312 0 z"/>
<path d="M15.74464 0 L7.86312 0 L17.08721 0 z"/>
<path d="M17.08721 0 L7.86312 0 L8.7057 0 z"/>
<path d="M17.08721 0 L8.7057 0 L18.29578 0 z"/>
<path d="M18.29578 0 L8.7057 0 L9.5769 0 z"/>
<path d="M18.29578 0 L9.5769 0 L19.39087 0 z"/>
<path d="M19.39087 0 L9.5769 0 L10.4742 0 z"/>
<path d="M19.39087 0 L10.4742 0 L20.3894 0 z"/>
<path d="M20.3894 0 L10.4742 0 L11.39472 0 z"/>
<path d="M20.3894 0 L11.39472 0 L21.30484 0 z"/>
<path d="M21.30484 0 L11.39472 0 L12.33558 0 z"/>
<path d="M21.30484 0 L12.33558 0 L22.14833 0 z"/>
<path d="M22.14833 0 L12.33558 0 L13.2939 0 z"/>
<path d="M22.14833 0 L13.2939 0 L22.92933 0 z"/>
<path d="M22.92933 0 L13.2939 0 L14.2668 0 z"/>
<path d="M22.92933 0 L14.2668 0 L23.65565 0 z"/>
<path d="M23.65565 0 L14.2668 0 L15.2514 0 z"/>
<path d="M23.65565 0 L15.2514 0 L24.33382 0 z"/>
<path d="M24.33382 0 L15.2514 0 L16.24428 0 z"/>
<path d="M24.33382 0 L16.24428 0 L24.96934 0 z"/>
<path d="M24.96934 0 L16.24428 0 L17.24256 0 z"/>
<path d="M24.96934 0 L17.24256 0 L25.56701 0 z"/>
<path d="M25.56701 0 L17.24256 0 L18.24318 0 z"/>
<path d="M25.56701 0 L18.24318 0 L26.13099 0 z"/>
<path d="M26.13099 0 L18.24318 0 L19.24308 0 z"/>
<path d="M26.13099 0 L19.24308 0 L26.665 0 z"/>
<path d="M26.665 0 L19.24308 0 L20.23902 0 z"/>
<path d="M26.665 0 L20.23902 0 L27.1718 0 z"/>
<path d="M27.1718 0 L20.23902 0 L21.22812 0 z"/>
<path d="M27.1718 0 L21.22812 0 L27.65453 0 z"/>
<path d="M27.65453 0 L21.22812 0 L22.20714 0 z"/>
<path d="M27.65453 0 L22.20714 0 L28.11526 0 z"/>
<path d="M28.11526 0 L22.20714 0 L23.1732 0 z"/>
<path d="M28.11526 0 L23.1732 0 L28.55623 0 z"/>
<path d="M28.55623 0 L23.1732 0 L24.12324 0 z"/>
<path d="M28.55623 0 L24.12324 0 L28.97941 0 z"/>
<path d="M28.97941 0 L24.12324 0 L25.0542 0 z"/>
<path d="M28.97941 0 L25.0542 0 L29.38629 0 z"/>
<path d="M29.38629 0 L25.0542 0 L25.96356 0 z"/>
<path d="M29.38629 0 L25.96356 0 L29.77864 0 z"/>
<path d="M29.77864 0 L25.96356 0 L26.84808 0 z"/>
<path d="M29.77864 0 L26.84808 0 L30.15748 0 z"/>
<path d="M30.15748 0 L26.84808 0 L27.70542 0 z"/>
<path d="M30.15748 0 L27.70542 0 L30.52442 0 z"/>
<path d="M30.52442 0 L27.70542 0 L28.53252 0 z"/>
<path d="M30.52442 0 L28.53252 0 L30.88017 0 z"/>
<path d="M30.88017 0 L28.53252 0 L29.32722 0 z"/>
<path d="M30.88017 0 L29.32722 0 L31.22604 0 z"/>
<path d="M31.22604 0 L29.32722 0 L30.08682 0 z"/>
<path d="M31.22604 0 L30.08682 0 L31.56288 0 z"/>
<path d="M31.56288 0 L30.08682 0 L30.80898 0 z"/>
<path d="M31.56288 0 L30.80898 0 L31.89147 0 z"/>
<path d="M31.89147 0 L30.80898 0 L31.49172 0 z"/>
<path d="M31.89147 0 L31.49172 0 L32.21275 0 z"/>
<path d="M32.21275 0 L31.49172 0 L32.13252 0 z"/>
<path d="M32.21275 0 L32.13252 0 L32.52719 0 z"/>
<path d="M32.52719 0 L32.13252 0 L32.72976 0 z"/>
<path d="M32.52719 0 L32.72976 0 L32.83577 0 z"/>
<path d="M32.83577 0 L32.72976 0 L32.95161 0 z"/>
<path d="M19.99298 0 L19.24308 0 L19.99298 0 z"/>
<path d="M19.99298 0 L19.24308 0 L18.24318 0 z"/>
<path d="M19.99298 0 L18.24318 0 L19.99298 0 z"/>
<path d="M19.99298 0 L18.24318 0 L17.24256 0 z"/>
<path d="M19.99298 0 L17.24256 0 L19.99298 0 z"/>
<path d="M19.99298 0 L17.24256 0 L16.24428 0 z"/>
<path d="M19.99298 0 L16.24428 0 L19.99298 0 z"/>
<path d="M19.99298 0 L16.24428 0 L15.2514 0 z"/>
<path d="M19.99298 0 L15.2514 0 L19.99298 0 z"/>
<path d="M19.99298 0 L15.2514 0 L14.2668 0 z"/>
<path d="M19.99298 0 L14.2668 0 L19.99298 0 z"/>
<path d="M19.99298 0 L14.2668 0 L13.2939 0 z"/>
<path d="M19.99298 0 L13.2939 0 L19.99298 0 z"/>
<path d="M19.99298 0 L13.2939 0 L12.33558 0 z"/>
<path d="M19.99298 0 L12.33558 0 L19.99298 0 z"/>
<path d="M19.99298 0 L12.33558 0 L11.39472 0 z"/>
<path d="M19.99298 0 L11.39472 0 L19.99298 0 z"/>
<path d="M19.99298 0 L11.39472 0 L10.4742 0 z"/>
<path d="M19.99298 0 L10.4742 0 L19.99298 0 z"/>
<path d="M19.99298 0 L10.4742 0 L9.5769 0 z"/>
<path d="M19.99298 0 L9.5769 0 L19.99298 0 z"/>
<path d="M19.99298 0 L9.5769 0 L8.7057 0 z"/>
<path d="M19.99298 0 L8.7057 0 L19.99298 0 z"/>
<path d="M19.99298 0 L8.7057 0 L7.86312 0 z"/>
<path d="M19.99298 0 L7.86312 0 L19.99298 0 z"/>
<path d="M19.99298 0 L7.86312 0 L7.05186 0 z"/>
<path d="M19.99298 0 L7.05186 0 L19.99298 0 z"/>
<path d="M19.99298 0 L7.05186 0 L6.27444 0 z"/>
<path d="M19.99298 0 L6.27444 0 L19.99298 0 z"/>
<path d="M19.99298 0 L6.27444 0 L5.5332 0 z"/>
<path d="M19.99298 0 L5.5332 0 L19.99298 0 z"/>
<path d="M19.99298 0 L5.5332 0 L4.83048 0 z"/>
<path d="M19.99298 0 L4.83048 0 L19.99298 0 z"/>
<path d="M19.99298 0 L4.83048 0 L4.16844 0 z"/>
<path d="M19.99298 0 L4.16844 0 L19.99298 0 z"/>
<path d="M19.99298 0 L4.16844 0 L3.54924 0 z"/>
<path d="M19.99298 0 L3.54924 0 L19.99298 0 z"/>
<path d="M19.99298 0 L3.54924 0 L2.97468 0 z"/>
<path d="M19.99298 0 L2.97468 0 L19.99298 0 z"/>
<path d="M19.99298 0 L2.97468 0 L2.44638 0 z"/>
<path d="M19.99298 0 L2.44638 0 L19.99298 0 z"/>
<path d="M19.99298 0 L2.44638 0 L1.96632 0 z"/>
<path d="M19.99298 0 L1.96632 0 L19.99298 0 z"/>
<path d="M19.99298 0 L1.96632 0 L1.53558 0 z"/>
<path d="M19.99298 0 L1.53558 0 L19.99298 0 z"/>
<path d="M19.99298 0 L1.53558 0 L1.15596 0 z"/>
<path d="M19.99298 0 L1.15596 0 L19.99298 0 z"/>
<path d="M19.99298 0 L1.15596 0 L0.82818 0 z"/>
<path d="M19.99298 0 L0.82818 0 L19.99298 0 z"/>
<path d="M19.99298 0 L0.82818 0 L0.5535 0 z"/>
<path d="M19.99298 0 L0.5535 0 L19.99298 0 z"/>
<path d="M19.99298 0 L0.5535 0 L0.33282 0 z"/>
<path d="M19.99298 0 L0.33282 0 L19.99298 0 z"/>
<path d="M19.99298 0 L0.33282 0 L0.16668 0 z"/>
<path d="M19.99298 0 L0.16668 0 L19.99298 0 z"/>
<path d="M19.99298 0 L0.16668 0 L0.05562 0 z"/>
<path d="M19.99298 0 L0.05562 0 L19.99298 0 z"/>
<path d="M19.99298 0 L0.05562 0 L0 0 z"/>
<path d="M19.99298 0 L0 0 L19.99298 0 z"/>
<path d="M19.99298 0 L0 0 L0 0 z"/>
<path d="M19.99298 0 L0 0 L19.99298 0 z"/>
<path d="M19.99298 0 L0 0 L0.05562 0 z"/>
<path d="M19.99298 0 L0.05562 0 L19.99298 0 z"/>
<path d="M19.99298 0 L0.05562 0 L0.16668 0 z"/>
<path d="M19.99298 0 L0.16668 0 L19.99298 0 z"/>
<path d="M19.99298 0 L0.16668 0 L0.33282 0 z"/>
<path d="M19.99298 0 L0.33282 0 L19.99298 0 z"/>
<path d="M19.99298 0 L0.33282 0 L0.5535 0 z"/>
<path d="M19.99298 0 L0.5535 0 L19.99298 0 z"/>
<path d="M19.99298 0 L0.5535 0 L0.82818 0 z"/>
<path d="M19.99298 0 L0.82818 0 L19.99298 0 z"/>
<path d="M19.99298 0 L0.82818 0 L1.15596 0 z"/>
<path d="M19.99298 0 L1.15596 0 L19.99298 0 z"/>
<path d="M19.99298 0 L1.15596 0 L1.53558 0 z"/>
<path d="M19.99298 0 L1.53558 0 L19.99298 0 z"/>
<path d="M19.99298 0 L1.53558 0 L1.96632 0 z"/>
<path d="M19.99298 0 L1.96632 0 L19.99298 0 z"/>
<path d="M19.99298 0 L1.96632 0 L2.44638 0 z"/>
<path d="M19.99298 0 L2.44638 0 L19.99298 0 z"/>
<path d="M19.99298 0 L2.44638 0 L2.97468 0 z"/>
<path d="M19.99298 0 L2.97468 0 L19.99298 0 z"/>
<path d="M3.02928 0 L5.78887 0 L19.99298 0 z"/>
<path d="M3.02928 0 L19.99298 0 L19.99298 0 z"/>
<path d="M3.02928 0 L19.99298 0 L2.97468 0 z"/>
<path d="M8.38563 0 L19.99298 0 L19.99298 0 z"/>
<path d="M8.38563 0 L19.99298 0 L5.78887 0 z"/>
<path d="M10.61218 0 L19.99298 0 L19.99298 0 z"/>
<path d="M10.61218 0 L19.99298 0 L8.38563 0 z"/>
<path d="M12.54543 0 L19.99298 0 L19.99298 0 z"/>
<path d="M12.54543 0 L19.99298 0 L10.61218 0 z"/>
<path d="M14.24171 0 L19.99298 0 L19.99298 0 z"/>
<path d="M14.24171 0 L19.99298 0 L12.54543 0 z"/>
<path d="M15.74464 0 L19.99298 0 L19.99298 0 z"/>
<path d="M15.74464 0 L19.99298 0 L14.24171 0 z"/>
<path d="M17.08721 0 L19.99298 0 L19.99298 0 z"/>
<path d="M17.08721 0 L19.99298 0 L15.74464 0 z"/>
<path d="M18.29578 0 L19.99298 0 L19.99298 0 z"/>
<path d="M18.29578 0 L19.99298 0 L17.08721 0 z"/>
<path d="M19.39087 0 L19.99298 0 L19.99298 0 z"/>
<path d="M19.39087 0 L19.99298 0 L18.29578 0 z"/>
<path d="M19.99298 0 L19.99298 0 L19.39087 0 z"/>
<path d="M32.95161 0 L32.72976 0 L32.83577 0 z"/>
<path d="M32.83577 0 L32.72976 0 L32.13252 0 z"/>
<path d="M32.83577 0 L32.13252 0 L32.52719 0 z"/>
<path d="M32.52719 0 L32.13252 0 L31.49172 0 z"/>
<path d="M32.52719 0 L31.49172 0 L32.21275 0 z"/>
<path d="M32.21275 0 L31.49172 0 L30.80898 0 z"/>
<path d="M32.21275 0 L30.80898 0 L31.89147 0 z"/>
<path d="M31.89147 0 L30.80898 0 L30.08682 0 z"/>
<path d="M31.89147 0 L30.08682 0 L31.56288 0 z"/>
<path d="M31.56288 0 L30.08682 0 L29.32722 0 z"/>
<path d="M31.56288 0 L29.32722 0 L31.22604 0 z"/>
<path d="M31.22604 0 L29.32722 0 L28.53252 0 z"/>
<path d="M31.22604 0 L28.53252 0 L30.88017 0 z"/>
<path d="M30.88017 0 L28.53252 0 L27.70542 0 z"/>
<path d="M30.88017 0 L27.70542 0 L30.52442 0 z"/>
<path d="M30.52442 0 L27.70542 0 L26.84808 0 z"/>
<path d="M30.52442 0 L26.84808 0 L30.15748 0 z"/>
<path d="M30.15748 0 L26.84808 0 L25.96356 0 z"/>
<path d="M30.15748 0 L25.96356 0 L29.77864 0 z"/>
<path d="M29.77864 0 L25.96356 0 L25.0542 0 z"/>
<path d="M29.77864 0 L25.0542 0 L29.38629 0 z"/>
<path d="M29.38629 0 L25.0542 0 L24.12324 0 z"/>
<path d="M29.38629 0 L24.12324 0 L28.97941 0 z"/>
<path d="M28.97941 0 L24.12324 0 L23.1732 0 z"/>
<path d="M28.97941 0 L23.1732 0 L28.55623 0 z"/>
<path d="M28.55623 0 L23.1732 0 L22.20714 0 z"/>
<path d="M28.55623 0 L22.20714 0 L28.11526 0 z"/>
<path d="M28.11526 0 L22.20714 0 L21.22812 0 z"/>
<path d="M28.11526 0 L21.22812 0 L27.65453 0 z"/>
<path d="M27.65453 0 L21.22812 0 L20.23902 0 z"/>
<path d="M27.65453 0 L20.23902 0 L27.1718 0 z"/>
<path d="M19.99298 0 L19.99298 0 L26.665 0 z"/>
<path d="M19.99298 0 L26.665 0 L27.1718 0 z"/>
<path d="M19.99298 0 L27.1718 0 L20.23902 0 z"/>
<path d="M19.99298 0 L26.13099 0 L26.665 0 z"/>
<path d="M19.99298 0 L26.665 0 L19.99298 0 z"/>
<path d="M19.99298 0 L25.56701 0 L26.13099 0 z"/>
<path d="M19.99298 0 L26.13099 0 L19.99298 0 z"/>
<path d="M19.99298 0 L24.96934 0 L25.56701 0 z"/>
<path d="M19.99298 0 L25.56701 0 L19.99298 0 z"/>
<path d="M19.99298 0 L24.33382 0 L24.96934 0 z"/>
<path d="M19.99298 0 L24.96934 0 L19.99298 0 z"/>
<path d="M19.99298 0 L23.65565 0 L24.33382 0 z"/>
<path d="M19.99298 0 L24.33382 0 L19.99298 0 z"/>
<path d="M19.99298 0 L22.92933 0 L23.65565 0 z"/>
<path d="M19.99298 0 L23.65565 0 L19.99298 0 z"/>
<path d="M19.99298 0 L22.14833 0 L22.92933 0 z"/>
<path d="M19.99298 0 L22.92933 0 L19.99298 0 z"/>
<path d="M19.99298 0 L21.30484 0 L22.14833 0 z"/>
<path d="M19.99298 0 L22.14833 0 L19.99298 0 z"/>
<path d="M19.99298 0 L20.3894 0 L21.30484 0 z"/>
<path d="M19.99298 0 L21.30484 0 L19.99298 0 z"/>
<path d="M19.99298 0 L20.3894 0 L19.99298 0 z"/>
<path d="M35.99298 0 L35.96508 0 L35.88174 0 z"/>
<path d="M35.99298 0 L35.88174 0 L35.74314 0 z"/>
<path d="M35.99298 0 L35.74314 0 L35.54964 0 z"/>
<path d="M35.99298 0 L35.54964 0 L35.30178 0 z"/>
<path d="M35.99298 0 L35.30178 0 L35.00046 0 z"/>
<path d="M35.99298 0 L35.00046 0 L34.64658 0 z"/>
<path d="M35.99298 0 L34.64658 0 L34.2414 0 z"/>
<path d="M35.99298 0 L34.2414 0 L33.78582 0 z"/>
<path d="M35.99298 0 L33.78582 0 L33.28146 0 z"/>
<path d="M33.28146 0 L32.95161 0 L32.83577 0 z"/>
<path d="M33.28146 0 L32.83577 0 L35.99298 0 z"/>
<path d="M32.83577 0 L32.52719 0 L35.99298 0 z"/>
<path d="M32.52719 0 L32.21275 0 L35.99298 0 z"/>
<path d="M32.21275 0 L31.89147 0 L35.99298 0 z"/>
<path d="M31.89147 0 L31.56288 0 L35.99298 0 z"/>
<path d="M31.56288 0 L31.22604 0 L35.99298 0 z"/>
<path d="M31.22604 0 L30.88017 0 L35.99298 0 z"/>
<path d="M30.88017 0 L30.52442 0 L35.99298 0 z"/>
<path d="M30.52442 0 L30.15748 0 L35.99298 0 z"/>
<path d="M29.99298 0 L29.99298 0 L35.99298 0 z"/>
<path d="M29.99298 0 L35.99298 0 L30.15748 0 z"/>
<path d="M29.99298 0 L35.99298 0 L29.99298 0 z"/>
<path d="M29.99298 0 L35.99298 0 L29.99298 0 z"/>
<path d="M29.99298 0 L35.99298 0 L29.99298 0 z"/>
<path d="M29.99298 0 L35.99298 0 L29.99298 0 z"/>
<path d="M29.99298 0 L35.99298 0 L29.99298 0 z"/>
<path d="M29.99298 0 L35.99298 0 L29.99298 0 z"/>
<path d="M29.99298 0 L35.99298 0 L29.99298 0 z"/>
<path d="M29.99298 0 L35.99298 0 L29.99298 0 z"/>
<path d="M29.99298 0 L35.99298 0 L29.99298 0 z"/>
<path d="M29.99298 0 L35.99298 0 L29.99298 0 z"/>
<path d="M29.99298 0 L35.99298 0 L29.99298 0 z"/>
<path d="M29.99298 0 L35.99298 0 L29.99298 0 z"/>
<path d="M29.99298 0 L35.99298 0 L29.99298 0 z"/>
<path d="M29.99298 0 L35.99298 0 L29.99298 0 z"/>
<path d="M29.99298 0 L35.99298 0 L29.99298 0 z"/>
<path d="M29.99298 0 L35.99298 0 L29.99298 0 z"/>
<path d="M29.99298 0 L35.99298 0 L29.99298 0 z"/>
<path d="M29.99298 0 L35.99298 0 L29.99298 0 z"/>
<path d="M29.99298 0 L35.99298 0 L29.99298 0 z"/>
<path d="M29.99298 0 L35.99298 0 L29.99298 0 z"/>
<path d="M29.99298 0 L35.99298 0 L29.99298 0 z"/>
<path d="M29.99298 0 L35.99298 0 L29.99298 0 z"/>
<path d="M29.99298 0 L35.99298 0 L29.99298 0 z"/>
<path d="M29.99298 0 L35.99298 0 L29.99298 0 z"/>
<path d="M29.99298 0 L35.99298 0 L29.99298 0 z"/>
<path d="M29.99298 0 L35.99298 0 L29.99298 0 z"/>
<path d="M29.99298 0 L35.99298 0 L29.99298 0 z"/>
<path d="M29.99298 0 L35.99298 0 L29.99298 0 z"/>
<path d="M29.99298 0 L35.99298 0 L29.99298 0 z"/>
<path d="M29.99298 0 L35.99298 0 L29.99298 0 z"/>
<path d="M29.99298 0 L35.99298 0 L29.99298 0 z"/>
<path d="M29.99298 0 L35.99298 0 L29.99298 0 z"/>
<path d="M29.99298 0 L35.99298 0 L29.99298 0 z"/>
<path d="M29.99298 0 L35.99298 0 L29.99298 0 z"/>
<path d="M29.99298 0 L35.99298 0 L29.99298 0 z"/>
<path d="M29.99298 0 L35.99298 0 L29.99298 0 z"/>
<path d="M29.99298 0 L35.99298 0 L29.99298 0 z"/>
<path d="M29.99298 0 L35.99298 0 L29.99298 0 z"/>
<path d="M29.99298 0 L35.99298 0 L29.99298 0 z"/>
<path d="M29.99298 0 L35.99298 0 L29.99298 0 z"/>
<path d="M29.99298 0 L35.99298 0 L29.99298 0 z"/>
<path d="M29.99298 0 L35.99298 0 L29.99298 0 z"/>
<path d="M29.99298 0 L35.99298 0 L29.99298 0 z"/>
<path d="M29.99298 0 L35.99298 0 L29.99298 0 z"/>
<path d="M29.99298 0 L35.99298 0 L29.99298 0 z"/>
<path d="M29.99298 0 L35.99298 0 L29.99298 0 z"/>
<path d="M29.99298 0 L35.99298 0 L29.99298 0 z"/>
<path d="M29.99298 0 L35.99298 0 L29.99298 0 z"/>
<path d="M29.99298 0 L35.99298 0 L29.99298 0 z"/>
<path d="M29.99298 0 L35.99298 0 L29.99298 0 z"/>
<path d="M29.99298 0 L35.99298 0 L29.99298 0 z"/>
<path d="M29.99298 0 L35.99298 0 L29.99298 0 z"/>
<path d="M29.99298 0 L35.99298 0 L29.99298 0 z"/>
<path d="M29.99298 0 L35.99298 0 L29.99298 0 z"/>
<path d="M29.99298 0 L35.99298 0 L29.99298 0 z"/>
<path d="M29.99298 0 L35.99298 0 L29.99298 0 z"/>
<path d="M29.99298 0 L35.99298 0 L29.99298 0 z"/>
<path d="M29.99298 0 L35.99298 0 L29.99298 0 z"/>
<path d="M29.99298 0 L35.99298 0 L29.99298 0 z"/>
<path d="M29.99298 0 L35.99298 0 L29.99298 0 z"/>
<path d="M29.99298 0 L35.99298 0 L29.99298 0 z"/>
<path d="M29.99298 0 L35.99298 0 L29.99298 0 z"/>
<path d="M29.99298 0 L35.99298 0 L29.99298 0 z"/>
<path d="M29.99298 0 L35.99298 0 L29.99298 0 z"/>
<path d="M29.99298 0 L35.99298 0 L29.99298 0 z"/>
<path d="M29.99298 0 L35.99298 0 L29.99298 0 z"/>
<path d="M29.99298 0 L35.99298 0 L29.99298 0 z"/>
<path d="M29.99298 0 L35.99298 0 L29.99298 0 z"/>
<path d="M29.99298 0 L35.99298 0 L29.99298 0 z"/>
<path d="M29.99298 0 L35.99298 0 L29.99298 0 z"/>
<path d="M29.99298 0 L35.99298 0 L29.99298 0 z"/>
<path d="M29.99298 0 L35.99298 0 L29.99298 0 z"/>
<path d="M29.99298 0 L35.99298 0 L29.99298 0 z"/>
<path d="M29.99298 0 L30.15748 0 L35.99298 0 z"/>
<path d="M29.99298 0 L35.99298 0 L29.99298 0 z"/>
<path d="M30.15748 0 L30.52442 0 L35.99298 0 z"/>
<path d="M30.52442 0 L30.88017 0 L35.99298 0 z"/>
<path d="M30.88017 0 L31.22604 0 L35.99298 0 z"/>
<path d="M31.22604 0 L31.56288 0 L35.99298 0 z"/>
<path d="M31.56288 0 L31.89147 0 L35.99298 0 z"/>
<path d="M31.89147 0 L32.21275 0 L35.99298 0 z"/>
<path d="M32.21275 0 L32.52719 0 L35.99298 0 z"/>
<path d="M32.52719 0 L32.83577 0 L35.99298 0 z"/>
<path d="M32.83577 0 L32.95161 0 L33.28146 0 z"/>
<path d="M32.83577 0 L33.28146 0 L35.99298 0 z"/>
<path d="M35.99298 0 L33.28146 0 L33.78582 0 z"/>
<path d="M35.99298 0 L33.78582 0 L34.2414 0 z"/>
<path d="M35.99298 0 L34.2414 0 L34.64658 0 z"/>
<path d="M35.99298 0 L34.64658 0 L35.00046 0 z"/>
<path d="M35.99298 0 L35.00046 0 L35.30178 0 z"/>
<path d="M35.99298 0 L35.30178 0 L35.54964 0 z"/>
<path d="M35.99298 0 L35.54964 0 L35.74314 0 z"/>
<path d="M35.99298 0 L35.74314 0 L35.88174 0 z"/>
<path d="M35.99298 0 L35.88174 0 L35.96508 0 z"/>
<path d="M29.99298 0 L29.77864 0 L29.99298 0 z"/>
<path d="M29.38629 0 L29.99298 0 L29.99298 0 z"/>
<path d="M29.38629 0 L29.99298 0 L29.77864 0 z"/>
<path d="M28.97941 0 L29.99298 0 L29.99298 0 z"/>
<path d="M28.97941 0 L29.99298 0 L29.38629 0 z"/>
<path d="M28.55623 0 L29.99298 0 L29.99298 0 z"/>
<path d="M28.55623 0 L29.99298 0 L28.97941 0 z"/>
<path d="M28.11526 0 L29.99298 0 L29.99298 0 z"/>
<path d="M28.11526 0 L29.99298 0 L28.55623 0 z"/>
<path d="M27.65453 0 L29.99298 0 L29.99298 0 z"/>
<path d="M27.65453 0 L29.99298 0 L28.11526 0 z"/>
<path d="M27.1718 0 L29.99298 0 L29.99298 0 z"/>
<path d="M27.1718 0 L29.99298 0 L27.65453 0 z"/>
<path d="M29.99298 0 L29.99298 0 L27.1718 0 z"/>
<path d="M29.99298 0 L27.1718 0 L26.665 0 z"/>
<path d="M29.99298 0 L29.99298 0 L26.665 0 z"/>
<path d="M29.99298 0 L26.665 0 L26.13099 0 z"/>
<path d="M29.99298 0 L29.99298 0 L26.13099 0 z"/>
<path d="M29.99298 0 L26.13099 0 L25.56701 0 z"/>
<path d="M29.99298 0 L29.99298 0 L25.56701 0 z"/>
<path d="M29.99298 0 L25.56701 0 L24.96934 0 z"/>
<path d="M29.99298 0 L29.99298 0 L24.96934 0 z"/>
<path d="M29.99298 0 L24.96934 0 L24.33382 0 z"/>
<path d="M29.99298 0 L29.99298 0 L24.33382 0 z"/>
<path d="M29.99298 0 L24.33382 0 L23.65565 0 z"/>
<path d="M29.99298 0 L29.99298 0 L23.65565 0 z"/>
<path d="M29.99298 0 L23.65565 0 L22.92933 0 z"/>
<path d="M29.99298 0 L29.99298 0 L22.92933 0 z"/>
<path d="M29.99298 0 L22.92933 0 L22.14833 0 z"/>
<path d="M29.99298 0 L29.99298 0 L22.14833 0 z"/>
<path d="M29.99298 0 L22.14833 0 L21.30484 0 z"/>
<path d="M29.99298 0 L29.99298 0 L21.30484 0 z"/>
<path d="M29.99298 0 L21.30484 0 L20.3894 0 z"/>
<path d="M19.99298 0 L29.99298 0 L29.99298 0 z"/>
<path d="M19.99298 0 L29.99298 0 L20.3894 0 z"/>
<path d="M19.99298 0 L20.3894 0 L19.99298 0 z"/>
<path d="M19.99298 0 L29.99298 0 L29.99298 0 z"/>
<path d="M19.99298 0 L29.99298 0 L19.99298 0 z"/>
<path d="M19.99298 0 L29.99298 0 L29.99298 0 z"/>
<path d="M19.99298 0 L29.99298 0 L19.99298 0 z"/>
<path d="M19.99298 0 L29.99298 0 L29.99298 0 z"/>
<path d="M19.99298 0 L29.99298 0 L19.99298 0 z"/>
<path d="M19.99298 0 L29.99298 0 L29.99298 0 z"/>
<path d="M19.99298 0 L29.99298 0 L19.99298 0 z"/>
<path d="M19.99298 0 L29.99298 0 L29.99298 0 z"/>
<path d="M19.99298 0 L29.99298 0 L19.99298 0 z"/>
<path d="M19.99298 0 L29.99298 0 L29.99298 0 z"/>
<path d="M19.99298 0 L29.99298 0 L19.99298 0 z"/>
<path d="M19.99298 0 L29.99298 0 L29.99298 0 z"/>
<path d="M19.99298 0 L29.99298 0 L19.99298 0 z"/>
<path d="M19.99298 0 L29.99298 0 L29.99298 0 z"/>
<path d="M19.99298 0 L29.99298 0 L19.99298 0 z"/>
<path d="M19.99298 0 L29.99298 0 L29.99298 0 z"/>
<path d="M19.99298 0 L29.99298 0 L19.99298 0 z"/>
<path d="M19.99298 0 L29.99298 0 L29.99298 0 z"/>
<path d="M19.99298 0 L29.99298 0 L19.99298 0 z"/>
<path d="M19.99298 0 L29.99298 0 L29.99298 0 z"/>
<path d="M19.99298 0 L29.99298 0 L19.99298 0 z"/>
<path d="M19.99298 0 L29.99298 0 L29.99298 0 z"/>
<path d="M19.99298 0 L29.99298 0 L19.99298 0 z"/>
<path d="M19.99298 0 L29.99298 0 L29.99298 0 z"/>
<path d="M19.99298 0 L29.99298 0 L19.99298 0 z"/>
<path d="M19.99298 0 L29.99298 0 L29.99298 0 z"/>
<path d="M19.99298 0 L29.99298 0 L19.99298 0 z"/>
<path d="M19.99298 0 L29.99298 0 L29.99298 0 z"/>
<path d="M19.99298 0 L29.99298 0 L19.99298 0 z"/>
<path d="M19.99298 0 L29.99298 0 L29.99298 0 z"/>
<path d="M19.99298 0 L29.99298 0 L19.99298 0 z"/>
<path d="M19.99298 0 L29.99298 0 L29.99298 0 z"/>
<path d="M19.99298 0 L29.99298 0 L19.99298 0 z"/>
<path d="M19.99298 0 L29.99298 0 L29.99298 0 z"/>
<path d="M19.99298 0 L29.99298 0 L19.99298 0 z"/>
<path d="M19.99298 0 L29.99298 0 L29.99298 0 z"/>
<path d="M19.99298 0 L29.99298 0 L19.99298 0 z"/>
<path d="M19.99298 0 L29.99298 0 L29.99298 0 z"/>
<path d="M19.99298 0 L29.99298 0 L19.99298 0 z"/>
<path d="M19.99298 0 L29.99298 0 L29.99298 0 z"/>
<path d="M19.99298 0 L29.99298 0 L19.99298 0 z"/>
<path d="M19.99298 0 L29.99298 0 L29.99298 0 z"/>
<path d="M19.99298 0 L29.99298 0 L19.99298 0 z"/>
<path d="M19.99298 0 L29.99298 0 L29.99298 0 z"/>
<path d="M19.99298 0 L29.99298 0 L19.99298 0 z"/>
<path d="M19.99298 0 L29.99298 0 L29.99298 0 z"/>
<path d="M19.99298 0 L29.99298 0 L19.99298 0 z"/>
<path d="M19.99298 0 L29.99298 0 L29.99298 0 z"/>
<path d="M19.99298 0 L29.99298 0 L19.99298 0 z"/>
<path d="M19.99298 0 L29.99298 0 L29.99298 0 z"/>
<path d="M19.99298 0 L29.99298 0 L19.99298 0 z"/>
<path d="M19.99298 0 L29.99298 0 L29.99298 0 z"/>
<path d="M19.99298 0 L29.99298 0 L19.99298 0 z"/>
<path d="M19.99298 0 L29.99298 0 L29.99298 0 z"/>
<path d="M19.99298 0 L29.99298 0 L19.99298 0 z"/>
<path d="M19.99298 0 L29.99298 0 L29.99298 0 z"/>
<path d="M19.99298 0 L29.99298 0 L19.99298 0 z"/>
<path d="M19.99298 0 L29.99298 0 L29.99298 0 z"/>
<path d="M19.99298 0 L29.99298 0 L19.99298 0 z"/>
<path d="M29.99298 0 L29.99298 0 L19.99298 0 z"/>
<path d="M29.99298 0 L19.99298 0 L19.99298 0 z"/>
<path d="M29.99298 0 L29.99298 0 L19.99298 0 z"/>
<path d="M29.99298 0 L19.99298 0 L19.99298 0 z"/>
<path d="M29.99298 0 L29.99298 0 L19.99298 0 z"/>
<path d="M29.99298 0 L19.99298 0 L19.99298 0 z"/>
<path d="M29.99298 0 L29.99298 0 L19.99298 0 z"/>
<path d="M29.99298 0 L19.99298 0 L19.99298 0 z"/>
<path d="M29.99298 0 L29.99298 0 L19.99298 0 z"/>
<path d="M29.99298 0 L19.99298 0 L19.99298 0 z"/>
<path d="M29.99298 0 L29.99298 0 L19.99298 0 z"/>
<path d="M29.99298 0 L19.99298 0 L19.99298 0 z"/>
<path d="M29.99298 0 L29.99298 0 L19.99298 0 z"/>
<path d="M29.99298 0 L19.99298 0 L19.99298 0 z"/>
<path d="M29.99298 0 L29.99298 0 L19.99298 0 z"/>
<path d="M29.99298 0 L19.99298 0 L19.99298 0 z"/>
<path d="M29.99298 0 L29.99298 0 L19.99298 0 z"/>
<path d="M29.99298 0 L19.99298 0 L19.99298 0 z"/>
<path d="M20.3894 0 L29.99298 0 L29.99298 0 z"/>
<path d="M20.3894 0 L29.99298 0 L19.99298 0 z"/>
<path d="M20.3894 0 L19.99298 0 L19.99298 0 z"/>
<path d="M21.30484 0 L29.99298 0 L29.99298 0 z"/>
<path d="M21.30484 0 L29.99298 0 L20.3894 0 z"/>
<path d="M22.14833 0 L29.99298 0 L29.99298 0 z"/>
<path d="M22.14833 0 L29.99298 0 L21.30484 0 z"/>
<path d="M22.92933 0 L29.99298 0 L29.99298 0 z"/>
<path d="M22.92933 0 L29.99298 0 L22.14833 0 z"/>
<path d="M23.65565 0 L29.99298 0 L29.99298 0 z"/>
<path d="M23.65565 0 L29.99298 0 L22.92933 0 z"/>
<path d="M24.33382 0 L29.99298 0 L29.99298 0 z"/>
<path d="M24.33382 0 L29.99298 0 L23.65565 0 z"/>
<path d="M24.96934 0 L29.99298 0 L29.99298 0 z"/>
<path d="M24.96934 0 L29.99298 0 L24.33382 0 z"/>
<path d="M25.56701 0 L29.99298 0 L29.99298 0 z"/>
<path d="M25.56701 0 L29.99298 0 L24.96934 0 z"/>
<path d="M26.13099 0 L29.99298 0 L29.99298 0 z"/>
<path d="M26.13099 0 L29.99298 0 L25.56701 0 z"/>
<path d="M26.665 0 L29.99298 0 L29.99298 0 z"/>
<path d="M26.665 0 L29.99298 0 L26.13099 0 z"/>
<path d="M27.1718 0 L29.99298 0 L29.99298 0 z"/>
<path d="M27.1718 0 L29.99298 0 L26.665 0 z"/>
<path d="M27.65453 0 L29.99298 0 L29.99298 0 z"/>
<path d="M27.65453 0 L29.99298 0 L27.1718 0 z"/>
<path d="M28.11526 0 L29.99298 0 L29.99298 0 z"/>
<path d="M28.11526 0 L29.99298 0 L27.65453 0 z"/>
<path d="M28.55623 0 L29.99298 0 L29.99298 0 z"/>
<path d="M28.55623 0 L29.99298 0 L28.11526 0 z"/>
<path d="M28.97941 0 L29.99298 0 L29.99298 0 z"/>
<path d="M28.97941 0 L29.99298 0 L28.55623 0 z"/>
<path d="M29.38629 0 L29.99298 0 L29.99298 0 z"/>
<path d="M29.38629 0 L29.99298 0 L28.97941 0 z"/>
<path d="M29.77864 0 L29.99298 0 L29.99298 0 z"/>
<path d="M29.77864 0 L29.99298 0 L29.38629 0 z"/>
<path d="M29.99298 0 L29.99298 0 L29.77864 0 z"/>
<path d="M32.95161 20 L32.72976 20 L32.84613 20 z"/>
<path d="M32.84613 20 L32.72976 20 L32.13252 20 z"/>
<path d="M32.84613 20 L32.13252 20 L32.56299 20 z"/>
<path d="M32.56299 20 L32.13252 20 L31.49172 20 z"/>
<path d="M32.56299 20 L31.49172 20 L32.27399 20 z"/>
<path d="M32.27399 20 L31.49172 20 L30.80898 20 z"/>
<path d="M32.27399 20 L30.80898 20 L31.97817 20 z"/>
<path d="M31.97817 20 L30.80898 20 L30.08682 20 z"/>
<path d="M31.97817 20 L30.08682 20 L31.67507 20 z"/>
<path d="M31.67507 20 L30.08682 20 L29.32722 20 z"/>
<path d="M31.67507 20 L29.32722 20 L31.36377 20 z"/>
<path d="M31.36377 20 L29.32722 20 L28.53252 20 z"/>
<path d="M31.36377 20 L28.53252 20 L31.04352 20 z"/>
<path d="M31.04352 20 L28.53252 20 L27.70542 20 z"/>
<path d="M31.04352 20 L27.70542 20 L30.71347 20 z"/>
<path d="M30.71347 20 L27.70542 20 L26.84808 20 z"/>
<path d="M30.71347 20 L26.84808 20 L30.37233 20 z"/>
<path d="M30.37233 20 L26.84808 20 L25.96356 20 z"/>
<path d="M30.37233 20 L25.96356 20 L30.0194 20 z"/>
<path d="M30.0194 20 L25.96356 20 L25.0542 20 z"/>
<path d="M30.0194 20 L25.0542 20 L29.65307 20 z"/>
<path d="M29.65307 20 L25.0542 20 L24.12324 20 z"/>
<path d="M29.65307 20 L24.12324 20 L29.27232 20 z"/>
<path d="M29.27232 20 L24.12324 20 L23.1732 20 z"/>
<path d="M29.27232 20 L23.1732 20 L28.87539 20 z"/>
<path d="M28.87539 20 L23.1732 20 L22.20714 20 z"/>
<path d="M28.87539 20 L22.20714 20 L28.46075 20 z"/>
<path d="M28.46075 20 L22.20714 20 L21.22812 20 z"/>
<path d="M28.46075 20 L21.22812 20 L28.02642 20 z"/>
<path d="M28.02642 20 L21.22812 20 L20.23902 20 z"/>
<path d="M28.02642 20 L20.23902 20 L27.57012 20 z"/>
<path d="M27.57012 20 L20.23902 20 L19.24308 20 z"/>
<path d="M27.57012 20 L19.24308 20 L27.08973 20 z"/>
<path d="M27.08973 20 L19.24308 20 L18.24318 20 z"/>
<path d="M27.08973 20 L18.24318 20 L26.58203 20 z"/>
<path d="M26.58203 20 L18.24318 20 L17.24256 20 z"/>
<path d="M26.58203 20 L17.24256 20 L26.04415 20 z"/>
<path d="M26.04415 20 L17.24256 20 L16.24428 20 z"/>
<path d="M26.04415 20 L16.24428 20 L25.47225 20 z"/>
<path d="M25.47225 20 L16.24428 20 L15.2514 20 z"/>
<path d="M25.47225 20 L15.2514 20 L24.86197 20 z"/>
<path d="M24.86197 20 L15.2514 20 L14.2668 20 z"/>
<path d="M24.86197 20 L14.2668 20 L24.20828 20 z"/>
<path d="M24.20828 20 L14.2668 20 L13.2939 20 z"/>
<path d="M24.20828 20 L13.2939 20 L23.50532 20 z"/>
<path d="M23.50532 20 L13.2939 20 L12.33558 20 z"/>
<path d="M23.50532 20 L12.33558 20 L22.74616 20 z"/>
<path d="M22.74616 20 L12.33558 20 L11.39472 20 z"/>
<path d="M22.74616 20 L11.39472 20 L21.92239 20 z"/>
<path d="M21.92239 20 L11.39472 20 L10.4742 20 z"/>
<path d="M21.92239 20 L10.4742 20 L21.02379 20 z"/>
<path d="M21.02379 20 L10.4742 20 L9.5769 20 z"/>
<path d="M21.02379 20 L9.5769 20 L20.03815 20 z"/>
<path d="M20.03815 20 L9.5769 20 L8.7057 20 z"/>
<path d="M20.03815 20 L8.7057 20 L18.95058 20 z"/>
<path d="M18.95058 20 L8.7057 20 L7.86312 20 z"/>
<path d="M18.95058 20 L7.86312 20 L17.74219 20 z"/>
<path d="M17.74219 20 L7.86312 20 L7.05186 20 z"/>
<path d="M17.74219 20 L7.05186 20 L16.38974 20 z"/>
<path d="M16.38974 20 L7.05186 20 L6.27444 20 z"/>
<path d="M16.38974 20 L6.27444 20 L14.863 20 z"/>
<path d="M14.863 20 L6.27444 20 L5.5332 20 z"/>
<path d="M14.863 20 L5.5332 20 L13.12344 20 z"/>
<path d="M13.12344 20 L5.5332 20 L4.83048 20 z"/>
<path d="M13.12344 20 L4.83048 20 L11.11934 20 z"/>
<path d="M11.11934 20 L4.83048 20 L4.16844 20 z"/>
<path d="M11.11934 20 L4.16844 20 L8.78228 20 z"/>
<path d="M8.78228 20 L4.16844 20 L3.54924 20 z"/>
<path d="M8.78228 20 L3.54924 20 L6.01672 20 z"/>
<path d="M6.01672 20 L3.54924 20 L3.02928 20 z"/>
<path d="M19.99298 20 L18.95058 20 L19.99298 20 z"/>
<path d="M17.74219 20 L19.99298 20 L19.99298 20 z"/>
<path d="M17.74219 20 L19.99298 20 L18.95058 20 z"/>
<path d="M16.38974 20 L19.99298 20 L19.99298 20 z"/>
<path d="M16.38974 20 L19.99298 20 L17.74219 20 z"/>
<path d="M14.863 20 L19.99298 20 L19.99298 20 z"/>
<path d="M14.863 20 L19.99298 20 L16.38974 20 z"/>
<path d="M13.12344 20 L19.99298 20 L19.99298 20 z"/>
<path d="M13.12344 20 L19.99298 20 L14.863 20 z"/>
<path d="M11.11934 20 L19.99298 20 L19.99298 20 z"/>
<path d="M11.11934 20 L19.99298 20 L13.12344 20 z"/>
<path d="M8.78228 20 L19.99298 20 L19.99298 20 z"/>
<path d="M8.78228 20 L19.99298 20 L11.11934 20 z"/>
<path d="M6.01672 20 L19.99298 20 L19.99298 20 z"/>
<path d="M6.01672 20 L19.99298 20 L8.78228 20 z"/>
<path d="M3.02928 20 L2.97468 20 L19.99298 20 z"/>
<path d="M3.02928 20 L19.99298 20 L19.99298 20 z"/>
<path d="M3.02928 20 L19.99298 20 L6.01672 20 z"/>
<path d="M19.99298 20 L2.97468 20 L2.44638 20 z"/>
<path d="M19.99298 20 L2.44638 20 L19.99298 20 z"/>
<path d="M19.99298 20 L2.44638 20 L1.96632 20 z"/>
<path d="M19.99298 20 L1.96632 20 L19.99298 20 z"/>
<path d="M19.99298 20 L1.96632 20 L1.53558 20 z"/>
<path d="M19.99298 20 L1.53558 20 L19.99298 20 z"/>
<path d="M19.99298 20 L1.53558 20 L1.15596 20 z"/>
<path d="M19.99298 20 L1.15596 20 L19.99298 20 z"/>
<path d="M19.99298 20 L1.15596 20 L0.82818 20 z"/>
<path d="M19.99298 20 L0.82818 20 L19.99298 20 z"/>
<path d="M19.99298 20 L0.82818 20 L0.5535 20 z"/>
<path d="M19.99298 20 L0.5535 20 L19.99298 20 z"/>
<path d="M19.99298 20 L0.5535 20 L0.33282 20 z"/>
<path d="M19.99298 20 L0.33282 20 L19.99298 20 z"/>
<path d="M19.99298 20 L0.33282 20 L0.16668 20 z"/>
<path d="M19.99298 20 L0.16668 20 L19.99298 20 z"/>
<path d="M19.99298 20 L0.16668 20 L0.05562 20 z"/>
<path d="M19.99298 20 L0.05562 20 L19.99298 20 z"/>
<path d="M19.99298 20 L0.05562 20 L0 20 z"/>
<path d="M19.99298 20 L0 20 L19.99298 20 z"/>
<path d="M19.99298 20 L0 20 L0 20 z"/>
<path d="M19.99298 20 L0 20 L19.99298 20 z"/>
<path d="M19.99298 20 L0 20 L0.05562 20 z"/>
<path d="M19.99298 20 L0.05562 20 L19.99298 20 z"/>
<path d="M19.99298 20 L0.05562 20 L0.16668 20 z"/>
<path d="M19.99298 20 L0.16668 20 L19.99298 20 z"/>
<path d="M19.99298 20 L0.16668 20 L0.33282 20 z"/>
<path d="M19.99298 20 L0.33282 20 L19.99298 20 z"/>
<path d="M19.99298 20 L0.33282 20 L0.5535 20 z"/>
<path d="M19.99298 20 L0.5535 20 L19.99298 20 z"/>
<path d="M19.99298 20 L0.5535 20 L0.82818 20 z"/>
<path d="M19.99298 20 L0.82818 20 L19.99298 20 z"/>
<path d="M19.99298 20 L0.82818 20 L1.15596 20 z"/>
<path d="M19.99298 20 L1.15596 20 L19.99298 20 z"/>
<path d="M19.99298 20 L1.15596 20 L1.53558 20 z"/>
<path d="M19.99298 20 L1.53558 20 L19.99298 20 z"/>
<path d="M19.99298 20 L1.53558 20 L1.96632 20 z"/>
<path d="M19.99298 20 L1.96632 20 L19.99298 20 z"/>
<path d="M19.99298 20 L1.96632 20 L2.44638 20 z"/>
<path d="M19.99298 20 L2.44638 20 L19.99298 20 z"/>
<path d="M19.99298 20 L2.44638 20 L2.97468 20 z"/>
<path d="M19.99298 20 L2.97468 20 L19.99298 20 z"/>
<path d="M19.99298 20 L2.97468 20 L3.54924 20 z"/>
<path d="M19.99298 20 L3.54924 20 L19.99298 20 z"/>
<path d="M19.99298 20 L3.54924 20 L4.16844 20 z"/>
<path d="M19.99298 20 L4.16844 20 L19.99298 20 z"/>
<path d="M19.99298 20 L4.16844 20 L4.83048 20 z"/>
<path d="M19.99298 20 L4.83048 20 L19.99298 20 z"/>
<path d="M19.99298 20 L4.83048 20 L5.5332 20 z"/>
<path d="M19.99298 20 L5.5332 20 L19.99298 20 z"/>
<path d="M19.99298 20 L5.5332 20 L6.27444 20 z"/>
<path d="M19.99298 20 L6.27444 20 L19.99298 20 z"/>
<path d="M19.99298 20 L6.27444 20 L7.05186 20 z"/>
<path d="M19.99298 20 L7.05186 20 L19.99298 20 z"/>
<path d="M19.99298 20 L7.05186 20 L7.86312 20 z"/>
<path d="M19.99298 20 L7.86312 20 L19.99298 20 z"/>
<path d="M19.99298 20 L7.86312 20 L8.7057 20 z"/>
<path d="M19.99298 20 L8.7057 20 L19.99298 20 z"/>
<path d="M19.99298 20 L8.7057 20 L9.5769 20 z"/>
<path d="M19.99298 20 L9.5769 20 L19.99298 20 z"/>
<path d="M19.99298 20 L9.5769 20 L10.4742 20 z"/>
<path d="M19.99298 20 L10.4742 20 L19.99298 20 z"/>
<path d="M19.99298 20 L10.4742 20 L11.39472 20 z"/>
<path d="M19.99298 20 L11.39472 20 L19.99298 20 z"/>
<path d="M19.99298 20 L11.39472 20 L12.33558 20 z"/>
<path d="M19.99298 20 L12.33558 20 L19.99298 20 z"/>
<path d="M19.99298 20 L12.33558 20 L13.2939 20 z"/>
<path d="M19.99298 20 L13.2939 20 L19.99298 20 z"/>
<path d="M19.99298 20 L13.2939 20 L14.2668 20 z"/>
<path d="M19.99298 20 L14.2668 20 L19.99298 20 z"/>
<path d="M19.99298 20 L14.2668 20 L15.2514 20 z"/>
<path d="M19.99298 20 L15.2514 20 L19.99298 20 z"/>
<path d="M19.99298 20 L15.2514 20 L16.24428 20 z"/>
<path d="M19.99298 20 L16.24428 20 L19.99298 20 z"/>
<path d="M19.99298 20 L16.24428 20 L17.24256 20 z"/>
<path d="M19.99298 20 L17.24256 20 L19.99298 20 z"/>
<path d="M19.99298 20 L17.24256 20 L18.24318 20 z"/>
<path d="M19.99298 20 L18.24318 20 L19.99298 20 z"/>
<path d="M19.99298 20 L18.24318 20 L19.24308 20 z"/>
<path d="M19.99298 20 L19.24308 20 L19.99298 20 z"/>
<path d="M19.99298 20 L19.24308 20 L19.99298 20 z"/>
<path d="M19.99298 20 L19.99298 20 L20.73568 20 z"/>
<path d="M19.99298 20 L21.59476 20 L20.73568 20 z"/>
<path d="M19.99298 20 L20.73568 20 L19.99298 20 z"/>
<path d="M19.99298 20 L22.39365 20 L21.59476 20 z"/>
<path d="M19.99298 20 L21.59476 20 L19.99298 20 z"/>
<path d="M19.99298 20 L23.13962 20 L22.39365 20 z"/>
<path d="M19.99298 20 L22.39365 20 L19.99298 20 z"/>
<path d="M19.99298 20 L23.83877 20 L23.13962 20 z"/>
<path d="M19.99298 20 L23.13962 20 L19.99298 20 z"/>
<path d="M19.99298 20 L24.49627 20 L23.83877 20 z"/>
<path d="M19.99298 20 L23.83877 20 L19.99298 20 z"/>
<path d="M19.99298 20 L25.11668 20 L24.49627 20 z"/>
<path d="M19.99298 20 L24.49627 20 L19.99298 20 z"/>
<path d="M19.99298 20 L25.70396 20 L25.11668 20 z"/>
<path d="M19.99298 20 L25.11668 20 L19.99298 20 z"/>
<path d="M19.99298 20 L26.26167 20 L25.70396 20 z"/>
<path d="M19.99298 20 L25.70396 20 L19.99298 20 z"/>
<path d="M19.99298 20 L20.23902 20 L26.79247 20 z"/>
<path d="M19.99298 20 L26.79247 20 L26.26167 20 z"/>
<path d="M19.99298 20 L26.26167 20 L19.99298 20 z"/>
<path d="M26.79247 20 L20.23902 20 L21.22812 20 z"/>
<path d="M26.79247 20 L21.22812 20 L27.29942 20 z"/>
<path d="M27.29942 20 L21.22812 20 L22.20714 20 z"/>
<path d="M27.29942 20 L22.20714 20 L27.78451 20 z"/>
<path d="M27.78451 20 L22.20714 20 L23.1732 20 z"/>
<path d="M27.78451 20 L23.1732 20 L28.24994 20 z"/>
<path d="M28.24994 20 L23.1732 20 L24.12324 20 z"/>
<path d="M28.24994 20 L24.12324 20 L28.69763 20 z"/>
<path d="M28.69763 20 L24.12324 20 L25.0542 20 z"/>
<path d="M28.69763 20 L25.0542 20 L29.12906 20 z"/>
<path d="M29.12906 20 L25.0542 20 L25.96356 20 z"/>
<path d="M29.12906 20 L25.96356 20 L29.546 20 z"/>
<path d="M29.546 20 L25.96356 20 L26.84808 20 z"/>
<path d="M29.546 20 L26.84808 20 L29.94943 20 z"/>
<path d="M29.94943 20 L26.84808 20 L27.70542 20 z"/>
<path d="M29.94943 20 L27.70542 20 L30.34098 20 z"/>
<path d="M30.34098 20 L27.70542 20 L28.53252 20 z"/>
<path d="M30.34098 20 L28.53252 20 L30.72135 20 z"/>
<path d="M30.72135 20 L28.53252 20 L29.32722 20 z"/>
<path d="M30.72135 20 L29.32722 20 L31.09186 20 z"/>
<path d="M31.09186 20 L29.32722 20 L30.08682 20 z"/>
<path d="M31.09186 20 L30.08682 20 L31.45337 20 z"/>
<path d="M31.45337 20 L30.08682 20 L30.80898 20 z"/>
<path d="M31.45337 20 L30.80898 20 L31.80668 20 z"/>
<path d="M31.80668 20 L30.80898 20 L31.49172 20 z"/>
<path d="M31.80668 20 L31.49172 20 L32.15275 20 z"/>
<path d="M32.15275 20 L31.49172 20 L32.13252 20 z"/>
<path d="M32.15275 20 L32.13252 20 L32.49205 20 z"/>
<path d="M32.49205 20 L32.13252 20 L32.72976 20 z"/>
<path d="M32.49205 20 L32.72976 20 L32.82559 20 z"/>
<path d="M32.82559 20 L32.72976 20 L32.95161 20 z"/>
<path d="M35.96508 20 L35.88174 20 L35.74314 20 z"/>
<path d="M35.96508 20 L35.74314 20 L35.54964 20 z"/>
<path d="M35.96508 20 L35.54964 20 L35.30178 20 z"/>
<path d="M35.96508 20 L35.30178 20 L35.00046 20 z"/>
<path d="M35.96508 20 L35.00046 20 L34.64658 20 z"/>
<path d="M35.96508 20 L34.64658 20 L34.2414 20 z"/>
<path d="M35.96508 20 L34.2414 20 L33.78582 20 z"/>
<path d="M35.96508 20 L33.78582 20 L33.28146 20 z"/>
<path d="M33.28146 20 L32.95161 20 L32.84613 20 z"/>
<path d="M33.28146 20 L32.84613 20 L35.96508 20 z"/>
<path d="M32.84613 20 L32.56299 20 L35.96508 20 z"/>
<path d="M32.56299 20 L32.27399 20 L35.96508 20 z"/>
<path d="M32.27399 20 L31.97817 20 L35.96508 20 z"/>
<path d="M31.97817 20 L31.67507 20 L35.96508 20 z"/>
<path d="M31.67507 20 L31.36377 20 L35.96508 20 z"/>
<path d="M31.36377 20 L31.04352 20 L35.96508 20 z"/>
<path d="M31.04352 20 L30.71347 20 L35.96508 20 z"/>
<path d="M30.71347 20 L30.37233 20 L35.96508 20 z"/>
<path d="M30.37233 20 L30.0194 20 L35.96508 20 z"/>
<path d="M29.99298 20 L29.99298 20 L35.96508 20 z"/>
<path d="M29.99298 20 L35.96508 20 L30.0194 20 z"/>
<path d="M29.99298 20 L35.96508 20 L29.99298 20 z"/>
<path d="M29.99298 20 L35.96508 20 L29.99298 20 z"/>
<path d="M29.99298 20 L35.96508 20 L29.99298 20 z"/>
<path d="M29.99298 20 L35.96508 20 L29.99298 20 z"/>
<path d="M29.99298 20 L35.96508 20 L29.99298 20 z"/>
<path d="M29.99298 20 L35.96508 20 L29.99298 20 z"/>
<path d="M29.99298 20 L35.96508 20 L29.99298 20 z"/>
<path d="M29.99298 20 L35.96508 20 L29.99298 20 z"/>
<path d="M29.99298 20 L35.96508 20 L29.99298 20 z"/>
<path d="M29.99298 20 L35.96508 20 L29.99298 20 z"/>
<path d="M29.99298 20 L35.96508 20 L29.99298 20 z"/>
<path d="M29.99298 20 L35.96508 20 L29.99298 20 z"/>
<path d="M29.99298 20 L35.96508 20 L29.99298 20 z"/>
<path d="M29.99298 20 L35.96508 20 L29.99298 20 z"/>
<path d="M29.99298 20 L35.96508 20 L29.99298 20 z"/>
<path d="M29.99298 20 L35.96508 20 L29.99298 20 z"/>
<path d="M29.99298 20 L35.96508 20 L29.99298 20 z"/>
<path d="M29.99298 20 L35.96508 20 L29.99298 20 z"/>
<path d="M29.99298 20 L35.96508 20 L29.99298 20 z"/>
<path d="M29.99298 20 L35.96508 20 L29.99298 20 z"/>
<path d="M29.99298 20 L35.96508 20 L29.99298 20 z"/>
<path d="M29.99298 20 L35.96508 20 L29.99298 20 z"/>
<path d="M29.99298 20 L35.96508 20 L29.99298 20 z"/>
<path d="M29.99298 20 L35.96508 20 L29.99298 20 z"/>
<path d="M29.99298 20 L35.96508 20 L29.99298 20 z"/>
<path d="M29.99298 20 L35.96508 20 L29.99298 20 z"/>
<path d="M29.99298 20 L35.96508 20 L29.99298 20 z"/>
<path d="M29.99298 20 L35.96508 20 L29.99298 20 z"/>
<path d="M29.99298 20 L35.96508 20 L29.99298 20 z"/>
<path d="M29.99298 20 L35.96508 20 L29.99298 20 z"/>
<path d="M29.99298 20 L35.96508 20 L29.99298 20 z"/>
<path d="M29.99298 20 L35.96508 20 L29.99298 20 z"/>
<path d="M29.99298 20 L35.96508 20 L29.99298 20 z"/>
<path d="M29.99298 20 L35.96508 20 L29.99298 20 z"/>
<path d="M29.99298 20 L35.96508 20 L29.99298 20 z"/>
<path d="M29.99298 20 L35.96508 20 L29.99298 20 z"/>
<path d="M29.99298 20 L35.96508 20 L29.99298 20 z"/>
<path d="M29.99298 20 L35.96508 20 L29.99298 20 z"/>
<path d="M29.99298 20 L35.96508 20 L29.99298 20 z"/>
<path d="M29.99298 20 L35.96508 20 L29.99298 20 z"/>
<path d="M29.99298 20 L35.96508 20 L29.99298 20 z"/>
<path d="M29.99298 20 L35.96508 20 L29.99298 20 z"/>
<path d="M29.99298 20 L35.96508 20 L29.99298 20 z"/>
<path d="M29.99298 20 L35.96508 20 L29.99298 20 z"/>
<path d="M29.99298 20 L35.96508 20 L29.99298 20 z"/>
<path d="M29.99298 20 L35.96508 20 L29.99298 20 z"/>
<path d="M29.99298 20 L35.96508 20 L29.99298 20 z"/>
<path d="M29.99298 20 L35.96508 20 L29.99298 20 z"/>
<path d="M29.99298 20 L35.96508 20 L29.99298 20 z"/>
<path d="M29.99298 20 L35.96508 20 L29.99298 20 z"/>
<path d="M29.99298 20 L35.96508 20 L29.99298 20 z"/>
<path d="M29.99298 20 L35.96508 20 L29.99298 20 z"/>
<path d="M29.99298 20 L35.96508 20 L29.99298 20 z"/>
<path d="M29.99298 20 L35.96508 20 L29.99298 20 z"/>
<path d="M29.99298 20 L35.96508 20 L29.99298 20 z"/>
<path d="M29.99298 20 L35.96508 20 L29.99298 20 z"/>
<path d="M29.99298 20 L35.96508 20 L29.99298 20 z"/>
<path d="M29.99298 20 L35.96508 20 L29.99298 20 z"/>
<path d="M29.99298 20 L35.96508 20 L29.99298 20 z"/>
<path d="M29.99298 20 L35.96508 20 L29.99298 20 z"/>
<path d="M29.99298 20 L35.96508 20 L29.99298 20 z"/>
<path d="M29.99298 20 L35.96508 20 L29.99298 20 z"/>
<path d="M29.99298 20 L35.96508 20 L29.99298 20 z"/>
<path d="M29.99298 20 L35.96508 20 L29.99298 20 z"/>
<path d="M29.99298 20 L35.96508 20 L29.99298 20 z"/>
<path d="M29.99298 20 L35.96508 20 L29.99298 20 z"/>
<path d="M29.99298 20 L35.96508 20 L29.99298 20 z"/>
<path d="M29.99298 20 L35.96508 20 L29.99298 20 z"/>
<path d="M29.99298 20 L35.96508 20 L29.99298 20 z"/>
<path d="M29.99298 20 L35.96508 20 L29.99298 20 z"/>
<path d="M29.99298 20 L35.96508 20 L29.99298 20 z"/>
<path d="M29.99298 20 L35.96508 20 L29.99298 20 z"/>
<path d="M29.99298 20 L35.96508 20 L29.99298 20 z"/>
<path d="M29.99298 20 L30.34098 20 L35.96508 20 z"/>
<path d="M29.99298 20 L35.96508 20 L29.99298 20 z"/>
<path d="M30.34098 20 L30.72135 20 L35.96508 20 z"/>
<path d="M30.72135 20 L31.09186 20 L35.96508 20 z"/>
<path d="M31.09186 20 L31.45337 20 L35.96508 20 z"/>
<path d="M31.45337 20 L31.80668 20 L35.96508 20 z"/>
<path d="M31.80668 20 L32.15275 20 L35.96508 20 z"/>
<path d="M32.15275 20 L32.49205 20 L35.96508 20 z"/>
<path d="M32.49205 20 L32.82559 20 L35.96508 20 z"/>
<path d="M32.82559 20 L32.95161 20 L33.28146 20 z"/>
<path d="M32.82559 20 L33.28146 20 L35.96508 20 z"/>
<path d="M35.96508 20 L33.28146 20 L33.78582 20 z"/>
<path d="M35.96508 20 L33.78582 20 L34.2414 20 z"/>
<path d="M35.96508 20 L34.2414 20 L34.64658 20 z"/>
<path d="M35.96508 20 L34.64658 20 L35.00046 20 z"/>
<path d="M35.96508 20 L35.00046 20 L35.30178 20 z"/>
<path d="M35.96508 20 L35.30178 20 L35.54964 20 z"/>
<path d="M35.96508 20 L35.54964 20 L35.74314 20 z"/>
<path d="M35.96508 20 L35.74314 20 L35.88174 20 z"/>
<path d="M35.96508 20 L35.88174 20 L35.96508 20 z"/>
<path d="M35.96508 20 L35.96508 20 L35.99298 20 z"/>
<path d="M29.99298 20 L29.65307 20 L29.99298 20 z"/>
<path d="M29.27232 20 L29.99298 20 L29.99298 20 z"/>
<path d="M29.27232 20 L29.99298 20 L29.65307 20 z"/>
<path d="M28.87539 20 L29.99298 20 L29.99298 20 z"/>
<path d="M28.87539 20 L29.99298 20 L29.27232 20 z"/>
<path d="M28.46075 20 L29.99298 20 L29.99298 20 z"/>
<path d="M28.46075 20 L29.99298 20 L28.87539 20 z"/>
<path d="M28.02642 20 L29.99298 20 L29.99298 20 z"/>
<path d="M28.02642 20 L29.99298 20 L28.46075 20 z"/>
<path d="M27.57012 20 L29.99298 20 L29.99298 20 z"/>
<path d="M27.57012 20 L29.99298 20 L28.02642 20 z"/>
<path d="M27.08973 20 L29.99298 20 L29.99298 20 z"/>
<path d="M27.08973 20 L29.99298 20 L27.57012 20 z"/>
<path d="M26.58203 20 L29.99298 20 L29.99298 20 z"/>
<path d="M26.58203 20 L29.99298 20 L27.08973 20 z"/>
<path d="M26.04415 20 L29.99298 20 L29.99298 20 z"/>
<path d="M26.04415 20 L29.99298 20 L26.58203 20 z"/>
<path d="M25.47225 20 L29.99298 20 L29.99298 20 z"/>
<path d="M25.47225 20 L29.99298 20 L26.04415 20 z"/>
<path d="M24.86197 20 L29.99298 20 L29.99298 20 z"/>
<path d="M24.86197 20 L29.99298 20 L25.47225 20 z"/>
<path d="M24.20828 20 L29.99298 20 L29.99298 20 z"/>
<path d="M24.20828 20 L29.99298 20 L24.86197 20 z"/>
<path d="M23.50532 20 L29.99298 20 L29.99298 20 z"/>
<path d="M23.50532 20 L29.99298 20 L24.20828 20 z"/>
<path d="M22.74616 20 L29.99298 20 L29.99298 20 z"/>
<path d="M22.74616 20 L29.99298 20 L23.50532 20 z"/>
<path d="M21.92239 20 L29.99298 20 L29.99298 20 z"/>
<path d="M21.92239 20 L29.99298 20 L22.74616 20 z"/>
<path d="M21.02379 20 L29.99298 20 L29.99298 20 z"/>
<path d="M21.02379 20 L29.99298 20 L21.92239 20 z"/>
<path d="M20.03815 20 L29.99298 20 L29.99298 20 z"/>
<path d="M20.03815 20 L29.99298 20 L21.02379 20 z"/>
<path d="M19.99298 20 L29.99298 20 L29.99298 20 z"/>
<path d="M19.99298 20 L29.99298 20 L20.03815 20 z"/>
<path d="M19.99298 20 L20.03815 20 L19.99298 20 z"/>
<path d="M29.99298 20 L29.99298 20 L19.99298 20 z"/>
<path d="M29.99298 20 L19.99298 20 L19.99298 20 z"/>
<path d="M29.99298 20 L29.99298 20 L19.99298 20 z"/>
<path d="M29.99298 20 L19.99298 20 L19.99298 20 z"/>
<path d="M29.99298 20 L29.99298 20 L19.99298 20 z"/>
<path d="M29.99298 20 L19.99298 20 L19.99298 20 z"/>
<path d="M29.99298 20 L29.99298 20 L19.99298 20 z"/>
<path d="M29.99298 20 L19.99298 20 L19.99298 20 z"/>
<path d="M29.99298 20 L29.99298 20 L19.99298 20 z"/>
<path d="M29.99298 20 L19.99298 20 L19.99298 20 z"/>
<path d="M29.99298 20 L29.99298 20 L19.99298 20 z"/>
<path d="M29.99298 20 L19.99298 20 L19.99298 20 z"/>
<path d="M29.99298 20 L29.99298 20 L19.99298 20 z"/>
<path d="M29.99298 20 L19.99298 20 L19.99298 20 z"/>
<path d="M29.99298 20 L29.99298 20 L19.99298 20 z"/>
<path d="M29.99298 20 L19.99298 20 L19.99298 20 z"/>
<path d="M19.99298 20 L29.99298 20 L29.99298 20 z"/>
<path d="M19.99298 20 L29.99298 20 L19.99298 20 z"/>
<path d="M19.99298 20 L29.99298 20 L29.99298 20 z"/>
<path d="M19.99298 20 L29.99298 20 L19.99298 20 z"/>
<path d="M19.99298 20 L29.99298 20 L29.99298 20 z"/>
<path d="M19.99298 20 L29.99298 20 L19.99298 20 z"/>
<path d="M19.99298 20 L29.99298 20 L29.99298 20 z"/>
<path d="M19.99298 20 L29.99298 20 L19.99298 20 z"/>
<path d="M19.99298 20 L29.99298 20 L29.99298 20 z"/>
<path d="M19.99298 20 L29.99298 20 L19.99298 20 z"/>
<path d="M19.99298 20 L29.99298 20 L29.99298 20 z"/>
<path d="M19.99298 20 L29.99298 20 L19.99298 20 z"/>
<path d="M19.99298 20 L29.99298 20 L29.99298 20 z"/>
<path d="M19.99298 20 L29.99298 20 L19.99298 20 z"/>
<path d="M19.99298 20 L29.99298 20 L29.99298 20 z"/>
<path d="M19.99298 20 L29.99298 20 L19.99298 20 z"/>
<path d="M19.99298 20 L29.99298 20 L29.99298 20 z"/>
<path d="M19.99298 20 L29.99298 20 L19.99298 20 z"/>
<path d="M19.99298 20 L29.99298 20 L29.99298 20 z"/>
<path d="M19.99298 20 L29.99298 20 L19.99298 20 z"/>
<path d="M19.99298 20 L29.99298 20 L29.99298 20 z"/>
<path d="M19.99298 20 L29.99298 20 L19.99298 20 z"/>
<path d="M19.99298 20 L29.99298 20 L29.99298 20 z"/>
<path d="M19.99298 20 L29.99298 20 L19.99298 20 z"/>
<path d="M19.99298 20 L29.99298 20 L29.99298 20 z"/>
<path d="M19.99298 20 L29.99298 20 L19.99298 20 z"/>
<path d="M19.99298 20 L29.99298 20 L29.99298 20 z"/>
<path d="M19.99298 20 L29.99298 20 L19.99298 20 z"/>
<path d="M19.99298 20 L29.99298 20 L29.99298 20 z"/>
<path d="M19.99298 20 L29.99298 20 L19.99298 20 z"/>
<path d="M19.99298 20 L29.99298 20 L29.99298 20 z"/>
<path d="M19.99298 20 L29.99298 20 L19.99298 20 z"/>
<path d="M19.99298 20 L29.99298 20 L29.99298 20 z"/>
<path d="M19.99298 20 L29.99298 20 L19.99298 20 z"/>
<path d="M19.99298 20 L29.99298 20 L29.99298 20 z"/>
<path d="M19.99298 20 L29.99298 20 L19.99298 20 z"/>
<path d="M19.99298 20 L29.99298 20 L29.99298 20 z"/>
<path d="M19.99298 20 L29.99298 20 L19.99298 20 z"/>
<path d="M19.99298 20 L29.99298 20 L29.99298 20 z"/>
<path d="M19.99298 20 L29.99298 20 L19.99298 20 z"/>
<path d="M19.99298 20 L29.99298 20 L29.99298 20 z"/>
<path d="M19.99298 20 L29.99298 20 L19.99298 20 z"/>
<path d="M19.99298 20 L29.99298 20 L29.99298 20 z"/>
<path d="M19.99298 20 L29.99298 20 L19.99298 20 z"/>
<path d="M19.99298 20 L29.99298 20 L29.99298 20 z"/>
<path d="M19.99298 20 L29.99298 20 L19.99298 20 z"/>
<path d="M19.99298 20 L29.99298 20 L29.99298 20 z"/>
<path d="M19.99298 20 L29.99298 20 L19.99298 20 z"/>
<path d="M19.99298 20 L29.99298 20 L29.99298 20 z"/>
<path d="M19.99298 20 L29.99298 20 L19.99298 20 z"/>
<path d="M19.99298 20 L29.99298 20 L29.99298 20 z"/>
<path d="M19.99298 20 L29.99298 20 L19.99298 20 z"/>
<path d="M19.99298 20 L29.99298 20 L29.99298 20 z"/>
<path d="M19.99298 20 L29.99298 20 L19.99298 20 z"/>
<path d="M19.99298 20 L29.99298 20 L29.99298 20 z"/>
<path d="M19.99298 20 L29.99298 20 L19.99298 20 z"/>
<path d="M19.99298 20 L29.99298 20 L29.99298 20 z"/>
<path d="M19.99298 20 L29.99298 20 L19.99298 20 z"/>
<path d="M19.99298 20 L29.99298 20 L29.99298 20 z"/>
<path d="M19.99298 20 L29.99298 20 L19.99298 20 z"/>
<path d="M19.99298 20 L29.99298 20 L29.99298 20 z"/>
<path d="M19.99298 20 L29.99298 20 L19.99298 20 z"/>
<path d="M20.73568 20 L29.99298 20 L29.99298 20 z"/>
<path d="M20.73568 20 L29.99298 20 L19.99298 20 z"/>
<path d="M20.73568 20 L19.99298 20 L19.99298 20 z"/>
<path d="M29.99298 20 L29.99298 20 L20.73568 20 z"/>
<path d="M29.99298 20 L20.73568 20 L21.59476 20 z"/>
<path d="M29.99298 20 L29.99298 20 L21.59476 20 z"/>
<path d="M29.99298 20 L21.59476 20 L22.39365 20 z"/>
<path d="M29.99298 20 L29.99298 20 L22.39365 20 z"/>
<path d="M29.99298 20 L22.39365 20 L23.13962 20 z"/>
<path d="M29.99298 20 L29.99298 20 L23.13962 20 z"/>
<path d="M29.99298 20 L23.13962 20 L23.83877 20 z"/>
<path d="M29.99298 20 L29.99298 20 L23.83877 20 z"/>
<path d="M29.99298 20 L23.83877 20 L24.49627 20 z"/>
<path d="M29.99298 20 L29.99298 20 L24.49627 20 z"/>
<path d="M29.99298 20 L24.49627 20 L25.11668 20 z"/>
<path d="M29.99298 20 L29.99298 20 L25.11668 20 z"/>
<path d="M29.99298 20 L25.11668 20 L25.70396 20 z"/>
<path d="M29.99298 20 L29.99298 20 L25.70396 20 z"/>
<path d="M29.99298 20 L25.70396 20 L26.26167 20 z"/>
<path d="M29.99298 20 L29.99298 20 L26.26167 20 z"/>
<path d="M29.99298 20 L26.26167 20 L26.79247 20 z"/>
<path d="M27.29942 20 L29.99298 20 L29.99298 20 z"/>
<path d="M27.29942 20 L29.99298 20 L26.79247 20 z"/>
<path d="M27.78451 20 L29.99298 20 L29.99298 20 z"/>
<path d="M27.78451 20 L29.99298 20 L27.29942 20 z"/>
<path d="M28.24994 20 L29.99298 20 L29.99298 20 z"/>
<path d="M28.24994 20 L29.99298 20 L27.78451 20 z"/>
<path d="M28.69763 20 L29.99298 20 L29.99298 20 z"/>
<path d="M28.69763 20 L29.99298 20 L28.24994 20 z"/>
<path d="M29.12906 20 L29.99298 20 L29.99298 20 z"/>
<path d="M29.12906 20 L29.99298 20 L28.69763 20 z"/>
<path d="M29.546 20 L29.99298 20 L29.99298 20 z"/>
<path d="M29.546 20 L29.99298 20 L29.12906 20 z"/>
<path d="M29.94943 20 L29.99298 20 L29.99298 20 z"/>
<path d="M29.94943 20 L29.99298 20 L29.546 20 z"/>
<path d="M29.99298 20 L29.99298 20 L29.94943 20 z"/>
<path d="M19.99298 12.5 L29.99298 7.5 L29.99298 12.5 z"/>
<path d="M19.99298 7.5 L29.99298 7.5 L19.99298 12.5 z"/>
<path d="M19.99298 12.5 L19.99298 7.5 L19.99298 12.5 z"/>
<path d="M19.99298 7.5 L19.99298 7.5 L19.99298 12.5 z"/>
<path d="M29.99298 12.5 L19.99298 7.5 L19.99298 12.5 z"/>
<path d="M29.99298 7.5 L19.99298 7.5 L29.99298 12.5 z"/>
<path d="M29.99298 12.5 L29.99298 7.5 L29.99298 12.5 z"/>
<path d="M29.99298 7.5 L29.99298 7.5 L29.99298 12.5 z"/>
<path d="M19.99298 7.5 L19.99298 7.5 L29.99298 7.5 z"/>
<path d="M29.99298 7.5 L19.99298 7.5 L29.99298 7.5 z"/>
<path d="M19.99298 12.5 L19.99298 12.5 L29.99298 12.5 z"/>
<path d="M29.99298 12.5 L19.99298 12.5 L29.99298 12.5 z"/>
</svg>