solid JSxCAD
facet normal 0.9884694875662375 -0.15142018409228006 0
outer loop
vertex 9.9487 -1.0117 2.5
vertex 9.9487 -1.0117 10
vertex 9.89118 -1.38719 2.5
endloop
endfacet
facet normal 0.9884673664940293 -0.15143402978146953 7.094562542886006e-7
outer loop
vertex 9.89118 -1.38719 2.5
vertex 9.9487 -1.0117 10
vertex 9.7953 -2.013 10
endloop
endfacet
facet normal 0.988466093748823 -0.15144233724075712 0
outer loop
vertex 9.89118 -1.38719 2.5
vertex 9.7953 -2.013 10
vertex 9.7953 -2.013 2.5
endloop
endfacet
facet normal 0.9884673664940293 -0.15143402978146953 7.094562542886006e-7
outer loop
vertex 9.85282 -1.63751 -2.5
vertex 9.7953 -2.013 -10
vertex 9.9487 -1.0117 -10
endloop
endfacet
facet normal 0.988466093748823 -0.15144233724075712 0
outer loop
vertex 9.85282 -1.63751 -2.5
vertex 9.9487 -1.0117 -10
vertex 9.9487 -1.0117 -2.5
endloop
endfacet
facet normal 0.9884694875662375 -0.15142018409228006 0
outer loop
vertex 9.7953 -2.013 -2.5
vertex 9.7953 -2.013 -10
vertex 9.85282 -1.63751 -2.5
endloop
endfacet
facet normal 0.9680766745513063 -0.2506542482976983 0
outer loop
vertex 9.7953 -2.013 2.5
vertex 9.7953 -2.013 10
vertex 9.70009 -2.38072 2.5
endloop
endfacet
facet normal 0.9680759045257205 -0.2506572222711404 1.5558715335460992e-7
outer loop
vertex 9.70009 -2.38072 2.5
vertex 9.7953 -2.013 10
vertex 9.5414 -2.9936 10
endloop
endfacet
facet normal 0.9680754425166419 -0.2506590066129846 0
outer loop
vertex 9.70009 -2.38072 2.5
vertex 9.5414 -2.9936 10
vertex 9.5414 -2.9936 2.5
endloop
endfacet
facet normal 0.968075904525616 -0.25065722227111337 4.897967830360777e-7
outer loop
vertex 9.63661 -2.62587 -2.5
vertex 9.5414 -2.9936 -10
vertex 9.7953 -2.013 -10
endloop
endfacet
facet normal 0.9680744500627392 -0.25066283955888863 0
outer loop
vertex 9.63661 -2.62587 -2.5
vertex 9.7953 -2.013 -10
vertex 9.7953 -2.013 -2.5
endloop
endfacet
facet normal 0.9680783285152654 -0.2506478602723146 0
outer loop
vertex 9.5414 -2.9936 -2.5
vertex 9.5414 -2.9936 -10
vertex 9.63661 -2.62587 -2.5
endloop
endfacet
facet normal 0.9377697160948361 -0.3472577710799436 0
outer loop
vertex 9.5414 -2.9936 2.5
vertex 9.5414 -2.9936 10
vertex 9.40948 -3.34985 2.5
endloop
endfacet
facet normal 0.9377654299703212 -0.34726934554058736 6.251769533790147e-7
outer loop
vertex 9.40948 -3.34985 2.5
vertex 9.5414 -2.9936 10
vertex 9.1896 -3.9436 10
endloop
endfacet
facet normal 0.9377628582461406 -0.34727629014090317 0
outer loop
vertex 9.40948 -3.34985 2.5
vertex 9.1896 -3.9436 10
vertex 9.1896 -3.9436 2.5
endloop
endfacet
facet normal 0.9377654299703212 -0.34726934554058736 -6.251769532018402e-7
outer loop
vertex 9.32153 -3.58735 -2.5
vertex 9.1896 -3.9436 -10
vertex 9.5414 -2.9936 -10
endloop
endfacet
facet normal 0.9377680016575443 -0.34726240088327487 0
outer loop
vertex 9.32153 -3.58735 -2.5
vertex 9.5414 -2.9936 -10
vertex 9.5414 -2.9936 -2.5
endloop
endfacet
facet normal 0.9377611437424981 -0.34728091984265697 0
outer loop
vertex 9.1896 -3.9436 -2.5
vertex 9.1896 -3.9436 -10
vertex 9.32153 -3.58735 -2.5
endloop
endfacet
facet normal 0.8977923562929851 -0.4404189879897205 0
outer loop
vertex 9.1896 -3.9436 2.5
vertex 9.1896 -3.9436 10
vertex 9.02231 -4.28462 2.5
endloop
endfacet
facet normal 0.8977975118871384 -0.4404084781755594 -5.928714894843107e-7
outer loop
vertex 9.02231 -4.28462 2.5
vertex 9.1896 -3.9436 10
vertex 8.7435 -4.853 10
endloop
endfacet
facet normal 0.8978006051406845 -0.44040217234820805 0
outer loop
vertex 9.02231 -4.28462 2.5
vertex 8.7435 -4.853 10
vertex 8.7435 -4.853 2.5
endloop
endfacet
facet normal 0.8977975118872962 -0.4404084781756368 -5.660185272514349e-9
outer loop
vertex 8.91079 -4.51197 -2.5
vertex 8.7435 -4.853 -10
vertex 9.1896 -3.9436 -10
endloop
endfacet
facet normal 0.8977975414194292 -0.44040841797271346 0
outer loop
vertex 8.91079 -4.51197 -2.5
vertex 9.1896 -3.9436 -10
vertex 9.1896 -3.9436 -2.5
endloop
endfacet
facet normal 0.8977974626682244 -0.4404085785114753 0
outer loop
vertex 8.7435 -4.853 -2.5
vertex 8.7435 -4.853 -10
vertex 8.91079 -4.51197 -2.5
endloop
endfacet
facet normal 0.8486291598302323 -0.528988231519222 0
outer loop
vertex 8.7435 -4.853 2.5
vertex 8.7435 -4.853 10
vertex 8.54254 -5.17539 2.5
endloop
endfacet
facet normal 0.8486243640960397 -0.5289959249960073 4.59206763220038e-7
outer loop
vertex 8.54254 -5.17539 2.5
vertex 8.7435 -4.853 10
vertex 8.2076 -5.7127 10
endloop
endfacet
facet normal 0.8486214866125046 -0.5290005410768338 0
outer loop
vertex 8.54254 -5.17539 2.5
vertex 8.2076 -5.7127 10
vertex 8.2076 -5.7127 2.5
endloop
endfacet
facet normal 0.8486243640960397 -0.5289959249960073 4.592067629570172e-7
outer loop
vertex 8.40856 -5.39031 -2.5
vertex 8.2076 -5.7127 -10
vertex 8.7435 -4.853 -10
endloop
endfacet
facet normal 0.8486214866125062 -0.5290005410768311 0
outer loop
vertex 8.40856 -5.39031 -2.5
vertex 8.7435 -4.853 -10
vertex 8.7435 -4.853 -2.5
endloop
endfacet
facet normal 0.8486291598302295 -0.5289882315192264 0
outer loop
vertex 8.2076 -5.7127 -2.5
vertex 8.2076 -5.7127 -10
vertex 8.40856 -5.39031 -2.5
endloop
endfacet
facet normal 0.7907804346154622 -0.612099913600207 0
outer loop
vertex 8.2076 -5.7127 2.5
vertex 8.2076 -5.7127 10
vertex 7.9751 -6.01307 2.5
endloop
endfacet
facet normal 0.7907853664354313 -0.6120935420598834 -4.0806236130643895e-7
outer loop
vertex 7.9751 -6.01307 2.5
vertex 8.2076 -5.7127 10
vertex 7.5876 -6.5137 10
endloop
endfacet
facet normal 0.7907883254535935 -0.6120897191803678 0
outer loop
vertex 7.9751 -6.01307 2.5
vertex 7.5876 -6.5137 10
vertex 7.5876 -6.5137 2.5
endloop
endfacet
facet normal 0.7907853664354313 -0.6120935420598834 4.080623613155728e-7
outer loop
vertex 7.8201 -6.21332 -2.5
vertex 7.5876 -6.5137 -10
vertex 8.2076 -5.7127 -10
endloop
endfacet
facet normal 0.7907824073619573 -0.6120973649729488 0
outer loop
vertex 7.8201 -6.21332 -2.5
vertex 8.2076 -5.7127 -10
vertex 8.2076 -5.7127 -2.5
endloop
endfacet
facet normal 0.7907902981015233 -0.6120871706125719 0
outer loop
vertex 7.5876 -6.5137 -2.5
vertex 7.5876 -6.5137 -10
vertex 7.8201 -6.21332 -2.5
endloop
endfacet
facet normal 0.7247943321980608 -0.6889652937656346 0
outer loop
vertex 7.5876 -6.5137 2.5
vertex 7.5876 -6.5137 10
vertex 7.32589 -6.78902 2.5
endloop
endfacet
facet normal 0.7247972936935565 -0.6889621782467082 -2.1770902093377479e-7
outer loop
vertex 7.32589 -6.78902 2.5
vertex 7.5876 -6.5137 10
vertex 6.8897 -7.2479 10
endloop
endfacet
facet normal 0.7247990705444397 -0.6889603089713634 0
outer loop
vertex 7.32589 -6.78902 2.5
vertex 6.8897 -7.2479 10
vertex 6.8897 -7.2479 2.5
endloop
endfacet
facet normal 0.7247972936933956 -0.6889621782465554 7.009072166923639e-7
outer loop
vertex 7.15141 -6.97257 -2.5
vertex 6.8897 -7.2479 -10
vertex 7.5876 -6.5137 -10
endloop
endfacet
facet normal 0.7247915730809124 -0.6889681963566217 0
outer loop
vertex 7.15141 -6.97257 -2.5
vertex 7.5876 -6.5137 -10
vertex 7.5876 -6.5137 -2.5
endloop
endfacet
facet normal 0.724806827860601 -0.6889521480383475 0
outer loop
vertex 6.8897 -7.2479 -2.5
vertex 6.8897 -7.2479 -10
vertex 7.15141 -6.97257 -2.5
endloop
endfacet
facet normal 0.6514198353314656 -0.7587174692444653 0
outer loop
vertex 6.8897 -7.2479 2.5
vertex 6.8897 -7.2479 10
vertex 6.60148 -7.49536 2.5
endloop
endfacet
facet normal 0.6514171184732218 -0.7587198018768271 1.8137147830125765e-7
outer loop
vertex 6.60148 -7.49536 2.5
vertex 6.8897 -7.2479 10
vertex 6.1211 -7.9078 10
endloop
endfacet
facet normal 0.6514154883915102 -0.7587212014196323 0
outer loop
vertex 6.60148 -7.49536 2.5
vertex 6.1211 -7.9078 10
vertex 6.1211 -7.9078 2.5
endloop
endfacet
facet normal 0.6514171184730787 -0.7587198018766604 -6.871846795527684e-7
outer loop
vertex 6.40933 -7.66034 -2.5
vertex 6.1211 -7.9078 -10
vertex 6.8897 -7.2479 -10
endloop
endfacet
facet normal 0.6514232946133421 -0.7587144991596632 0
outer loop
vertex 6.40933 -7.66034 -2.5
vertex 6.8897 -7.2479 -10
vertex 6.8897 -7.2479 -2.5
endloop
endfacet
facet normal 0.6514068249043271 -0.7587286395464872 0
outer loop
vertex 6.1211 -7.9078 -2.5
vertex 6.1211 -7.9078 -10
vertex 6.40933 -7.66034 -2.5
endloop
endfacet
facet normal 0.5711686089823745 -0.820832760136399 0
outer loop
vertex 6.1211 -7.9078 2.5
vertex 6.1211 -7.9078 10
vertex 5.80929 -8.12477 2.5
endloop
endfacet
facet normal 0.5711743917810393 -0.820828736201062 -3.568276935680847e-7
outer loop
vertex 5.80929 -8.12477 2.5
vertex 6.1211 -7.9078 10
vertex 5.2896 -8.4864 10
endloop
endfacet
facet normal 0.5711778613749652 -0.8208263218702974 0
outer loop
vertex 5.80929 -8.12477 2.5
vertex 5.2896 -8.4864 10
vertex 5.2896 -8.4864 2.5
endloop
endfacet
facet normal 0.5711743917809202 -0.8208287362008909 7.376106213932327e-7
outer loop
vertex 5.60141 -8.26942 -2.5
vertex 5.2896 -8.4864 -10
vertex 6.1211 -7.9078 -10
endloop
endfacet
facet normal 0.5711672195688765 -0.8208337269447199 0
outer loop
vertex 5.60141 -8.26942 -2.5
vertex 6.1211 -7.9078 -10
vertex 6.1211 -7.9078 -2.5
endloop
endfacet
facet normal 0.5711863453306976 -0.8208204181840028 0
outer loop
vertex 5.2896 -8.4864 -2.5
vertex 5.2896 -8.4864 -10
vertex 5.60141 -8.26942 -2.5
endloop
endfacet
facet normal 0.48529644962151264 -0.874349676036284 0
outer loop
vertex 5.2896 -8.4864 2.5
vertex 5.2896 -8.4864 10
vertex 4.95746 -8.67075 2.5
endloop
endfacet
facet normal 0.4852992421548174 -0.8743481260710368 -1.6176641401943211e-7
outer loop
vertex 4.95746 -8.67075 2.5
vertex 5.2896 -8.4864 10
vertex 4.4039 -8.978 10
endloop
endfacet
facet normal 0.4853009176878606 -0.8743471960790635 0
outer loop
vertex 4.95746 -8.67075 2.5
vertex 4.4039 -8.978 10
vertex 4.4039 -8.978 2.5
endloop
endfacet
facet normal 0.4852992421548174 -0.8743481260710368 -1.6176641401943211e-7
outer loop
vertex 4.73604 -8.79365 -2.5
vertex 4.4039 -8.978 -10
vertex 5.2896 -8.4864 -10
endloop
endfacet
facet normal 0.4853009176878606 -0.8743471960790635 0
outer loop
vertex 4.73604 -8.79365 -2.5
vertex 5.2896 -8.4864 -10
vertex 5.2896 -8.4864 -2.5
endloop
endfacet
facet normal 0.48529644962151264 -0.874349676036284 0
outer loop
vertex 4.4039 -8.978 -2.5
vertex 4.4039 -8.978 -10
vertex 4.73604 -8.79365 -2.5
endloop
endfacet
facet normal 0.394402205314364 -0.918937919798267 0
outer loop
vertex 4.4039 -8.978 2.5
vertex 4.4039 -8.978 10
vertex 4.05485 -9.12781 2.5
endloop
endfacet
facet normal 0.39440776319470916 -0.918935534372054 -3.063118447262753e-7
outer loop
vertex 4.05485 -9.12781 2.5
vertex 4.4039 -8.978 10
vertex 3.4731 -9.3775 10
endloop
endfacet
facet normal 0.3944110979021704 -0.9189341031062047 0
outer loop
vertex 4.05485 -9.12781 2.5
vertex 3.4731 -9.3775 10
vertex 3.4731 -9.3775 2.5
endloop
endfacet
facet normal 0.39440776319470916 -0.918935534372054 -3.063118449454896e-7
outer loop
vertex 3.82215 -9.22769 -2.5
vertex 3.4731 -9.3775 -10
vertex 4.4039 -8.978 -10
endloop
endfacet
facet normal 0.3944110979021727 -0.9189341031062037 0
outer loop
vertex 3.82215 -9.22769 -2.5
vertex 4.4039 -8.978 -10
vertex 4.4039 -8.978 -2.5
endloop
endfacet
facet normal 0.39440220531436004 -0.9189379197982688 0
outer loop
vertex 3.4731 -9.3775 -2.5
vertex 3.4731 -9.3775 -10
vertex 3.82215 -9.22769 -2.5
endloop
endfacet
facet normal 0.29939740038357554 -0.9541285011168866 0
outer loop
vertex 3.4731 -9.3775 2.5
vertex 3.4731 -9.3775 10
vertex 3.11063 -9.49124 2.5
endloop
endfacet
facet normal 0.2993876498633933 -0.9541315606922383 5.176356201265777e-7
outer loop
vertex 3.11063 -9.49124 2.5
vertex 3.4731 -9.3775 10
vertex 2.5065 -9.6808 10
endloop
endfacet
facet normal 0.2993817996354439 -0.9541333963587287 0
outer loop
vertex 3.11063 -9.49124 2.5
vertex 2.5065 -9.6808 10
vertex 2.5065 -9.6808 2.5
endloop
endfacet
facet normal 0.29938764986343125 -0.9541315606923594 1.1845208697181361e-7
outer loop
vertex 2.86898 -9.56706 -2.5
vertex 2.5065 -9.6808 -10
vertex 3.4731 -9.3775 -10
endloop
endfacet
facet normal 0.2993863111193126 -0.9541319807628137 0
outer loop
vertex 2.86898 -9.56706 -2.5
vertex 3.4731 -9.3775 -10
vertex 3.4731 -9.3775 -2.5
endloop
endfacet
facet normal 0.2993898810504616 -0.9541308605870531 0
outer loop
vertex 2.5065 -9.6808 -2.5
vertex 2.5065 -9.6808 -10
vertex 2.86898 -9.56706 -2.5
endloop
endfacet
facet normal 0.20129099798805022 -0.979531487053364 0
outer loop
vertex 2 -9.78489 -0.20964
vertex 1.5143 -9.8847 -10
vertex 2 -9.78489 -10
endloop
endfacet
facet normal 0.20129099798805022 -0.9795314870533641 0
outer loop
vertex 2 -9.78489 -0.20964
vertex 2 -9.78489 10
vertex 1.5143 -9.8847 10
endloop
endfacet
facet normal 0.20129099798805025 -0.9795314870533641 0
outer loop
vertex 2 -9.78489 -0.20964
vertex 1.5143 -9.8847 10
vertex 1.5143 -9.8847 -10
endloop
endfacet
facet normal 0.20128744703630752 -0.9795322167573692 0
outer loop
vertex 2.13442 -9.75726 2.5
vertex 2.5065 -9.6808 2.5
vertex 2.5065 -9.6808 10
endloop
endfacet
facet normal 0.20130149638382888 -0.9795293296033067 -7.264310700474619e-7
outer loop
vertex 2.13442 -9.75726 2.5
vertex 2.5065 -9.6808 10
vertex 2 -9.78489 10
endloop
endfacet
facet normal 0.2013403848986375 -0.9795213368829023 0
outer loop
vertex 2.13442 -9.75726 2.5
vertex 2 -9.78489 10
vertex 2 -9.78489 2.5
endloop
endfacet
facet normal 0.20130149638388198 -0.9795293296035652 0
outer loop
vertex 2 -9.78489 -2.5
vertex 2 -9.78489 -10
vertex 2.5065 -9.6808 -10
endloop
endfacet
facet normal 0.20130149638388198 -0.9795293296035652 0
outer loop
vertex 2 -9.78489 -2.5
vertex 2.5065 -9.6808 -10
vertex 2.5065 -9.6808 -2.5
endloop
endfacet
facet normal 0.10118469436460001 -0.9948676583477535 0
outer loop
vertex 1.5143 -9.8847 -10
vertex 1.5143 -9.8847 10
vertex 0.5065 -9.9872 -10
endloop
endfacet
facet normal 0.10118469436460001 -0.9948676583477535 0
outer loop
vertex 0.5065 -9.9872 -10
vertex 1.5143 -9.8847 10
vertex 0.5065 -9.9872 10
endloop
endfacet
facet normal 0 -1 0
outer loop
vertex 0.5065 -9.9872 -10
vertex 0.5065 -9.9872 10
vertex -0.5065 -9.9872 -10
endloop
endfacet
facet normal 0 -1 0
outer loop
vertex -0.5065 -9.9872 -10
vertex 0.5065 -9.9872 10
vertex -0.5065 -9.9872 10
endloop
endfacet
facet normal -0.10118469436460001 -0.9948676583477535 0
outer loop
vertex -0.5065 -9.9872 -10
vertex -0.5065 -9.9872 10
vertex -1.5143 -9.8847 -10
endloop
endfacet
facet normal -0.10118469436460001 -0.9948676583477535 0
outer loop
vertex -1.5143 -9.8847 -10
vertex -0.5065 -9.9872 10
vertex -1.5143 -9.8847 10
endloop
endfacet
facet normal -0.2012963572362749 -0.9795303857274699 0
outer loop
vertex -1.5143 -9.8847 -10
vertex -1.5143 -9.8847 10
vertex -2.5065 -9.6808 -10
endloop
endfacet
facet normal -0.2012963572362749 -0.9795303857274699 0
outer loop
vertex -2.5065 -9.6808 -10
vertex -1.5143 -9.8847 10
vertex -2.5065 -9.6808 10
endloop
endfacet
facet normal -0.2993876498634334 -0.954131560692366 0
outer loop
vertex -2.5065 -9.6808 -10
vertex -2.5065 -9.6808 10
vertex -3.4731 -9.3775 -10
endloop
endfacet
facet normal -0.2993876498634334 -0.954131560692366 0
outer loop
vertex -3.4731 -9.3775 -10
vertex -2.5065 -9.6808 10
vertex -3.4731 -9.3775 10
endloop
endfacet
facet normal -0.3944077631947277 -0.918935534372097 0
outer loop
vertex -3.4731 -9.3775 -10
vertex -3.4731 -9.3775 10
vertex -4.4039 -8.978 -10
endloop
endfacet
facet normal -0.3944077631947277 -0.918935534372097 0
outer loop
vertex -4.4039 -8.978 -10
vertex -3.4731 -9.3775 10
vertex -4.4039 -8.978 10
endloop
endfacet
facet normal -0.48529924215482373 -0.8743481260710483 0
outer loop
vertex -4.4039 -8.978 -10
vertex -4.4039 -8.978 10
vertex -5.2896 -8.4864 -10
endloop
endfacet
facet normal -0.48529924215482373 -0.8743481260710483 0
outer loop
vertex -5.2896 -8.4864 -10
vertex -4.4039 -8.978 10
vertex -5.2896 -8.4864 10
endloop
endfacet
facet normal -0.5711743917810757 -0.8208287362011142 0
outer loop
vertex -5.2896 -8.4864 -10
vertex -5.2896 -8.4864 10
vertex -6.1211 -7.9078 -10
endloop
endfacet
facet normal -0.5711743917810757 -0.8208287362011142 0
outer loop
vertex -6.1211 -7.9078 -10
vertex -5.2896 -8.4864 10
vertex -6.1211 -7.9078 10
endloop
endfacet
facet normal -0.6514171184732326 -0.7587198018768394 0
outer loop
vertex -6.1211 -7.9078 -10
vertex -6.1211 -7.9078 10
vertex -6.8897 -7.2479 -10
endloop
endfacet
facet normal -0.6514171184732326 -0.7587198018768394 0
outer loop
vertex -6.8897 -7.2479 -10
vertex -6.1211 -7.9078 10
vertex -6.8897 -7.2479 10
endloop
endfacet
facet normal -0.7247972936935737 -0.6889621782467247 0
outer loop
vertex -6.8897 -7.2479 -10
vertex -6.8897 -7.2479 10
vertex -7.5876 -6.5137 -10
endloop
endfacet
facet normal -0.7247972936935737 -0.6889621782467247 0
outer loop
vertex -7.5876 -6.5137 -10
vertex -6.8897 -7.2479 10
vertex -7.5876 -6.5137 10
endloop
endfacet
facet normal -0.790785366435497 -0.6120935420599344 0
outer loop
vertex -7.5876 -6.5137 -10
vertex -7.5876 -6.5137 10
vertex -8.2076 -5.7127 -10
endloop
endfacet
facet normal -0.790785366435497 -0.6120935420599344 0
outer loop
vertex -8.2076 -5.7127 -10
vertex -7.5876 -6.5137 10
vertex -8.2076 -5.7127 10
endloop
endfacet
facet normal -0.8486243640961293 -0.5289959249960631 0
outer loop
vertex -8.2076 -5.7127 -10
vertex -8.2076 -5.7127 10
vertex -8.7435 -4.853 -10
endloop
endfacet
facet normal -0.8486243640961293 -0.5289959249960631 0
outer loop
vertex -8.7435 -4.853 -10
vertex -8.2076 -5.7127 10
vertex -8.7435 -4.853 10
endloop
endfacet
facet normal -0.8977975118872962 -0.4404084781756368 0
outer loop
vertex -8.7435 -4.853 -10
vertex -8.7435 -4.853 10
vertex -9.1896 -3.9436 -10
endloop
endfacet
facet normal -0.8977975118872962 -0.4404084781756368 0
outer loop
vertex -9.1896 -3.9436 -10
vertex -8.7435 -4.853 10
vertex -9.1896 -3.9436 10
endloop
endfacet
facet normal -0.9377654299705044 -0.34726934554065525 0
outer loop
vertex -9.1896 -3.9436 -10
vertex -9.1896 -3.9436 10
vertex -9.5414 -2.9936 -10
endloop
endfacet
facet normal -0.9377654299705044 -0.34726934554065525 0
outer loop
vertex -9.5414 -2.9936 -10
vertex -9.1896 -3.9436 10
vertex -9.5414 -2.9936 10
endloop
endfacet
facet normal -0.9680759045257322 -0.2506572222711434 0
outer loop
vertex -9.5414 -2.9936 -10
vertex -9.5414 -2.9936 10
vertex -9.7953 -2.013 -10
endloop
endfacet
facet normal -0.9680759045257322 -0.2506572222711434 0
outer loop
vertex -9.7953 -2.013 -10
vertex -9.5414 -2.9936 10
vertex -9.7953 -2.013 10
endloop
endfacet
facet normal -0.9884673664942781 -0.15143402978150763 0
outer loop
vertex -9.7953 -2.013 -10
vertex -9.7953 -2.013 10
vertex -9.9487 -1.0117 -10
endloop
endfacet
facet normal -0.9884673664942781 -0.15143402978150763 0
outer loop
vertex -9.9487 -1.0117 -10
vertex -9.7953 -2.013 10
vertex -9.9487 -1.0117 10
endloop
endfacet
facet normal -0.9987168875015401 -0.050641668803823724 0
outer loop
vertex -9.9487 -1.0117 -10
vertex -9.9487 -1.0117 10
vertex -10 0 -10
endloop
endfacet
facet normal -0.9987168875015401 -0.050641668803823724 0
outer loop
vertex -10 0 -10
vertex -9.9487 -1.0117 10
vertex -10 0 10
endloop
endfacet
facet normal -0.9987168875015401 0.050641668803823724 0
outer loop
vertex -10 0 -10
vertex -10 0 10
vertex -9.9487 1.0117 -10
endloop
endfacet
facet normal -0.9987168875015401 0.050641668803823724 0
outer loop
vertex -9.9487 1.0117 -10
vertex -10 0 10
vertex -9.9487 1.0117 10
endloop
endfacet
facet normal -0.9884673664942781 0.15143402978150763 0
outer loop
vertex -9.9487 1.0117 -10
vertex -9.9487 1.0117 10
vertex -9.7953 2.013 -10
endloop
endfacet
facet normal -0.9884673664942781 0.15143402978150763 0
outer loop
vertex -9.7953 2.013 -10
vertex -9.9487 1.0117 10
vertex -9.7953 2.013 10
endloop
endfacet
facet normal -0.9680759045257322 0.2506572222711434 0
outer loop
vertex -9.7953 2.013 -10
vertex -9.7953 2.013 10
vertex -9.5414 2.9936 -10
endloop
endfacet
facet normal -0.9680759045257322 0.2506572222711434 0
outer loop
vertex -9.5414 2.9936 -10
vertex -9.7953 2.013 10
vertex -9.5414 2.9936 10
endloop
endfacet
facet normal -0.9377654299705044 0.34726934554065525 0
outer loop
vertex -9.5414 2.9936 -10
vertex -9.5414 2.9936 10
vertex -9.1896 3.9436 -10
endloop
endfacet
facet normal -0.9377654299705044 0.34726934554065525 0
outer loop
vertex -9.1896 3.9436 -10
vertex -9.5414 2.9936 10
vertex -9.1896 3.9436 10
endloop
endfacet
facet normal -0.8977975118872962 0.4404084781756368 0
outer loop
vertex -9.1896 3.9436 -10
vertex -9.1896 3.9436 10
vertex -8.7435 4.853 -10
endloop
endfacet
facet normal -0.8977975118872962 0.4404084781756368 0
outer loop
vertex -8.7435 4.853 -10
vertex -9.1896 3.9436 10
vertex -8.7435 4.853 10
endloop
endfacet
facet normal -0.8486243640961293 0.5289959249960631 0
outer loop
vertex -8.7435 4.853 -10
vertex -8.7435 4.853 10
vertex -8.2076 5.7127 -10
endloop
endfacet
facet normal -0.8486243640961293 0.5289959249960631 0
outer loop
vertex -8.2076 5.7127 -10
vertex -8.7435 4.853 10
vertex -8.2076 5.7127 10
endloop
endfacet
facet normal -0.790785366435497 0.6120935420599344 0
outer loop
vertex -8.2076 5.7127 -10
vertex -8.2076 5.7127 10
vertex -7.5876 6.5137 -10
endloop
endfacet
facet normal -0.790785366435497 0.6120935420599344 0
outer loop
vertex -7.5876 6.5137 -10
vertex -8.2076 5.7127 10
vertex -7.5876 6.5137 10
endloop
endfacet
facet normal -0.7247972936935737 0.6889621782467247 0
outer loop
vertex -7.5876 6.5137 -10
vertex -7.5876 6.5137 10
vertex -6.8897 7.2479 -10
endloop
endfacet
facet normal -0.7247972936935737 0.6889621782467247 0
outer loop
vertex -6.8897 7.2479 -10
vertex -7.5876 6.5137 10
vertex -6.8897 7.2479 10
endloop
endfacet
facet normal -0.6514171184732326 0.7587198018768394 0
outer loop
vertex -6.8897 7.2479 -10
vertex -6.8897 7.2479 10
vertex -6.1211 7.9078 -10
endloop
endfacet
facet normal -0.6514171184732326 0.7587198018768394 0
outer loop
vertex -6.1211 7.9078 -10
vertex -6.8897 7.2479 10
vertex -6.1211 7.9078 10
endloop
endfacet
facet normal -0.5711743917810757 0.8208287362011142 0
outer loop
vertex -6.1211 7.9078 -10
vertex -6.1211 7.9078 10
vertex -5.2896 8.4864 -10
endloop
endfacet
facet normal -0.5711743917810757 0.8208287362011142 0
outer loop
vertex -5.2896 8.4864 -10
vertex -6.1211 7.9078 10
vertex -5.2896 8.4864 10
endloop
endfacet
facet normal -0.48529924215482373 0.8743481260710483 0
outer loop
vertex -5.2896 8.4864 -10
vertex -5.2896 8.4864 10
vertex -4.4039 8.978 -10
endloop
endfacet
facet normal -0.48529924215482373 0.8743481260710483 0
outer loop
vertex -4.4039 8.978 -10
vertex -5.2896 8.4864 10
vertex -4.4039 8.978 10
endloop
endfacet
facet normal -0.3944077631947277 0.918935534372097 0
outer loop
vertex -4.4039 8.978 -10
vertex -4.4039 8.978 10
vertex -3.4731 9.3775 -10
endloop
endfacet
facet normal -0.3944077631947277 0.918935534372097 0
outer loop
vertex -3.4731 9.3775 -10
vertex -4.4039 8.978 10
vertex -3.4731 9.3775 10
endloop
endfacet
facet normal -0.2993876498634334 0.954131560692366 0
outer loop
vertex -3.4731 9.3775 -10
vertex -3.4731 9.3775 10
vertex -2.5065 9.6808 -10
endloop
endfacet
facet normal -0.2993876498634334 0.954131560692366 0
outer loop
vertex -2.5065 9.6808 -10
vertex -3.4731 9.3775 10
vertex -2.5065 9.6808 10
endloop
endfacet
facet normal -0.2012963572362749 0.9795303857274699 0
outer loop
vertex -2.5065 9.6808 -10
vertex -2.5065 9.6808 10
vertex -1.5143 9.8847 -10
endloop
endfacet
facet normal -0.2012963572362749 0.9795303857274699 0
outer loop
vertex -1.5143 9.8847 -10
vertex -2.5065 9.6808 10
vertex -1.5143 9.8847 10
endloop
endfacet
facet normal -0.10118469436460001 0.9948676583477535 0
outer loop
vertex -1.5143 9.8847 -10
vertex -1.5143 9.8847 10
vertex -0.5065 9.9872 -10
endloop
endfacet
facet normal -0.10118469436460001 0.9948676583477535 0
outer loop
vertex -0.5065 9.9872 -10
vertex -1.5143 9.8847 10
vertex -0.5065 9.9872 10
endloop
endfacet
facet normal 0 1 0
outer loop
vertex -0.5065 9.9872 -10
vertex -0.5065 9.9872 10
vertex 0.5065 9.9872 -10
endloop
endfacet
facet normal 0 1 0
outer loop
vertex 0.5065 9.9872 -10
vertex -0.5065 9.9872 10
vertex 0.5065 9.9872 10
endloop
endfacet
facet normal 0.10118469436460001 0.9948676583477535 0
outer loop
vertex 0.5065 9.9872 -10
vertex 0.5065 9.9872 10
vertex 1.5143 9.8847 -10
endloop
endfacet
facet normal 0.10118469436460001 0.9948676583477535 0
outer loop
vertex 1.5143 9.8847 -10
vertex 0.5065 9.9872 10
vertex 1.5143 9.8847 10
endloop
endfacet
facet normal 0.20129099798805028 0.9795314870533641 0
outer loop
vertex 1.5143 9.8847 10
vertex 2 9.78489 0.20964
vertex 2 9.78489 -10
endloop
endfacet
facet normal 0.20129099798805025 0.9795314870533641 0
outer loop
vertex 1.5143 9.8847 10
vertex 2 9.78489 -10
vertex 1.5143 9.8847 -10
endloop
endfacet
facet normal 0.20129099798805022 0.979531487053364 0
outer loop
vertex 2 9.78489 0.20964
vertex 1.5143 9.8847 10
vertex 2 9.78489 10
endloop
endfacet
facet normal 0.20130149638388198 0.9795293296035652 0
outer loop
vertex 2 9.78489 2.5
vertex 2 9.78489 10
vertex 2.5065 9.6808 10
endloop
endfacet
facet normal 0.20130149638388198 0.9795293296035652 0
outer loop
vertex 2 9.78489 2.5
vertex 2.5065 9.6808 10
vertex 2.5065 9.6808 2.5
endloop
endfacet
facet normal 0.20130149638382888 0.9795293296033067 7.264310700474619e-7
outer loop
vertex 2.13442 9.75726 -2.5
vertex 2.5065 9.6808 -10
vertex 2 9.78489 -10
endloop
endfacet
facet normal 0.2013403848986375 0.9795213368829023 0
outer loop
vertex 2.13442 9.75726 -2.5
vertex 2 9.78489 -10
vertex 2 9.78489 -2.5
endloop
endfacet
facet normal 0.20128744703630752 0.9795322167573692 0
outer loop
vertex 2.5065 9.6808 -2.5
vertex 2.5065 9.6808 -10
vertex 2.13442 9.75726 -2.5
endloop
endfacet
facet normal 0.2993898810504616 0.9541308605870531 0
outer loop
vertex 2.5065 9.6808 2.5
vertex 2.5065 9.6808 10
vertex 2.86898 9.56706 2.5
endloop
endfacet
facet normal 0.29938764986343125 0.9541315606923594 -1.1845208697181361e-7
outer loop
vertex 2.86898 9.56706 2.5
vertex 2.5065 9.6808 10
vertex 3.4731 9.3775 10
endloop
endfacet
facet normal 0.2993863111193126 0.9541319807628137 0
outer loop
vertex 2.86898 9.56706 2.5
vertex 3.4731 9.3775 10
vertex 3.4731 9.3775 2.5
endloop
endfacet
facet normal 0.2993876498633933 0.9541315606922383 -5.176356201265777e-7
outer loop
vertex 3.11063 9.49124 -2.5
vertex 3.4731 9.3775 -10
vertex 2.5065 9.6808 -10
endloop
endfacet
facet normal 0.2993817996354439 0.9541333963587287 0
outer loop
vertex 3.11063 9.49124 -2.5
vertex 2.5065 9.6808 -10
vertex 2.5065 9.6808 -2.5
endloop
endfacet
facet normal 0.29939740038357554 0.9541285011168866 0
outer loop
vertex 3.4731 9.3775 -2.5
vertex 3.4731 9.3775 -10
vertex 3.11063 9.49124 -2.5
endloop
endfacet
facet normal 0.39440220531436004 0.9189379197982688 0
outer loop
vertex 3.4731 9.3775 2.5
vertex 3.4731 9.3775 10
vertex 3.82215 9.22769 2.5
endloop
endfacet
facet normal 0.39440776319470916 0.918935534372054 3.063118449454896e-7
outer loop
vertex 3.82215 9.22769 2.5
vertex 3.4731 9.3775 10
vertex 4.4039 8.978 10
endloop
endfacet
facet normal 0.3944110979021727 0.9189341031062037 0
outer loop
vertex 3.82215 9.22769 2.5
vertex 4.4039 8.978 10
vertex 4.4039 8.978 2.5
endloop
endfacet
facet normal 0.39440776319470916 0.918935534372054 3.063118447262753e-7
outer loop
vertex 4.05485 9.12781 -2.5
vertex 4.4039 8.978 -10
vertex 3.4731 9.3775 -10
endloop
endfacet
facet normal 0.3944110979021704 0.9189341031062047 0
outer loop
vertex 4.05485 9.12781 -2.5
vertex 3.4731 9.3775 -10
vertex 3.4731 9.3775 -2.5
endloop
endfacet
facet normal 0.394402205314364 0.918937919798267 0
outer loop
vertex 4.4039 8.978 -2.5
vertex 4.4039 8.978 -10
vertex 4.05485 9.12781 -2.5
endloop
endfacet
facet normal 0.48529644962151264 0.874349676036284 0
outer loop
vertex 4.4039 8.978 2.5
vertex 4.4039 8.978 10
vertex 4.73604 8.79365 2.5
endloop
endfacet
facet normal 0.4852992421548174 0.8743481260710368 1.6176641401943211e-7
outer loop
vertex 4.73604 8.79365 2.5
vertex 4.4039 8.978 10
vertex 5.2896 8.4864 10
endloop
endfacet
facet normal 0.4853009176878606 0.8743471960790635 0
outer loop
vertex 4.73604 8.79365 2.5
vertex 5.2896 8.4864 10
vertex 5.2896 8.4864 2.5
endloop
endfacet
facet normal 0.4852992421548174 0.8743481260710368 1.6176641401943211e-7
outer loop
vertex 4.95746 8.67075 -2.5
vertex 5.2896 8.4864 -10
vertex 4.4039 8.978 -10
endloop
endfacet
facet normal 0.4853009176878606 0.8743471960790635 0
outer loop
vertex 4.95746 8.67075 -2.5
vertex 4.4039 8.978 -10
vertex 4.4039 8.978 -2.5
endloop
endfacet
facet normal 0.48529644962151264 0.874349676036284 0
outer loop
vertex 5.2896 8.4864 -2.5
vertex 5.2896 8.4864 -10
vertex 4.95746 8.67075 -2.5
endloop
endfacet
facet normal 0.5711686089823756 0.8208327601363984 0
outer loop
vertex 5.2896 8.4864 2.5
vertex 5.2896 8.4864 10
vertex 5.60141 8.26943 2.5
endloop
endfacet
facet normal 0.5711743917810393 0.820828736201062 3.5682769350049964e-7
outer loop
vertex 5.60141 8.26943 2.5
vertex 5.2896 8.4864 10
vertex 6.1211 7.9078 10
endloop
endfacet
facet normal 0.5711778613749645 0.8208263218702978 0
outer loop
vertex 5.60141 8.26943 2.5
vertex 6.1211 7.9078 10
vertex 6.1211 7.9078 2.5
endloop
endfacet
facet normal 0.5711743917809202 0.8208287362008909 -7.37610621323821e-7
outer loop
vertex 5.80929 8.12478 -2.5
vertex 6.1211 7.9078 -10
vertex 5.2896 8.4864 -10
endloop
endfacet
facet normal 0.5711672195688772 0.8208337269447193 0
outer loop
vertex 5.80929 8.12478 -2.5
vertex 5.2896 8.4864 -10
vertex 5.2896 8.4864 -2.5
endloop
endfacet
facet normal 0.5711863453306965 0.8208204181840035 0
outer loop
vertex 6.1211 7.9078 -2.5
vertex 6.1211 7.9078 -10
vertex 5.80929 8.12478 -2.5
endloop
endfacet
facet normal 0.6514068249043271 0.7587286395464872 0
outer loop
vertex 6.1211 7.9078 2.5
vertex 6.1211 7.9078 10
vertex 6.40933 7.66034 2.5
endloop
endfacet
facet normal 0.6514171184730787 0.7587198018766604 6.871846795527684e-7
outer loop
vertex 6.40933 7.66034 2.5
vertex 6.1211 7.9078 10
vertex 6.8897 7.2479 10
endloop
endfacet
facet normal 0.6514232946133421 0.7587144991596632 0
outer loop
vertex 6.40933 7.66034 2.5
vertex 6.8897 7.2479 10
vertex 6.8897 7.2479 2.5
endloop
endfacet
facet normal 0.6514171184732218 0.7587198018768271 -1.8137147830125765e-7
outer loop
vertex 6.60148 7.49536 -2.5
vertex 6.8897 7.2479 -10
vertex 6.1211 7.9078 -10
endloop
endfacet
facet normal 0.6514154883915102 0.7587212014196323 0
outer loop
vertex 6.60148 7.49536 -2.5
vertex 6.1211 7.9078 -10
vertex 6.1211 7.9078 -2.5
endloop
endfacet
facet normal 0.6514198353314656 0.7587174692444653 0
outer loop
vertex 6.8897 7.2479 -2.5
vertex 6.8897 7.2479 -10
vertex 6.60148 7.49536 -2.5
endloop
endfacet
facet normal 0.7247943321980608 0.6889652937656346 0
outer loop
vertex 6.8897 7.2479 2.5
vertex 6.8897 7.2479 10
vertex 7.15141 6.97258 2.5
endloop
endfacet
facet normal 0.7247972936935565 0.6889621782467082 2.1770902093377479e-7
outer loop
vertex 7.15141 6.97258 2.5
vertex 6.8897 7.2479 10
vertex 7.5876 6.5137 10
endloop
endfacet
facet normal 0.7247990705444397 0.6889603089713634 0
outer loop
vertex 7.15141 6.97258 2.5
vertex 7.5876 6.5137 10
vertex 7.5876 6.5137 2.5
endloop
endfacet
facet normal 0.7247972936933956 0.6889621782465554 -7.009072167745644e-7
outer loop
vertex 7.32589 6.78903 -2.5
vertex 7.5876 6.5137 -10
vertex 6.8897 7.2479 -10
endloop
endfacet
facet normal 0.7247915730809117 0.6889681963566223 0
outer loop
vertex 7.32589 6.78903 -2.5
vertex 6.8897 7.2479 -10
vertex 6.8897 7.2479 -2.5
endloop
endfacet
facet normal 0.7248068278606021 0.6889521480383463 0
outer loop
vertex 7.5876 6.5137 -2.5
vertex 7.5876 6.5137 -10
vertex 7.32589 6.78903 -2.5
endloop
endfacet
facet normal 0.7907804346154611 0.6120999136002085 0
outer loop
vertex 7.5876 6.5137 2.5
vertex 7.5876 6.5137 10
vertex 7.8201 6.21333 2.5
endloop
endfacet
facet normal 0.7907853664354313 0.6120935420598834 4.0806236139960447e-7
outer loop
vertex 7.8201 6.21333 2.5
vertex 7.5876 6.5137 10
vertex 8.2076 5.7127 10
endloop
endfacet
facet normal 0.7907883254535942 0.6120897191803669 0
outer loop
vertex 7.8201 6.21333 2.5
vertex 8.2076 5.7127 10
vertex 8.2076 5.7127 2.5
endloop
endfacet
facet normal 0.7907853664354313 0.6120935420598834 -4.0806236148180934e-7
outer loop
vertex 7.9751 6.01308 -2.5
vertex 8.2076 5.7127 -10
vertex 7.5876 6.5137 -10
endloop
endfacet
facet normal 0.7907824073619562 0.6120973649729503 0
outer loop
vertex 7.9751 6.01308 -2.5
vertex 7.5876 6.5137 -10
vertex 7.5876 6.5137 -2.5
endloop
endfacet
facet normal 0.7907902981015255 0.6120871706125693 0
outer loop
vertex 8.2076 5.7127 -2.5
vertex 8.2076 5.7127 -10
vertex 7.9751 6.01308 -2.5
endloop
endfacet
facet normal 0.8486291598302295 0.5289882315192264 0
outer loop
vertex 8.2076 5.7127 2.5
vertex 8.2076 5.7127 10
vertex 8.40856 5.39031 2.5
endloop
endfacet
facet normal 0.8486243640960397 0.5289959249960073 -4.592067629570172e-7
outer loop
vertex 8.40856 5.39031 2.5
vertex 8.2076 5.7127 10
vertex 8.7435 4.853 10
endloop
endfacet
facet normal 0.8486214866125062 0.5290005410768311 0
outer loop
vertex 8.40856 5.39031 2.5
vertex 8.7435 4.853 10
vertex 8.7435 4.853 2.5
endloop
endfacet
facet normal 0.8486243640960397 0.5289959249960073 -4.59206763220038e-7
outer loop
vertex 8.54254 5.17539 -2.5
vertex 8.7435 4.853 -10
vertex 8.2076 5.7127 -10
endloop
endfacet
facet normal 0.8486214866125046 0.5290005410768338 0
outer loop
vertex 8.54254 5.17539 -2.5
vertex 8.2076 5.7127 -10
vertex 8.2076 5.7127 -2.5
endloop
endfacet
facet normal 0.8486291598302323 0.528988231519222 0
outer loop
vertex 8.7435 4.853 -2.5
vertex 8.7435 4.853 -10
vertex 8.54254 5.17539 -2.5
endloop
endfacet
facet normal 0.8977974626682244 0.4404085785114753 0
outer loop
vertex 8.7435 4.853 2.5
vertex 8.7435 4.853 10
vertex 8.91079 4.51197 2.5
endloop
endfacet
facet normal 0.8977975118872962 0.4404084781756368 5.660185272514349e-9
outer loop
vertex 8.91079 4.51197 2.5
vertex 8.7435 4.853 10
vertex 9.1896 3.9436 10
endloop
endfacet
facet normal 0.8977975414194292 0.44040841797271346 0
outer loop
vertex 8.91079 4.51197 2.5
vertex 9.1896 3.9436 10
vertex 9.1896 3.9436 2.5
endloop
endfacet
facet normal 0.8977975118872962 0.4404084781756368 5.660185272514349e-9
outer loop
vertex 9.02231 4.28463 -2.5
vertex 9.1896 3.9436 -10
vertex 8.7435 4.853 -10
endloop
endfacet
facet normal 0.8977975414194292 0.44040841797271346 0
outer loop
vertex 9.02231 4.28463 -2.5
vertex 8.7435 4.853 -10
vertex 8.7435 4.853 -2.5
endloop
endfacet
facet normal 0.8977974626682244 0.4404085785114753 0
outer loop
vertex 9.1896 3.9436 -2.5
vertex 9.1896 3.9436 -10
vertex 9.02231 4.28463 -2.5
endloop
endfacet
facet normal 0.9377697160948361 0.3472577710799436 0
outer loop
vertex 9.1896 3.9436 2.5
vertex 9.1896 3.9436 10
vertex 9.32152 3.58735 2.5
endloop
endfacet
facet normal 0.9377654299703212 0.34726934554058736 -6.251769533790147e-7
outer loop
vertex 9.32152 3.58735 2.5
vertex 9.1896 3.9436 10
vertex 9.5414 2.9936 10
endloop
endfacet
facet normal 0.9377628582461406 0.34727629014090317 0
outer loop
vertex 9.32152 3.58735 2.5
vertex 9.5414 2.9936 10
vertex 9.5414 2.9936 2.5
endloop
endfacet
facet normal 0.9377654299703212 0.34726934554058736 6.251769532018402e-7
outer loop
vertex 9.40947 3.34985 -2.5
vertex 9.5414 2.9936 -10
vertex 9.1896 3.9436 -10
endloop
endfacet
facet normal 0.9377680016575443 0.34726240088327487 0
outer loop
vertex 9.40947 3.34985 -2.5
vertex 9.1896 3.9436 -10
vertex 9.1896 3.9436 -2.5
endloop
endfacet
facet normal 0.9377611437424981 0.34728091984265697 0
outer loop
vertex 9.5414 2.9936 -2.5
vertex 9.5414 2.9936 -10
vertex 9.40947 3.34985 -2.5
endloop
endfacet
facet normal 0.9680766745513063 0.2506542482976986 0
outer loop
vertex 9.5414 2.9936 2.5
vertex 9.5414 2.9936 10
vertex 9.63661 2.62588 2.5
endloop
endfacet
facet normal 0.9680759045257205 0.2506572222711404 -1.55587153339996e-7
outer loop
vertex 9.63661 2.62588 2.5
vertex 9.5414 2.9936 10
vertex 9.7953 2.013 10
endloop
endfacet
facet normal 0.9680754425166417 0.25065900661298435 0
outer loop
vertex 9.63661 2.62588 2.5
vertex 9.7953 2.013 10
vertex 9.7953 2.013 2.5
endloop
endfacet
facet normal 0.968075904525616 0.25065722227111337 -4.897967830360777e-7
outer loop
vertex 9.70009 2.38073 -2.5
vertex 9.7953 2.013 -10
vertex 9.5414 2.9936 -10
endloop
endfacet
facet normal 0.9680744500627392 0.25066283955888863 0
outer loop
vertex 9.70009 2.38073 -2.5
vertex 9.5414 2.9936 -10
vertex 9.5414 2.9936 -2.5
endloop
endfacet
facet normal 0.9680783285152654 0.2506478602723146 0
outer loop
vertex 9.7953 2.013 -2.5
vertex 9.7953 2.013 -10
vertex 9.70009 2.38073 -2.5
endloop
endfacet
facet normal 0.9884694875662375 0.15142018409228006 0
outer loop
vertex 9.7953 2.013 2.5
vertex 9.7953 2.013 10
vertex 9.85282 1.63751 2.5
endloop
endfacet
facet normal 0.9884673664940293 0.15143402978146953 -7.094562542886006e-7
outer loop
vertex 9.85282 1.63751 2.5
vertex 9.7953 2.013 10
vertex 9.9487 1.0117 10
endloop
endfacet
facet normal 0.988466093748823 0.15144233724075712 0
outer loop
vertex 9.85282 1.63751 2.5
vertex 9.9487 1.0117 10
vertex 9.9487 1.0117 2.5
endloop
endfacet
facet normal 0.9884673664940293 0.15143402978146953 -7.094562542886006e-7
outer loop
vertex 9.89118 1.38719 -2.5
vertex 9.9487 1.0117 -10
vertex 9.7953 2.013 -10
endloop
endfacet
facet normal 0.988466093748823 0.15144233724075712 0
outer loop
vertex 9.89118 1.38719 -2.5
vertex 9.7953 2.013 -10
vertex 9.7953 2.013 -2.5
endloop
endfacet
facet normal 0.9884694875662375 0.15142018409228006 0
outer loop
vertex 9.9487 1.0117 -2.5
vertex 9.9487 1.0117 -10
vertex 9.89118 1.38719 -2.5
endloop
endfacet
facet normal 0.9987165715111264 0.05064790014463743 0
outer loop
vertex 9.9487 1.0117 2.5
vertex 9.9487 1.0117 10
vertex 9.96794 0.63231 2.5
endloop
endfacet
facet normal 0.9987168875014902 0.0506416688038212 3.160250729162288e-7
outer loop
vertex 9.96794 0.63231 2.5
vertex 9.9487 1.0117 10
vertex 10 0 10
endloop
endfacet
facet normal 0.9987170770792206 0.050637929957076985 0
outer loop
vertex 9.96794 0.63231 2.5
vertex 10 0 10
vertex 10 0 2.5
endloop
endfacet
facet normal 0.9987168875014902 0.0506416688038212 3.160250729162288e-7
outer loop
vertex 9.98076 0.37939 -2.5
vertex 10 0 -10
vertex 9.9487 1.0117 -10
endloop
endfacet
facet normal 0.9987170770792206 0.050637929957076985 0
outer loop
vertex 9.98076 0.37939 -2.5
vertex 9.9487 1.0117 -10
vertex 9.9487 1.0117 -2.5
endloop
endfacet
facet normal 0.9987165715111264 0.05064790014463743 0
outer loop
vertex 10 0 -2.5
vertex 10 0 -10
vertex 9.98076 0.37939 -2.5
endloop
endfacet
facet normal 0.9987165715111264 -0.05064790014463743 0
outer loop
vertex 10 0 2.5
vertex 10 0 10
vertex 9.98076 -0.37939 2.5
endloop
endfacet
facet normal 0.9987168875014902 -0.0506416688038212 -3.160250729162288e-7
outer loop
vertex 9.98076 -0.37939 2.5
vertex 10 0 10
vertex 9.9487 -1.0117 10
endloop
endfacet
facet normal 0.9987170770792206 -0.050637929957076985 0
outer loop
vertex 9.98076 -0.37939 2.5
vertex 9.9487 -1.0117 10
vertex 9.9487 -1.0117 2.5
endloop
endfacet
facet normal 0.9987168875014902 -0.0506416688038212 -3.160250729162288e-7
outer loop
vertex 9.96794 -0.63231 -2.5
vertex 9.9487 -1.0117 -10
vertex 10 0 -10
endloop
endfacet
facet normal 0.9987170770792206 -0.050637929957076985 0
outer loop
vertex 9.96794 -0.63231 -2.5
vertex 10 0 -10
vertex 10 0 -2.5
endloop
endfacet
facet normal 0.9987165715111264 -0.05064790014463743 0
outer loop
vertex 9.9487 -1.0117 -2.5
vertex 9.9487 -1.0117 -10
vertex 9.96794 -0.63231 -2.5
endloop
endfacet
facet normal 0 0 1
outer loop
vertex 2 9.78489 10
vertex 1.5143 9.8847 10
vertex 2 9.31892 10
endloop
endfacet
facet normal 0 0 1
outer loop
vertex 2 9.31892 10
vertex 1.5143 9.8847 10
vertex 0.5065 9.9872 10
endloop
endfacet
facet normal 0 0 1
outer loop
vertex 2 9.31892 10
vertex 0.5065 9.9872 10
vertex 2 8.41603 10
endloop
endfacet
facet normal 0 0 1
outer loop
vertex 2 8.41603 10
vertex 0.5065 9.9872 10
vertex -0.5065 9.9872 10
endloop
endfacet
facet normal 0 0 1
outer loop
vertex 2 8.41603 10
vertex -0.5065 9.9872 10
vertex 2 7.60459 10
endloop
endfacet
facet normal 0 0 1
outer loop
vertex 2 7.60459 10
vertex -0.5065 9.9872 10
vertex -1.5143 9.8847 10
endloop
endfacet
facet normal 0 0 1
outer loop
vertex 2 7.60459 10
vertex -1.5143 9.8847 10
vertex 2 6.86777 10
endloop
endfacet
facet normal 0 0 1
outer loop
vertex 2 6.86777 10
vertex -1.5143 9.8847 10
vertex -2.5065 9.6808 10
endloop
endfacet
facet normal 0 0 1
outer loop
vertex 2 6.86777 10
vertex -2.5065 9.6808 10
vertex 2 6.19249 10
endloop
endfacet
facet normal 0 0 1
outer loop
vertex 2 6.19249 10
vertex -2.5065 9.6808 10
vertex -3.4731 9.3775 10
endloop
endfacet
facet normal 0 0 1
outer loop
vertex 2 6.19249 10
vertex -3.4731 9.3775 10
vertex 2 5.56813 10
endloop
endfacet
facet normal 0 0 1
outer loop
vertex 2 5.56813 10
vertex -3.4731 9.3775 10
vertex -4.4039 8.978 10
endloop
endfacet
facet normal 0 0 1
outer loop
vertex 2 5.56813 10
vertex -4.4039 8.978 10
vertex 2 4.98643 10
endloop
endfacet
facet normal 0 0 1
outer loop
vertex 2 4.98643 10
vertex -4.4039 8.978 10
vertex -5.2896 8.4864 10
endloop
endfacet
facet normal 0 0 1
outer loop
vertex 2 4.98643 10
vertex -5.2896 8.4864 10
vertex 2 4.44035 10
endloop
endfacet
facet normal 0 0 1
outer loop
vertex 2 4.44035 10
vertex -5.2896 8.4864 10
vertex -6.1211 7.9078 10
endloop
endfacet
facet normal 0 0 1
outer loop
vertex 2 4.44035 10
vertex -6.1211 7.9078 10
vertex 2 3.9242 10
endloop
endfacet
facet normal 0 0 1
outer loop
vertex 2 3.9242 10
vertex -6.1211 7.9078 10
vertex -6.8897 7.2479 10
endloop
endfacet
facet normal 0 0 1
outer loop
vertex 2 3.9242 10
vertex -6.8897 7.2479 10
vertex 2 3.43305 10
endloop
endfacet
facet normal 0 0 1
outer loop
vertex 2 3.43305 10
vertex -6.8897 7.2479 10
vertex -7.5876 6.5137 10
endloop
endfacet
facet normal 0 0 1
outer loop
vertex 2 3.43305 10
vertex -7.5876 6.5137 10
vertex 2 2.96286 10
endloop
endfacet
facet normal 0 0 1
outer loop
vertex 2 2.96286 10
vertex -7.5876 6.5137 10
vertex -8.2076 5.7127 10
endloop
endfacet
facet normal 0 0 1
outer loop
vertex 2 2.96286 10
vertex -8.2076 5.7127 10
vertex 2 2.51003 10
endloop
endfacet
facet normal 0 0 1
outer loop
vertex 2 2.51003 10
vertex -8.2076 5.7127 10
vertex -8.7435 4.853 10
endloop
endfacet
facet normal 0 0 1
outer loop
vertex 2 2.51003 10
vertex -8.7435 4.853 10
vertex 2 2.07133 10
endloop
endfacet
facet normal 0 0 1
outer loop
vertex 2 2.07133 10
vertex -8.7435 4.853 10
vertex -9.1896 3.9436 10
endloop
endfacet
facet normal 0 0 1
outer loop
vertex 2 2.07133 10
vertex -9.1896 3.9436 10
vertex 2 1.64406 10
endloop
endfacet
facet normal 0 0 1
outer loop
vertex 2 1.64406 10
vertex -9.1896 3.9436 10
vertex -9.5414 2.9936 10
endloop
endfacet
facet normal 0 0 1
outer loop
vertex 2 1.64406 10
vertex -9.5414 2.9936 10
vertex 2 1.22554 10
endloop
endfacet
facet normal 0 0 1
outer loop
vertex 2 1.22554 10
vertex -9.5414 2.9936 10
vertex -9.7953 2.013 10
endloop
endfacet
facet normal 0 0 1
outer loop
vertex 2 1.22554 10
vertex -9.7953 2.013 10
vertex 2 0.81353 10
endloop
endfacet
facet normal 0 0 1
outer loop
vertex 2 0.81353 10
vertex -9.7953 2.013 10
vertex -9.9487 1.0117 10
endloop
endfacet
facet normal 0 0 1
outer loop
vertex 2 0.81353 10
vertex -9.9487 1.0117 10
vertex 2 0.40572 10
endloop
endfacet
facet normal 0 0 1
outer loop
vertex 2 0.40572 10
vertex -9.9487 1.0117 10
vertex -10 0 10
endloop
endfacet
facet normal 0 0 1
outer loop
vertex 2 0.40572 10
vertex -10 0 10
vertex 2 0 10
endloop
endfacet
facet normal 0 0 1
outer loop
vertex 2 0 10
vertex -10 0 10
vertex -9.9487 -1.0117 10
endloop
endfacet
facet normal 0 0 1
outer loop
vertex 2 0 10
vertex -9.9487 -1.0117 10
vertex 2 -0.40572 10
endloop
endfacet
facet normal 0 0 1
outer loop
vertex 2 -0.40572 10
vertex -9.9487 -1.0117 10
vertex -9.7953 -2.013 10
endloop
endfacet
facet normal 0 0 1
outer loop
vertex 2 -0.40572 10
vertex -9.7953 -2.013 10
vertex 2 -0.81353 10
endloop
endfacet
facet normal 0 0 1
outer loop
vertex 2 -0.81353 10
vertex -9.7953 -2.013 10
vertex -9.5414 -2.9936 10
endloop
endfacet
facet normal 0 0 1
outer loop
vertex 2 -0.81353 10
vertex -9.5414 -2.9936 10
vertex 2 -1.22554 10
endloop
endfacet
facet normal 0 0 1
outer loop
vertex 2 -1.22554 10
vertex -9.5414 -2.9936 10
vertex -9.1896 -3.9436 10
endloop
endfacet
facet normal 0 0 1
outer loop
vertex 2 -1.22554 10
vertex -9.1896 -3.9436 10
vertex 2 -1.64406 10
endloop
endfacet
facet normal 0 0 1
outer loop
vertex 2 -1.64406 10
vertex -9.1896 -3.9436 10
vertex -8.7435 -4.853 10
endloop
endfacet
facet normal 0 0 1
outer loop
vertex 2 -1.64406 10
vertex -8.7435 -4.853 10
vertex 2 -2.07133 10
endloop
endfacet
facet normal 0 0 1
outer loop
vertex 2 -2.07133 10
vertex -8.7435 -4.853 10
vertex -8.2076 -5.7127 10
endloop
endfacet
facet normal 0 0 1
outer loop
vertex 2 -2.07133 10
vertex -8.2076 -5.7127 10
vertex 2 -2.51003 10
endloop
endfacet
facet normal 0 0 1
outer loop
vertex 2 -2.51003 10
vertex -8.2076 -5.7127 10
vertex -7.5876 -6.5137 10
endloop
endfacet
facet normal 0 0 1
outer loop
vertex 2 -2.51003 10
vertex -7.5876 -6.5137 10
vertex 2 -2.96286 10
endloop
endfacet
facet normal 0 0 1
outer loop
vertex 2 -2.96286 10
vertex -7.5876 -6.5137 10
vertex -6.8897 -7.2479 10
endloop
endfacet
facet normal 0 0 1
outer loop
vertex 2 -2.96286 10
vertex -6.8897 -7.2479 10
vertex 2 -3.43305 10
endloop
endfacet
facet normal 0 0 1
outer loop
vertex 2 -3.43305 10
vertex -6.8897 -7.2479 10
vertex -6.1211 -7.9078 10
endloop
endfacet
facet normal 0 0 1
outer loop
vertex 2 -3.43305 10
vertex -6.1211 -7.9078 10
vertex 2 -3.9242 10
endloop
endfacet
facet normal 0 0 1
outer loop
vertex 2 -3.9242 10
vertex -6.1211 -7.9078 10
vertex -5.2896 -8.4864 10
endloop
endfacet
facet normal 0 0 1
outer loop
vertex 2 -3.9242 10
vertex -5.2896 -8.4864 10
vertex 2 -4.44035 10
endloop
endfacet
facet normal 0 0 1
outer loop
vertex 2 -4.44035 10
vertex -5.2896 -8.4864 10
vertex -4.4039 -8.978 10
endloop
endfacet
facet normal 0 0 1
outer loop
vertex 2 -4.44035 10
vertex -4.4039 -8.978 10
vertex 2 -4.98643 10
endloop
endfacet
facet normal 0 0 1
outer loop
vertex 2 -4.98643 10
vertex -4.4039 -8.978 10
vertex -3.4731 -9.3775 10
endloop
endfacet
facet normal 0 0 1
outer loop
vertex 2 -4.98643 10
vertex -3.4731 -9.3775 10
vertex 2 -5.56813 10
endloop
endfacet
facet normal 0 0 1
outer loop
vertex 2 -5.56813 10
vertex -3.4731 -9.3775 10
vertex -2.5065 -9.6808 10
endloop
endfacet
facet normal 0 0 1
outer loop
vertex 2 -5.56813 10
vertex -2.5065 -9.6808 10
vertex 2 -6.19249 10
endloop
endfacet
facet normal 0 0 1
outer loop
vertex 2 -6.19249 10
vertex -2.5065 -9.6808 10
vertex -1.5143 -9.8847 10
endloop
endfacet
facet normal 0 0 1
outer loop
vertex 2 -6.19249 10
vertex -1.5143 -9.8847 10
vertex 2 -6.86777 10
endloop
endfacet
facet normal 0 0 1
outer loop
vertex 2 -6.86777 10
vertex -1.5143 -9.8847 10
vertex -0.5065 -9.9872 10
endloop
endfacet
facet normal 0 0 1
outer loop
vertex 2 -6.86777 10
vertex -0.5065 -9.9872 10
vertex 2 -7.60459 10
endloop
endfacet
facet normal 0 0 1
outer loop
vertex 2 -7.60459 10
vertex -0.5065 -9.9872 10
vertex 0.5065 -9.9872 10
endloop
endfacet
facet normal 0 0 1
outer loop
vertex 2 -7.60459 10
vertex 0.5065 -9.9872 10
vertex 2 -8.41603 10
endloop
endfacet
facet normal 0 0 1
outer loop
vertex 2 -8.41603 10
vertex 0.5065 -9.9872 10
vertex 1.5143 -9.8847 10
endloop
endfacet
facet normal 0 0 1
outer loop
vertex 2 -8.41603 10
vertex 1.5143 -9.8847 10
vertex 2 -9.31892 10
endloop
endfacet
facet normal 0 0 1
outer loop
vertex 2 -9.31892 10
vertex 1.5143 -9.8847 10
vertex 2 -9.78489 10
endloop
endfacet
facet normal 0 0 1
outer loop
vertex 10 0 10
vertex 9.9487 1.0117 10
vertex 9.7953 2.013 10
endloop
endfacet
facet normal 0 0 1
outer loop
vertex 10 0 10
vertex 9.7953 2.013 10
vertex 9.5414 2.9936 10
endloop
endfacet
facet normal 0 0 1
outer loop
vertex 10 0 10
vertex 9.5414 2.9936 10
vertex 9.1896 3.9436 10
endloop
endfacet
facet normal 0 0 1
outer loop
vertex 10 0 10
vertex 9.1896 3.9436 10
vertex 8.7435 4.853 10
endloop
endfacet
facet normal 0 0 1
outer loop
vertex 10 0 10
vertex 8.7435 4.853 10
vertex 8.2076 5.7127 10
endloop
endfacet
facet normal 0 0 1
outer loop
vertex 10 0 10
vertex 8.2076 5.7127 10
vertex 7.5876 6.5137 10
endloop
endfacet
facet normal 0 0 1
outer loop
vertex 10 0 10
vertex 7.5876 6.5137 10
vertex 6.8897 7.2479 10
endloop
endfacet
facet normal 0 0 1
outer loop
vertex 10 0 10
vertex 6.8897 7.2479 10
vertex 6.1211 7.9078 10
endloop
endfacet
facet normal 0 0 1
outer loop
vertex 10 0 10
vertex 6.1211 7.9078 10
vertex 5.2896 8.4864 10
endloop
endfacet
facet normal 0 0 1
outer loop
vertex 10 0 10
vertex 5.2896 8.4864 10
vertex 4.4039 8.978 10
endloop
endfacet
facet normal 0 0 1
outer loop
vertex 10 0 10
vertex 4.4039 8.978 10
vertex 3.4731 9.3775 10
endloop
endfacet
facet normal 0 0 1
outer loop
vertex 10 0 10
vertex 3.4731 9.3775 10
vertex 2.5065 9.6808 10
endloop
endfacet
facet normal 0 0 1
outer loop
vertex 2.5065 9.6808 10
vertex 2 9.78489 10
vertex 2 9.31892 10
endloop
endfacet
facet normal 0 0 1
outer loop
vertex 2.5065 9.6808 10
vertex 2 9.31892 10
vertex 10 0 10
endloop
endfacet
facet normal 0 0 1
outer loop
vertex 2 9.31892 10
vertex 2 8.41603 10
vertex 10 0 10
endloop
endfacet
facet normal 0 0 1
outer loop
vertex 2 8.41603 10
vertex 2 7.60459 10
vertex 10 0 10
endloop
endfacet
facet normal 0 0 1
outer loop
vertex 2 7.60459 10
vertex 2 6.86777 10
vertex 10 0 10
endloop
endfacet
facet normal 0 0 1
outer loop
vertex 2 6.86777 10
vertex 2 6.19249 10
vertex 10 0 10
endloop
endfacet
facet normal 0 0 1
outer loop
vertex 2 6.19249 10
vertex 2 5.56813 10
vertex 10 0 10
endloop
endfacet
facet normal 0 0 1
outer loop
vertex 2 5.56813 10
vertex 2 4.98643 10
vertex 10 0 10
endloop
endfacet
facet normal 0 0 1
outer loop
vertex 2 4.98643 10
vertex 2 4.44035 10
vertex 10 0 10
endloop
endfacet
facet normal 0 0 1
outer loop
vertex 2 4.44035 10
vertex 2 3.9242 10
vertex 10 0 10
endloop
endfacet
facet normal 0 0 1
outer loop
vertex 2 3.9242 10
vertex 2 3.43305 10
vertex 10 0 10
endloop
endfacet
facet normal 0 0 1
outer loop
vertex 2 3.43305 10
vertex 2 2.96286 10
vertex 10 0 10
endloop
endfacet
facet normal 0 0 1
outer loop
vertex 2 2.96286 10
vertex 2 2.51003 10
vertex 10 0 10
endloop
endfacet
facet normal 0 0 1
outer loop
vertex 2 2.51003 10
vertex 2 2.07133 10
vertex 10 0 10
endloop
endfacet
facet normal 0 0 1
outer loop
vertex 2 2.07133 10
vertex 2 1.64406 10
vertex 10 0 10
endloop
endfacet
facet normal 0 0 1
outer loop
vertex 2 1.64406 10
vertex 2 1.22554 10
vertex 10 0 10
endloop
endfacet
facet normal 0 0 1
outer loop
vertex 2 1.22554 10
vertex 2 0.81353 10
vertex 10 0 10
endloop
endfacet
facet normal 0 0 1
outer loop
vertex 2 0.81353 10
vertex 2 0.40572 10
vertex 10 0 10
endloop
endfacet
facet normal 0 0 1
outer loop
vertex 2 0.40572 10
vertex 2 0 10
vertex 10 0 10
endloop
endfacet
facet normal 0 0 1
outer loop
vertex 2 0 10
vertex 2 -0.40572 10
vertex 10 0 10
endloop
endfacet
facet normal 0 0 1
outer loop
vertex 2 -0.40572 10
vertex 2 -0.81353 10
vertex 10 0 10
endloop
endfacet
facet normal 0 0 1
outer loop
vertex 2 -0.81353 10
vertex 2 -1.22554 10
vertex 10 0 10
endloop
endfacet
facet normal 0 0 1
outer loop
vertex 2 -1.22554 10
vertex 2 -1.64406 10
vertex 10 0 10
endloop
endfacet
facet normal 0 0 1
outer loop
vertex 2 -1.64406 10
vertex 2 -2.07133 10
vertex 10 0 10
endloop
endfacet
facet normal 0 0 1
outer loop
vertex 2 -2.07133 10
vertex 2 -2.51003 10
vertex 10 0 10
endloop
endfacet
facet normal 0 0 1
outer loop
vertex 2 -2.51003 10
vertex 2 -2.96286 10
vertex 10 0 10
endloop
endfacet
facet normal 0 0 1
outer loop
vertex 2 -2.96286 10
vertex 2 -3.43305 10
vertex 10 0 10
endloop
endfacet
facet normal 0 0 1
outer loop
vertex 2 -3.43305 10
vertex 2 -3.9242 10
vertex 10 0 10
endloop
endfacet
facet normal 0 0 1
outer loop
vertex 2 -3.9242 10
vertex 2 -4.44035 10
vertex 10 0 10
endloop
endfacet
facet normal 0 0 1
outer loop
vertex 2 -4.44035 10
vertex 2 -4.98643 10
vertex 10 0 10
endloop
endfacet
facet normal 0 0 1
outer loop
vertex 2 -4.98643 10
vertex 2 -5.56813 10
vertex 10 0 10
endloop
endfacet
facet normal 0 0 1
outer loop
vertex 2 -5.56813 10
vertex 2 -6.19249 10
vertex 10 0 10
endloop
endfacet
facet normal 0 0 1
outer loop
vertex 2 -6.19249 10
vertex 2 -6.86777 10
vertex 10 0 10
endloop
endfacet
facet normal 0 0 1
outer loop
vertex 2 -6.86777 10
vertex 2 -7.60459 10
vertex 10 0 10
endloop
endfacet
facet normal 0 0 1
outer loop
vertex 2 -7.60459 10
vertex 2 -8.41603 10
vertex 10 0 10
endloop
endfacet
facet normal 0 0 1
outer loop
vertex 2 -8.41603 10
vertex 2 -9.31892 10
vertex 10 0 10
endloop
endfacet
facet normal 0 0 1
outer loop
vertex 2 -9.31892 10
vertex 2 -9.78489 10
vertex 2.5065 -9.6808 10
endloop
endfacet
facet normal 0 0 1
outer loop
vertex 2 -9.31892 10
vertex 2.5065 -9.6808 10
vertex 10 0 10
endloop
endfacet
facet normal 0 0 1
outer loop
vertex 10 0 10
vertex 2.5065 -9.6808 10
vertex 3.4731 -9.3775 10
endloop
endfacet
facet normal 0 0 1
outer loop
vertex 10 0 10
vertex 3.4731 -9.3775 10
vertex 4.4039 -8.978 10
endloop
endfacet
facet normal 0 0 1
outer loop
vertex 10 0 10
vertex 4.4039 -8.978 10
vertex 5.2896 -8.4864 10
endloop
endfacet
facet normal 0 0 1
outer loop
vertex 10 0 10
vertex 5.2896 -8.4864 10
vertex 6.1211 -7.9078 10
endloop
endfacet
facet normal 0 0 1
outer loop
vertex 10 0 10
vertex 6.1211 -7.9078 10
vertex 6.8897 -7.2479 10
endloop
endfacet
facet normal 0 0 1
outer loop
vertex 10 0 10
vertex 6.8897 -7.2479 10
vertex 7.5876 -6.5137 10
endloop
endfacet
facet normal 0 0 1
outer loop
vertex 10 0 10
vertex 7.5876 -6.5137 10
vertex 8.2076 -5.7127 10
endloop
endfacet
facet normal 0 0 1
outer loop
vertex 10 0 10
vertex 8.2076 -5.7127 10
vertex 8.7435 -4.853 10
endloop
endfacet
facet normal 0 0 1
outer loop
vertex 10 0 10
vertex 8.7435 -4.853 10
vertex 9.1896 -3.9436 10
endloop
endfacet
facet normal 0 0 1
outer loop
vertex 10 0 10
vertex 9.1896 -3.9436 10
vertex 9.5414 -2.9936 10
endloop
endfacet
facet normal 0 0 1
outer loop
vertex 10 0 10
vertex 9.5414 -2.9936 10
vertex 9.7953 -2.013 10
endloop
endfacet
facet normal 0 0 1
outer loop
vertex 10 0 10
vertex 9.7953 -2.013 10
vertex 9.9487 -1.0117 10
endloop
endfacet
facet normal 0 0 -1
outer loop
vertex 2 -9.78489 -10
vertex 1.5143 -9.8847 -10
vertex 2 -9.37374 -10
endloop
endfacet
facet normal 0 0 -1
outer loop
vertex 2 -9.37374 -10
vertex 1.5143 -9.8847 -10
vertex 0.5065 -9.9872 -10
endloop
endfacet
facet normal 0 0 -1
outer loop
vertex 2 -9.37374 -10
vertex 0.5065 -9.9872 -10
vertex 2 -8.56752 -10
endloop
endfacet
facet normal 0 0 -1
outer loop
vertex 2 -8.56752 -10
vertex 0.5065 -9.9872 -10
vertex -0.5065 -9.9872 -10
endloop
endfacet
facet normal 0 0 -1
outer loop
vertex 2 -8.56752 -10
vertex -0.5065 -9.9872 -10
vertex 2 -7.83544 -10
endloop
endfacet
facet normal 0 0 -1
outer loop
vertex 2 -7.83544 -10
vertex -0.5065 -9.9872 -10
vertex -1.5143 -9.8847 -10
endloop
endfacet
facet normal 0 0 -1
outer loop
vertex 2 -7.83544 -10
vertex -1.5143 -9.8847 -10
vertex 2 -7.16444 -10
endloop
endfacet
facet normal 0 0 -1
outer loop
vertex 2 -7.16444 -10
vertex -1.5143 -9.8847 -10
vertex -2.5065 -9.6808 -10
endloop
endfacet
facet normal 0 0 -1
outer loop
vertex 2 -7.16444 -10
vertex -2.5065 -9.6808 -10
vertex 2 -6.54417 -10
endloop
endfacet
facet normal 0 0 -1
outer loop
vertex 2 -6.54417 -10
vertex -2.5065 -9.6808 -10
vertex -3.4731 -9.3775 -10
endloop
endfacet
facet normal 0 0 -1
outer loop
vertex 2 -6.54417 -10
vertex -3.4731 -9.3775 -10
vertex 2 -5.96612 -10
endloop
endfacet
facet normal 0 0 -1
outer loop
vertex 2 -5.96612 -10
vertex -3.4731 -9.3775 -10
vertex -4.4039 -8.978 -10
endloop
endfacet
facet normal 0 0 -1
outer loop
vertex 2 -5.96612 -10
vertex -4.4039 -8.978 -10
vertex 2 -5.42356 -10
endloop
endfacet
facet normal 0 0 -1
outer loop
vertex 2 -5.42356 -10
vertex -4.4039 -8.978 -10
vertex -5.2896 -8.4864 -10
endloop
endfacet
facet normal 0 0 -1
outer loop
vertex 2 -5.42356 -10
vertex -5.2896 -8.4864 -10
vertex 2 -4.9107 -10
endloop
endfacet
facet normal 0 0 -1
outer loop
vertex 2 -4.9107 -10
vertex -5.2896 -8.4864 -10
vertex -6.1211 -7.9078 -10
endloop
endfacet
facet normal 0 0 -1
outer loop
vertex 2 -4.9107 -10
vertex -6.1211 -7.9078 -10
vertex 2 -4.42276 -10
endloop
endfacet
facet normal 0 0 -1
outer loop
vertex 2 -4.42276 -10
vertex -6.1211 -7.9078 -10
vertex -6.8897 -7.2479 -10
endloop
endfacet
facet normal 0 0 -1
outer loop
vertex 2 -4.42276 -10
vertex -6.8897 -7.2479 -10
vertex 2 -3.95555 -10
endloop
endfacet
facet normal 0 0 -1
outer loop
vertex 2 -3.95555 -10
vertex -6.8897 -7.2479 -10
vertex -7.5876 -6.5137 -10
endloop
endfacet
facet normal 0 0 -1
outer loop
vertex 2 -3.95555 -10
vertex -7.5876 -6.5137 -10
vertex 2 -3.5056 -10
endloop
endfacet
facet normal 0 0 -1
outer loop
vertex 2 -3.5056 -10
vertex -7.5876 -6.5137 -10
vertex -8.2076 -5.7127 -10
endloop
endfacet
facet normal 0 0 -1
outer loop
vertex 2 -3.5056 -10
vertex -8.2076 -5.7127 -10
vertex 2 -3.06976 -10
endloop
endfacet
facet normal 0 0 -1
outer loop
vertex 2 -3.06976 -10
vertex -8.2076 -5.7127 -10
vertex -8.7435 -4.853 -10
endloop
endfacet
facet normal 0 0 -1
outer loop
vertex 2 -3.06976 -10
vertex -8.7435 -4.853 -10
vertex 2 -2.64518 -10
endloop
endfacet
facet normal 0 0 -1
outer loop
vertex 2 -2.64518 -10
vertex -8.7435 -4.853 -10
vertex -9.1896 -3.9436 -10
endloop
endfacet
facet normal 0 0 -1
outer loop
vertex 2 -2.64518 -10
vertex -9.1896 -3.9436 -10
vertex 2 -2.2294 -10
endloop
endfacet
facet normal 0 0 -1
outer loop
vertex 2 -2.2294 -10
vertex -9.1896 -3.9436 -10
vertex -9.5414 -2.9936 -10
endloop
endfacet
facet normal 0 0 -1
outer loop
vertex 2 -2.2294 -10
vertex -9.5414 -2.9936 -10
vertex 2 -1.81998 -10
endloop
endfacet
facet normal 0 0 -1
outer loop
vertex 2 -1.81998 -10
vertex -9.5414 -2.9936 -10
vertex -9.7953 -2.013 -10
endloop
endfacet
facet normal 0 0 -1
outer loop
vertex 2 -1.81998 -10
vertex -9.7953 -2.013 -10
vertex 2 -1.41481 -10
endloop
endfacet
facet normal 0 0 -1
outer loop
vertex 2 -1.41481 -10
vertex -9.7953 -2.013 -10
vertex -9.9487 -1.0117 -10
endloop
endfacet
facet normal 0 0 -1
outer loop
vertex 2 -1.41481 -10
vertex -9.9487 -1.0117 -10
vertex 2 -1.0117 -10
endloop
endfacet
facet normal 0 0 -1
outer loop
vertex 2 -1.0117 -10
vertex -9.9487 -1.0117 -10
vertex -10 0 -10
endloop
endfacet
facet normal 0 0 -1
outer loop
vertex 2 -1.0117 -10
vertex -10 0 -10
vertex 2 -0.60858 -10
endloop
endfacet
facet normal 0 0 -1
outer loop
vertex 2 -0.60858 -10
vertex -10 0 -10
vertex -9.9487 1.0117 -10
endloop
endfacet
facet normal 0 0 -1
outer loop
vertex 2 -0.60858 -10
vertex -9.9487 1.0117 -10
vertex 2 -0.20338 -10
endloop
endfacet
facet normal 0 0 -1
outer loop
vertex 2 -0.20338 -10
vertex -9.9487 1.0117 -10
vertex -9.7953 2.013 -10
endloop
endfacet
facet normal 0 0 -1
outer loop
vertex 2 -0.20338 -10
vertex -9.7953 2.013 -10
vertex 2 0.20601 -10
endloop
endfacet
facet normal 0 0 -1
outer loop
vertex 2 0.20601 -10
vertex -9.7953 2.013 -10
vertex -9.5414 2.9936 -10
endloop
endfacet
facet normal 0 0 -1
outer loop
vertex 2 0.20601 -10
vertex -9.5414 2.9936 -10
vertex 2 0.62179 -10
endloop
endfacet
facet normal 0 0 -1
outer loop
vertex 2 0.62179 -10
vertex -9.5414 2.9936 -10
vertex -9.1896 3.9436 -10
endloop
endfacet
facet normal 0 0 -1
outer loop
vertex 2 0.62179 -10
vertex -9.1896 3.9436 -10
vertex 2 1.04638 -10
endloop
endfacet
facet normal 0 0 -1
outer loop
vertex 2 1.04638 -10
vertex -9.1896 3.9436 -10
vertex -8.7435 4.853 -10
endloop
endfacet
facet normal 0 0 -1
outer loop
vertex 2 1.04638 -10
vertex -8.7435 4.853 -10
vertex 2 1.48221 -10
endloop
endfacet
facet normal 0 0 -1
outer loop
vertex 2 1.48221 -10
vertex -8.7435 4.853 -10
vertex -8.2076 5.7127 -10
endloop
endfacet
facet normal 0 0 -1
outer loop
vertex 2 1.48221 -10
vertex -8.2076 5.7127 -10
vertex 2 1.93219 -10
endloop
endfacet
facet normal 0 0 -1
outer loop
vertex 2 1.93219 -10
vertex -8.2076 5.7127 -10
vertex -7.5876 6.5137 -10
endloop
endfacet
facet normal 0 0 -1
outer loop
vertex 2 1.93219 -10
vertex -7.5876 6.5137 -10
vertex 2 2.39935 -10
endloop
endfacet
facet normal 0 0 -1
outer loop
vertex 2 2.39935 -10
vertex -7.5876 6.5137 -10
vertex -6.8897 7.2479 -10
endloop
endfacet
facet normal 0 0 -1
outer loop
vertex 2 2.39935 -10
vertex -6.8897 7.2479 -10
vertex 2 2.88731 -10
endloop
endfacet
facet normal 0 0 -1
outer loop
vertex 2 2.88731 -10
vertex -6.8897 7.2479 -10
vertex -6.1211 7.9078 -10
endloop
endfacet
facet normal 0 0 -1
outer loop
vertex 2 2.88731 -10
vertex -6.1211 7.9078 -10
vertex 2 3.4002 -10
endloop
endfacet
facet normal 0 0 -1
outer loop
vertex 2 3.4002 -10
vertex -6.1211 7.9078 -10
vertex -5.2896 8.4864 -10
endloop
endfacet
facet normal 0 0 -1
outer loop
vertex 2 3.4002 -10
vertex -5.2896 8.4864 -10
vertex 2 3.94276 -10
endloop
endfacet
facet normal 0 0 -1
outer loop
vertex 2 3.94276 -10
vertex -5.2896 8.4864 -10
vertex -4.4039 8.978 -10
endloop
endfacet
facet normal 0 0 -1
outer loop
vertex 2 3.94276 -10
vertex -4.4039 8.978 -10
vertex 2 4.52076 -10
endloop
endfacet
facet normal 0 0 -1
outer loop
vertex 2 4.52076 -10
vertex -4.4039 8.978 -10
vertex -3.4731 9.3775 -10
endloop
endfacet
facet normal 0 0 -1
outer loop
vertex 2 4.52076 -10
vertex -3.4731 9.3775 -10
vertex 2 5.14102 -10
endloop
endfacet
facet normal 0 0 -1
outer loop
vertex 2 5.14102 -10
vertex -3.4731 9.3775 -10
vertex -2.5065 9.6808 -10
endloop
endfacet
facet normal 0 0 -1
outer loop
vertex 2 5.14102 -10
vertex -2.5065 9.6808 -10
vertex 2 5.81207 -10
endloop
endfacet
facet normal 0 0 -1
outer loop
vertex 2 5.81207 -10
vertex -2.5065 9.6808 -10
vertex -1.5143 9.8847 -10
endloop
endfacet
facet normal 0 0 -1
outer loop
vertex 2 5.81207 -10
vertex -1.5143 9.8847 -10
vertex 2 6.54411 -10
endloop
endfacet
facet normal 0 0 -1
outer loop
vertex 2 6.54411 -10
vertex -1.5143 9.8847 -10
vertex -0.5065 9.9872 -10
endloop
endfacet
facet normal 0 0 -1
outer loop
vertex 2 6.54411 -10
vertex -0.5065 9.9872 -10
vertex 2 7.35035 -10
endloop
endfacet
facet normal 0 0 -1
outer loop
vertex 2 7.35035 -10
vertex -0.5065 9.9872 -10
vertex 0.5065 9.9872 -10
endloop
endfacet
facet normal 0 0 -1
outer loop
vertex 2 7.35035 -10
vertex 0.5065 9.9872 -10
vertex 2 8.24747 -10
endloop
endfacet
facet normal 0 0 -1
outer loop
vertex 2 8.24747 -10
vertex 0.5065 9.9872 -10
vertex 1.5143 9.8847 -10
endloop
endfacet
facet normal 0 0 -1
outer loop
vertex 2 8.24747 -10
vertex 1.5143 9.8847 -10
vertex 2 9.25722 -10
endloop
endfacet
facet normal 0 0 -1
outer loop
vertex 2 9.25722 -10
vertex 1.5143 9.8847 -10
vertex 2 9.78489 -10
endloop
endfacet
facet normal 0 0 -1
outer loop
vertex 9.9487 -1.0117 -10
vertex 9.7953 -2.013 -10
vertex 9.5414 -2.9936 -10
endloop
endfacet
facet normal 0 0 -1
outer loop
vertex 9.9487 -1.0117 -10
vertex 9.5414 -2.9936 -10
vertex 9.1896 -3.9436 -10
endloop
endfacet
facet normal 0 0 -1
outer loop
vertex 9.9487 -1.0117 -10
vertex 9.1896 -3.9436 -10
vertex 8.7435 -4.853 -10
endloop
endfacet
facet normal 0 0 -1
outer loop
vertex 9.9487 -1.0117 -10
vertex 8.7435 -4.853 -10
vertex 8.2076 -5.7127 -10
endloop
endfacet
facet normal 0 0 -1
outer loop
vertex 9.9487 -1.0117 -10
vertex 8.2076 -5.7127 -10
vertex 7.5876 -6.5137 -10
endloop
endfacet
facet normal 0 0 -1
outer loop
vertex 9.9487 -1.0117 -10
vertex 7.5876 -6.5137 -10
vertex 6.8897 -7.2479 -10
endloop
endfacet
facet normal 0 0 -1
outer loop
vertex 9.9487 -1.0117 -10
vertex 6.8897 -7.2479 -10
vertex 6.1211 -7.9078 -10
endloop
endfacet
facet normal 0 0 -1
outer loop
vertex 9.9487 -1.0117 -10
vertex 6.1211 -7.9078 -10
vertex 5.2896 -8.4864 -10
endloop
endfacet
facet normal 0 0 -1
outer loop
vertex 9.9487 -1.0117 -10
vertex 5.2896 -8.4864 -10
vertex 4.4039 -8.978 -10
endloop
endfacet
facet normal 0 0 -1
outer loop
vertex 9.9487 -1.0117 -10
vertex 4.4039 -8.978 -10
vertex 3.4731 -9.3775 -10
endloop
endfacet
facet normal 0 0 -1
outer loop
vertex 9.9487 -1.0117 -10
vertex 3.4731 -9.3775 -10
vertex 2.5065 -9.6808 -10
endloop
endfacet
facet normal 0 0 -1
outer loop
vertex 2.5065 -9.6808 -10
vertex 2 -9.78489 -10
vertex 2 -9.37374 -10
endloop
endfacet
facet normal 0 0 -1
outer loop
vertex 2.5065 -9.6808 -10
vertex 2 -9.37374 -10
vertex 9.9487 -1.0117 -10
endloop
endfacet
facet normal 0 0 -1
outer loop
vertex 2 -9.37374 -10
vertex 2 -8.56752 -10
vertex 9.9487 -1.0117 -10
endloop
endfacet
facet normal 0 0 -1
outer loop
vertex 2 -8.56752 -10
vertex 2 -7.83544 -10
vertex 9.9487 -1.0117 -10
endloop
endfacet
facet normal 0 0 -1
outer loop
vertex 2 -7.83544 -10
vertex 2 -7.16444 -10
vertex 9.9487 -1.0117 -10
endloop
endfacet
facet normal 0 0 -1
outer loop
vertex 2 -7.16444 -10
vertex 2 -6.54417 -10
vertex 9.9487 -1.0117 -10
endloop
endfacet
facet normal 0 0 -1
outer loop
vertex 2 -6.54417 -10
vertex 2 -5.96612 -10
vertex 9.9487 -1.0117 -10
endloop
endfacet
facet normal 0 0 -1
outer loop
vertex 2 -5.96612 -10
vertex 2 -5.42356 -10
vertex 9.9487 -1.0117 -10
endloop
endfacet
facet normal 0 0 -1
outer loop
vertex 2 -5.42356 -10
vertex 2 -4.9107 -10
vertex 9.9487 -1.0117 -10
endloop
endfacet
facet normal 0 0 -1
outer loop
vertex 2 -4.9107 -10
vertex 2 -4.42276 -10
vertex 9.9487 -1.0117 -10
endloop
endfacet
facet normal 0 0 -1
outer loop
vertex 2 -4.42276 -10
vertex 2 -3.95555 -10
vertex 9.9487 -1.0117 -10
endloop
endfacet
facet normal 0 0 -1
outer loop
vertex 2 -3.95555 -10
vertex 2 -3.5056 -10
vertex 9.9487 -1.0117 -10
endloop
endfacet
facet normal 0 0 -1
outer loop
vertex 2 -3.5056 -10
vertex 2 -3.06976 -10
vertex 9.9487 -1.0117 -10
endloop
endfacet
facet normal 0 0 -1
outer loop
vertex 2 -3.06976 -10
vertex 2 -2.64518 -10
vertex 9.9487 -1.0117 -10
endloop
endfacet
facet normal 0 0 -1
outer loop
vertex 2 -2.64518 -10
vertex 2 -2.2294 -10
vertex 9.9487 -1.0117 -10
endloop
endfacet
facet normal 0 0 -1
outer loop
vertex 2 -2.2294 -10
vertex 2 -1.81998 -10
vertex 9.9487 -1.0117 -10
endloop
endfacet
facet normal 0 0 -1
outer loop
vertex 2 -1.81998 -10
vertex 2 -1.41481 -10
vertex 9.9487 -1.0117 -10
endloop
endfacet
facet normal 0 0 -1
outer loop
vertex 2 -1.41481 -10
vertex 2 -1.0117 -10
vertex 9.9487 -1.0117 -10
endloop
endfacet
facet normal 0 0 -1
outer loop
vertex 2 -1.0117 -10
vertex 2 -0.60858 -10
vertex 9.9487 -1.0117 -10
endloop
endfacet
facet normal 0 0 -1
outer loop
vertex 2 -0.60858 -10
vertex 2 -0.20338 -10
vertex 9.9487 -1.0117 -10
endloop
endfacet
facet normal 0 0 -1
outer loop
vertex 2 -0.20338 -10
vertex 2 0.20601 -10
vertex 9.9487 -1.0117 -10
endloop
endfacet
facet normal 0 0 -1
outer loop
vertex 2 0.20601 -10
vertex 2 0.62179 -10
vertex 9.9487 -1.0117 -10
endloop
endfacet
facet normal 0 0 -1
outer loop
vertex 2 0.62179 -10
vertex 2 1.04638 -10
vertex 9.9487 -1.0117 -10
endloop
endfacet
facet normal 0 0 -1
outer loop
vertex 2 1.04638 -10
vertex 2 1.48221 -10
vertex 9.9487 -1.0117 -10
endloop
endfacet
facet normal 0 0 -1
outer loop
vertex 2 1.48221 -10
vertex 2 1.93219 -10
vertex 9.9487 -1.0117 -10
endloop
endfacet
facet normal 0 0 -1
outer loop
vertex 2 1.93219 -10
vertex 2 2.39935 -10
vertex 9.9487 -1.0117 -10
endloop
endfacet
facet normal 0 0 -1
outer loop
vertex 2 2.39935 -10
vertex 2 2.88731 -10
vertex 9.9487 -1.0117 -10
endloop
endfacet
facet normal 0 0 -1
outer loop
vertex 2 2.88731 -10
vertex 2 3.4002 -10
vertex 9.9487 -1.0117 -10
endloop
endfacet
facet normal 0 0 -1
outer loop
vertex 2 3.4002 -10
vertex 2 3.94276 -10
vertex 9.9487 -1.0117 -10
endloop
endfacet
facet normal 0 0 -1
outer loop
vertex 2 3.94276 -10
vertex 2 4.52076 -10
vertex 9.9487 -1.0117 -10
endloop
endfacet
facet normal 0 0 -1
outer loop
vertex 2 4.52076 -10
vertex 2 5.14102 -10
vertex 9.9487 -1.0117 -10
endloop
endfacet
facet normal 0 0 -1
outer loop
vertex 2 5.14102 -10
vertex 2 5.81207 -10
vertex 9.9487 -1.0117 -10
endloop
endfacet
facet normal 0 0 -1
outer loop
vertex 2 5.81207 -10
vertex 2 6.54411 -10
vertex 9.9487 -1.0117 -10
endloop
endfacet
facet normal 0 0 -1
outer loop
vertex 2 6.54411 -10
vertex 2 7.35035 -10
vertex 9.9487 -1.0117 -10
endloop
endfacet
facet normal 0 0 -1
outer loop
vertex 2 7.35035 -10
vertex 2 8.24747 -10
vertex 9.9487 -1.0117 -10
endloop
endfacet
facet normal 0 0 -1
outer loop
vertex 2 8.24747 -10
vertex 2 9.25722 -10
vertex 9.9487 -1.0117 -10
endloop
endfacet
facet normal 0 0 -1
outer loop
vertex 2 9.25722 -10
vertex 2 9.78489 -10
vertex 2.5065 9.6808 -10
endloop
endfacet
facet normal 0 0 -1
outer loop
vertex 2 9.25722 -10
vertex 2.5065 9.6808 -10
vertex 9.9487 -1.0117 -10
endloop
endfacet
facet normal 0 0 -1
outer loop
vertex 9.9487 -1.0117 -10
vertex 2.5065 9.6808 -10
vertex 3.4731 9.3775 -10
endloop
endfacet
facet normal 0 0 -1
outer loop
vertex 9.9487 -1.0117 -10
vertex 3.4731 9.3775 -10
vertex 4.4039 8.978 -10
endloop
endfacet
facet normal 0 0 -1
outer loop
vertex 9.9487 -1.0117 -10
vertex 4.4039 8.978 -10
vertex 5.2896 8.4864 -10
endloop
endfacet
facet normal 0 0 -1
outer loop
vertex 9.9487 -1.0117 -10
vertex 5.2896 8.4864 -10
vertex 6.1211 7.9078 -10
endloop
endfacet
facet normal 0 0 -1
outer loop
vertex 9.9487 -1.0117 -10
vertex 6.1211 7.9078 -10
vertex 6.8897 7.2479 -10
endloop
endfacet
facet normal 0 0 -1
outer loop
vertex 9.9487 -1.0117 -10
vertex 6.8897 7.2479 -10
vertex 7.5876 6.5137 -10
endloop
endfacet
facet normal 0 0 -1
outer loop
vertex 9.9487 -1.0117 -10
vertex 7.5876 6.5137 -10
vertex 8.2076 5.7127 -10
endloop
endfacet
facet normal 0 0 -1
outer loop
vertex 9.9487 -1.0117 -10
vertex 8.2076 5.7127 -10
vertex 8.7435 4.853 -10
endloop
endfacet
facet normal 0 0 -1
outer loop
vertex 9.9487 -1.0117 -10
vertex 8.7435 4.853 -10
vertex 9.1896 3.9436 -10
endloop
endfacet
facet normal 0 0 -1
outer loop
vertex 9.9487 -1.0117 -10
vertex 9.1896 3.9436 -10
vertex 9.5414 2.9936 -10
endloop
endfacet
facet normal 0 0 -1
outer loop
vertex 9.9487 -1.0117 -10
vertex 9.5414 2.9936 -10
vertex 9.7953 2.013 -10
endloop
endfacet
facet normal 0 0 -1
outer loop
vertex 9.9487 -1.0117 -10
vertex 9.7953 2.013 -10
vertex 9.9487 1.0117 -10
endloop
endfacet
facet normal 0 0 -1
outer loop
vertex 9.9487 -1.0117 -10
vertex 9.9487 1.0117 -10
vertex 10 0 -10
endloop
endfacet
facet normal 1 0 0
outer loop
vertex 2 9.78489 -2.44622
vertex 2 -9.78489 2.44622
vertex 2 -9.78489 -2.5
endloop
endfacet
facet normal 1 0 0
outer loop
vertex 2 9.78489 -2.44622
vertex 2 -9.78489 -2.5
vertex 2 9.78489 -2.5
endloop
endfacet
facet normal 1 0 0
outer loop
vertex 2 9.78489 2.5
vertex 2 -9.78489 2.5
vertex 2 -9.78489 2.44622
endloop
endfacet
facet normal 1 0 0
outer loop
vertex 2 9.78489 2.5
vertex 2 -9.78489 2.44622
vertex 2 9.78489 -2.44622
endloop
endfacet
facet normal 0 0 -1
outer loop
vertex 8.7435 4.853 2.5
vertex 9.08174 4.16348 2.5
vertex 2.11987 -9.76025 2.5
endloop
endfacet
facet normal 0 0 -1
outer loop
vertex 8.7435 4.853 2.5
vertex 2.11987 -9.76025 2.5
vertex 2 -9.78489 2.5
endloop
endfacet
facet normal 0 0 -1
outer loop
vertex 8.7435 4.853 2.5
vertex 2 -9.78489 2.5
vertex 2 9.78489 2.5
endloop
endfacet
facet normal 0 0 -1
outer loop
vertex 8.7435 4.853 2.5
vertex 2 9.78489 2.5
vertex 2.5065 9.6808 2.5
endloop
endfacet
facet normal 0 0 -1
outer loop
vertex 8.7435 4.853 2.5
vertex 2.5065 9.6808 2.5
vertex 3.4731 9.3775 2.5
endloop
endfacet
facet normal 0 0 -1
outer loop
vertex 8.7435 4.853 2.5
vertex 3.4731 9.3775 2.5
vertex 4.4039 8.978 2.5
endloop
endfacet
facet normal 0 0 -1
outer loop
vertex 8.7435 4.853 2.5
vertex 4.4039 8.978 2.5
vertex 5.2896 8.4864 2.5
endloop
endfacet
facet normal 0 0 -1
outer loop
vertex 8.7435 4.853 2.5
vertex 5.2896 8.4864 2.5
vertex 6.1211 7.9078 2.5
endloop
endfacet
facet normal 0 0 -1
outer loop
vertex 8.7435 4.853 2.5
vertex 6.1211 7.9078 2.5
vertex 6.8897 7.2479 2.5
endloop
endfacet
facet normal 0 0 -1
outer loop
vertex 8.7435 4.853 2.5
vertex 6.8897 7.2479 2.5
vertex 7.5876 6.5137 2.5
endloop
endfacet
facet normal 0 0 -1
outer loop
vertex 8.7435 4.853 2.5
vertex 7.5876 6.5137 2.5
vertex 8.2076 5.7127 2.5
endloop
endfacet
facet normal 0 0 -1
outer loop
vertex 9.9487 -1.0117 2.5
vertex 9.7953 -2.013 2.5
vertex 9.5414 -2.9936 2.5
endloop
endfacet
facet normal 0 0 -1
outer loop
vertex 9.9487 -1.0117 2.5
vertex 9.5414 -2.9936 2.5
vertex 9.1896 -3.9436 2.5
endloop
endfacet
facet normal 0 0 -1
outer loop
vertex 9.9487 -1.0117 2.5
vertex 9.1896 -3.9436 2.5
vertex 8.7435 -4.853 2.5
endloop
endfacet
facet normal 0 0 -1
outer loop
vertex 9.9487 -1.0117 2.5
vertex 8.7435 -4.853 2.5
vertex 8.2076 -5.7127 2.5
endloop
endfacet
facet normal 0 0 -1
outer loop
vertex 9.9487 -1.0117 2.5
vertex 8.2076 -5.7127 2.5
vertex 7.5876 -6.5137 2.5
endloop
endfacet
facet normal 0 0 -1
outer loop
vertex 9.9487 -1.0117 2.5
vertex 7.5876 -6.5137 2.5
vertex 6.8897 -7.2479 2.5
endloop
endfacet
facet normal 0 0 -1
outer loop
vertex 9.9487 -1.0117 2.5
vertex 6.8897 -7.2479 2.5
vertex 6.1211 -7.9078 2.5
endloop
endfacet
facet normal 0 0 -1
outer loop
vertex 9.9487 -1.0117 2.5
vertex 6.1211 -7.9078 2.5
vertex 5.2896 -8.4864 2.5
endloop
endfacet
facet normal 0 0 -1
outer loop
vertex 9.9487 -1.0117 2.5
vertex 5.2896 -8.4864 2.5
vertex 4.4039 -8.978 2.5
endloop
endfacet
facet normal 0 0 -1
outer loop
vertex 9.9487 -1.0117 2.5
vertex 4.4039 -8.978 2.5
vertex 3.4731 -9.3775 2.5
endloop
endfacet
facet normal 0 0 -1
outer loop
vertex 9.9487 -1.0117 2.5
vertex 3.4731 -9.3775 2.5
vertex 2.5065 -9.6808 2.5
endloop
endfacet
facet normal 0 0 -1
outer loop
vertex 9.9487 -1.0117 2.5
vertex 2.5065 -9.6808 2.5
vertex 2.11987 -9.76025 2.5
endloop
endfacet
facet normal 0 0 -1
outer loop
vertex 9.9487 -1.0117 2.5
vertex 2.11987 -9.76025 2.5
vertex 9.08174 4.16348 2.5
endloop
endfacet
facet normal 0 0 -1
outer loop
vertex 9.9487 -1.0117 2.5
vertex 9.08174 4.16348 2.5
vertex 9.1896 3.9436 2.5
endloop
endfacet
facet normal 0 0 -1
outer loop
vertex 9.9487 -1.0117 2.5
vertex 9.1896 3.9436 2.5
vertex 9.5414 2.9936 2.5
endloop
endfacet
facet normal 0 0 -1
outer loop
vertex 9.9487 -1.0117 2.5
vertex 9.5414 2.9936 2.5
vertex 9.7953 2.013 2.5
endloop
endfacet
facet normal 0 0 -1
outer loop
vertex 9.9487 -1.0117 2.5
vertex 9.7953 2.013 2.5
vertex 9.9487 1.0117 2.5
endloop
endfacet
facet normal 0 0 -1
outer loop
vertex 9.9487 -1.0117 2.5
vertex 9.9487 1.0117 2.5
vertex 10 0 2.5
endloop
endfacet
facet normal 0 0 1
outer loop
vertex 2 9.78489 -2.5
vertex 2 -9.78489 -2.5
vertex 2.5065 -9.6808 -2.5
endloop
endfacet
facet normal 0 0 1
outer loop
vertex 2 9.78489 -2.5
vertex 2.5065 -9.6808 -2.5
vertex 3.4731 -9.3775 -2.5
endloop
endfacet
facet normal 0 0 1
outer loop
vertex 2 9.78489 -2.5
vertex 3.4731 -9.3775 -2.5
vertex 4.4039 -8.978 -2.5
endloop
endfacet
facet normal 0 0 1
outer loop
vertex 2 9.78489 -2.5
vertex 4.4039 -8.978 -2.5
vertex 5.2896 -8.4864 -2.5
endloop
endfacet
facet normal 0 0 1
outer loop
vertex 2 9.78489 -2.5
vertex 5.2896 -8.4864 -2.5
vertex 6.1211 -7.9078 -2.5
endloop
endfacet
facet normal 0 0 1
outer loop
vertex 2 9.78489 -2.5
vertex 6.1211 -7.9078 -2.5
vertex 6.8897 -7.2479 -2.5
endloop
endfacet
facet normal 0 0 1
outer loop
vertex 2 9.78489 -2.5
vertex 6.8897 -7.2479 -2.5
vertex 7.5876 -6.5137 -2.5
endloop
endfacet
facet normal 0 0 1
outer loop
vertex 2 9.78489 -2.5
vertex 7.5876 -6.5137 -2.5
vertex 8.2076 -5.7127 -2.5
endloop
endfacet
facet normal 0 0 1
outer loop
vertex 2 9.78489 -2.5
vertex 8.2076 -5.7127 -2.5
vertex 8.7435 -4.853 -2.5
endloop
endfacet
facet normal 0 0 1
outer loop
vertex 2 9.78489 -2.5
vertex 8.7435 -4.853 -2.5
vertex 9.08174 -4.16348 -2.5
endloop
endfacet
facet normal 0 0 1
outer loop
vertex 2 9.78489 -2.5
vertex 9.08174 -4.16348 -2.5
vertex 2.11987 9.76025 -2.5
endloop
endfacet
facet normal 0 0 1
outer loop
vertex 3.4731 9.3775 -2.5
vertex 2.5065 9.6808 -2.5
vertex 2.11987 9.76025 -2.5
endloop
endfacet
facet normal 0 0 1
outer loop
vertex 3.4731 9.3775 -2.5
vertex 2.11987 9.76025 -2.5
vertex 9.08174 -4.16348 -2.5
endloop
endfacet
facet normal 0 0 1
outer loop
vertex 3.4731 9.3775 -2.5
vertex 9.08174 -4.16348 -2.5
vertex 9.1896 -3.9436 -2.5
endloop
endfacet
facet normal 0 0 1
outer loop
vertex 3.4731 9.3775 -2.5
vertex 9.1896 -3.9436 -2.5
vertex 9.5414 -2.9936 -2.5
endloop
endfacet
facet normal 0 0 1
outer loop
vertex 3.4731 9.3775 -2.5
vertex 9.5414 -2.9936 -2.5
vertex 9.7953 -2.013 -2.5
endloop
endfacet
facet normal 0 0 1
outer loop
vertex 3.4731 9.3775 -2.5
vertex 9.7953 -2.013 -2.5
vertex 9.9487 -1.0117 -2.5
endloop
endfacet
facet normal 0 0 1
outer loop
vertex 3.4731 9.3775 -2.5
vertex 9.9487 -1.0117 -2.5
vertex 10 0 -2.5
endloop
endfacet
facet normal 0 0 1
outer loop
vertex 3.4731 9.3775 -2.5
vertex 10 0 -2.5
vertex 9.9487 1.0117 -2.5
endloop
endfacet
facet normal 0 0 1
outer loop
vertex 3.4731 9.3775 -2.5
vertex 9.9487 1.0117 -2.5
vertex 9.7953 2.013 -2.5
endloop
endfacet
facet normal 0 0 1
outer loop
vertex 3.4731 9.3775 -2.5
vertex 9.7953 2.013 -2.5
vertex 9.5414 2.9936 -2.5
endloop
endfacet
facet normal 0 0 1
outer loop
vertex 3.4731 9.3775 -2.5
vertex 9.5414 2.9936 -2.5
vertex 9.1896 3.9436 -2.5
endloop
endfacet
facet normal 0 0 1
outer loop
vertex 3.4731 9.3775 -2.5
vertex 9.1896 3.9436 -2.5
vertex 8.7435 4.853 -2.5
endloop
endfacet
facet normal 0 0 1
outer loop
vertex 3.4731 9.3775 -2.5
vertex 8.7435 4.853 -2.5
vertex 8.2076 5.7127 -2.5
endloop
endfacet
facet normal 0 0 1
outer loop
vertex 3.4731 9.3775 -2.5
vertex 8.2076 5.7127 -2.5
vertex 7.5876 6.5137 -2.5
endloop
endfacet
facet normal 0 0 1
outer loop
vertex 3.4731 9.3775 -2.5
vertex 7.5876 6.5137 -2.5
vertex 6.8897 7.2479 -2.5
endloop
endfacet
facet normal 0 0 1
outer loop
vertex 3.4731 9.3775 -2.5
vertex 6.8897 7.2479 -2.5
vertex 6.1211 7.9078 -2.5
endloop
endfacet
facet normal 0 0 1
outer loop
vertex 3.4731 9.3775 -2.5
vertex 6.1211 7.9078 -2.5
vertex 5.2896 8.4864 -2.5
endloop
endfacet
facet normal 0 0 1
outer loop
vertex 3.4731 9.3775 -2.5
vertex 5.2896 8.4864 -2.5
vertex 4.4039 8.978 -2.5
endloop
endfacet
endsolid JSxCAD
