<?xml version="1.0" encoding="UTF-8"?>
<!-- Generated by jsxcad -->
<!DOCTYPE svg PUBLIC "-//W3C//DTD SVG 1.1 Tiny//EN" "http://www.w3.org/Graphics/SVG/1.1/DTD/svg11-tiny.dtd">
<svg baseProfile="tiny" height="20 mm" width="39.9936 mm" viewBox="0 0 39.9936 20" version="1.1" stroke="black" stroke-width=".1" fill="none" xmlns="http://www.w3.org/2000/svg">
<path d="M39.9684 20 L39.9684 0 L39.8926 20 z"/>
<path d="M39.8926 20 L39.9684 0 L39.8926 0 z"/>
<path d="M39.8926 20 L39.8926 0 L39.7666 20 z"/>
<path d="M39.7666 20 L39.8926 0 L39.7666 0 z"/>
<path d="M39.7666 20 L39.7666 0 L39.5908 20 z"/>
<path d="M39.5908 20 L39.7666 0 L39.5908 0 z"/>
<path d="M39.5908 20 L39.5908 0 L39.3652 20 z"/>
<path d="M39.3652 20 L39.5908 0 L39.3652 0 z"/>
<path d="M39.3652 20 L39.3652 0 L39.0908 20 z"/>
<path d="M39.0908 20 L39.3652 0 L39.0908 0 z"/>
<path d="M39.0908 20 L39.0908 0 L38.7682 20 z"/>
<path d="M38.7682 20 L39.0908 0 L38.7682 0 z"/>
<path d="M38.7682 20 L38.7682 0 L38.3982 20 z"/>
<path d="M38.3982 20 L38.7682 0 L38.3982 0 z"/>
<path d="M38.3982 20 L38.3982 0 L37.9818 20 z"/>
<path d="M37.9818 20 L38.3982 0 L37.9818 0 z"/>
<path d="M37.9818 20 L37.9818 0 L37.5198 20 z"/>
<path d="M37.5198 20 L37.9818 0 L37.5198 0 z"/>
<path d="M37.30695 8.40626 L37.0134 20 L37.30695 20 z"/>
<path d="M37.30695 8.40626 L37.30695 0 L37.0134 0 z"/>
<path d="M37.30695 8.40626 L37.0134 0 L37.0134 20 z"/>
<path d="M37.5198 0 L37.30695 8.40626 L37.30695 20 z"/>
<path d="M37.5198 0 L37.30695 20 L37.5198 20 z"/>
<path d="M37.30695 8.40626 L37.5198 0 L37.30695 0 z"/>
<path d="M37.0134 20 L37.0134 0 L36.4642 20 z"/>
<path d="M36.4642 20 L37.0134 0 L36.4642 0 z"/>
<path d="M36.4642 20 L36.4642 0 L35.8734 20 z"/>
<path d="M35.8734 20 L36.4642 0 L35.8734 0 z"/>
<path d="M35.8734 20 L35.8734 0 L35.2424 20 z"/>
<path d="M35.2424 20 L35.8734 0 L35.2424 0 z"/>
<path d="M35.2424 20 L35.2424 0 L34.573 20 z"/>
<path d="M34.573 20 L35.2424 0 L34.573 0 z"/>
<path d="M34.573 20 L34.573 0 L33.8666 20 z"/>
<path d="M33.8666 20 L34.573 0 L33.8666 0 z"/>
<path d="M33.8666 20 L33.8666 0 L33.1254 20 z"/>
<path d="M33.1254 20 L33.8666 0 L33.1254 0 z"/>
<path d="M33.1254 20 L33.1254 0 L32.3508 20 z"/>
<path d="M32.3508 20 L33.1254 0 L32.3508 0 z"/>
<path d="M32.3508 20 L32.3508 0 L31.545 20 z"/>
<path d="M31.545 20 L32.3508 0 L31.545 0 z"/>
<path d="M31.545 20 L31.545 0 L30.7102 20 z"/>
<path d="M30.7102 20 L31.545 0 L30.7102 0 z"/>
<path d="M30.7102 20 L30.7102 0 L29.8482 20 z"/>
<path d="M29.8482 20 L30.7102 0 L29.8482 0 z"/>
<path d="M29.8482 20 L29.8482 0 L28.9612 20 z"/>
<path d="M28.9612 20 L29.8482 0 L28.9612 0 z"/>
<path d="M28.9612 20 L28.9612 0 L28.0518 20 z"/>
<path d="M28.0518 20 L28.9612 0 L28.0518 0 z"/>
<path d="M28.0518 20 L28.0518 0 L27.1218 20 z"/>
<path d="M27.1218 20 L28.0518 0 L27.1218 0 z"/>
<path d="M27.1218 20 L27.1218 0 L26.174 20 z"/>
<path d="M26.174 20 L27.1218 0 L26.174 0 z"/>
<path d="M26.174 20 L26.174 0 L25.2104 20 z"/>
<path d="M25.2104 20 L26.174 0 L25.2104 0 z"/>
<path d="M25.2104 20 L25.2104 0 L24.2338 20 z"/>
<path d="M24.2338 20 L25.2104 0 L24.2338 0 z"/>
<path d="M24.2338 20 L24.2338 0 L23.2464 20 z"/>
<path d="M23.2464 20 L24.2338 0 L23.2464 0 z"/>
<path d="M23.2464 20 L23.2464 0 L22.2508 20 z"/>
<path d="M22.2508 20 L23.2464 0 L22.2508 0 z"/>
<path d="M22.2508 20 L22.2508 0 L21.2494 20 z"/>
<path d="M21.2494 20 L22.2508 0 L21.2494 0 z"/>
<path d="M21.2494 20 L21.2494 0 L20.245 20 z"/>
<path d="M20.245 20 L21.2494 0 L20.245 0 z"/>
<path d="M20.245 20 L20.245 0 L19.2398 20 z"/>
<path d="M19.2398 20 L20.245 0 L19.2398 0 z"/>
<path d="M19.2398 20 L19.2398 0 L18.2366 20 z"/>
<path d="M18.2366 20 L19.2398 0 L18.2366 0 z"/>
<path d="M18.2366 20 L18.2366 0 L17.2378 20 z"/>
<path d="M17.2378 20 L18.2366 0 L17.2378 0 z"/>
<path d="M17.2378 20 L17.2378 0 L16.246 20 z"/>
<path d="M16.246 20 L17.2378 0 L16.246 0 z"/>
<path d="M16.246 20 L16.246 0 L15.2636 20 z"/>
<path d="M15.2636 20 L16.246 0 L15.2636 0 z"/>
<path d="M15.2636 20 L15.2636 0 L14.2932 20 z"/>
<path d="M14.2932 20 L15.2636 0 L14.2932 0 z"/>
<path d="M14.2932 20 L14.2932 0 L13.3372 20 z"/>
<path d="M13.3372 20 L14.2932 0 L13.3372 0 z"/>
<path d="M13.3372 20 L13.3372 0 L12.398 20 z"/>
<path d="M12.398 20 L13.3372 0 L12.398 0 z"/>
<path d="M12.398 20 L12.398 0 L11.478 20 z"/>
<path d="M11.478 20 L12.398 0 L11.478 0 z"/>
<path d="M11.478 20 L11.478 0 L10.5796 20 z"/>
<path d="M10.5796 20 L11.478 0 L10.5796 0 z"/>
<path d="M10.5796 20 L10.5796 0 L9.7048 20 z"/>
<path d="M9.7048 20 L10.5796 0 L9.7048 0 z"/>
<path d="M9.7048 20 L9.7048 0 L8.856 20 z"/>
<path d="M8.856 20 L9.7048 0 L8.856 0 z"/>
<path d="M8.856 20 L8.856 0 L8.0356 20 z"/>
<path d="M8.0356 20 L8.856 0 L8.0356 0 z"/>
<path d="M8.0356 20 L8.0356 0 L7.2452 20 z"/>
<path d="M7.2452 20 L8.0356 0 L7.2452 0 z"/>
<path d="M7.2452 20 L7.2452 0 L6.487 20 z"/>
<path d="M6.487 20 L7.2452 0 L6.487 0 z"/>
<path d="M6.487 20 L6.487 0 L5.7628 20 z"/>
<path d="M5.7628 20 L6.487 0 L5.7628 0 z"/>
<path d="M5.7628 20 L5.7628 0 L5.0748 20 z"/>
<path d="M5.0748 20 L5.7628 0 L5.0748 0 z"/>
<path d="M5.0748 20 L5.0748 0 L4.4244 20 z"/>
<path d="M4.4244 20 L5.0748 0 L4.4244 0 z"/>
<path d="M4.4244 20 L4.4244 0 L3.8132 20 z"/>
<path d="M3.8132 20 L4.4244 0 L3.8132 0 z"/>
<path d="M3.8132 20 L3.8132 0 L3.243 20 z"/>
<path d="M3.243 20 L3.8132 0 L3.243 0 z"/>
<path d="M3.243 20 L3.243 0 L2.7152 20 z"/>
<path d="M2.7152 20 L3.243 0 L2.7152 0 z"/>
<path d="M2.7152 0 L2.67538 1.64396 L2.67538 20 z"/>
<path d="M2.7152 0 L2.67538 20 L2.7152 20 z"/>
<path d="M2.67538 1.64396 L2.7152 0 L2.67538 0 z"/>
<path d="M2.67538 1.64396 L2.2308 20 L2.67538 20 z"/>
<path d="M2.67538 1.64396 L2.67538 0 L2.2308 0 z"/>
<path d="M2.67538 1.64396 L2.2308 0 L2.2308 20 z"/>
<path d="M2.2308 20 L2.2308 0 L1.7914 20 z"/>
<path d="M1.7914 20 L2.2308 0 L1.7914 0 z"/>
<path d="M1.7914 20 L1.7914 0 L1.398 20 z"/>
<path d="M1.398 20 L1.7914 0 L1.398 0 z"/>
<path d="M1.398 20 L1.398 0 L1.0516 20 z"/>
<path d="M1.0516 20 L1.398 0 L1.0516 0 z"/>
<path d="M1.0516 20 L1.0516 0 L0.753 20 z"/>
<path d="M0.753 20 L1.0516 0 L0.753 0 z"/>
<path d="M0.753 20 L0.753 0 L0.503 20 z"/>
<path d="M0.503 20 L0.753 0 L0.503 0 z"/>
<path d="M0.503 20 L0.503 0 L0.3024 20 z"/>
<path d="M0.3024 20 L0.503 0 L0.3024 0 z"/>
<path d="M0.3024 20 L0.3024 0 L0.1514 20 z"/>
<path d="M0.1514 20 L0.3024 0 L0.1514 0 z"/>
<path d="M0.1514 20 L0.1514 0 L0.0504 20 z"/>
<path d="M0.0504 20 L0.1514 0 L0.0504 0 z"/>
<path d="M0.0504 20 L0.0504 0 L0 20 z"/>
<path d="M0 20 L0.0504 0 L0 0 z"/>
<path d="M0 20 L0 0 L0 20 z"/>
<path d="M0 20 L0 0 L0 0 z"/>
<path d="M0 20 L0 0 L0.0504 20 z"/>
<path d="M0.0504 20 L0 0 L0.0504 0 z"/>
<path d="M0.0504 20 L0.0504 0 L0.1514 20 z"/>
<path d="M0.1514 20 L0.0504 0 L0.1514 0 z"/>
<path d="M0.1514 20 L0.1514 0 L0.3024 20 z"/>
<path d="M0.3024 20 L0.1514 0 L0.3024 0 z"/>
<path d="M0.3024 20 L0.3024 0 L0.503 20 z"/>
<path d="M0.503 20 L0.3024 0 L0.503 0 z"/>
<path d="M0.503 20 L0.503 0 L0.753 20 z"/>
<path d="M0.753 20 L0.503 0 L0.753 0 z"/>
<path d="M0.753 20 L0.753 0 L1.0516 20 z"/>
<path d="M1.0516 20 L0.753 0 L1.0516 0 z"/>
<path d="M1.0516 20 L1.0516 0 L1.398 20 z"/>
<path d="M1.398 20 L1.0516 0 L1.398 0 z"/>
<path d="M1.398 20 L1.398 0 L1.7914 20 z"/>
<path d="M1.7914 20 L1.398 0 L1.7914 0 z"/>
<path d="M1.7914 20 L1.7914 0 L2.2308 20 z"/>
<path d="M2.2308 20 L1.7914 0 L2.2308 0 z"/>
<path d="M2.2308 20 L2.2308 0 L2.7152 20 z"/>
<path d="M2.7152 20 L2.2308 0 L2.7152 0 z"/>
<path d="M2.7152 20 L2.7152 0 L3.243 20 z"/>
<path d="M3.243 20 L2.7152 0 L3.243 0 z"/>
<path d="M3.243 20 L3.243 0 L3.8132 20 z"/>
<path d="M3.8132 20 L3.243 0 L3.8132 0 z"/>
<path d="M3.8132 20 L3.8132 0 L4.4244 20 z"/>
<path d="M4.4244 20 L3.8132 0 L4.4244 0 z"/>
<path d="M4.4244 20 L4.4244 0 L5.0748 20 z"/>
<path d="M5.0748 20 L4.4244 0 L5.0748 0 z"/>
<path d="M5.0748 20 L5.0748 0 L5.7628 20 z"/>
<path d="M5.7628 20 L5.0748 0 L5.7628 0 z"/>
<path d="M5.7628 20 L5.7628 0 L6.487 20 z"/>
<path d="M6.487 20 L5.7628 0 L6.487 0 z"/>
<path d="M6.487 20 L6.487 0 L7.2452 20 z"/>
<path d="M7.2452 20 L6.487 0 L7.2452 0 z"/>
<path d="M7.2452 20 L7.2452 0 L8.0356 20 z"/>
<path d="M8.0356 20 L7.2452 0 L8.0356 0 z"/>
<path d="M8.0356 20 L8.0356 0 L8.856 20 z"/>
<path d="M8.856 20 L8.0356 0 L8.856 0 z"/>
<path d="M8.856 20 L8.856 0 L9.7048 20 z"/>
<path d="M9.7048 20 L8.856 0 L9.7048 0 z"/>
<path d="M9.7048 20 L9.7048 0 L10.5796 20 z"/>
<path d="M10.5796 20 L9.7048 0 L10.5796 0 z"/>
<path d="M10.5796 20 L10.5796 0 L11.478 20 z"/>
<path d="M11.478 20 L10.5796 0 L11.478 0 z"/>
<path d="M11.478 20 L11.478 0 L12.398 20 z"/>
<path d="M12.398 20 L11.478 0 L12.398 0 z"/>
<path d="M12.398 20 L12.398 0 L13.3372 20 z"/>
<path d="M13.3372 20 L12.398 0 L13.3372 0 z"/>
<path d="M13.3372 20 L13.3372 0 L14.2932 20 z"/>
<path d="M14.2932 20 L13.3372 0 L14.2932 0 z"/>
<path d="M14.2932 20 L14.2932 0 L15.2636 20 z"/>
<path d="M15.2636 20 L14.2932 0 L15.2636 0 z"/>
<path d="M15.2636 20 L15.2636 0 L16.246 20 z"/>
<path d="M16.246 20 L15.2636 0 L16.246 0 z"/>
<path d="M16.246 20 L16.246 0 L17.2378 20 z"/>
<path d="M17.2378 20 L16.246 0 L17.2378 0 z"/>
<path d="M17.2378 20 L17.2378 0 L18.2366 20 z"/>
<path d="M18.2366 20 L17.2378 0 L18.2366 0 z"/>
<path d="M18.2366 20 L18.2366 0 L19.2398 20 z"/>
<path d="M19.2398 20 L18.2366 0 L19.2398 0 z"/>
<path d="M19.2398 20 L19.2398 0 L20.245 20 z"/>
<path d="M20.245 20 L19.2398 0 L20.245 0 z"/>
<path d="M20.245 20 L20.245 0 L21.2494 20 z"/>
<path d="M21.2494 20 L20.245 0 L21.2494 0 z"/>
<path d="M21.2494 0 L21.9936 14.86319 L21.9936 20 z"/>
<path d="M21.2494 0 L21.9936 20 L21.2494 20 z"/>
<path d="M21.9936 14.86319 L21.2494 0 L21.9936 0 z"/>
<path d="M21.9936 14.86319 L22.2508 20 L21.9936 20 z"/>
<path d="M21.9936 14.86319 L21.9936 0 L22.2508 0 z"/>
<path d="M21.9936 14.86319 L22.2508 0 L22.2508 20 z"/>
<path d="M22.2508 20 L22.2508 0 L23.2464 20 z"/>
<path d="M23.2464 20 L22.2508 0 L23.2464 0 z"/>
<path d="M23.2464 20 L23.2464 0 L24.2338 20 z"/>
<path d="M24.2338 20 L23.2464 0 L24.2338 0 z"/>
<path d="M24.2338 20 L24.2338 0 L25.2104 20 z"/>
<path d="M25.2104 20 L24.2338 0 L25.2104 0 z"/>
<path d="M25.2104 20 L25.2104 0 L26.174 20 z"/>
<path d="M26.174 20 L25.2104 0 L26.174 0 z"/>
<path d="M26.174 20 L26.174 0 L27.1218 20 z"/>
<path d="M27.1218 20 L26.174 0 L27.1218 0 z"/>
<path d="M27.1218 20 L27.1218 0 L28.0518 20 z"/>
<path d="M28.0518 20 L27.1218 0 L28.0518 0 z"/>
<path d="M28.0518 20 L28.0518 0 L28.9612 20 z"/>
<path d="M28.9612 20 L28.0518 0 L28.9612 0 z"/>
<path d="M28.9612 20 L28.9612 0 L29.8482 20 z"/>
<path d="M29.8482 20 L28.9612 0 L29.8482 0 z"/>
<path d="M29.8482 20 L29.8482 0 L30.7102 20 z"/>
<path d="M30.7102 20 L29.8482 0 L30.7102 0 z"/>
<path d="M30.7102 20 L30.7102 0 L31.545 20 z"/>
<path d="M31.545 20 L30.7102 0 L31.545 0 z"/>
<path d="M31.545 20 L31.545 0 L32.3508 20 z"/>
<path d="M32.3508 20 L31.545 0 L32.3508 0 z"/>
<path d="M32.3508 20 L32.3508 0 L33.1254 20 z"/>
<path d="M33.1254 20 L32.3508 0 L33.1254 0 z"/>
<path d="M33.1254 20 L33.1254 0 L33.8666 20 z"/>
<path d="M33.8666 20 L33.1254 0 L33.8666 0 z"/>
<path d="M33.8666 20 L33.8666 0 L34.573 20 z"/>
<path d="M34.573 20 L33.8666 0 L34.573 0 z"/>
<path d="M34.573 20 L34.573 0 L35.2424 20 z"/>
<path d="M35.2424 20 L34.573 0 L35.2424 0 z"/>
<path d="M35.2424 20 L35.2424 0 L35.8734 20 z"/>
<path d="M35.8734 20 L35.2424 0 L35.8734 0 z"/>
<path d="M35.8734 20 L35.8734 0 L36.4642 20 z"/>
<path d="M36.4642 20 L35.8734 0 L36.4642 0 z"/>
<path d="M36.4642 20 L36.4642 0 L37.0134 20 z"/>
<path d="M37.0134 20 L36.4642 0 L37.0134 0 z"/>
<path d="M37.0134 0 L37.30695 11.59374 L37.30695 20 z"/>
<path d="M37.0134 0 L37.30695 20 L37.0134 20 z"/>
<path d="M37.30695 11.59374 L37.0134 0 L37.30695 0 z"/>
<path d="M37.30695 11.59374 L37.5198 20 L37.30695 20 z"/>
<path d="M37.30695 11.59374 L37.30695 0 L37.5198 0 z"/>
<path d="M37.30695 11.59374 L37.5198 0 L37.5198 20 z"/>
<path d="M37.5198 20 L37.5198 0 L37.9818 20 z"/>
<path d="M37.9818 20 L37.5198 0 L37.9818 0 z"/>
<path d="M37.9818 20 L37.9818 0 L38.3982 20 z"/>
<path d="M38.3982 20 L37.9818 0 L38.3982 0 z"/>
<path d="M38.3982 20 L38.3982 0 L38.7682 20 z"/>
<path d="M38.7682 20 L38.3982 0 L38.7682 0 z"/>
<path d="M38.7682 20 L38.7682 0 L39.0908 20 z"/>
<path d="M39.0908 20 L38.7682 0 L39.0908 0 z"/>
<path d="M39.0908 20 L39.0908 0 L39.3652 20 z"/>
<path d="M39.3652 20 L39.0908 0 L39.3652 0 z"/>
<path d="M39.3652 20 L39.3652 0 L39.5908 20 z"/>
<path d="M39.5908 20 L39.3652 0 L39.5908 0 z"/>
<path d="M39.5908 20 L39.5908 0 L39.7666 20 z"/>
<path d="M39.7666 20 L39.5908 0 L39.7666 0 z"/>
<path d="M39.7666 20 L39.7666 0 L39.8926 20 z"/>
<path d="M39.8926 20 L39.7666 0 L39.8926 0 z"/>
<path d="M39.8926 20 L39.8926 0 L39.9684 20 z"/>
<path d="M39.9684 20 L39.8926 0 L39.9684 0 z"/>
<path d="M39.9684 20 L39.9684 0 L39.9936 20 z"/>
<path d="M39.9936 20 L39.9684 0 L39.9936 0 z"/>
<path d="M39.9936 20 L39.9936 0 L39.9684 20 z"/>
<path d="M39.9684 20 L39.9936 0 L39.9684 0 z"/>
<path d="M2.67538 0 L2.7152 0 L2.98316 0 z"/>
<path d="M2.98316 0 L2.7152 0 L3.243 0 z"/>
<path d="M2.98316 0 L3.243 0 L6.36323 0 z"/>
<path d="M6.36323 0 L3.243 0 L3.8132 0 z"/>
<path d="M6.36323 0 L3.8132 0 L9.21696 0 z"/>
<path d="M9.21696 0 L3.8132 0 L4.4244 0 z"/>
<path d="M9.21696 0 L4.4244 0 L11.66019 0 z"/>
<path d="M11.66019 0 L4.4244 0 L5.0748 0 z"/>
<path d="M11.66019 0 L5.0748 0 L13.77868 0 z"/>
<path d="M13.77868 0 L5.0748 0 L5.7628 0 z"/>
<path d="M13.77868 0 L5.7628 0 L15.63524 0 z"/>
<path d="M15.63524 0 L5.7628 0 L6.487 0 z"/>
<path d="M15.63524 0 L6.487 0 L17.27757 0 z"/>
<path d="M17.27757 0 L6.487 0 L7.2452 0 z"/>
<path d="M17.27757 0 L7.2452 0 L18.74248 0 z"/>
<path d="M18.74248 0 L7.2452 0 L8.0356 0 z"/>
<path d="M18.74248 0 L8.0356 0 L20.05897 0 z"/>
<path d="M20.05897 0 L8.0356 0 L8.856 0 z"/>
<path d="M20.05897 0 L8.856 0 L21.24956 0 z"/>
<path d="M21.24956 0 L8.856 0 L9.7048 0 z"/>
<path d="M21.24956 0 L9.7048 0 L22.33311 0 z"/>
<path d="M22.33311 0 L9.7048 0 L10.5796 0 z"/>
<path d="M22.33311 0 L10.5796 0 L23.32448 0 z"/>
<path d="M23.32448 0 L10.5796 0 L11.478 0 z"/>
<path d="M23.32448 0 L11.478 0 L24.23616 0 z"/>
<path d="M24.23616 0 L11.478 0 L12.398 0 z"/>
<path d="M24.23616 0 L12.398 0 L25.07835 0 z"/>
<path d="M25.07835 0 L12.398 0 L13.3372 0 z"/>
<path d="M25.07835 0 L13.3372 0 L25.85962 0 z"/>
<path d="M25.85962 0 L13.3372 0 L14.2932 0 z"/>
<path d="M25.85962 0 L14.2932 0 L26.58731 0 z"/>
<path d="M26.58731 0 L14.2932 0 L15.2636 0 z"/>
<path d="M26.58731 0 L15.2636 0 L27.26756 0 z"/>
<path d="M27.26756 0 L15.2636 0 L16.246 0 z"/>
<path d="M27.26756 0 L16.246 0 L27.90572 0 z"/>
<path d="M27.90572 0 L16.246 0 L17.2378 0 z"/>
<path d="M27.90572 0 L17.2378 0 L28.50611 0 z"/>
<path d="M28.50611 0 L17.2378 0 L18.2366 0 z"/>
<path d="M28.50611 0 L18.2366 0 L29.07284 0 z"/>
<path d="M29.07284 0 L18.2366 0 L19.2398 0 z"/>
<path d="M29.07284 0 L19.2398 0 L29.60933 0 z"/>
<path d="M29.60933 0 L19.2398 0 L20.245 0 z"/>
<path d="M29.60933 0 L20.245 0 L30.11851 0 z"/>
<path d="M30.11851 0 L20.245 0 L21.2494 0 z"/>
<path d="M30.11851 0 L21.2494 0 L30.603 0 z"/>
<path d="M30.603 0 L21.2494 0 L22.2508 0 z"/>
<path d="M30.603 0 L22.2508 0 L31.06515 0 z"/>
<path d="M31.06515 0 L22.2508 0 L23.2464 0 z"/>
<path d="M31.06515 0 L23.2464 0 L31.50704 0 z"/>
<path d="M31.50704 0 L23.2464 0 L24.2338 0 z"/>
<path d="M31.50704 0 L24.2338 0 L31.93042 0 z"/>
<path d="M31.93042 0 L24.2338 0 L25.2104 0 z"/>
<path d="M31.93042 0 L25.2104 0 L32.33693 0 z"/>
<path d="M32.33693 0 L25.2104 0 L26.174 0 z"/>
<path d="M32.33693 0 L26.174 0 L32.72823 0 z"/>
<path d="M32.72823 0 L26.174 0 L27.1218 0 z"/>
<path d="M32.72823 0 L27.1218 0 L33.10535 0 z"/>
<path d="M33.10535 0 L27.1218 0 L28.0518 0 z"/>
<path d="M33.10535 0 L28.0518 0 L33.46974 0 z"/>
<path d="M33.46974 0 L28.0518 0 L28.9612 0 z"/>
<path d="M33.46974 0 L28.9612 0 L33.82225 0 z"/>
<path d="M33.82225 0 L28.9612 0 L29.8482 0 z"/>
<path d="M33.82225 0 L29.8482 0 L34.16412 0 z"/>
<path d="M34.16412 0 L29.8482 0 L30.7102 0 z"/>
<path d="M34.16412 0 L30.7102 0 L34.4961 0 z"/>
<path d="M34.4961 0 L30.7102 0 L31.545 0 z"/>
<path d="M34.4961 0 L31.545 0 L34.81892 0 z"/>
<path d="M34.81892 0 L31.545 0 L32.3508 0 z"/>
<path d="M34.81892 0 L32.3508 0 L35.13356 0 z"/>
<path d="M35.13356 0 L32.3508 0 L33.1254 0 z"/>
<path d="M35.13356 0 L33.1254 0 L35.4406 0 z"/>
<path d="M35.4406 0 L33.1254 0 L33.8666 0 z"/>
<path d="M35.4406 0 L33.8666 0 L35.74057 0 z"/>
<path d="M35.74057 0 L33.8666 0 L34.573 0 z"/>
<path d="M35.74057 0 L34.573 0 L36.03436 0 z"/>
<path d="M36.03436 0 L34.573 0 L35.2424 0 z"/>
<path d="M36.03436 0 L35.2424 0 L36.32222 0 z"/>
<path d="M36.32222 0 L35.2424 0 L35.8734 0 z"/>
<path d="M36.32222 0 L35.8734 0 L36.60489 0 z"/>
<path d="M36.60489 0 L35.8734 0 L36.4642 0 z"/>
<path d="M36.60489 0 L36.4642 0 L36.88274 0 z"/>
<path d="M36.88274 0 L36.4642 0 L37.0134 0 z"/>
<path d="M36.88274 0 L37.0134 0 L37.15623 0 z"/>
<path d="M37.15623 0 L37.0134 0 L37.30695 0 z"/>
<path d="M21.9936 0 L21.2494 0 L21.9936 0 z"/>
<path d="M21.9936 0 L21.2494 0 L20.245 0 z"/>
<path d="M21.9936 0 L20.245 0 L21.9936 0 z"/>
<path d="M21.9936 0 L20.245 0 L19.2398 0 z"/>
<path d="M21.9936 0 L19.2398 0 L21.9936 0 z"/>
<path d="M21.9936 0 L19.2398 0 L18.2366 0 z"/>
<path d="M21.9936 0 L18.2366 0 L21.9936 0 z"/>
<path d="M21.9936 0 L18.2366 0 L17.2378 0 z"/>
<path d="M21.9936 0 L17.2378 0 L21.9936 0 z"/>
<path d="M21.9936 0 L17.2378 0 L16.246 0 z"/>
<path d="M21.9936 0 L16.246 0 L21.9936 0 z"/>
<path d="M21.9936 0 L16.246 0 L15.2636 0 z"/>
<path d="M21.9936 0 L15.2636 0 L21.9936 0 z"/>
<path d="M21.9936 0 L15.2636 0 L14.2932 0 z"/>
<path d="M21.9936 0 L14.2932 0 L21.9936 0 z"/>
<path d="M21.9936 0 L14.2932 0 L13.3372 0 z"/>
<path d="M21.9936 0 L13.3372 0 L21.9936 0 z"/>
<path d="M21.9936 0 L13.3372 0 L12.398 0 z"/>
<path d="M21.9936 0 L12.398 0 L21.9936 0 z"/>
<path d="M21.9936 0 L12.398 0 L11.478 0 z"/>
<path d="M21.9936 0 L11.478 0 L21.9936 0 z"/>
<path d="M21.9936 0 L11.478 0 L10.5796 0 z"/>
<path d="M21.9936 0 L10.5796 0 L21.9936 0 z"/>
<path d="M21.9936 0 L10.5796 0 L9.7048 0 z"/>
<path d="M21.9936 0 L9.7048 0 L21.9936 0 z"/>
<path d="M21.9936 0 L9.7048 0 L8.856 0 z"/>
<path d="M21.9936 0 L8.856 0 L21.9936 0 z"/>
<path d="M21.9936 0 L8.856 0 L8.0356 0 z"/>
<path d="M21.9936 0 L8.0356 0 L21.9936 0 z"/>
<path d="M21.9936 0 L8.0356 0 L7.2452 0 z"/>
<path d="M21.9936 0 L7.2452 0 L21.9936 0 z"/>
<path d="M21.9936 0 L7.2452 0 L6.487 0 z"/>
<path d="M21.9936 0 L6.487 0 L21.9936 0 z"/>
<path d="M21.9936 0 L6.487 0 L5.7628 0 z"/>
<path d="M21.9936 0 L5.7628 0 L21.9936 0 z"/>
<path d="M21.9936 0 L5.7628 0 L5.0748 0 z"/>
<path d="M21.9936 0 L5.0748 0 L21.9936 0 z"/>
<path d="M21.9936 0 L5.0748 0 L4.4244 0 z"/>
<path d="M21.9936 0 L4.4244 0 L21.9936 0 z"/>
<path d="M21.9936 0 L4.4244 0 L3.8132 0 z"/>
<path d="M21.9936 0 L3.8132 0 L21.9936 0 z"/>
<path d="M21.9936 0 L3.8132 0 L3.243 0 z"/>
<path d="M21.9936 0 L3.243 0 L21.9936 0 z"/>
<path d="M21.9936 0 L3.243 0 L2.7152 0 z"/>
<path d="M21.9936 0 L2.7152 0 L21.9936 0 z"/>
<path d="M21.9936 0 L2.7152 0 L2.2308 0 z"/>
<path d="M21.9936 0 L2.2308 0 L21.9936 0 z"/>
<path d="M21.9936 0 L2.2308 0 L1.7914 0 z"/>
<path d="M21.9936 0 L1.7914 0 L21.9936 0 z"/>
<path d="M21.9936 0 L1.7914 0 L1.398 0 z"/>
<path d="M21.9936 0 L1.398 0 L21.9936 0 z"/>
<path d="M21.9936 0 L1.398 0 L1.0516 0 z"/>
<path d="M21.9936 0 L1.0516 0 L21.9936 0 z"/>
<path d="M21.9936 0 L1.0516 0 L0.753 0 z"/>
<path d="M21.9936 0 L0.753 0 L21.9936 0 z"/>
<path d="M21.9936 0 L0.753 0 L0.503 0 z"/>
<path d="M21.9936 0 L0.503 0 L21.9936 0 z"/>
<path d="M21.9936 0 L0.503 0 L0.3024 0 z"/>
<path d="M21.9936 0 L0.3024 0 L21.9936 0 z"/>
<path d="M21.9936 0 L0.3024 0 L0.1514 0 z"/>
<path d="M21.9936 0 L0.1514 0 L21.9936 0 z"/>
<path d="M21.9936 0 L0.1514 0 L0.0504 0 z"/>
<path d="M21.9936 0 L0.0504 0 L21.9936 0 z"/>
<path d="M21.9936 0 L0.0504 0 L0 0 z"/>
<path d="M21.9936 0 L0 0 L21.9936 0 z"/>
<path d="M21.9936 0 L0 0 L0 0 z"/>
<path d="M21.9936 0 L0 0 L21.9936 0 z"/>
<path d="M21.9936 0 L0 0 L0.0504 0 z"/>
<path d="M21.9936 0 L0.0504 0 L21.9936 0 z"/>
<path d="M21.9936 0 L0.0504 0 L0.1514 0 z"/>
<path d="M21.9936 0 L0.1514 0 L21.9936 0 z"/>
<path d="M21.9936 0 L0.1514 0 L0.3024 0 z"/>
<path d="M21.9936 0 L0.3024 0 L21.9936 0 z"/>
<path d="M21.9936 0 L0.3024 0 L0.503 0 z"/>
<path d="M21.9936 0 L0.503 0 L21.9936 0 z"/>
<path d="M21.9936 0 L0.503 0 L0.753 0 z"/>
<path d="M21.9936 0 L0.753 0 L21.9936 0 z"/>
<path d="M21.9936 0 L0.753 0 L1.0516 0 z"/>
<path d="M21.9936 0 L1.0516 0 L21.9936 0 z"/>
<path d="M21.9936 0 L1.0516 0 L1.398 0 z"/>
<path d="M21.9936 0 L1.398 0 L21.9936 0 z"/>
<path d="M21.9936 0 L1.398 0 L1.7914 0 z"/>
<path d="M21.9936 0 L1.7914 0 L21.9936 0 z"/>
<path d="M21.9936 0 L1.7914 0 L2.2308 0 z"/>
<path d="M21.9936 0 L2.2308 0 L21.9936 0 z"/>
<path d="M2.67538 0 L2.98316 0 L21.9936 0 z"/>
<path d="M2.67538 0 L21.9936 0 L21.9936 0 z"/>
<path d="M2.67538 0 L21.9936 0 L2.2308 0 z"/>
<path d="M6.36323 0 L21.9936 0 L21.9936 0 z"/>
<path d="M6.36323 0 L21.9936 0 L2.98316 0 z"/>
<path d="M9.21696 0 L21.9936 0 L21.9936 0 z"/>
<path d="M9.21696 0 L21.9936 0 L6.36323 0 z"/>
<path d="M11.66019 0 L21.9936 0 L21.9936 0 z"/>
<path d="M11.66019 0 L21.9936 0 L9.21696 0 z"/>
<path d="M13.77868 0 L21.9936 0 L21.9936 0 z"/>
<path d="M13.77868 0 L21.9936 0 L11.66019 0 z"/>
<path d="M15.63524 0 L21.9936 0 L21.9936 0 z"/>
<path d="M15.63524 0 L21.9936 0 L13.77868 0 z"/>
<path d="M17.27757 0 L21.9936 0 L21.9936 0 z"/>
<path d="M17.27757 0 L21.9936 0 L15.63524 0 z"/>
<path d="M18.74248 0 L21.9936 0 L21.9936 0 z"/>
<path d="M18.74248 0 L21.9936 0 L17.27757 0 z"/>
<path d="M20.05897 0 L21.9936 0 L21.9936 0 z"/>
<path d="M20.05897 0 L21.9936 0 L18.74248 0 z"/>
<path d="M21.24956 0 L21.9936 0 L21.9936 0 z"/>
<path d="M21.24956 0 L21.9936 0 L20.05897 0 z"/>
<path d="M21.9936 0 L21.9936 0 L21.24956 0 z"/>
<path d="M37.30695 0 L37.0134 0 L37.15623 0 z"/>
<path d="M37.15623 0 L37.0134 0 L36.4642 0 z"/>
<path d="M37.15623 0 L36.4642 0 L36.88274 0 z"/>
<path d="M36.88274 0 L36.4642 0 L35.8734 0 z"/>
<path d="M36.88274 0 L35.8734 0 L36.60489 0 z"/>
<path d="M36.60489 0 L35.8734 0 L35.2424 0 z"/>
<path d="M36.60489 0 L35.2424 0 L36.32222 0 z"/>
<path d="M36.32222 0 L35.2424 0 L34.573 0 z"/>
<path d="M36.32222 0 L34.573 0 L36.03436 0 z"/>
<path d="M36.03436 0 L34.573 0 L33.8666 0 z"/>
<path d="M36.03436 0 L33.8666 0 L35.74057 0 z"/>
<path d="M35.74057 0 L33.8666 0 L33.1254 0 z"/>
<path d="M35.74057 0 L33.1254 0 L35.4406 0 z"/>
<path d="M35.4406 0 L33.1254 0 L32.3508 0 z"/>
<path d="M35.4406 0 L32.3508 0 L35.13356 0 z"/>
<path d="M35.13356 0 L32.3508 0 L31.545 0 z"/>
<path d="M35.13356 0 L31.545 0 L34.81892 0 z"/>
<path d="M34.81892 0 L31.545 0 L30.7102 0 z"/>
<path d="M34.81892 0 L30.7102 0 L34.4961 0 z"/>
<path d="M34.4961 0 L30.7102 0 L29.8482 0 z"/>
<path d="M34.4961 0 L29.8482 0 L34.16412 0 z"/>
<path d="M34.16412 0 L29.8482 0 L28.9612 0 z"/>
<path d="M34.16412 0 L28.9612 0 L33.82225 0 z"/>
<path d="M33.82225 0 L28.9612 0 L28.0518 0 z"/>
<path d="M33.82225 0 L28.0518 0 L33.46974 0 z"/>
<path d="M33.46974 0 L28.0518 0 L27.1218 0 z"/>
<path d="M33.46974 0 L27.1218 0 L33.10535 0 z"/>
<path d="M33.10535 0 L27.1218 0 L26.174 0 z"/>
<path d="M33.10535 0 L26.174 0 L32.72823 0 z"/>
<path d="M32.72823 0 L26.174 0 L25.2104 0 z"/>
<path d="M32.72823 0 L25.2104 0 L32.33693 0 z"/>
<path d="M32.33693 0 L25.2104 0 L24.2338 0 z"/>
<path d="M32.33693 0 L24.2338 0 L31.93042 0 z"/>
<path d="M31.93042 0 L24.2338 0 L23.2464 0 z"/>
<path d="M31.93042 0 L23.2464 0 L31.50704 0 z"/>
<path d="M31.50704 0 L23.2464 0 L22.2508 0 z"/>
<path d="M31.50704 0 L22.2508 0 L31.06515 0 z"/>
<path d="M21.9936 0 L21.9936 0 L30.603 0 z"/>
<path d="M21.9936 0 L30.603 0 L31.06515 0 z"/>
<path d="M21.9936 0 L31.06515 0 L22.2508 0 z"/>
<path d="M21.9936 0 L30.11851 0 L30.603 0 z"/>
<path d="M21.9936 0 L30.603 0 L21.9936 0 z"/>
<path d="M21.9936 0 L29.60933 0 L30.11851 0 z"/>
<path d="M21.9936 0 L30.11851 0 L21.9936 0 z"/>
<path d="M21.9936 0 L29.07284 0 L29.60933 0 z"/>
<path d="M21.9936 0 L29.60933 0 L21.9936 0 z"/>
<path d="M21.9936 0 L28.50611 0 L29.07284 0 z"/>
<path d="M21.9936 0 L29.07284 0 L21.9936 0 z"/>
<path d="M21.9936 0 L27.90572 0 L28.50611 0 z"/>
<path d="M21.9936 0 L28.50611 0 L21.9936 0 z"/>
<path d="M21.9936 0 L27.26756 0 L27.90572 0 z"/>
<path d="M21.9936 0 L27.90572 0 L21.9936 0 z"/>
<path d="M21.9936 0 L26.58731 0 L27.26756 0 z"/>
<path d="M21.9936 0 L27.26756 0 L21.9936 0 z"/>
<path d="M21.9936 0 L25.85962 0 L26.58731 0 z"/>
<path d="M21.9936 0 L26.58731 0 L21.9936 0 z"/>
<path d="M21.9936 0 L25.07835 0 L25.85962 0 z"/>
<path d="M21.9936 0 L25.85962 0 L21.9936 0 z"/>
<path d="M21.9936 0 L24.23616 0 L25.07835 0 z"/>
<path d="M21.9936 0 L25.07835 0 L21.9936 0 z"/>
<path d="M21.9936 0 L23.32448 0 L24.23616 0 z"/>
<path d="M21.9936 0 L24.23616 0 L21.9936 0 z"/>
<path d="M21.9936 0 L22.33311 0 L23.32448 0 z"/>
<path d="M21.9936 0 L23.32448 0 L21.9936 0 z"/>
<path d="M21.9936 0 L22.33311 0 L21.9936 0 z"/>
<path d="M39.9936 0 L39.9684 0 L39.8926 0 z"/>
<path d="M39.9936 0 L39.8926 0 L39.7666 0 z"/>
<path d="M39.9936 0 L39.7666 0 L39.5908 0 z"/>
<path d="M39.9936 0 L39.5908 0 L39.3652 0 z"/>
<path d="M39.9936 0 L39.3652 0 L39.0908 0 z"/>
<path d="M39.9936 0 L39.0908 0 L38.7682 0 z"/>
<path d="M39.9936 0 L38.7682 0 L38.3982 0 z"/>
<path d="M39.9936 0 L38.3982 0 L37.9818 0 z"/>
<path d="M39.9936 0 L37.9818 0 L37.5198 0 z"/>
<path d="M37.5198 0 L37.30695 0 L37.15623 0 z"/>
<path d="M37.5198 0 L37.15623 0 L39.9936 0 z"/>
<path d="M37.15623 0 L36.88274 0 L39.9936 0 z"/>
<path d="M36.88274 0 L36.60489 0 L39.9936 0 z"/>
<path d="M36.60489 0 L36.32222 0 L39.9936 0 z"/>
<path d="M36.32222 0 L36.03436 0 L39.9936 0 z"/>
<path d="M36.03436 0 L35.74057 0 L39.9936 0 z"/>
<path d="M35.74057 0 L35.4406 0 L39.9936 0 z"/>
<path d="M35.4406 0 L35.13356 0 L39.9936 0 z"/>
<path d="M35.13356 0 L34.81892 0 L39.9936 0 z"/>
<path d="M34.81892 0 L34.4961 0 L39.9936 0 z"/>
<path d="M34.4961 0 L34.16412 0 L39.9936 0 z"/>
<path d="M34.16412 0 L33.82225 0 L39.9936 0 z"/>
<path d="M33.82225 0 L33.46974 0 L39.9936 0 z"/>
<path d="M33.46974 0 L33.10535 0 L39.9936 0 z"/>
<path d="M33.10535 0 L32.72823 0 L39.9936 0 z"/>
<path d="M32.72823 0 L32.33693 0 L39.9936 0 z"/>
<path d="M31.9936 0 L31.9936 0 L39.9936 0 z"/>
<path d="M31.9936 0 L39.9936 0 L32.33693 0 z"/>
<path d="M31.9936 0 L39.9936 0 L31.9936 0 z"/>
<path d="M31.9936 0 L39.9936 0 L31.9936 0 z"/>
<path d="M31.9936 0 L39.9936 0 L31.9936 0 z"/>
<path d="M31.9936 0 L39.9936 0 L31.9936 0 z"/>
<path d="M31.9936 0 L39.9936 0 L31.9936 0 z"/>
<path d="M31.9936 0 L39.9936 0 L31.9936 0 z"/>
<path d="M31.9936 0 L39.9936 0 L31.9936 0 z"/>
<path d="M31.9936 0 L39.9936 0 L31.9936 0 z"/>
<path d="M31.9936 0 L39.9936 0 L31.9936 0 z"/>
<path d="M31.9936 0 L39.9936 0 L31.9936 0 z"/>
<path d="M31.9936 0 L39.9936 0 L31.9936 0 z"/>
<path d="M31.9936 0 L39.9936 0 L31.9936 0 z"/>
<path d="M31.9936 0 L39.9936 0 L31.9936 0 z"/>
<path d="M31.9936 0 L39.9936 0 L31.9936 0 z"/>
<path d="M31.9936 0 L39.9936 0 L31.9936 0 z"/>
<path d="M31.9936 0 L39.9936 0 L31.9936 0 z"/>
<path d="M31.9936 0 L39.9936 0 L31.9936 0 z"/>
<path d="M31.9936 0 L39.9936 0 L31.9936 0 z"/>
<path d="M31.9936 0 L39.9936 0 L31.9936 0 z"/>
<path d="M31.9936 0 L39.9936 0 L31.9936 0 z"/>
<path d="M31.9936 0 L39.9936 0 L31.9936 0 z"/>
<path d="M31.9936 0 L39.9936 0 L31.9936 0 z"/>
<path d="M31.9936 0 L39.9936 0 L31.9936 0 z"/>
<path d="M31.9936 0 L39.9936 0 L31.9936 0 z"/>
<path d="M31.9936 0 L39.9936 0 L31.9936 0 z"/>
<path d="M31.9936 0 L39.9936 0 L31.9936 0 z"/>
<path d="M31.9936 0 L39.9936 0 L31.9936 0 z"/>
<path d="M31.9936 0 L39.9936 0 L31.9936 0 z"/>
<path d="M31.9936 0 L39.9936 0 L31.9936 0 z"/>
<path d="M31.9936 0 L39.9936 0 L31.9936 0 z"/>
<path d="M31.9936 0 L39.9936 0 L31.9936 0 z"/>
<path d="M31.9936 0 L39.9936 0 L31.9936 0 z"/>
<path d="M31.9936 0 L39.9936 0 L31.9936 0 z"/>
<path d="M31.9936 0 L39.9936 0 L31.9936 0 z"/>
<path d="M31.9936 0 L39.9936 0 L31.9936 0 z"/>
<path d="M31.9936 0 L39.9936 0 L31.9936 0 z"/>
<path d="M31.9936 0 L39.9936 0 L31.9936 0 z"/>
<path d="M31.9936 0 L39.9936 0 L31.9936 0 z"/>
<path d="M31.9936 0 L39.9936 0 L31.9936 0 z"/>
<path d="M31.9936 0 L39.9936 0 L31.9936 0 z"/>
<path d="M31.9936 0 L39.9936 0 L31.9936 0 z"/>
<path d="M31.9936 0 L39.9936 0 L31.9936 0 z"/>
<path d="M31.9936 0 L39.9936 0 L31.9936 0 z"/>
<path d="M31.9936 0 L39.9936 0 L31.9936 0 z"/>
<path d="M31.9936 0 L39.9936 0 L31.9936 0 z"/>
<path d="M31.9936 0 L39.9936 0 L31.9936 0 z"/>
<path d="M31.9936 0 L39.9936 0 L31.9936 0 z"/>
<path d="M31.9936 0 L39.9936 0 L31.9936 0 z"/>
<path d="M31.9936 0 L39.9936 0 L31.9936 0 z"/>
<path d="M31.9936 0 L39.9936 0 L31.9936 0 z"/>
<path d="M31.9936 0 L39.9936 0 L31.9936 0 z"/>
<path d="M31.9936 0 L39.9936 0 L31.9936 0 z"/>
<path d="M31.9936 0 L39.9936 0 L31.9936 0 z"/>
<path d="M31.9936 0 L39.9936 0 L31.9936 0 z"/>
<path d="M31.9936 0 L39.9936 0 L31.9936 0 z"/>
<path d="M31.9936 0 L39.9936 0 L31.9936 0 z"/>
<path d="M31.9936 0 L39.9936 0 L31.9936 0 z"/>
<path d="M31.9936 0 L39.9936 0 L31.9936 0 z"/>
<path d="M31.9936 0 L39.9936 0 L31.9936 0 z"/>
<path d="M31.9936 0 L39.9936 0 L31.9936 0 z"/>
<path d="M31.9936 0 L39.9936 0 L31.9936 0 z"/>
<path d="M31.9936 0 L39.9936 0 L31.9936 0 z"/>
<path d="M31.9936 0 L39.9936 0 L31.9936 0 z"/>
<path d="M31.9936 0 L39.9936 0 L31.9936 0 z"/>
<path d="M31.9936 0 L39.9936 0 L31.9936 0 z"/>
<path d="M31.9936 0 L39.9936 0 L31.9936 0 z"/>
<path d="M31.9936 0 L39.9936 0 L31.9936 0 z"/>
<path d="M31.9936 0 L39.9936 0 L31.9936 0 z"/>
<path d="M31.9936 0 L39.9936 0 L31.9936 0 z"/>
<path d="M31.9936 0 L39.9936 0 L31.9936 0 z"/>
<path d="M31.9936 0 L39.9936 0 L31.9936 0 z"/>
<path d="M31.9936 0 L32.33693 0 L39.9936 0 z"/>
<path d="M31.9936 0 L39.9936 0 L31.9936 0 z"/>
<path d="M32.33693 0 L32.72823 0 L39.9936 0 z"/>
<path d="M32.72823 0 L33.10535 0 L39.9936 0 z"/>
<path d="M33.10535 0 L33.46974 0 L39.9936 0 z"/>
<path d="M33.46974 0 L33.82225 0 L39.9936 0 z"/>
<path d="M33.82225 0 L34.16412 0 L39.9936 0 z"/>
<path d="M34.16412 0 L34.4961 0 L39.9936 0 z"/>
<path d="M34.4961 0 L34.81892 0 L39.9936 0 z"/>
<path d="M34.81892 0 L35.13356 0 L39.9936 0 z"/>
<path d="M35.13356 0 L35.4406 0 L39.9936 0 z"/>
<path d="M35.4406 0 L35.74057 0 L39.9936 0 z"/>
<path d="M35.74057 0 L36.03436 0 L39.9936 0 z"/>
<path d="M36.03436 0 L36.32222 0 L39.9936 0 z"/>
<path d="M36.32222 0 L36.60489 0 L39.9936 0 z"/>
<path d="M36.60489 0 L36.88274 0 L39.9936 0 z"/>
<path d="M36.88274 0 L37.15623 0 L39.9936 0 z"/>
<path d="M37.15623 0 L37.30695 0 L37.5198 0 z"/>
<path d="M37.15623 0 L37.5198 0 L39.9936 0 z"/>
<path d="M39.9936 0 L37.5198 0 L37.9818 0 z"/>
<path d="M39.9936 0 L37.9818 0 L38.3982 0 z"/>
<path d="M39.9936 0 L38.3982 0 L38.7682 0 z"/>
<path d="M39.9936 0 L38.7682 0 L39.0908 0 z"/>
<path d="M39.9936 0 L39.0908 0 L39.3652 0 z"/>
<path d="M39.9936 0 L39.3652 0 L39.5908 0 z"/>
<path d="M39.9936 0 L39.5908 0 L39.7666 0 z"/>
<path d="M39.9936 0 L39.7666 0 L39.8926 0 z"/>
<path d="M39.9936 0 L39.8926 0 L39.9684 0 z"/>
<path d="M31.9936 0 L31.93042 0 L31.9936 0 z"/>
<path d="M31.50704 0 L31.9936 0 L31.9936 0 z"/>
<path d="M31.50704 0 L31.9936 0 L31.93042 0 z"/>
<path d="M31.06515 0 L31.9936 0 L31.9936 0 z"/>
<path d="M31.06515 0 L31.9936 0 L31.50704 0 z"/>
<path d="M31.9936 0 L31.9936 0 L31.06515 0 z"/>
<path d="M31.9936 0 L31.06515 0 L30.603 0 z"/>
<path d="M31.9936 0 L31.9936 0 L30.603 0 z"/>
<path d="M31.9936 0 L30.603 0 L30.11851 0 z"/>
<path d="M31.9936 0 L31.9936 0 L30.11851 0 z"/>
<path d="M31.9936 0 L30.11851 0 L29.60933 0 z"/>
<path d="M31.9936 0 L31.9936 0 L29.60933 0 z"/>
<path d="M31.9936 0 L29.60933 0 L29.07284 0 z"/>
<path d="M31.9936 0 L31.9936 0 L29.07284 0 z"/>
<path d="M31.9936 0 L29.07284 0 L28.50611 0 z"/>
<path d="M31.9936 0 L31.9936 0 L28.50611 0 z"/>
<path d="M31.9936 0 L28.50611 0 L27.90572 0 z"/>
<path d="M31.9936 0 L31.9936 0 L27.90572 0 z"/>
<path d="M31.9936 0 L27.90572 0 L27.26756 0 z"/>
<path d="M31.9936 0 L31.9936 0 L27.26756 0 z"/>
<path d="M31.9936 0 L27.26756 0 L26.58731 0 z"/>
<path d="M31.9936 0 L31.9936 0 L26.58731 0 z"/>
<path d="M31.9936 0 L26.58731 0 L25.85962 0 z"/>
<path d="M31.9936 0 L31.9936 0 L25.85962 0 z"/>
<path d="M31.9936 0 L25.85962 0 L25.07835 0 z"/>
<path d="M31.9936 0 L31.9936 0 L25.07835 0 z"/>
<path d="M31.9936 0 L25.07835 0 L24.23616 0 z"/>
<path d="M31.9936 0 L31.9936 0 L24.23616 0 z"/>
<path d="M31.9936 0 L24.23616 0 L23.32448 0 z"/>
<path d="M31.9936 0 L31.9936 0 L23.32448 0 z"/>
<path d="M31.9936 0 L23.32448 0 L22.33311 0 z"/>
<path d="M21.9936 0 L31.9936 0 L31.9936 0 z"/>
<path d="M21.9936 0 L31.9936 0 L22.33311 0 z"/>
<path d="M21.9936 0 L22.33311 0 L21.9936 0 z"/>
<path d="M21.9936 0 L31.9936 0 L31.9936 0 z"/>
<path d="M21.9936 0 L31.9936 0 L21.9936 0 z"/>
<path d="M21.9936 0 L31.9936 0 L31.9936 0 z"/>
<path d="M21.9936 0 L31.9936 0 L21.9936 0 z"/>
<path d="M21.9936 0 L31.9936 0 L31.9936 0 z"/>
<path d="M21.9936 0 L31.9936 0 L21.9936 0 z"/>
<path d="M21.9936 0 L31.9936 0 L31.9936 0 z"/>
<path d="M21.9936 0 L31.9936 0 L21.9936 0 z"/>
<path d="M21.9936 0 L31.9936 0 L31.9936 0 z"/>
<path d="M21.9936 0 L31.9936 0 L21.9936 0 z"/>
<path d="M21.9936 0 L31.9936 0 L31.9936 0 z"/>
<path d="M21.9936 0 L31.9936 0 L21.9936 0 z"/>
<path d="M21.9936 0 L31.9936 0 L31.9936 0 z"/>
<path d="M21.9936 0 L31.9936 0 L21.9936 0 z"/>
<path d="M21.9936 0 L31.9936 0 L31.9936 0 z"/>
<path d="M21.9936 0 L31.9936 0 L21.9936 0 z"/>
<path d="M21.9936 0 L31.9936 0 L31.9936 0 z"/>
<path d="M21.9936 0 L31.9936 0 L21.9936 0 z"/>
<path d="M21.9936 0 L31.9936 0 L31.9936 0 z"/>
<path d="M21.9936 0 L31.9936 0 L21.9936 0 z"/>
<path d="M21.9936 0 L31.9936 0 L31.9936 0 z"/>
<path d="M21.9936 0 L31.9936 0 L21.9936 0 z"/>
<path d="M21.9936 0 L31.9936 0 L31.9936 0 z"/>
<path d="M21.9936 0 L31.9936 0 L21.9936 0 z"/>
<path d="M21.9936 0 L31.9936 0 L31.9936 0 z"/>
<path d="M21.9936 0 L31.9936 0 L21.9936 0 z"/>
<path d="M21.9936 0 L31.9936 0 L31.9936 0 z"/>
<path d="M21.9936 0 L31.9936 0 L21.9936 0 z"/>
<path d="M21.9936 0 L31.9936 0 L31.9936 0 z"/>
<path d="M21.9936 0 L31.9936 0 L21.9936 0 z"/>
<path d="M21.9936 0 L31.9936 0 L31.9936 0 z"/>
<path d="M21.9936 0 L31.9936 0 L21.9936 0 z"/>
<path d="M21.9936 0 L31.9936 0 L31.9936 0 z"/>
<path d="M21.9936 0 L31.9936 0 L21.9936 0 z"/>
<path d="M21.9936 0 L31.9936 0 L31.9936 0 z"/>
<path d="M21.9936 0 L31.9936 0 L21.9936 0 z"/>
<path d="M21.9936 0 L31.9936 0 L31.9936 0 z"/>
<path d="M21.9936 0 L31.9936 0 L21.9936 0 z"/>
<path d="M21.9936 0 L31.9936 0 L31.9936 0 z"/>
<path d="M21.9936 0 L31.9936 0 L21.9936 0 z"/>
<path d="M21.9936 0 L31.9936 0 L31.9936 0 z"/>
<path d="M21.9936 0 L31.9936 0 L21.9936 0 z"/>
<path d="M21.9936 0 L31.9936 0 L31.9936 0 z"/>
<path d="M21.9936 0 L31.9936 0 L21.9936 0 z"/>
<path d="M21.9936 0 L31.9936 0 L31.9936 0 z"/>
<path d="M21.9936 0 L31.9936 0 L21.9936 0 z"/>
<path d="M21.9936 0 L31.9936 0 L31.9936 0 z"/>
<path d="M21.9936 0 L31.9936 0 L21.9936 0 z"/>
<path d="M21.9936 0 L31.9936 0 L31.9936 0 z"/>
<path d="M21.9936 0 L31.9936 0 L21.9936 0 z"/>
<path d="M21.9936 0 L31.9936 0 L31.9936 0 z"/>
<path d="M21.9936 0 L31.9936 0 L21.9936 0 z"/>
<path d="M21.9936 0 L31.9936 0 L31.9936 0 z"/>
<path d="M21.9936 0 L31.9936 0 L21.9936 0 z"/>
<path d="M21.9936 0 L31.9936 0 L31.9936 0 z"/>
<path d="M21.9936 0 L31.9936 0 L21.9936 0 z"/>
<path d="M21.9936 0 L31.9936 0 L31.9936 0 z"/>
<path d="M21.9936 0 L31.9936 0 L21.9936 0 z"/>
<path d="M31.9936 0 L31.9936 0 L21.9936 0 z"/>
<path d="M31.9936 0 L21.9936 0 L21.9936 0 z"/>
<path d="M31.9936 0 L31.9936 0 L21.9936 0 z"/>
<path d="M31.9936 0 L21.9936 0 L21.9936 0 z"/>
<path d="M31.9936 0 L31.9936 0 L21.9936 0 z"/>
<path d="M31.9936 0 L21.9936 0 L21.9936 0 z"/>
<path d="M31.9936 0 L31.9936 0 L21.9936 0 z"/>
<path d="M31.9936 0 L21.9936 0 L21.9936 0 z"/>
<path d="M31.9936 0 L31.9936 0 L21.9936 0 z"/>
<path d="M31.9936 0 L21.9936 0 L21.9936 0 z"/>
<path d="M31.9936 0 L31.9936 0 L21.9936 0 z"/>
<path d="M31.9936 0 L21.9936 0 L21.9936 0 z"/>
<path d="M31.9936 0 L31.9936 0 L21.9936 0 z"/>
<path d="M31.9936 0 L21.9936 0 L21.9936 0 z"/>
<path d="M31.9936 0 L31.9936 0 L21.9936 0 z"/>
<path d="M31.9936 0 L21.9936 0 L21.9936 0 z"/>
<path d="M31.9936 0 L31.9936 0 L21.9936 0 z"/>
<path d="M31.9936 0 L21.9936 0 L21.9936 0 z"/>
<path d="M31.9936 0 L31.9936 0 L21.9936 0 z"/>
<path d="M31.9936 0 L21.9936 0 L21.9936 0 z"/>
<path d="M22.33311 0 L31.9936 0 L31.9936 0 z"/>
<path d="M22.33311 0 L31.9936 0 L21.9936 0 z"/>
<path d="M22.33311 0 L21.9936 0 L21.9936 0 z"/>
<path d="M23.32448 0 L31.9936 0 L31.9936 0 z"/>
<path d="M23.32448 0 L31.9936 0 L22.33311 0 z"/>
<path d="M24.23616 0 L31.9936 0 L31.9936 0 z"/>
<path d="M24.23616 0 L31.9936 0 L23.32448 0 z"/>
<path d="M25.07835 0 L31.9936 0 L31.9936 0 z"/>
<path d="M25.07835 0 L31.9936 0 L24.23616 0 z"/>
<path d="M25.85962 0 L31.9936 0 L31.9936 0 z"/>
<path d="M25.85962 0 L31.9936 0 L25.07835 0 z"/>
<path d="M26.58731 0 L31.9936 0 L31.9936 0 z"/>
<path d="M26.58731 0 L31.9936 0 L25.85962 0 z"/>
<path d="M27.26756 0 L31.9936 0 L31.9936 0 z"/>
<path d="M27.26756 0 L31.9936 0 L26.58731 0 z"/>
<path d="M27.90572 0 L31.9936 0 L31.9936 0 z"/>
<path d="M27.90572 0 L31.9936 0 L27.26756 0 z"/>
<path d="M28.50611 0 L31.9936 0 L31.9936 0 z"/>
<path d="M28.50611 0 L31.9936 0 L27.90572 0 z"/>
<path d="M29.07284 0 L31.9936 0 L31.9936 0 z"/>
<path d="M29.07284 0 L31.9936 0 L28.50611 0 z"/>
<path d="M29.60933 0 L31.9936 0 L31.9936 0 z"/>
<path d="M29.60933 0 L31.9936 0 L29.07284 0 z"/>
<path d="M30.11851 0 L31.9936 0 L31.9936 0 z"/>
<path d="M30.11851 0 L31.9936 0 L29.60933 0 z"/>
<path d="M30.603 0 L31.9936 0 L31.9936 0 z"/>
<path d="M30.603 0 L31.9936 0 L30.11851 0 z"/>
<path d="M31.06515 0 L31.9936 0 L31.9936 0 z"/>
<path d="M31.06515 0 L31.9936 0 L30.603 0 z"/>
<path d="M31.50704 0 L31.9936 0 L31.9936 0 z"/>
<path d="M31.50704 0 L31.9936 0 L31.06515 0 z"/>
<path d="M31.93042 0 L31.9936 0 L31.9936 0 z"/>
<path d="M31.93042 0 L31.9936 0 L31.50704 0 z"/>
<path d="M31.9936 0 L31.9936 0 L31.93042 0 z"/>
<path d="M37.30695 20 L37.0134 20 L37.17001 20 z"/>
<path d="M37.17001 20 L37.0134 20 L36.4642 20 z"/>
<path d="M37.17001 20 L36.4642 20 L36.92013 20 z"/>
<path d="M36.92013 20 L36.4642 20 L35.8734 20 z"/>
<path d="M36.92013 20 L35.8734 20 L36.66591 20 z"/>
<path d="M36.66591 20 L35.8734 20 L35.2424 20 z"/>
<path d="M36.66591 20 L35.2424 20 L36.40691 20 z"/>
<path d="M36.40691 20 L35.2424 20 L34.573 20 z"/>
<path d="M36.40691 20 L34.573 20 L36.14277 20 z"/>
<path d="M36.14277 20 L34.573 20 L33.8666 20 z"/>
<path d="M36.14277 20 L33.8666 20 L35.87279 20 z"/>
<path d="M35.87279 20 L33.8666 20 L33.1254 20 z"/>
<path d="M35.87279 20 L33.1254 20 L35.59672 20 z"/>
<path d="M35.59672 20 L33.1254 20 L32.3508 20 z"/>
<path d="M35.59672 20 L32.3508 20 L35.3137 20 z"/>
<path d="M35.3137 20 L32.3508 20 L31.545 20 z"/>
<path d="M35.3137 20 L31.545 20 L35.02321 20 z"/>
<path d="M35.02321 20 L31.545 20 L30.7102 20 z"/>
<path d="M35.02321 20 L30.7102 20 L34.7247 20 z"/>
<path d="M34.7247 20 L30.7102 20 L29.8482 20 z"/>
<path d="M34.7247 20 L29.8482 20 L34.41719 20 z"/>
<path d="M34.41719 20 L29.8482 20 L28.9612 20 z"/>
<path d="M34.41719 20 L28.9612 20 L34.09998 20 z"/>
<path d="M34.09998 20 L28.9612 20 L28.0518 20 z"/>
<path d="M34.09998 20 L28.0518 20 L33.77232 20 z"/>
<path d="M33.77232 20 L28.0518 20 L27.1218 20 z"/>
<path d="M33.77232 20 L27.1218 20 L33.43299 20 z"/>
<path d="M33.43299 20 L27.1218 20 L26.174 20 z"/>
<path d="M33.43299 20 L26.174 20 L33.08115 20 z"/>
<path d="M33.08115 20 L26.174 20 L25.2104 20 z"/>
<path d="M33.08115 20 L25.2104 20 L32.71535 20 z"/>
<path d="M32.71535 20 L25.2104 20 L24.2338 20 z"/>
<path d="M32.71535 20 L24.2338 20 L32.33457 20 z"/>
<path d="M32.33457 20 L24.2338 20 L23.2464 20 z"/>
<path d="M32.33457 20 L23.2464 20 L31.93713 20 z"/>
<path d="M31.93713 20 L23.2464 20 L22.2508 20 z"/>
<path d="M31.93713 20 L22.2508 20 L31.52138 20 z"/>
<path d="M31.52138 20 L22.2508 20 L21.2494 20 z"/>
<path d="M31.52138 20 L21.2494 20 L31.08557 20 z"/>
<path d="M31.08557 20 L21.2494 20 L20.245 20 z"/>
<path d="M31.08557 20 L20.245 20 L30.62757 20 z"/>
<path d="M30.62757 20 L20.245 20 L19.2398 20 z"/>
<path d="M30.62757 20 L19.2398 20 L30.145 20 z"/>
<path d="M30.145 20 L19.2398 20 L18.2366 20 z"/>
<path d="M30.145 20 L18.2366 20 L29.63517 20 z"/>
<path d="M29.63517 20 L18.2366 20 L17.2378 20 z"/>
<path d="M29.63517 20 L17.2378 20 L29.09508 20 z"/>
<path d="M29.09508 20 L17.2378 20 L16.246 20 z"/>
<path d="M29.09508 20 L16.246 20 L28.52117 20 z"/>
<path d="M28.52117 20 L16.246 20 L15.2636 20 z"/>
<path d="M28.52117 20 L15.2636 20 L27.9092 20 z"/>
<path d="M27.9092 20 L15.2636 20 L14.2932 20 z"/>
<path d="M27.9092 20 L14.2932 20 L27.25461 20 z"/>
<path d="M27.25461 20 L14.2932 20 L13.3372 20 z"/>
<path d="M27.25461 20 L13.3372 20 L26.55182 20 z"/>
<path d="M26.55182 20 L13.3372 20 L12.398 20 z"/>
<path d="M26.55182 20 L12.398 20 L25.79431 20 z"/>
<path d="M25.79431 20 L12.398 20 L11.478 20 z"/>
<path d="M25.79431 20 L11.478 20 L24.97426 20 z"/>
<path d="M24.97426 20 L11.478 20 L10.5796 20 z"/>
<path d="M24.97426 20 L10.5796 20 L24.08245 20 z"/>
<path d="M24.08245 20 L10.5796 20 L9.7048 20 z"/>
<path d="M24.08245 20 L9.7048 20 L23.10785 20 z"/>
<path d="M23.10785 20 L9.7048 20 L8.856 20 z"/>
<path d="M23.10785 20 L8.856 20 L22.03679 20 z"/>
<path d="M22.03679 20 L8.856 20 L8.0356 20 z"/>
<path d="M22.03679 20 L8.0356 20 L20.85284 20 z"/>
<path d="M20.85284 20 L8.0356 20 L7.2452 20 z"/>
<path d="M20.85284 20 L7.2452 20 L19.53497 20 z"/>
<path d="M19.53497 20 L7.2452 20 L6.487 20 z"/>
<path d="M19.53497 20 L6.487 20 L18.05766 20 z"/>
<path d="M18.05766 20 L6.487 20 L5.7628 20 z"/>
<path d="M18.05766 20 L5.7628 20 L16.38766 20 z"/>
<path d="M16.38766 20 L5.7628 20 L5.0748 20 z"/>
<path d="M16.38766 20 L5.0748 20 L14.48202 20 z"/>
<path d="M14.48202 20 L5.0748 20 L4.4244 20 z"/>
<path d="M14.48202 20 L4.4244 20 L12.28415 20 z"/>
<path d="M12.28415 20 L4.4244 20 L3.8132 20 z"/>
<path d="M12.28415 20 L3.8132 20 L9.71789 20 z"/>
<path d="M9.71789 20 L3.8132 20 L3.243 20 z"/>
<path d="M9.71789 20 L3.243 20 L6.67682 20 z"/>
<path d="M6.67682 20 L3.243 20 L2.7152 20 z"/>
<path d="M6.67682 20 L2.7152 20 L3.01265 20 z"/>
<path d="M3.01265 20 L2.7152 20 L2.67538 20 z"/>
<path d="M21.9936 20 L20.85284 20 L21.9936 20 z"/>
<path d="M19.53497 20 L21.9936 20 L21.9936 20 z"/>
<path d="M19.53497 20 L21.9936 20 L20.85284 20 z"/>
<path d="M18.05766 20 L21.9936 20 L21.9936 20 z"/>
<path d="M18.05766 20 L21.9936 20 L19.53497 20 z"/>
<path d="M16.38766 20 L21.9936 20 L21.9936 20 z"/>
<path d="M16.38766 20 L21.9936 20 L18.05766 20 z"/>
<path d="M14.48202 20 L21.9936 20 L21.9936 20 z"/>
<path d="M14.48202 20 L21.9936 20 L16.38766 20 z"/>
<path d="M12.28415 20 L21.9936 20 L21.9936 20 z"/>
<path d="M12.28415 20 L21.9936 20 L14.48202 20 z"/>
<path d="M9.71789 20 L21.9936 20 L21.9936 20 z"/>
<path d="M9.71789 20 L21.9936 20 L12.28415 20 z"/>
<path d="M6.67682 20 L21.9936 20 L21.9936 20 z"/>
<path d="M6.67682 20 L21.9936 20 L9.71789 20 z"/>
<path d="M3.01265 20 L21.9936 20 L21.9936 20 z"/>
<path d="M3.01265 20 L21.9936 20 L6.67682 20 z"/>
<path d="M2.67538 20 L2.2308 20 L21.9936 20 z"/>
<path d="M2.67538 20 L21.9936 20 L21.9936 20 z"/>
<path d="M2.67538 20 L21.9936 20 L3.01265 20 z"/>
<path d="M21.9936 20 L2.2308 20 L1.7914 20 z"/>
<path d="M21.9936 20 L1.7914 20 L21.9936 20 z"/>
<path d="M21.9936 20 L1.7914 20 L1.398 20 z"/>
<path d="M21.9936 20 L1.398 20 L21.9936 20 z"/>
<path d="M21.9936 20 L1.398 20 L1.0516 20 z"/>
<path d="M21.9936 20 L1.0516 20 L21.9936 20 z"/>
<path d="M21.9936 20 L1.0516 20 L0.753 20 z"/>
<path d="M21.9936 20 L0.753 20 L21.9936 20 z"/>
<path d="M21.9936 20 L0.753 20 L0.503 20 z"/>
<path d="M21.9936 20 L0.503 20 L21.9936 20 z"/>
<path d="M21.9936 20 L0.503 20 L0.3024 20 z"/>
<path d="M21.9936 20 L0.3024 20 L21.9936 20 z"/>
<path d="M21.9936 20 L0.3024 20 L0.1514 20 z"/>
<path d="M21.9936 20 L0.1514 20 L21.9936 20 z"/>
<path d="M21.9936 20 L0.1514 20 L0.0504 20 z"/>
<path d="M21.9936 20 L0.0504 20 L21.9936 20 z"/>
<path d="M21.9936 20 L0.0504 20 L0 20 z"/>
<path d="M21.9936 20 L0 20 L21.9936 20 z"/>
<path d="M21.9936 20 L0 20 L0 20 z"/>
<path d="M21.9936 20 L0 20 L21.9936 20 z"/>
<path d="M21.9936 20 L0 20 L0.0504 20 z"/>
<path d="M21.9936 20 L0.0504 20 L21.9936 20 z"/>
<path d="M21.9936 20 L0.0504 20 L0.1514 20 z"/>
<path d="M21.9936 20 L0.1514 20 L21.9936 20 z"/>
<path d="M21.9936 20 L0.1514 20 L0.3024 20 z"/>
<path d="M21.9936 20 L0.3024 20 L21.9936 20 z"/>
<path d="M21.9936 20 L0.3024 20 L0.503 20 z"/>
<path d="M21.9936 20 L0.503 20 L21.9936 20 z"/>
<path d="M21.9936 20 L0.503 20 L0.753 20 z"/>
<path d="M21.9936 20 L0.753 20 L21.9936 20 z"/>
<path d="M21.9936 20 L0.753 20 L1.0516 20 z"/>
<path d="M21.9936 20 L1.0516 20 L21.9936 20 z"/>
<path d="M21.9936 20 L1.0516 20 L1.398 20 z"/>
<path d="M21.9936 20 L1.398 20 L21.9936 20 z"/>
<path d="M21.9936 20 L1.398 20 L1.7914 20 z"/>
<path d="M21.9936 20 L1.7914 20 L21.9936 20 z"/>
<path d="M21.9936 20 L1.7914 20 L2.2308 20 z"/>
<path d="M21.9936 20 L2.2308 20 L21.9936 20 z"/>
<path d="M21.9936 20 L2.2308 20 L2.7152 20 z"/>
<path d="M21.9936 20 L2.7152 20 L21.9936 20 z"/>
<path d="M21.9936 20 L2.7152 20 L3.243 20 z"/>
<path d="M21.9936 20 L3.243 20 L21.9936 20 z"/>
<path d="M21.9936 20 L3.243 20 L3.8132 20 z"/>
<path d="M21.9936 20 L3.8132 20 L21.9936 20 z"/>
<path d="M21.9936 20 L3.8132 20 L4.4244 20 z"/>
<path d="M21.9936 20 L4.4244 20 L21.9936 20 z"/>
<path d="M21.9936 20 L4.4244 20 L5.0748 20 z"/>
<path d="M21.9936 20 L5.0748 20 L21.9936 20 z"/>
<path d="M21.9936 20 L5.0748 20 L5.7628 20 z"/>
<path d="M21.9936 20 L5.7628 20 L21.9936 20 z"/>
<path d="M21.9936 20 L5.7628 20 L6.487 20 z"/>
<path d="M21.9936 20 L6.487 20 L21.9936 20 z"/>
<path d="M21.9936 20 L6.487 20 L7.2452 20 z"/>
<path d="M21.9936 20 L7.2452 20 L21.9936 20 z"/>
<path d="M21.9936 20 L7.2452 20 L8.0356 20 z"/>
<path d="M21.9936 20 L8.0356 20 L21.9936 20 z"/>
<path d="M21.9936 20 L8.0356 20 L8.856 20 z"/>
<path d="M21.9936 20 L8.856 20 L21.9936 20 z"/>
<path d="M21.9936 20 L8.856 20 L9.7048 20 z"/>
<path d="M21.9936 20 L9.7048 20 L21.9936 20 z"/>
<path d="M21.9936 20 L9.7048 20 L10.5796 20 z"/>
<path d="M21.9936 20 L10.5796 20 L21.9936 20 z"/>
<path d="M21.9936 20 L10.5796 20 L11.478 20 z"/>
<path d="M21.9936 20 L11.478 20 L21.9936 20 z"/>
<path d="M21.9936 20 L11.478 20 L12.398 20 z"/>
<path d="M21.9936 20 L12.398 20 L21.9936 20 z"/>
<path d="M21.9936 20 L12.398 20 L13.3372 20 z"/>
<path d="M21.9936 20 L13.3372 20 L21.9936 20 z"/>
<path d="M21.9936 20 L13.3372 20 L14.2932 20 z"/>
<path d="M21.9936 20 L14.2932 20 L21.9936 20 z"/>
<path d="M21.9936 20 L14.2932 20 L15.2636 20 z"/>
<path d="M21.9936 20 L15.2636 20 L21.9936 20 z"/>
<path d="M21.9936 20 L15.2636 20 L16.246 20 z"/>
<path d="M21.9936 20 L16.246 20 L21.9936 20 z"/>
<path d="M21.9936 20 L16.246 20 L17.2378 20 z"/>
<path d="M21.9936 20 L17.2378 20 L21.9936 20 z"/>
<path d="M21.9936 20 L17.2378 20 L18.2366 20 z"/>
<path d="M21.9936 20 L18.2366 20 L21.9936 20 z"/>
<path d="M21.9936 20 L18.2366 20 L19.2398 20 z"/>
<path d="M21.9936 20 L19.2398 20 L21.9936 20 z"/>
<path d="M21.9936 20 L19.2398 20 L20.245 20 z"/>
<path d="M21.9936 20 L20.245 20 L21.9936 20 z"/>
<path d="M21.9936 20 L20.245 20 L21.2494 20 z"/>
<path d="M21.9936 20 L21.2494 20 L21.9936 20 z"/>
<path d="M21.9936 20 L21.2494 20 L21.9936 20 z"/>
<path d="M21.9936 20 L21.9936 20 L22.62752 20 z"/>
<path d="M21.9936 20 L23.55436 20 L22.62752 20 z"/>
<path d="M21.9936 20 L22.62752 20 L21.9936 20 z"/>
<path d="M21.9936 20 L24.41419 20 L23.55436 20 z"/>
<path d="M21.9936 20 L23.55436 20 L21.9936 20 z"/>
<path d="M21.9936 20 L25.21497 20 L24.41419 20 z"/>
<path d="M21.9936 20 L24.41419 20 L21.9936 20 z"/>
<path d="M21.9936 20 L25.96356 20 L25.21497 20 z"/>
<path d="M21.9936 20 L25.21497 20 L21.9936 20 z"/>
<path d="M21.9936 20 L26.66576 20 L25.96356 20 z"/>
<path d="M21.9936 20 L25.96356 20 L21.9936 20 z"/>
<path d="M21.9936 20 L27.32662 20 L26.66576 20 z"/>
<path d="M21.9936 20 L26.66576 20 L21.9936 20 z"/>
<path d="M21.9936 20 L27.95025 20 L27.32662 20 z"/>
<path d="M21.9936 20 L27.32662 20 L21.9936 20 z"/>
<path d="M21.9936 20 L28.5406 20 L27.95025 20 z"/>
<path d="M21.9936 20 L27.95025 20 L21.9936 20 z"/>
<path d="M21.9936 20 L29.10096 20 L28.5406 20 z"/>
<path d="M21.9936 20 L28.5406 20 L21.9936 20 z"/>
<path d="M21.9936 20 L29.63416 20 L29.10096 20 z"/>
<path d="M21.9936 20 L29.10096 20 L21.9936 20 z"/>
<path d="M21.9936 20 L30.14274 20 L29.63416 20 z"/>
<path d="M21.9936 20 L29.63416 20 L21.9936 20 z"/>
<path d="M21.9936 20 L22.2508 20 L30.629 20 z"/>
<path d="M21.9936 20 L30.629 20 L30.14274 20 z"/>
<path d="M21.9936 20 L30.14274 20 L21.9936 20 z"/>
<path d="M30.629 20 L22.2508 20 L23.2464 20 z"/>
<path d="M30.629 20 L23.2464 20 L31.09498 20 z"/>
<path d="M31.09498 20 L23.2464 20 L24.2338 20 z"/>
<path d="M31.09498 20 L24.2338 20 L31.54239 20 z"/>
<path d="M31.54239 20 L24.2338 20 L25.2104 20 z"/>
<path d="M31.54239 20 L25.2104 20 L31.97285 20 z"/>
<path d="M31.97285 20 L25.2104 20 L26.174 20 z"/>
<path d="M31.97285 20 L26.174 20 L32.38802 20 z"/>
<path d="M32.38802 20 L26.174 20 L27.1218 20 z"/>
<path d="M32.38802 20 L27.1218 20 L32.78891 20 z"/>
<path d="M32.78891 20 L27.1218 20 L28.0518 20 z"/>
<path d="M32.78891 20 L28.0518 20 L33.17697 20 z"/>
<path d="M33.17697 20 L28.0518 20 L28.9612 20 z"/>
<path d="M33.17697 20 L28.9612 20 L33.55305 20 z"/>
<path d="M33.55305 20 L28.9612 20 L29.8482 20 z"/>
<path d="M33.55305 20 L29.8482 20 L33.9184 20 z"/>
<path d="M33.9184 20 L29.8482 20 L30.7102 20 z"/>
<path d="M33.9184 20 L30.7102 20 L34.27378 20 z"/>
<path d="M34.27378 20 L30.7102 20 L31.545 20 z"/>
<path d="M34.27378 20 L31.545 20 L34.61991 20 z"/>
<path d="M34.61991 20 L31.545 20 L32.3508 20 z"/>
<path d="M34.61991 20 L32.3508 20 L34.95781 20 z"/>
<path d="M34.95781 20 L32.3508 20 L33.1254 20 z"/>
<path d="M34.95781 20 L33.1254 20 L35.28805 20 z"/>
<path d="M35.28805 20 L33.1254 20 L33.8666 20 z"/>
<path d="M35.28805 20 L33.8666 20 L35.61118 20 z"/>
<path d="M35.61118 20 L33.8666 20 L34.573 20 z"/>
<path d="M35.61118 20 L34.573 20 L35.92811 20 z"/>
<path d="M35.92811 20 L34.573 20 L35.2424 20 z"/>
<path d="M35.92811 20 L35.2424 20 L36.23911 20 z"/>
<path d="M36.23911 20 L35.2424 20 L35.8734 20 z"/>
<path d="M36.23911 20 L35.8734 20 L36.54492 20 z"/>
<path d="M36.54492 20 L35.8734 20 L36.4642 20 z"/>
<path d="M36.54492 20 L36.4642 20 L36.84594 20 z"/>
<path d="M36.84594 20 L36.4642 20 L37.0134 20 z"/>
<path d="M36.84594 20 L37.0134 20 L37.14266 20 z"/>
<path d="M37.14266 20 L37.0134 20 L37.30695 20 z"/>
<path d="M39.9684 20 L39.8926 20 L39.7666 20 z"/>
<path d="M39.9684 20 L39.7666 20 L39.5908 20 z"/>
<path d="M39.9684 20 L39.5908 20 L39.3652 20 z"/>
<path d="M39.9684 20 L39.3652 20 L39.0908 20 z"/>
<path d="M39.9684 20 L39.0908 20 L38.7682 20 z"/>
<path d="M39.9684 20 L38.7682 20 L38.3982 20 z"/>
<path d="M39.9684 20 L38.3982 20 L37.9818 20 z"/>
<path d="M39.9684 20 L37.9818 20 L37.5198 20 z"/>
<path d="M37.5198 20 L37.30695 20 L37.17001 20 z"/>
<path d="M37.5198 20 L37.17001 20 L39.9684 20 z"/>
<path d="M37.17001 20 L36.92013 20 L39.9684 20 z"/>
<path d="M36.92013 20 L36.66591 20 L39.9684 20 z"/>
<path d="M36.66591 20 L36.40691 20 L39.9684 20 z"/>
<path d="M36.40691 20 L36.14277 20 L39.9684 20 z"/>
<path d="M36.14277 20 L35.87279 20 L39.9684 20 z"/>
<path d="M35.87279 20 L35.59672 20 L39.9684 20 z"/>
<path d="M35.59672 20 L35.3137 20 L39.9684 20 z"/>
<path d="M35.3137 20 L35.02321 20 L39.9684 20 z"/>
<path d="M35.02321 20 L34.7247 20 L39.9684 20 z"/>
<path d="M34.7247 20 L34.41719 20 L39.9684 20 z"/>
<path d="M34.41719 20 L34.09998 20 L39.9684 20 z"/>
<path d="M34.09998 20 L33.77232 20 L39.9684 20 z"/>
<path d="M33.77232 20 L33.43299 20 L39.9684 20 z"/>
<path d="M33.43299 20 L33.08115 20 L39.9684 20 z"/>
<path d="M33.08115 20 L32.71535 20 L39.9684 20 z"/>
<path d="M32.71535 20 L32.33457 20 L39.9684 20 z"/>
<path d="M31.9936 20 L31.9936 20 L39.9684 20 z"/>
<path d="M31.9936 20 L39.9684 20 L32.33457 20 z"/>
<path d="M31.9936 20 L39.9684 20 L31.9936 20 z"/>
<path d="M31.9936 20 L39.9684 20 L31.9936 20 z"/>
<path d="M31.9936 20 L39.9684 20 L31.9936 20 z"/>
<path d="M31.9936 20 L39.9684 20 L31.9936 20 z"/>
<path d="M31.9936 20 L39.9684 20 L31.9936 20 z"/>
<path d="M31.9936 20 L39.9684 20 L31.9936 20 z"/>
<path d="M31.9936 20 L39.9684 20 L31.9936 20 z"/>
<path d="M31.9936 20 L39.9684 20 L31.9936 20 z"/>
<path d="M31.9936 20 L39.9684 20 L31.9936 20 z"/>
<path d="M31.9936 20 L39.9684 20 L31.9936 20 z"/>
<path d="M31.9936 20 L39.9684 20 L31.9936 20 z"/>
<path d="M31.9936 20 L39.9684 20 L31.9936 20 z"/>
<path d="M31.9936 20 L39.9684 20 L31.9936 20 z"/>
<path d="M31.9936 20 L39.9684 20 L31.9936 20 z"/>
<path d="M31.9936 20 L39.9684 20 L31.9936 20 z"/>
<path d="M31.9936 20 L39.9684 20 L31.9936 20 z"/>
<path d="M31.9936 20 L39.9684 20 L31.9936 20 z"/>
<path d="M31.9936 20 L39.9684 20 L31.9936 20 z"/>
<path d="M31.9936 20 L39.9684 20 L31.9936 20 z"/>
<path d="M31.9936 20 L39.9684 20 L31.9936 20 z"/>
<path d="M31.9936 20 L39.9684 20 L31.9936 20 z"/>
<path d="M31.9936 20 L39.9684 20 L31.9936 20 z"/>
<path d="M31.9936 20 L39.9684 20 L31.9936 20 z"/>
<path d="M31.9936 20 L39.9684 20 L31.9936 20 z"/>
<path d="M31.9936 20 L39.9684 20 L31.9936 20 z"/>
<path d="M31.9936 20 L39.9684 20 L31.9936 20 z"/>
<path d="M31.9936 20 L39.9684 20 L31.9936 20 z"/>
<path d="M31.9936 20 L39.9684 20 L31.9936 20 z"/>
<path d="M31.9936 20 L39.9684 20 L31.9936 20 z"/>
<path d="M31.9936 20 L39.9684 20 L31.9936 20 z"/>
<path d="M31.9936 20 L39.9684 20 L31.9936 20 z"/>
<path d="M31.9936 20 L39.9684 20 L31.9936 20 z"/>
<path d="M31.9936 20 L39.9684 20 L31.9936 20 z"/>
<path d="M31.9936 20 L39.9684 20 L31.9936 20 z"/>
<path d="M31.9936 20 L39.9684 20 L31.9936 20 z"/>
<path d="M31.9936 20 L39.9684 20 L31.9936 20 z"/>
<path d="M31.9936 20 L39.9684 20 L31.9936 20 z"/>
<path d="M31.9936 20 L39.9684 20 L31.9936 20 z"/>
<path d="M31.9936 20 L39.9684 20 L31.9936 20 z"/>
<path d="M31.9936 20 L39.9684 20 L31.9936 20 z"/>
<path d="M31.9936 20 L39.9684 20 L31.9936 20 z"/>
<path d="M31.9936 20 L39.9684 20 L31.9936 20 z"/>
<path d="M31.9936 20 L39.9684 20 L31.9936 20 z"/>
<path d="M31.9936 20 L39.9684 20 L31.9936 20 z"/>
<path d="M31.9936 20 L39.9684 20 L31.9936 20 z"/>
<path d="M31.9936 20 L39.9684 20 L31.9936 20 z"/>
<path d="M31.9936 20 L39.9684 20 L31.9936 20 z"/>
<path d="M31.9936 20 L39.9684 20 L31.9936 20 z"/>
<path d="M31.9936 20 L39.9684 20 L31.9936 20 z"/>
<path d="M31.9936 20 L39.9684 20 L31.9936 20 z"/>
<path d="M31.9936 20 L39.9684 20 L31.9936 20 z"/>
<path d="M31.9936 20 L39.9684 20 L31.9936 20 z"/>
<path d="M31.9936 20 L39.9684 20 L31.9936 20 z"/>
<path d="M31.9936 20 L39.9684 20 L31.9936 20 z"/>
<path d="M31.9936 20 L39.9684 20 L31.9936 20 z"/>
<path d="M31.9936 20 L39.9684 20 L31.9936 20 z"/>
<path d="M31.9936 20 L39.9684 20 L31.9936 20 z"/>
<path d="M31.9936 20 L39.9684 20 L31.9936 20 z"/>
<path d="M31.9936 20 L39.9684 20 L31.9936 20 z"/>
<path d="M31.9936 20 L39.9684 20 L31.9936 20 z"/>
<path d="M31.9936 20 L39.9684 20 L31.9936 20 z"/>
<path d="M31.9936 20 L39.9684 20 L31.9936 20 z"/>
<path d="M31.9936 20 L39.9684 20 L31.9936 20 z"/>
<path d="M31.9936 20 L39.9684 20 L31.9936 20 z"/>
<path d="M31.9936 20 L39.9684 20 L31.9936 20 z"/>
<path d="M31.9936 20 L39.9684 20 L31.9936 20 z"/>
<path d="M31.9936 20 L39.9684 20 L31.9936 20 z"/>
<path d="M31.9936 20 L39.9684 20 L31.9936 20 z"/>
<path d="M31.9936 20 L39.9684 20 L31.9936 20 z"/>
<path d="M31.9936 20 L39.9684 20 L31.9936 20 z"/>
<path d="M31.9936 20 L39.9684 20 L31.9936 20 z"/>
<path d="M31.9936 20 L32.38802 20 L39.9684 20 z"/>
<path d="M31.9936 20 L39.9684 20 L31.9936 20 z"/>
<path d="M32.38802 20 L32.78891 20 L39.9684 20 z"/>
<path d="M32.78891 20 L33.17697 20 L39.9684 20 z"/>
<path d="M33.17697 20 L33.55305 20 L39.9684 20 z"/>
<path d="M33.55305 20 L33.9184 20 L39.9684 20 z"/>
<path d="M33.9184 20 L34.27378 20 L39.9684 20 z"/>
<path d="M34.27378 20 L34.61991 20 L39.9684 20 z"/>
<path d="M34.61991 20 L34.95781 20 L39.9684 20 z"/>
<path d="M34.95781 20 L35.28805 20 L39.9684 20 z"/>
<path d="M35.28805 20 L35.61118 20 L39.9684 20 z"/>
<path d="M35.61118 20 L35.92811 20 L39.9684 20 z"/>
<path d="M35.92811 20 L36.23911 20 L39.9684 20 z"/>
<path d="M36.23911 20 L36.54492 20 L39.9684 20 z"/>
<path d="M36.54492 20 L36.84594 20 L39.9684 20 z"/>
<path d="M36.84594 20 L37.14266 20 L39.9684 20 z"/>
<path d="M37.14266 20 L37.30695 20 L37.5198 20 z"/>
<path d="M37.14266 20 L37.5198 20 L39.9684 20 z"/>
<path d="M39.9684 20 L37.5198 20 L37.9818 20 z"/>
<path d="M39.9684 20 L37.9818 20 L38.3982 20 z"/>
<path d="M39.9684 20 L38.3982 20 L38.7682 20 z"/>
<path d="M39.9684 20 L38.7682 20 L39.0908 20 z"/>
<path d="M39.9684 20 L39.0908 20 L39.3652 20 z"/>
<path d="M39.9684 20 L39.3652 20 L39.5908 20 z"/>
<path d="M39.9684 20 L39.5908 20 L39.7666 20 z"/>
<path d="M39.9684 20 L39.7666 20 L39.8926 20 z"/>
<path d="M39.9684 20 L39.8926 20 L39.9684 20 z"/>
<path d="M39.9684 20 L39.9684 20 L39.9936 20 z"/>
<path d="M31.9936 20 L31.93713 20 L31.9936 20 z"/>
<path d="M31.52138 20 L31.9936 20 L31.9936 20 z"/>
<path d="M31.52138 20 L31.9936 20 L31.93713 20 z"/>
<path d="M31.08557 20 L31.9936 20 L31.9936 20 z"/>
<path d="M31.08557 20 L31.9936 20 L31.52138 20 z"/>
<path d="M30.62757 20 L31.9936 20 L31.9936 20 z"/>
<path d="M30.62757 20 L31.9936 20 L31.08557 20 z"/>
<path d="M30.145 20 L31.9936 20 L31.9936 20 z"/>
<path d="M30.145 20 L31.9936 20 L30.62757 20 z"/>
<path d="M29.63517 20 L31.9936 20 L31.9936 20 z"/>
<path d="M29.63517 20 L31.9936 20 L30.145 20 z"/>
<path d="M29.09508 20 L31.9936 20 L31.9936 20 z"/>
<path d="M29.09508 20 L31.9936 20 L29.63517 20 z"/>
<path d="M28.52117 20 L31.9936 20 L31.9936 20 z"/>
<path d="M28.52117 20 L31.9936 20 L29.09508 20 z"/>
<path d="M27.9092 20 L31.9936 20 L31.9936 20 z"/>
<path d="M27.9092 20 L31.9936 20 L28.52117 20 z"/>
<path d="M27.25461 20 L31.9936 20 L31.9936 20 z"/>
<path d="M27.25461 20 L31.9936 20 L27.9092 20 z"/>
<path d="M26.55182 20 L31.9936 20 L31.9936 20 z"/>
<path d="M26.55182 20 L31.9936 20 L27.25461 20 z"/>
<path d="M25.79431 20 L31.9936 20 L31.9936 20 z"/>
<path d="M25.79431 20 L31.9936 20 L26.55182 20 z"/>
<path d="M24.97426 20 L31.9936 20 L31.9936 20 z"/>
<path d="M24.97426 20 L31.9936 20 L25.79431 20 z"/>
<path d="M24.08245 20 L31.9936 20 L31.9936 20 z"/>
<path d="M24.08245 20 L31.9936 20 L24.97426 20 z"/>
<path d="M23.10785 20 L31.9936 20 L31.9936 20 z"/>
<path d="M23.10785 20 L31.9936 20 L24.08245 20 z"/>
<path d="M22.03679 20 L31.9936 20 L31.9936 20 z"/>
<path d="M22.03679 20 L31.9936 20 L23.10785 20 z"/>
<path d="M21.9936 20 L31.9936 20 L31.9936 20 z"/>
<path d="M21.9936 20 L31.9936 20 L22.03679 20 z"/>
<path d="M21.9936 20 L22.03679 20 L21.9936 20 z"/>
<path d="M31.9936 20 L31.9936 20 L21.9936 20 z"/>
<path d="M31.9936 20 L21.9936 20 L21.9936 20 z"/>
<path d="M31.9936 20 L31.9936 20 L21.9936 20 z"/>
<path d="M31.9936 20 L21.9936 20 L21.9936 20 z"/>
<path d="M31.9936 20 L31.9936 20 L21.9936 20 z"/>
<path d="M31.9936 20 L21.9936 20 L21.9936 20 z"/>
<path d="M31.9936 20 L31.9936 20 L21.9936 20 z"/>
<path d="M31.9936 20 L21.9936 20 L21.9936 20 z"/>
<path d="M31.9936 20 L31.9936 20 L21.9936 20 z"/>
<path d="M31.9936 20 L21.9936 20 L21.9936 20 z"/>
<path d="M31.9936 20 L31.9936 20 L21.9936 20 z"/>
<path d="M31.9936 20 L21.9936 20 L21.9936 20 z"/>
<path d="M31.9936 20 L31.9936 20 L21.9936 20 z"/>
<path d="M31.9936 20 L21.9936 20 L21.9936 20 z"/>
<path d="M31.9936 20 L31.9936 20 L21.9936 20 z"/>
<path d="M31.9936 20 L21.9936 20 L21.9936 20 z"/>
<path d="M31.9936 20 L31.9936 20 L21.9936 20 z"/>
<path d="M31.9936 20 L21.9936 20 L21.9936 20 z"/>
<path d="M21.9936 20 L31.9936 20 L31.9936 20 z"/>
<path d="M21.9936 20 L31.9936 20 L21.9936 20 z"/>
<path d="M21.9936 20 L31.9936 20 L31.9936 20 z"/>
<path d="M21.9936 20 L31.9936 20 L21.9936 20 z"/>
<path d="M21.9936 20 L31.9936 20 L31.9936 20 z"/>
<path d="M21.9936 20 L31.9936 20 L21.9936 20 z"/>
<path d="M21.9936 20 L31.9936 20 L31.9936 20 z"/>
<path d="M21.9936 20 L31.9936 20 L21.9936 20 z"/>
<path d="M21.9936 20 L31.9936 20 L31.9936 20 z"/>
<path d="M21.9936 20 L31.9936 20 L21.9936 20 z"/>
<path d="M21.9936 20 L31.9936 20 L31.9936 20 z"/>
<path d="M21.9936 20 L31.9936 20 L21.9936 20 z"/>
<path d="M21.9936 20 L31.9936 20 L31.9936 20 z"/>
<path d="M21.9936 20 L31.9936 20 L21.9936 20 z"/>
<path d="M21.9936 20 L31.9936 20 L31.9936 20 z"/>
<path d="M21.9936 20 L31.9936 20 L21.9936 20 z"/>
<path d="M21.9936 20 L31.9936 20 L31.9936 20 z"/>
<path d="M21.9936 20 L31.9936 20 L21.9936 20 z"/>
<path d="M21.9936 20 L31.9936 20 L31.9936 20 z"/>
<path d="M21.9936 20 L31.9936 20 L21.9936 20 z"/>
<path d="M21.9936 20 L31.9936 20 L31.9936 20 z"/>
<path d="M21.9936 20 L31.9936 20 L21.9936 20 z"/>
<path d="M21.9936 20 L31.9936 20 L31.9936 20 z"/>
<path d="M21.9936 20 L31.9936 20 L21.9936 20 z"/>
<path d="M21.9936 20 L31.9936 20 L31.9936 20 z"/>
<path d="M21.9936 20 L31.9936 20 L21.9936 20 z"/>
<path d="M21.9936 20 L31.9936 20 L31.9936 20 z"/>
<path d="M21.9936 20 L31.9936 20 L21.9936 20 z"/>
<path d="M21.9936 20 L31.9936 20 L31.9936 20 z"/>
<path d="M21.9936 20 L31.9936 20 L21.9936 20 z"/>
<path d="M21.9936 20 L31.9936 20 L31.9936 20 z"/>
<path d="M21.9936 20 L31.9936 20 L21.9936 20 z"/>
<path d="M21.9936 20 L31.9936 20 L31.9936 20 z"/>
<path d="M21.9936 20 L31.9936 20 L21.9936 20 z"/>
<path d="M21.9936 20 L31.9936 20 L31.9936 20 z"/>
<path d="M21.9936 20 L31.9936 20 L21.9936 20 z"/>
<path d="M21.9936 20 L31.9936 20 L31.9936 20 z"/>
<path d="M21.9936 20 L31.9936 20 L21.9936 20 z"/>
<path d="M21.9936 20 L31.9936 20 L31.9936 20 z"/>
<path d="M21.9936 20 L31.9936 20 L21.9936 20 z"/>
<path d="M21.9936 20 L31.9936 20 L31.9936 20 z"/>
<path d="M21.9936 20 L31.9936 20 L21.9936 20 z"/>
<path d="M21.9936 20 L31.9936 20 L31.9936 20 z"/>
<path d="M21.9936 20 L31.9936 20 L21.9936 20 z"/>
<path d="M21.9936 20 L31.9936 20 L31.9936 20 z"/>
<path d="M21.9936 20 L31.9936 20 L21.9936 20 z"/>
<path d="M21.9936 20 L31.9936 20 L31.9936 20 z"/>
<path d="M21.9936 20 L31.9936 20 L21.9936 20 z"/>
<path d="M21.9936 20 L31.9936 20 L31.9936 20 z"/>
<path d="M21.9936 20 L31.9936 20 L21.9936 20 z"/>
<path d="M21.9936 20 L31.9936 20 L31.9936 20 z"/>
<path d="M21.9936 20 L31.9936 20 L21.9936 20 z"/>
<path d="M21.9936 20 L31.9936 20 L31.9936 20 z"/>
<path d="M21.9936 20 L31.9936 20 L21.9936 20 z"/>
<path d="M21.9936 20 L31.9936 20 L31.9936 20 z"/>
<path d="M21.9936 20 L31.9936 20 L21.9936 20 z"/>
<path d="M21.9936 20 L31.9936 20 L31.9936 20 z"/>
<path d="M21.9936 20 L31.9936 20 L21.9936 20 z"/>
<path d="M21.9936 20 L31.9936 20 L31.9936 20 z"/>
<path d="M21.9936 20 L31.9936 20 L21.9936 20 z"/>
<path d="M22.62752 20 L31.9936 20 L31.9936 20 z"/>
<path d="M22.62752 20 L31.9936 20 L21.9936 20 z"/>
<path d="M22.62752 20 L21.9936 20 L21.9936 20 z"/>
<path d="M31.9936 20 L31.9936 20 L22.62752 20 z"/>
<path d="M31.9936 20 L22.62752 20 L23.55436 20 z"/>
<path d="M31.9936 20 L31.9936 20 L23.55436 20 z"/>
<path d="M31.9936 20 L23.55436 20 L24.41419 20 z"/>
<path d="M31.9936 20 L31.9936 20 L24.41419 20 z"/>
<path d="M31.9936 20 L24.41419 20 L25.21497 20 z"/>
<path d="M31.9936 20 L31.9936 20 L25.21497 20 z"/>
<path d="M31.9936 20 L25.21497 20 L25.96356 20 z"/>
<path d="M31.9936 20 L31.9936 20 L25.96356 20 z"/>
<path d="M31.9936 20 L25.96356 20 L26.66576 20 z"/>
<path d="M31.9936 20 L31.9936 20 L26.66576 20 z"/>
<path d="M31.9936 20 L26.66576 20 L27.32662 20 z"/>
<path d="M31.9936 20 L31.9936 20 L27.32662 20 z"/>
<path d="M31.9936 20 L27.32662 20 L27.95025 20 z"/>
<path d="M31.9936 20 L31.9936 20 L27.95025 20 z"/>
<path d="M31.9936 20 L27.95025 20 L28.5406 20 z"/>
<path d="M31.9936 20 L31.9936 20 L28.5406 20 z"/>
<path d="M31.9936 20 L28.5406 20 L29.10096 20 z"/>
<path d="M31.9936 20 L31.9936 20 L29.10096 20 z"/>
<path d="M31.9936 20 L29.10096 20 L29.63416 20 z"/>
<path d="M31.9936 20 L31.9936 20 L29.63416 20 z"/>
<path d="M31.9936 20 L29.63416 20 L30.14274 20 z"/>
<path d="M31.9936 20 L31.9936 20 L30.14274 20 z"/>
<path d="M31.9936 20 L30.14274 20 L30.629 20 z"/>
<path d="M31.09498 20 L31.9936 20 L31.9936 20 z"/>
<path d="M31.09498 20 L31.9936 20 L30.629 20 z"/>
<path d="M31.54239 20 L31.9936 20 L31.9936 20 z"/>
<path d="M31.54239 20 L31.9936 20 L31.09498 20 z"/>
<path d="M31.97285 20 L31.9936 20 L31.9936 20 z"/>
<path d="M31.97285 20 L31.9936 20 L31.54239 20 z"/>
<path d="M31.9936 20 L31.9936 20 L31.97285 20 z"/>
<path d="M21.9936 12.5 L31.9936 7.5 L31.9936 12.5 z"/>
<path d="M21.9936 7.5 L31.9936 7.5 L21.9936 12.5 z"/>
<path d="M21.9936 12.5 L21.9936 7.5 L21.9936 12.5 z"/>
<path d="M21.9936 7.5 L21.9936 7.5 L21.9936 12.5 z"/>
<path d="M31.9936 12.5 L21.9936 7.5 L21.9936 12.5 z"/>
<path d="M31.9936 7.5 L21.9936 7.5 L31.9936 12.5 z"/>
<path d="M31.9936 12.5 L31.9936 7.5 L31.9936 12.5 z"/>
<path d="M31.9936 7.5 L31.9936 7.5 L31.9936 12.5 z"/>
<path d="M21.9936 7.5 L21.9936 7.5 L31.9936 7.5 z"/>
<path d="M31.9936 7.5 L21.9936 7.5 L31.9936 7.5 z"/>
<path d="M21.9936 12.5 L21.9936 12.5 L31.9936 12.5 z"/>
<path d="M31.9936 12.5 L21.9936 12.5 L31.9936 12.5 z"/>
</svg>