<?xml version="1.0" encoding="UTF-8"?>
<!-- Generated by jsxcad -->
<!DOCTYPE svg PUBLIC "-//W3C//DTD SVG 1.1 Tiny//EN" "http://www.w3.org/Graphics/SVG/1.1/DTD/svg11-tiny.dtd">
<svg viewBox="-250 -250 500 500" width="500" height="500" xmlns="http://www.w3.org/2000/svg"><path d="M-58.579360843064265,-4.445323253490241L-11.94839895919853,83.73329627257107L-1.0826171851952302,96.69280803630318z" style="fill:rgb(23,55,145)"/><path d="M-32.73179408559715,3.292854146149914L-1.0826171851952302,96.69280803630318L23.30214687815536,105.57467016729831z" style="fill:rgb(57,36,182)"/><path d="M72.02672361660379,-54.6250959088613L107.56085100729211,71.31819092227343L117.57990715135395,52.98330647649256z" style="fill:rgb(231,109,199)"/><path d="M-140.68495251564573,-141.2717439218289L-15.541973216110074,79.44727076115625L-11.94839895919853,83.73329627257107zM-58.579360843064265,-4.445323253490241L-69.55074667047894,-16.943765926546188L-11.94839895919853,83.73329627257107z" style="fill:rgb(23,55,145)"/><path d="M-1.4137924131052522e-14,0.10413249425224087L23.30214687815536,105.57467016729831L53.4413151748658,103.92777761198748z" style="fill:rgb(102,32,209)"/><path d="M60.32598794185167,-35.63266392553117L83.53490232073115,91.72253555277985L107.56085100729211,71.31819092227343z" style="fill:rgb(197,72,218)"/><path d="M33.2700318729653,-13.779848935778132L53.4413151748658,103.92777761198748L83.53490232073115,91.72253555277985z" style="fill:rgb(152,45,222)"/><path d="M-32.73179408559715,3.292854146149914L-58.579360843064265,-4.445323253490241L-1.0826171851952302,96.69280803630318z" style="fill:rgb(57,36,182)"/><path d="M121.52463390250868,23.182954587202744L19.975052446849727,-194.97111983977499L120.91602335776597,46.878205439396055z" style="fill:rgb(246,148,167)"/><path d="M19.975052446849727,-194.97111983977499L117.57990715135395,52.98330647649256L120.91602335776597,46.878205439396055zM72.02672361660379,-54.6250959088613L60.32598794185167,-35.63266392553117L107.56085100729211,71.31819092227343z" style="fill:rgb(231,109,199)"/><path d="M-1.4137924131052522e-14,0.10413249425224087L-32.73179408559715,3.292854146149914L23.30214687815536,105.57467016729831z" style="fill:rgb(102,32,209)"/><path d="M60.32598794185167,-35.63266392553117L33.2700318729653,-13.779848935778132L83.53490232073115,91.72253555277985z" style="fill:rgb(197,72,218)"/><path d="M33.2700318729653,-13.779848935778132L-1.4137924131052522e-14,0.10413249425224087L53.4413151748658,103.92777761198748z" style="fill:rgb(152,45,222)"/><path d="M-1.4137924131052522e-14,0.10413249425224087L-69.55074667047894,-16.943765926546188L-58.579360843064265,-4.445323253490241zM-1.4137924131052522e-14,0.10413249425224087L72.02672361660379,-54.6250959088613L-69.55074667047894,-16.943765926546188zM-1.4137924131052522e-14,0.10413249425224087L-58.579360843064265,-4.445323253490241L-32.73179408559715,3.292854146149914z" style="fill:rgb(83,212,212)"/><path d="M-140.68495251564573,-141.2717439218289L-144.24620421285408,-145.03582653323426L-15.541973216110074,79.44727076115625z" style="fill:rgb(23,55,145)"/><path d="M45.31704816177575,-117.7202457976243L-69.55074667047894,-16.943765926546188L72.02672361660379,-54.6250959088613z" style="fill:rgb(127,37,217)"/><path d="M-1.4137924131052522e-14,0.10413249425224087L60.32598794185167,-35.63266392553117L72.02672361660379,-54.6250959088613z" style="fill:rgb(83,212,212)"/><path d="M45.31704816177575,-117.7202457976243L-103.1448779922017,-75.65940581545276L-69.55074667047894,-16.943765926546188z" style="fill:rgb(127,37,217)"/><path d="M-1.4137924131052522e-14,0.10413249425224087L33.2700318729653,-13.779848935778132L60.32598794185167,-35.63266392553117zM3.0908512639559165e-15,0.10413249425223645L-33.064292743191714,13.902256529612458L-60.874173003157985,36.16567084706717zM3.0908512639559165e-15,0.10413249425223645L-60.874173003157985,36.16567084706717L-74.5555620888969,56.75488906629126z" style="fill:rgb(83,212,212)"/><path d="M121.52463390250868,23.182954587202744L23.266244219454016,-218.20127570700518L19.975052446849727,-194.97111983977499z" style="fill:rgb(246,148,167)"/><path d="M3.0908512639559165e-15,0.10413249425223645L62.762532405471205,4.978466383963061L33.613612968881164,-3.170495691177487zM3.0908512639559165e-15,0.10413249425223645L-74.5555620888969,56.75488906629126L77.40800569795388,19.077959250528224z" style="fill:rgb(83,212,212)"/><path d="M19.975052446849727,-194.97111983977499L15.344746815788389,-188.52257310595735L117.57990715135395,52.98330647649256z" style="fill:rgb(231,109,199)"/><path d="M3.0908512639559165e-15,0.10413249425223645L77.40800569795388,19.077959250528224L62.762532405471205,4.978466383963061z" style="fill:rgb(83,212,212)"/><path d="M-129.86085087516196,-129.8311585259467L-103.1448779922017,-75.65940581545276L-92.20470050553145,-63.59309120595231z" style="fill:rgb(23,55,145)"/><path d="M-29.556746391783943,-145.6487889127509L-75.55494975318763,-229.92559531637295L-106.46730569494908,-212.24371061497973zM-29.556746391783943,-145.6487889127509L-42.3351500988378,-240.56226413011248L-75.55494975318763,-229.92559531637295zM-29.556746391783943,-145.6487889127509L-106.46730569494908,-212.24371061497973L-130.61588601976365,-190.01073451726214zM-29.556746391783943,-145.6487889127509L-11.614262275107267,-242.42741025589117L-42.3351500988378,-240.56226413011248z" style="fill:rgb(83,212,212)"/><path d="M-129.86085087516196,-129.8311585259467L-140.68495251564573,-141.2717439218289L-103.1448779922017,-75.65940581545276z" style="fill:rgb(23,55,145)"/><path d="M-29.556746391783943,-145.6487889127509L-130.61588601976365,-190.01073451726214L-144.14623526246686,-166.38119547733356z" style="fill:rgb(83,212,212)"/><path d="M11.249142046290867,235.01115546978016L-158.83479769893694,-6.133529721361902L-10.829104774502909,217.0102136154237z" style="fill:rgb(38,44,164)"/><path d="M130.2870902882465,131.1984864111329L27.032863507931022,-84.97783515046666L136.95017597455342,158.2781903971484z" style="fill:rgb(246,167,148)"/><path d="M-102.5150814261974,-124.08638460571746L-92.20470050553145,-63.59309120595231L-65.60676079890982,-56.71561849353031z" style="fill:rgb(57,36,182)"/><path d="M-29.556746391783943,-145.6487889127509L11.726536753697681,-234.77743762008856L-11.614262275107267,-242.42741025589117z" style="fill:rgb(83,212,212)"/><path d="M15.344746815788389,-188.52257310595735L32.57558245441959,-98.46611432371765L45.31704816177575,-117.7202457976243z" style="fill:rgb(231,109,199)"/><path d="M-29.556746391783943,-145.6487889127509L-144.14623526246686,-166.38119547733356L-144.24620421285408,-145.03582653323426z" style="fill:rgb(83,212,212)"/><path d="M-102.5150814261974,-124.08638460571746L-129.86085087516196,-129.8311585259467L-92.20470050553145,-63.59309120595231z" style="fill:rgb(57,36,182)"/><path d="M-66.75048576124294,-129.57603578819175L-65.60676079890982,-56.71561849353031L-31.419070191584513,-60.935577752895014z" style="fill:rgb(102,32,209)"/><path d="M1.3871496788227475,-169.0840641673178L3.703893618614771,-75.83707662646401L32.57558245441959,-98.46611432371765z" style="fill:rgb(197,72,218)"/><path d="M-29.556746391783943,-145.6487889127509L23.266244219454016,-218.20127570700518L11.726536753697681,-234.77743762008856z" style="fill:rgb(83,212,212)"/><path d="M42.47530628322127,241.56728745728924L-135.03925937515547,10.195661340557761L11.249142046290867,235.01115546978016z" style="fill:rgb(78,32,197)"/><path d="M136.95017597455342,158.2781903971484L14.372870261819026,-52.81044690281885L129.34631398186195,188.37110392045705z" style="fill:rgb(241,128,184)"/><path d="M-29.556746391783943,-145.6487889127509L-31.419070191584513,-60.935577752895014L3.703893618614771,-75.83707662646401z" style="fill:rgb(152,45,222)"/><path d="M-29.556746391783943,-145.6487889127509L-144.24620421285408,-145.03582653323426L-129.86085087516196,-129.8311585259467z" style="fill:rgb(83,212,212)"/><path d="M15.344746815788389,-188.52257310595735L1.3871496788227475,-169.0840641673178L32.57558245441959,-98.46611432371765z" style="fill:rgb(231,109,199)"/><path d="M-66.75048576124294,-129.57603578819175L-102.5150814261974,-124.08638460571746L-65.60676079890982,-56.71561849353031z" style="fill:rgb(102,32,209)"/><path d="M-29.556746391783943,-145.6487889127509L19.975052446849727,-194.97111983977499L23.266244219454016,-218.20127570700518z" style="fill:rgb(83,212,212)"/><path d="M77.08626719278845,234.79601063352854L-98.22976782603806,13.52120391890163L42.47530628322127,241.56728745728924z" style="fill:rgb(127,37,217)"/><path d="M129.34631398186195,188.37110392045705L-14.82689931152307,-21.500869527892778L108.12397744548707,215.75618876705107z" style="fill:rgb(216,90,210)"/><path d="M1.3871496788227475,-169.0840641673178L-29.556746391783943,-145.6487889127509L3.703893618614771,-75.83707662646401z" style="fill:rgb(197,72,218)"/><path d="M-29.556746391783943,-145.6487889127509L-66.75048576124294,-129.57603578819175L-31.419070191584513,-60.935577752895014z" style="fill:rgb(152,45,222)"/><path d="M-29.556746391783943,-145.6487889127509L-129.86085087516196,-129.8311585259467L-102.5150814261974,-124.08638460571746z" style="fill:rgb(83,212,212)"/><path d="M108.12397744548707,215.75618876705107L-55.17889800251487,2.312021478781776L77.08626719278845,234.79601063352854z" style="fill:rgb(176,57,222)"/><path d="M-29.556746391783943,-145.6487889127509L1.3871496788227475,-169.0840641673178L19.975052446849727,-194.97111983977499zM-29.556746391783943,-145.6487889127509L-102.5150814261974,-124.08638460571746L-66.75048576124294,-129.57603578819175zM-103.685680697003,-113.61499833111876L-29.900564956863047,-135.2322671610327L-66.75048576124294,-129.57603578819175z" style="fill:rgb(83,212,212)"/><path d="M130.2870902882465,131.1984864111329L21.93650723565448,-111.88366355260631L27.032863507931022,-84.97783515046666z" style="fill:rgb(246,167,148)"/><path d="M-103.685680697003,-113.61499833111876L-135.58478063622283,-89.66405360464543L-157.78479093662,-60.9319247292565zM-103.685680697003,-113.61499833111876L1.4504339955218184,-129.30033337274185L-29.900564956863047,-135.2322671610327zM-103.685680697003,-113.61499833111876L-157.78479093662,-60.9319247292565L-166.37438335523,-31.492134624396762z" style="fill:rgb(83,212,212)"/><path d="M11.249142046290867,235.01115546978016L-135.03925937515547,10.195661340557761L-158.83479769893694,-6.133529721361902z" style="fill:rgb(38,44,164)"/><path d="M136.95017597455342,158.2781903971484L27.032863507931022,-84.97783515046666L14.372870261819026,-52.81044690281885z" style="fill:rgb(241,128,184)"/><path d="M-103.685680697003,-113.61499833111876L21.93650723565448,-111.88366355260631L1.4504339955218184,-129.30033337274185zM-103.685680697003,-113.61499833111876L-166.37438335523,-31.492134624396762L-158.83479769893694,-6.133529721361902z" style="fill:rgb(83,212,212)"/><path d="M42.47530628322127,241.56728745728924L-98.22976782603806,13.52120391890163L-135.03925937515547,10.195661340557761z" style="fill:rgb(78,32,197)"/><path d="M129.34631398186195,188.37110392045705L14.372870261819026,-52.81044690281885L-14.82689931152307,-21.500869527892778z" style="fill:rgb(216,90,210)"/><path d="M-103.685680697003,-113.61499833111876L27.032863507931022,-84.97783515046666L21.93650723565448,-111.88366355260631z" style="fill:rgb(83,212,212)"/><path d="M77.08626719278845,234.79601063352854L-55.17889800251487,2.312021478781776L-98.22976782603806,13.52120391890163z" style="fill:rgb(127,37,217)"/><path d="M-103.685680697003,-113.61499833111876L-158.83479769893694,-6.133529721361902L-135.03925937515547,10.195661340557761z" style="fill:rgb(83,212,212)"/><path d="M108.12397744548707,215.75618876705107L-14.82689931152307,-21.500869527892778L-55.17889800251487,2.312021478781776z" style="fill:rgb(176,57,222)"/><path d="M-103.685680697003,-113.61499833111876L14.372870261819026,-52.81044690281885L27.032863507931022,-84.97783515046666zM-103.685680697003,-113.61499833111876L-135.03925937515547,10.195661340557761L-98.22976782603806,13.52120391890163zM-103.685680697003,-113.61499833111876L-14.82689931152307,-21.500869527892778L14.372870261819026,-52.81044690281885zM-103.685680697003,-113.61499833111876L-98.22976782603806,13.52120391890163L-55.17889800251487,2.312021478781776zM-103.685680697003,-113.61499833111876L-55.17889800251487,2.312021478781776L-14.82689931152307,-21.500869527892778z" style="fill:rgb(83,212,212)"/></svg>
