<?xml version="1.0" encoding="UTF-8"?>
<!-- Generated by jsxcad -->
<!DOCTYPE svg PUBLIC "-//W3C//DTD SVG 1.1 Tiny//EN" "http://www.w3.org/Graphics/SVG/1.1/DTD/svg11-tiny.dtd">
<svg baseProfile="tiny" height="20 mm" width="20 mm" viewBox="0 0 20 20" version="1.1" stroke="black" stroke-width=".1" fill="none" xmlns="http://www.w3.org/2000/svg">
<path d="M19.9487 7.5 L19.9487 0 L19.89118 7.5 z"/>
<path d="M19.89118 7.5 L19.9487 0 L19.7953 0 z"/>
<path d="M19.89118 7.5 L19.7953 0 L19.7953 7.5 z"/>
<path d="M19.85282 12.5 L19.7953 20 L19.9487 20 z"/>
<path d="M19.85282 12.5 L19.9487 20 L19.9487 12.5 z"/>
<path d="M19.7953 12.5 L19.7953 20 L19.85282 12.5 z"/>
<path d="M19.7953 7.5 L19.7953 0 L19.70009 7.5 z"/>
<path d="M19.70009 7.5 L19.7953 0 L19.5414 0 z"/>
<path d="M19.70009 7.5 L19.5414 0 L19.5414 7.5 z"/>
<path d="M19.63661 12.5 L19.5414 20 L19.7953 20 z"/>
<path d="M19.63661 12.5 L19.7953 20 L19.7953 12.5 z"/>
<path d="M19.5414 12.5 L19.5414 20 L19.63661 12.5 z"/>
<path d="M19.5414 7.5 L19.5414 0 L19.40948 7.5 z"/>
<path d="M19.40948 7.5 L19.5414 0 L19.1896 0 z"/>
<path d="M19.40948 7.5 L19.1896 0 L19.1896 7.5 z"/>
<path d="M19.32153 12.5 L19.1896 20 L19.5414 20 z"/>
<path d="M19.32153 12.5 L19.5414 20 L19.5414 12.5 z"/>
<path d="M19.1896 12.5 L19.1896 20 L19.32153 12.5 z"/>
<path d="M19.1896 7.5 L19.1896 0 L19.02231 7.5 z"/>
<path d="M19.02231 7.5 L19.1896 0 L18.7435 0 z"/>
<path d="M19.02231 7.5 L18.7435 0 L18.7435 7.5 z"/>
<path d="M18.91079 12.5 L18.7435 20 L19.1896 20 z"/>
<path d="M18.91079 12.5 L19.1896 20 L19.1896 12.5 z"/>
<path d="M18.7435 12.5 L18.7435 20 L18.91079 12.5 z"/>
<path d="M18.7435 7.5 L18.7435 0 L18.54254 7.5 z"/>
<path d="M18.54254 7.5 L18.7435 0 L18.2076 0 z"/>
<path d="M18.54254 7.5 L18.2076 0 L18.2076 7.5 z"/>
<path d="M18.40856 12.5 L18.2076 20 L18.7435 20 z"/>
<path d="M18.40856 12.5 L18.7435 20 L18.7435 12.5 z"/>
<path d="M18.2076 12.5 L18.2076 20 L18.40856 12.5 z"/>
<path d="M18.2076 7.5 L18.2076 0 L17.9751 7.5 z"/>
<path d="M17.9751 7.5 L18.2076 0 L17.5876 0 z"/>
<path d="M17.9751 7.5 L17.5876 0 L17.5876 7.5 z"/>
<path d="M17.8201 12.5 L17.5876 20 L18.2076 20 z"/>
<path d="M17.8201 12.5 L18.2076 20 L18.2076 12.5 z"/>
<path d="M17.5876 12.5 L17.5876 20 L17.8201 12.5 z"/>
<path d="M17.5876 7.5 L17.5876 0 L17.32589 7.5 z"/>
<path d="M17.32589 7.5 L17.5876 0 L16.8897 0 z"/>
<path d="M17.32589 7.5 L16.8897 0 L16.8897 7.5 z"/>
<path d="M17.15141 12.5 L16.8897 20 L17.5876 20 z"/>
<path d="M17.15141 12.5 L17.5876 20 L17.5876 12.5 z"/>
<path d="M16.8897 12.5 L16.8897 20 L17.15141 12.5 z"/>
<path d="M16.8897 7.5 L16.8897 0 L16.60148 7.5 z"/>
<path d="M16.60148 7.5 L16.8897 0 L16.1211 0 z"/>
<path d="M16.60148 7.5 L16.1211 0 L16.1211 7.5 z"/>
<path d="M16.40933 12.5 L16.1211 20 L16.8897 20 z"/>
<path d="M16.40933 12.5 L16.8897 20 L16.8897 12.5 z"/>
<path d="M16.1211 12.5 L16.1211 20 L16.40933 12.5 z"/>
<path d="M16.1211 7.5 L16.1211 0 L15.80929 7.5 z"/>
<path d="M15.80929 7.5 L16.1211 0 L15.2896 0 z"/>
<path d="M15.80929 7.5 L15.2896 0 L15.2896 7.5 z"/>
<path d="M15.60141 12.5 L15.2896 20 L16.1211 20 z"/>
<path d="M15.60141 12.5 L16.1211 20 L16.1211 12.5 z"/>
<path d="M15.2896 12.5 L15.2896 20 L15.60141 12.5 z"/>
<path d="M15.2896 7.5 L15.2896 0 L14.95746 7.5 z"/>
<path d="M14.95746 7.5 L15.2896 0 L14.4039 0 z"/>
<path d="M14.95746 7.5 L14.4039 0 L14.4039 7.5 z"/>
<path d="M14.73604 12.5 L14.4039 20 L15.2896 20 z"/>
<path d="M14.73604 12.5 L15.2896 20 L15.2896 12.5 z"/>
<path d="M14.4039 12.5 L14.4039 20 L14.73604 12.5 z"/>
<path d="M14.4039 7.5 L14.4039 0 L14.05485 7.5 z"/>
<path d="M14.05485 7.5 L14.4039 0 L13.4731 0 z"/>
<path d="M14.05485 7.5 L13.4731 0 L13.4731 7.5 z"/>
<path d="M13.82215 12.5 L13.4731 20 L14.4039 20 z"/>
<path d="M13.82215 12.5 L14.4039 20 L14.4039 12.5 z"/>
<path d="M13.4731 12.5 L13.4731 20 L13.82215 12.5 z"/>
<path d="M13.4731 7.5 L13.4731 0 L13.11063 7.5 z"/>
<path d="M13.11063 7.5 L13.4731 0 L12.5065 0 z"/>
<path d="M13.11063 7.5 L12.5065 0 L12.5065 7.5 z"/>
<path d="M12.86898 12.5 L12.5065 20 L13.4731 20 z"/>
<path d="M12.86898 12.5 L13.4731 20 L13.4731 12.5 z"/>
<path d="M12.5065 12.5 L12.5065 20 L12.86898 12.5 z"/>
<path d="M12 10.20964 L11.5143 20 L12 20 z"/>
<path d="M12 10.20964 L12 0 L11.5143 0 z"/>
<path d="M12 10.20964 L11.5143 0 L11.5143 20 z"/>
<path d="M12.13442 7.5 L12.5065 7.5 L12.5065 0 z"/>
<path d="M12.13442 7.5 L12.5065 0 L12 0 z"/>
<path d="M12.13442 7.5 L12 0 L12 7.5 z"/>
<path d="M12 12.5 L12 20 L12.5065 20 z"/>
<path d="M12 12.5 L12.5065 20 L12.5065 12.5 z"/>
<path d="M11.5143 20 L11.5143 0 L10.5065 20 z"/>
<path d="M10.5065 20 L11.5143 0 L10.5065 0 z"/>
<path d="M10.5065 20 L10.5065 0 L9.4935 20 z"/>
<path d="M9.4935 20 L10.5065 0 L9.4935 0 z"/>
<path d="M9.4935 20 L9.4935 0 L8.4857 20 z"/>
<path d="M8.4857 20 L9.4935 0 L8.4857 0 z"/>
<path d="M8.4857 20 L8.4857 0 L7.4935 20 z"/>
<path d="M7.4935 20 L8.4857 0 L7.4935 0 z"/>
<path d="M7.4935 20 L7.4935 0 L6.5269 20 z"/>
<path d="M6.5269 20 L7.4935 0 L6.5269 0 z"/>
<path d="M6.5269 20 L6.5269 0 L5.5961 20 z"/>
<path d="M5.5961 20 L6.5269 0 L5.5961 0 z"/>
<path d="M5.5961 20 L5.5961 0 L4.7104 20 z"/>
<path d="M4.7104 20 L5.5961 0 L4.7104 0 z"/>
<path d="M4.7104 20 L4.7104 0 L3.8789 20 z"/>
<path d="M3.8789 20 L4.7104 0 L3.8789 0 z"/>
<path d="M3.8789 20 L3.8789 0 L3.1103 20 z"/>
<path d="M3.1103 20 L3.8789 0 L3.1103 0 z"/>
<path d="M3.1103 20 L3.1103 0 L2.4124 20 z"/>
<path d="M2.4124 20 L3.1103 0 L2.4124 0 z"/>
<path d="M2.4124 20 L2.4124 0 L1.7924 20 z"/>
<path d="M1.7924 20 L2.4124 0 L1.7924 0 z"/>
<path d="M1.7924 20 L1.7924 0 L1.2565 20 z"/>
<path d="M1.2565 20 L1.7924 0 L1.2565 0 z"/>
<path d="M1.2565 20 L1.2565 0 L0.8104 20 z"/>
<path d="M0.8104 20 L1.2565 0 L0.8104 0 z"/>
<path d="M0.8104 20 L0.8104 0 L0.4586 20 z"/>
<path d="M0.4586 20 L0.8104 0 L0.4586 0 z"/>
<path d="M0.4586 20 L0.4586 0 L0.2047 20 z"/>
<path d="M0.2047 20 L0.4586 0 L0.2047 0 z"/>
<path d="M0.2047 20 L0.2047 0 L0.0513 20 z"/>
<path d="M0.0513 20 L0.2047 0 L0.0513 0 z"/>
<path d="M0.0513 20 L0.0513 0 L0 20 z"/>
<path d="M0 20 L0.0513 0 L0 0 z"/>
<path d="M0 20 L0 0 L0.0513 20 z"/>
<path d="M0.0513 20 L0 0 L0.0513 0 z"/>
<path d="M0.0513 20 L0.0513 0 L0.2047 20 z"/>
<path d="M0.2047 20 L0.0513 0 L0.2047 0 z"/>
<path d="M0.2047 20 L0.2047 0 L0.4586 20 z"/>
<path d="M0.4586 20 L0.2047 0 L0.4586 0 z"/>
<path d="M0.4586 20 L0.4586 0 L0.8104 20 z"/>
<path d="M0.8104 20 L0.4586 0 L0.8104 0 z"/>
<path d="M0.8104 20 L0.8104 0 L1.2565 20 z"/>
<path d="M1.2565 20 L0.8104 0 L1.2565 0 z"/>
<path d="M1.2565 20 L1.2565 0 L1.7924 20 z"/>
<path d="M1.7924 20 L1.2565 0 L1.7924 0 z"/>
<path d="M1.7924 20 L1.7924 0 L2.4124 20 z"/>
<path d="M2.4124 20 L1.7924 0 L2.4124 0 z"/>
<path d="M2.4124 20 L2.4124 0 L3.1103 20 z"/>
<path d="M3.1103 20 L2.4124 0 L3.1103 0 z"/>
<path d="M3.1103 20 L3.1103 0 L3.8789 20 z"/>
<path d="M3.8789 20 L3.1103 0 L3.8789 0 z"/>
<path d="M3.8789 20 L3.8789 0 L4.7104 20 z"/>
<path d="M4.7104 20 L3.8789 0 L4.7104 0 z"/>
<path d="M4.7104 20 L4.7104 0 L5.5961 20 z"/>
<path d="M5.5961 20 L4.7104 0 L5.5961 0 z"/>
<path d="M5.5961 20 L5.5961 0 L6.5269 20 z"/>
<path d="M6.5269 20 L5.5961 0 L6.5269 0 z"/>
<path d="M6.5269 20 L6.5269 0 L7.4935 20 z"/>
<path d="M7.4935 20 L6.5269 0 L7.4935 0 z"/>
<path d="M7.4935 20 L7.4935 0 L8.4857 20 z"/>
<path d="M8.4857 20 L7.4935 0 L8.4857 0 z"/>
<path d="M8.4857 20 L8.4857 0 L9.4935 20 z"/>
<path d="M9.4935 20 L8.4857 0 L9.4935 0 z"/>
<path d="M9.4935 20 L9.4935 0 L10.5065 20 z"/>
<path d="M10.5065 20 L9.4935 0 L10.5065 0 z"/>
<path d="M10.5065 20 L10.5065 0 L11.5143 20 z"/>
<path d="M11.5143 20 L10.5065 0 L11.5143 0 z"/>
<path d="M11.5143 0 L12 9.79036 L12 20 z"/>
<path d="M11.5143 0 L12 20 L11.5143 20 z"/>
<path d="M12 9.79036 L11.5143 0 L12 0 z"/>
<path d="M12 7.5 L12 0 L12.5065 0 z"/>
<path d="M12 7.5 L12.5065 0 L12.5065 7.5 z"/>
<path d="M12.13442 12.5 L12.5065 20 L12 20 z"/>
<path d="M12.13442 12.5 L12 20 L12 12.5 z"/>
<path d="M12.5065 12.5 L12.5065 20 L12.13442 12.5 z"/>
<path d="M12.5065 7.5 L12.5065 0 L12.86898 7.5 z"/>
<path d="M12.86898 7.5 L12.5065 0 L13.4731 0 z"/>
<path d="M12.86898 7.5 L13.4731 0 L13.4731 7.5 z"/>
<path d="M13.11063 12.5 L13.4731 20 L12.5065 20 z"/>
<path d="M13.11063 12.5 L12.5065 20 L12.5065 12.5 z"/>
<path d="M13.4731 12.5 L13.4731 20 L13.11063 12.5 z"/>
<path d="M13.4731 7.5 L13.4731 0 L13.82215 7.5 z"/>
<path d="M13.82215 7.5 L13.4731 0 L14.4039 0 z"/>
<path d="M13.82215 7.5 L14.4039 0 L14.4039 7.5 z"/>
<path d="M14.05485 12.5 L14.4039 20 L13.4731 20 z"/>
<path d="M14.05485 12.5 L13.4731 20 L13.4731 12.5 z"/>
<path d="M14.4039 12.5 L14.4039 20 L14.05485 12.5 z"/>
<path d="M14.4039 7.5 L14.4039 0 L14.73604 7.5 z"/>
<path d="M14.73604 7.5 L14.4039 0 L15.2896 0 z"/>
<path d="M14.73604 7.5 L15.2896 0 L15.2896 7.5 z"/>
<path d="M14.95746 12.5 L15.2896 20 L14.4039 20 z"/>
<path d="M14.95746 12.5 L14.4039 20 L14.4039 12.5 z"/>
<path d="M15.2896 12.5 L15.2896 20 L14.95746 12.5 z"/>
<path d="M15.2896 7.5 L15.2896 0 L15.60141 7.5 z"/>
<path d="M15.60141 7.5 L15.2896 0 L16.1211 0 z"/>
<path d="M15.60141 7.5 L16.1211 0 L16.1211 7.5 z"/>
<path d="M15.80929 12.5 L16.1211 20 L15.2896 20 z"/>
<path d="M15.80929 12.5 L15.2896 20 L15.2896 12.5 z"/>
<path d="M16.1211 12.5 L16.1211 20 L15.80929 12.5 z"/>
<path d="M16.1211 7.5 L16.1211 0 L16.40933 7.5 z"/>
<path d="M16.40933 7.5 L16.1211 0 L16.8897 0 z"/>
<path d="M16.40933 7.5 L16.8897 0 L16.8897 7.5 z"/>
<path d="M16.60148 12.5 L16.8897 20 L16.1211 20 z"/>
<path d="M16.60148 12.5 L16.1211 20 L16.1211 12.5 z"/>
<path d="M16.8897 12.5 L16.8897 20 L16.60148 12.5 z"/>
<path d="M16.8897 7.5 L16.8897 0 L17.15141 7.5 z"/>
<path d="M17.15141 7.5 L16.8897 0 L17.5876 0 z"/>
<path d="M17.15141 7.5 L17.5876 0 L17.5876 7.5 z"/>
<path d="M17.32589 12.5 L17.5876 20 L16.8897 20 z"/>
<path d="M17.32589 12.5 L16.8897 20 L16.8897 12.5 z"/>
<path d="M17.5876 12.5 L17.5876 20 L17.32589 12.5 z"/>
<path d="M17.5876 7.5 L17.5876 0 L17.8201 7.5 z"/>
<path d="M17.8201 7.5 L17.5876 0 L18.2076 0 z"/>
<path d="M17.8201 7.5 L18.2076 0 L18.2076 7.5 z"/>
<path d="M17.9751 12.5 L18.2076 20 L17.5876 20 z"/>
<path d="M17.9751 12.5 L17.5876 20 L17.5876 12.5 z"/>
<path d="M18.2076 12.5 L18.2076 20 L17.9751 12.5 z"/>
<path d="M18.2076 7.5 L18.2076 0 L18.40856 7.5 z"/>
<path d="M18.40856 7.5 L18.2076 0 L18.7435 0 z"/>
<path d="M18.40856 7.5 L18.7435 0 L18.7435 7.5 z"/>
<path d="M18.54254 12.5 L18.7435 20 L18.2076 20 z"/>
<path d="M18.54254 12.5 L18.2076 20 L18.2076 12.5 z"/>
<path d="M18.7435 12.5 L18.7435 20 L18.54254 12.5 z"/>
<path d="M18.7435 7.5 L18.7435 0 L18.91079 7.5 z"/>
<path d="M18.91079 7.5 L18.7435 0 L19.1896 0 z"/>
<path d="M18.91079 7.5 L19.1896 0 L19.1896 7.5 z"/>
<path d="M19.02231 12.5 L19.1896 20 L18.7435 20 z"/>
<path d="M19.02231 12.5 L18.7435 20 L18.7435 12.5 z"/>
<path d="M19.1896 12.5 L19.1896 20 L19.02231 12.5 z"/>
<path d="M19.1896 7.5 L19.1896 0 L19.32152 7.5 z"/>
<path d="M19.32152 7.5 L19.1896 0 L19.5414 0 z"/>
<path d="M19.32152 7.5 L19.5414 0 L19.5414 7.5 z"/>
<path d="M19.40947 12.5 L19.5414 20 L19.1896 20 z"/>
<path d="M19.40947 12.5 L19.1896 20 L19.1896 12.5 z"/>
<path d="M19.5414 12.5 L19.5414 20 L19.40947 12.5 z"/>
<path d="M19.5414 7.5 L19.5414 0 L19.63661 7.5 z"/>
<path d="M19.63661 7.5 L19.5414 0 L19.7953 0 z"/>
<path d="M19.63661 7.5 L19.7953 0 L19.7953 7.5 z"/>
<path d="M19.70009 12.5 L19.7953 20 L19.5414 20 z"/>
<path d="M19.70009 12.5 L19.5414 20 L19.5414 12.5 z"/>
<path d="M19.7953 12.5 L19.7953 20 L19.70009 12.5 z"/>
<path d="M19.7953 7.5 L19.7953 0 L19.85282 7.5 z"/>
<path d="M19.85282 7.5 L19.7953 0 L19.9487 0 z"/>
<path d="M19.85282 7.5 L19.9487 0 L19.9487 7.5 z"/>
<path d="M19.89118 12.5 L19.9487 20 L19.7953 20 z"/>
<path d="M19.89118 12.5 L19.7953 20 L19.7953 12.5 z"/>
<path d="M19.9487 12.5 L19.9487 20 L19.89118 12.5 z"/>
<path d="M19.9487 7.5 L19.9487 0 L19.96794 7.5 z"/>
<path d="M19.96794 7.5 L19.9487 0 L20 0 z"/>
<path d="M19.96794 7.5 L20 0 L20 7.5 z"/>
<path d="M19.98076 12.5 L20 20 L19.9487 20 z"/>
<path d="M19.98076 12.5 L19.9487 20 L19.9487 12.5 z"/>
<path d="M20 12.5 L20 20 L19.98076 12.5 z"/>
<path d="M20 7.5 L20 0 L19.98076 7.5 z"/>
<path d="M19.98076 7.5 L20 0 L19.9487 0 z"/>
<path d="M19.98076 7.5 L19.9487 0 L19.9487 7.5 z"/>
<path d="M19.96794 12.5 L19.9487 20 L20 20 z"/>
<path d="M19.96794 12.5 L20 20 L20 12.5 z"/>
<path d="M19.9487 12.5 L19.9487 20 L19.96794 12.5 z"/>
<path d="M12 0 L11.5143 0 L12 0 z"/>
<path d="M12 0 L11.5143 0 L10.5065 0 z"/>
<path d="M12 0 L10.5065 0 L12 0 z"/>
<path d="M12 0 L10.5065 0 L9.4935 0 z"/>
<path d="M12 0 L9.4935 0 L12 0 z"/>
<path d="M12 0 L9.4935 0 L8.4857 0 z"/>
<path d="M12 0 L8.4857 0 L12 0 z"/>
<path d="M12 0 L8.4857 0 L7.4935 0 z"/>
<path d="M12 0 L7.4935 0 L12 0 z"/>
<path d="M12 0 L7.4935 0 L6.5269 0 z"/>
<path d="M12 0 L6.5269 0 L12 0 z"/>
<path d="M12 0 L6.5269 0 L5.5961 0 z"/>
<path d="M12 0 L5.5961 0 L12 0 z"/>
<path d="M12 0 L5.5961 0 L4.7104 0 z"/>
<path d="M12 0 L4.7104 0 L12 0 z"/>
<path d="M12 0 L4.7104 0 L3.8789 0 z"/>
<path d="M12 0 L3.8789 0 L12 0 z"/>
<path d="M12 0 L3.8789 0 L3.1103 0 z"/>
<path d="M12 0 L3.1103 0 L12 0 z"/>
<path d="M12 0 L3.1103 0 L2.4124 0 z"/>
<path d="M12 0 L2.4124 0 L12 0 z"/>
<path d="M12 0 L2.4124 0 L1.7924 0 z"/>
<path d="M12 0 L1.7924 0 L12 0 z"/>
<path d="M12 0 L1.7924 0 L1.2565 0 z"/>
<path d="M12 0 L1.2565 0 L12 0 z"/>
<path d="M12 0 L1.2565 0 L0.8104 0 z"/>
<path d="M12 0 L0.8104 0 L12 0 z"/>
<path d="M12 0 L0.8104 0 L0.4586 0 z"/>
<path d="M12 0 L0.4586 0 L12 0 z"/>
<path d="M12 0 L0.4586 0 L0.2047 0 z"/>
<path d="M12 0 L0.2047 0 L12 0 z"/>
<path d="M12 0 L0.2047 0 L0.0513 0 z"/>
<path d="M12 0 L0.0513 0 L12 0 z"/>
<path d="M12 0 L0.0513 0 L0 0 z"/>
<path d="M12 0 L0 0 L12 0 z"/>
<path d="M12 0 L0 0 L0.0513 0 z"/>
<path d="M12 0 L0.0513 0 L12 0 z"/>
<path d="M12 0 L0.0513 0 L0.2047 0 z"/>
<path d="M12 0 L0.2047 0 L12 0 z"/>
<path d="M12 0 L0.2047 0 L0.4586 0 z"/>
<path d="M12 0 L0.4586 0 L12 0 z"/>
<path d="M12 0 L0.4586 0 L0.8104 0 z"/>
<path d="M12 0 L0.8104 0 L12 0 z"/>
<path d="M12 0 L0.8104 0 L1.2565 0 z"/>
<path d="M12 0 L1.2565 0 L12 0 z"/>
<path d="M12 0 L1.2565 0 L1.7924 0 z"/>
<path d="M12 0 L1.7924 0 L12 0 z"/>
<path d="M12 0 L1.7924 0 L2.4124 0 z"/>
<path d="M12 0 L2.4124 0 L12 0 z"/>
<path d="M12 0 L2.4124 0 L3.1103 0 z"/>
<path d="M12 0 L3.1103 0 L12 0 z"/>
<path d="M12 0 L3.1103 0 L3.8789 0 z"/>
<path d="M12 0 L3.8789 0 L12 0 z"/>
<path d="M12 0 L3.8789 0 L4.7104 0 z"/>
<path d="M12 0 L4.7104 0 L12 0 z"/>
<path d="M12 0 L4.7104 0 L5.5961 0 z"/>
<path d="M12 0 L5.5961 0 L12 0 z"/>
<path d="M12 0 L5.5961 0 L6.5269 0 z"/>
<path d="M12 0 L6.5269 0 L12 0 z"/>
<path d="M12 0 L6.5269 0 L7.4935 0 z"/>
<path d="M12 0 L7.4935 0 L12 0 z"/>
<path d="M12 0 L7.4935 0 L8.4857 0 z"/>
<path d="M12 0 L8.4857 0 L12 0 z"/>
<path d="M12 0 L8.4857 0 L9.4935 0 z"/>
<path d="M12 0 L9.4935 0 L12 0 z"/>
<path d="M12 0 L9.4935 0 L10.5065 0 z"/>
<path d="M12 0 L10.5065 0 L12 0 z"/>
<path d="M12 0 L10.5065 0 L11.5143 0 z"/>
<path d="M12 0 L11.5143 0 L12 0 z"/>
<path d="M12 0 L11.5143 0 L12 0 z"/>
<path d="M20 0 L19.9487 0 L19.7953 0 z"/>
<path d="M20 0 L19.7953 0 L19.5414 0 z"/>
<path d="M20 0 L19.5414 0 L19.1896 0 z"/>
<path d="M20 0 L19.1896 0 L18.7435 0 z"/>
<path d="M20 0 L18.7435 0 L18.2076 0 z"/>
<path d="M20 0 L18.2076 0 L17.5876 0 z"/>
<path d="M20 0 L17.5876 0 L16.8897 0 z"/>
<path d="M20 0 L16.8897 0 L16.1211 0 z"/>
<path d="M20 0 L16.1211 0 L15.2896 0 z"/>
<path d="M20 0 L15.2896 0 L14.4039 0 z"/>
<path d="M20 0 L14.4039 0 L13.4731 0 z"/>
<path d="M20 0 L13.4731 0 L12.5065 0 z"/>
<path d="M12.5065 0 L12 0 L12 0 z"/>
<path d="M12.5065 0 L12 0 L20 0 z"/>
<path d="M12 0 L12 0 L20 0 z"/>
<path d="M12 0 L12 0 L20 0 z"/>
<path d="M12 0 L12 0 L20 0 z"/>
<path d="M12 0 L12 0 L20 0 z"/>
<path d="M12 0 L12 0 L20 0 z"/>
<path d="M12 0 L12 0 L20 0 z"/>
<path d="M12 0 L12 0 L20 0 z"/>
<path d="M12 0 L12 0 L20 0 z"/>
<path d="M12 0 L12 0 L20 0 z"/>
<path d="M12 0 L12 0 L20 0 z"/>
<path d="M12 0 L12 0 L20 0 z"/>
<path d="M12 0 L12 0 L20 0 z"/>
<path d="M12 0 L12 0 L20 0 z"/>
<path d="M12 0 L12 0 L20 0 z"/>
<path d="M12 0 L12 0 L20 0 z"/>
<path d="M12 0 L12 0 L20 0 z"/>
<path d="M12 0 L12 0 L20 0 z"/>
<path d="M12 0 L12 0 L20 0 z"/>
<path d="M12 0 L12 0 L20 0 z"/>
<path d="M12 0 L12 0 L20 0 z"/>
<path d="M12 0 L12 0 L20 0 z"/>
<path d="M12 0 L12 0 L20 0 z"/>
<path d="M12 0 L12 0 L20 0 z"/>
<path d="M12 0 L12 0 L20 0 z"/>
<path d="M12 0 L12 0 L20 0 z"/>
<path d="M12 0 L12 0 L20 0 z"/>
<path d="M12 0 L12 0 L20 0 z"/>
<path d="M12 0 L12 0 L20 0 z"/>
<path d="M12 0 L12 0 L20 0 z"/>
<path d="M12 0 L12 0 L20 0 z"/>
<path d="M12 0 L12 0 L20 0 z"/>
<path d="M12 0 L12 0 L20 0 z"/>
<path d="M12 0 L12 0 L20 0 z"/>
<path d="M12 0 L12 0 L20 0 z"/>
<path d="M12 0 L12 0 L12.5065 0 z"/>
<path d="M12 0 L12.5065 0 L20 0 z"/>
<path d="M20 0 L12.5065 0 L13.4731 0 z"/>
<path d="M20 0 L13.4731 0 L14.4039 0 z"/>
<path d="M20 0 L14.4039 0 L15.2896 0 z"/>
<path d="M20 0 L15.2896 0 L16.1211 0 z"/>
<path d="M20 0 L16.1211 0 L16.8897 0 z"/>
<path d="M20 0 L16.8897 0 L17.5876 0 z"/>
<path d="M20 0 L17.5876 0 L18.2076 0 z"/>
<path d="M20 0 L18.2076 0 L18.7435 0 z"/>
<path d="M20 0 L18.7435 0 L19.1896 0 z"/>
<path d="M20 0 L19.1896 0 L19.5414 0 z"/>
<path d="M20 0 L19.5414 0 L19.7953 0 z"/>
<path d="M20 0 L19.7953 0 L19.9487 0 z"/>
<path d="M12 20 L11.5143 20 L12 20 z"/>
<path d="M12 20 L11.5143 20 L10.5065 20 z"/>
<path d="M12 20 L10.5065 20 L12 20 z"/>
<path d="M12 20 L10.5065 20 L9.4935 20 z"/>
<path d="M12 20 L9.4935 20 L12 20 z"/>
<path d="M12 20 L9.4935 20 L8.4857 20 z"/>
<path d="M12 20 L8.4857 20 L12 20 z"/>
<path d="M12 20 L8.4857 20 L7.4935 20 z"/>
<path d="M12 20 L7.4935 20 L12 20 z"/>
<path d="M12 20 L7.4935 20 L6.5269 20 z"/>
<path d="M12 20 L6.5269 20 L12 20 z"/>
<path d="M12 20 L6.5269 20 L5.5961 20 z"/>
<path d="M12 20 L5.5961 20 L12 20 z"/>
<path d="M12 20 L5.5961 20 L4.7104 20 z"/>
<path d="M12 20 L4.7104 20 L12 20 z"/>
<path d="M12 20 L4.7104 20 L3.8789 20 z"/>
<path d="M12 20 L3.8789 20 L12 20 z"/>
<path d="M12 20 L3.8789 20 L3.1103 20 z"/>
<path d="M12 20 L3.1103 20 L12 20 z"/>
<path d="M12 20 L3.1103 20 L2.4124 20 z"/>
<path d="M12 20 L2.4124 20 L12 20 z"/>
<path d="M12 20 L2.4124 20 L1.7924 20 z"/>
<path d="M12 20 L1.7924 20 L12 20 z"/>
<path d="M12 20 L1.7924 20 L1.2565 20 z"/>
<path d="M12 20 L1.2565 20 L12 20 z"/>
<path d="M12 20 L1.2565 20 L0.8104 20 z"/>
<path d="M12 20 L0.8104 20 L12 20 z"/>
<path d="M12 20 L0.8104 20 L0.4586 20 z"/>
<path d="M12 20 L0.4586 20 L12 20 z"/>
<path d="M12 20 L0.4586 20 L0.2047 20 z"/>
<path d="M12 20 L0.2047 20 L12 20 z"/>
<path d="M12 20 L0.2047 20 L0.0513 20 z"/>
<path d="M12 20 L0.0513 20 L12 20 z"/>
<path d="M12 20 L0.0513 20 L0 20 z"/>
<path d="M12 20 L0 20 L12 20 z"/>
<path d="M12 20 L0 20 L0.0513 20 z"/>
<path d="M12 20 L0.0513 20 L12 20 z"/>
<path d="M12 20 L0.0513 20 L0.2047 20 z"/>
<path d="M12 20 L0.2047 20 L12 20 z"/>
<path d="M12 20 L0.2047 20 L0.4586 20 z"/>
<path d="M12 20 L0.4586 20 L12 20 z"/>
<path d="M12 20 L0.4586 20 L0.8104 20 z"/>
<path d="M12 20 L0.8104 20 L12 20 z"/>
<path d="M12 20 L0.8104 20 L1.2565 20 z"/>
<path d="M12 20 L1.2565 20 L12 20 z"/>
<path d="M12 20 L1.2565 20 L1.7924 20 z"/>
<path d="M12 20 L1.7924 20 L12 20 z"/>
<path d="M12 20 L1.7924 20 L2.4124 20 z"/>
<path d="M12 20 L2.4124 20 L12 20 z"/>
<path d="M12 20 L2.4124 20 L3.1103 20 z"/>
<path d="M12 20 L3.1103 20 L12 20 z"/>
<path d="M12 20 L3.1103 20 L3.8789 20 z"/>
<path d="M12 20 L3.8789 20 L12 20 z"/>
<path d="M12 20 L3.8789 20 L4.7104 20 z"/>
<path d="M12 20 L4.7104 20 L12 20 z"/>
<path d="M12 20 L4.7104 20 L5.5961 20 z"/>
<path d="M12 20 L5.5961 20 L12 20 z"/>
<path d="M12 20 L5.5961 20 L6.5269 20 z"/>
<path d="M12 20 L6.5269 20 L12 20 z"/>
<path d="M12 20 L6.5269 20 L7.4935 20 z"/>
<path d="M12 20 L7.4935 20 L12 20 z"/>
<path d="M12 20 L7.4935 20 L8.4857 20 z"/>
<path d="M12 20 L8.4857 20 L12 20 z"/>
<path d="M12 20 L8.4857 20 L9.4935 20 z"/>
<path d="M12 20 L9.4935 20 L12 20 z"/>
<path d="M12 20 L9.4935 20 L10.5065 20 z"/>
<path d="M12 20 L10.5065 20 L12 20 z"/>
<path d="M12 20 L10.5065 20 L11.5143 20 z"/>
<path d="M12 20 L11.5143 20 L12 20 z"/>
<path d="M12 20 L11.5143 20 L12 20 z"/>
<path d="M19.9487 20 L19.7953 20 L19.5414 20 z"/>
<path d="M19.9487 20 L19.5414 20 L19.1896 20 z"/>
<path d="M19.9487 20 L19.1896 20 L18.7435 20 z"/>
<path d="M19.9487 20 L18.7435 20 L18.2076 20 z"/>
<path d="M19.9487 20 L18.2076 20 L17.5876 20 z"/>
<path d="M19.9487 20 L17.5876 20 L16.8897 20 z"/>
<path d="M19.9487 20 L16.8897 20 L16.1211 20 z"/>
<path d="M19.9487 20 L16.1211 20 L15.2896 20 z"/>
<path d="M19.9487 20 L15.2896 20 L14.4039 20 z"/>
<path d="M19.9487 20 L14.4039 20 L13.4731 20 z"/>
<path d="M19.9487 20 L13.4731 20 L12.5065 20 z"/>
<path d="M12.5065 20 L12 20 L12 20 z"/>
<path d="M12.5065 20 L12 20 L19.9487 20 z"/>
<path d="M12 20 L12 20 L19.9487 20 z"/>
<path d="M12 20 L12 20 L19.9487 20 z"/>
<path d="M12 20 L12 20 L19.9487 20 z"/>
<path d="M12 20 L12 20 L19.9487 20 z"/>
<path d="M12 20 L12 20 L19.9487 20 z"/>
<path d="M12 20 L12 20 L19.9487 20 z"/>
<path d="M12 20 L12 20 L19.9487 20 z"/>
<path d="M12 20 L12 20 L19.9487 20 z"/>
<path d="M12 20 L12 20 L19.9487 20 z"/>
<path d="M12 20 L12 20 L19.9487 20 z"/>
<path d="M12 20 L12 20 L19.9487 20 z"/>
<path d="M12 20 L12 20 L19.9487 20 z"/>
<path d="M12 20 L12 20 L19.9487 20 z"/>
<path d="M12 20 L12 20 L19.9487 20 z"/>
<path d="M12 20 L12 20 L19.9487 20 z"/>
<path d="M12 20 L12 20 L19.9487 20 z"/>
<path d="M12 20 L12 20 L19.9487 20 z"/>
<path d="M12 20 L12 20 L19.9487 20 z"/>
<path d="M12 20 L12 20 L19.9487 20 z"/>
<path d="M12 20 L12 20 L19.9487 20 z"/>
<path d="M12 20 L12 20 L19.9487 20 z"/>
<path d="M12 20 L12 20 L19.9487 20 z"/>
<path d="M12 20 L12 20 L19.9487 20 z"/>
<path d="M12 20 L12 20 L19.9487 20 z"/>
<path d="M12 20 L12 20 L19.9487 20 z"/>
<path d="M12 20 L12 20 L19.9487 20 z"/>
<path d="M12 20 L12 20 L19.9487 20 z"/>
<path d="M12 20 L12 20 L19.9487 20 z"/>
<path d="M12 20 L12 20 L19.9487 20 z"/>
<path d="M12 20 L12 20 L19.9487 20 z"/>
<path d="M12 20 L12 20 L19.9487 20 z"/>
<path d="M12 20 L12 20 L19.9487 20 z"/>
<path d="M12 20 L12 20 L19.9487 20 z"/>
<path d="M12 20 L12 20 L19.9487 20 z"/>
<path d="M12 20 L12 20 L12.5065 20 z"/>
<path d="M12 20 L12.5065 20 L19.9487 20 z"/>
<path d="M19.9487 20 L12.5065 20 L13.4731 20 z"/>
<path d="M19.9487 20 L13.4731 20 L14.4039 20 z"/>
<path d="M19.9487 20 L14.4039 20 L15.2896 20 z"/>
<path d="M19.9487 20 L15.2896 20 L16.1211 20 z"/>
<path d="M19.9487 20 L16.1211 20 L16.8897 20 z"/>
<path d="M19.9487 20 L16.8897 20 L17.5876 20 z"/>
<path d="M19.9487 20 L17.5876 20 L18.2076 20 z"/>
<path d="M19.9487 20 L18.2076 20 L18.7435 20 z"/>
<path d="M19.9487 20 L18.7435 20 L19.1896 20 z"/>
<path d="M19.9487 20 L19.1896 20 L19.5414 20 z"/>
<path d="M19.9487 20 L19.5414 20 L19.7953 20 z"/>
<path d="M19.9487 20 L19.7953 20 L19.9487 20 z"/>
<path d="M19.9487 20 L19.9487 20 L20 20 z"/>
<path d="M12 12.44622 L12 7.55378 L12 12.5 z"/>
<path d="M12 12.44622 L12 12.5 L12 12.5 z"/>
<path d="M12 7.5 L12 7.5 L12 7.55378 z"/>
<path d="M12 7.5 L12 7.55378 L12 12.44622 z"/>
<path d="M18.7435 7.5 L19.08174 7.5 L12.11987 7.5 z"/>
<path d="M18.7435 7.5 L12.11987 7.5 L12 7.5 z"/>
<path d="M18.7435 7.5 L12 7.5 L12 7.5 z"/>
<path d="M18.7435 7.5 L12 7.5 L12.5065 7.5 z"/>
<path d="M18.7435 7.5 L12.5065 7.5 L13.4731 7.5 z"/>
<path d="M18.7435 7.5 L13.4731 7.5 L14.4039 7.5 z"/>
<path d="M18.7435 7.5 L14.4039 7.5 L15.2896 7.5 z"/>
<path d="M18.7435 7.5 L15.2896 7.5 L16.1211 7.5 z"/>
<path d="M18.7435 7.5 L16.1211 7.5 L16.8897 7.5 z"/>
<path d="M18.7435 7.5 L16.8897 7.5 L17.5876 7.5 z"/>
<path d="M18.7435 7.5 L17.5876 7.5 L18.2076 7.5 z"/>
<path d="M19.9487 7.5 L19.7953 7.5 L19.5414 7.5 z"/>
<path d="M19.9487 7.5 L19.5414 7.5 L19.1896 7.5 z"/>
<path d="M19.9487 7.5 L19.1896 7.5 L18.7435 7.5 z"/>
<path d="M19.9487 7.5 L18.7435 7.5 L18.2076 7.5 z"/>
<path d="M19.9487 7.5 L18.2076 7.5 L17.5876 7.5 z"/>
<path d="M19.9487 7.5 L17.5876 7.5 L16.8897 7.5 z"/>
<path d="M19.9487 7.5 L16.8897 7.5 L16.1211 7.5 z"/>
<path d="M19.9487 7.5 L16.1211 7.5 L15.2896 7.5 z"/>
<path d="M19.9487 7.5 L15.2896 7.5 L14.4039 7.5 z"/>
<path d="M19.9487 7.5 L14.4039 7.5 L13.4731 7.5 z"/>
<path d="M19.9487 7.5 L13.4731 7.5 L12.5065 7.5 z"/>
<path d="M19.9487 7.5 L12.5065 7.5 L12.11987 7.5 z"/>
<path d="M19.9487 7.5 L12.11987 7.5 L19.08174 7.5 z"/>
<path d="M19.9487 7.5 L19.08174 7.5 L19.1896 7.5 z"/>
<path d="M19.9487 7.5 L19.1896 7.5 L19.5414 7.5 z"/>
<path d="M19.9487 7.5 L19.5414 7.5 L19.7953 7.5 z"/>
<path d="M19.9487 7.5 L19.7953 7.5 L19.9487 7.5 z"/>
<path d="M19.9487 7.5 L19.9487 7.5 L20 7.5 z"/>
<path d="M12 12.5 L12 12.5 L12.5065 12.5 z"/>
<path d="M12 12.5 L12.5065 12.5 L13.4731 12.5 z"/>
<path d="M12 12.5 L13.4731 12.5 L14.4039 12.5 z"/>
<path d="M12 12.5 L14.4039 12.5 L15.2896 12.5 z"/>
<path d="M12 12.5 L15.2896 12.5 L16.1211 12.5 z"/>
<path d="M12 12.5 L16.1211 12.5 L16.8897 12.5 z"/>
<path d="M12 12.5 L16.8897 12.5 L17.5876 12.5 z"/>
<path d="M12 12.5 L17.5876 12.5 L18.2076 12.5 z"/>
<path d="M12 12.5 L18.2076 12.5 L18.7435 12.5 z"/>
<path d="M12 12.5 L18.7435 12.5 L19.08174 12.5 z"/>
<path d="M12 12.5 L19.08174 12.5 L12.11987 12.5 z"/>
<path d="M13.4731 12.5 L12.5065 12.5 L12.11987 12.5 z"/>
<path d="M13.4731 12.5 L12.11987 12.5 L19.08174 12.5 z"/>
<path d="M13.4731 12.5 L19.08174 12.5 L19.1896 12.5 z"/>
<path d="M13.4731 12.5 L19.1896 12.5 L19.5414 12.5 z"/>
<path d="M13.4731 12.5 L19.5414 12.5 L19.7953 12.5 z"/>
<path d="M13.4731 12.5 L19.7953 12.5 L19.9487 12.5 z"/>
<path d="M13.4731 12.5 L19.9487 12.5 L20 12.5 z"/>
<path d="M13.4731 12.5 L20 12.5 L19.9487 12.5 z"/>
<path d="M13.4731 12.5 L19.9487 12.5 L19.7953 12.5 z"/>
<path d="M13.4731 12.5 L19.7953 12.5 L19.5414 12.5 z"/>
<path d="M13.4731 12.5 L19.5414 12.5 L19.1896 12.5 z"/>
<path d="M13.4731 12.5 L19.1896 12.5 L18.7435 12.5 z"/>
<path d="M13.4731 12.5 L18.7435 12.5 L18.2076 12.5 z"/>
<path d="M13.4731 12.5 L18.2076 12.5 L17.5876 12.5 z"/>
<path d="M13.4731 12.5 L17.5876 12.5 L16.8897 12.5 z"/>
<path d="M13.4731 12.5 L16.8897 12.5 L16.1211 12.5 z"/>
<path d="M13.4731 12.5 L16.1211 12.5 L15.2896 12.5 z"/>
<path d="M13.4731 12.5 L15.2896 12.5 L14.4039 12.5 z"/>
</svg>