<?xml version="1.0" encoding="UTF-8"?>
<!-- Generated by jsxcad -->
<!DOCTYPE svg PUBLIC "-//W3C//DTD SVG 1.1 Tiny//EN" "http://www.w3.org/Graphics/SVG/1.1/DTD/svg11-tiny.dtd">
<svg baseProfile="tiny" height="20 mm" width="20 mm" viewBox="0 0 20 20" version="1.1" stroke="black" stroke-width=".1" fill="none" xmlns="http://www.w3.org/2000/svg">
<path d="M19.9487 20 L19.9487 0 L19.7953 20 z"/>
<path d="M19.7953 20 L19.9487 0 L19.7953 0 z"/>
<path d="M19.7953 20 L19.7953 0 L19.5414 20 z"/>
<path d="M19.5414 20 L19.7953 0 L19.5414 0 z"/>
<path d="M19.5414 20 L19.5414 0 L19.1896 20 z"/>
<path d="M19.1896 20 L19.5414 0 L19.1896 0 z"/>
<path d="M19.1896 20 L19.1896 0 L18.7435 20 z"/>
<path d="M18.7435 20 L19.1896 0 L18.7435 0 z"/>
<path d="M18.7435 20 L18.7435 0 L18.2076 20 z"/>
<path d="M18.2076 20 L18.7435 0 L18.2076 0 z"/>
<path d="M18.2076 20 L18.2076 0 L17.5876 20 z"/>
<path d="M17.5876 20 L18.2076 0 L17.5876 0 z"/>
<path d="M17.5876 20 L17.5876 0 L16.8897 20 z"/>
<path d="M16.8897 20 L17.5876 0 L16.8897 0 z"/>
<path d="M16.8897 20 L16.8897 0 L16.1211 20 z"/>
<path d="M16.1211 20 L16.8897 0 L16.1211 0 z"/>
<path d="M16.1211 20 L16.1211 0 L15.2896 20 z"/>
<path d="M15.2896 20 L16.1211 0 L15.2896 0 z"/>
<path d="M15.2896 20 L15.2896 0 L14.4039 20 z"/>
<path d="M14.4039 20 L15.2896 0 L14.4039 0 z"/>
<path d="M14.4039 20 L14.4039 0 L13.4731 20 z"/>
<path d="M13.4731 20 L14.4039 0 L13.4731 0 z"/>
<path d="M13.4731 20 L13.4731 0 L12.5065 20 z"/>
<path d="M12.5065 20 L13.4731 0 L12.5065 0 z"/>
<path d="M12.5065 20 L12.5065 0 L11.5143 20 z"/>
<path d="M11.5143 20 L12.5065 0 L11.5143 0 z"/>
<path d="M11.5143 20 L11.5143 0 L10.5065 20 z"/>
<path d="M10.5065 20 L11.5143 0 L10.5065 0 z"/>
<path d="M10.5065 20 L10.5065 0 L9.4935 20 z"/>
<path d="M9.4935 20 L10.5065 0 L9.4935 0 z"/>
<path d="M9.4935 20 L9.4935 0 L8.4857 20 z"/>
<path d="M8.4857 20 L9.4935 0 L8.4857 0 z"/>
<path d="M8.4857 20 L8.4857 0 L7.4935 20 z"/>
<path d="M7.4935 20 L8.4857 0 L7.4935 0 z"/>
<path d="M7.4935 20 L7.4935 0 L6.5269 20 z"/>
<path d="M6.5269 20 L7.4935 0 L6.5269 0 z"/>
<path d="M6.5269 20 L6.5269 0 L5.5961 20 z"/>
<path d="M5.5961 20 L6.5269 0 L5.5961 0 z"/>
<path d="M5.5961 20 L5.5961 0 L4.7104 20 z"/>
<path d="M4.7104 20 L5.5961 0 L4.7104 0 z"/>
<path d="M4.7104 20 L4.7104 0 L3.8789 20 z"/>
<path d="M3.8789 20 L4.7104 0 L3.8789 0 z"/>
<path d="M3.8789 20 L3.8789 0 L3.1103 20 z"/>
<path d="M3.1103 20 L3.8789 0 L3.1103 0 z"/>
<path d="M3.1103 20 L3.1103 0 L2.4124 20 z"/>
<path d="M2.4124 20 L3.1103 0 L2.4124 0 z"/>
<path d="M2.4124 20 L2.4124 0 L1.7924 20 z"/>
<path d="M1.7924 20 L2.4124 0 L1.7924 0 z"/>
<path d="M1.7924 20 L1.7924 0 L1.2565 20 z"/>
<path d="M1.2565 20 L1.7924 0 L1.2565 0 z"/>
<path d="M1.2565 20 L1.2565 0 L0.8104 20 z"/>
<path d="M0.8104 20 L1.2565 0 L0.8104 0 z"/>
<path d="M0.8104 20 L0.8104 0 L0.4586 20 z"/>
<path d="M0.4586 20 L0.8104 0 L0.4586 0 z"/>
<path d="M0.4586 20 L0.4586 0 L0.2047 20 z"/>
<path d="M0.2047 20 L0.4586 0 L0.2047 0 z"/>
<path d="M0.2047 20 L0.2047 0 L0.0513 20 z"/>
<path d="M0.0513 20 L0.2047 0 L0.0513 0 z"/>
<path d="M0.0513 20 L0.0513 0 L0 20 z"/>
<path d="M0 20 L0.0513 0 L0 0 z"/>
<path d="M0 20 L0 0 L0.0513 20 z"/>
<path d="M0.0513 20 L0 0 L0.0513 0 z"/>
<path d="M0 12.5 L0.10141 12.5 L0.10141 12.47465 z"/>
<path d="M0 7.5 L0 12.5 L0.10141 12.47465 L0.10141 7.5 z"/>
<path d="M0 12.5 L0 7.5 L0 12.5 z"/>
<path d="M0 12.5 L0 7.5 L0 7.5 z"/>
<path d="M0.60848 12.5 L0 12.5 L0 7.5 L0.60848 7.65212 z"/>
<path d="M0.60848 7.65212 L0 7.5 L0.60848 7.5 z"/>
<path d="M0 7.5 L0.10405 7.5 L0.60848 7.5 L0 7.5 z"/>
<path d="M0.10405 7.5 L0 7.5 L0.10141 7.5 z"/>
<path d="M0 12.5 L0.59344 12.5 L0.10141 12.5 L0 12.5 z"/>
<path d="M0.59344 12.5 L0 12.5 L0.60848 12.5 z"/>
<path d="M0.0513 0 L0.20271 19.74034 L0.20271 20 L0.0513 20 z"/>
<path d="M0.20271 19.74034 L0.0513 0 L0.20271 0 z"/>
<path d="M0.20271 7.5 L0.20271 0 L0.2047 0 L0.2047 7.5 z"/>
<path d="M0.20271 19.74034 L0.2047 20 L0.20271 20 z"/>
<path d="M0.2047 12.5 L0.2047 20 L0.20271 19.74034 L0.20271 12.5 z"/>
<path d="M0.10141 12.47465 L0.10141 12.5 L0.20271 12.5 L0.20271 12.44932 z"/>
<path d="M0.10141 7.5 L0.10141 12.47465 L0.20271 12.44932 L0.20271 7.5 z"/>
<path d="M0.60848 7.65212 L1.73472 7.93368 L1.73472 12.5 L0.60848 12.5 z"/>
<path d="M0.60848 7.5 L1.73472 7.5 L1.73472 7.93368 L0.60848 7.65212 z"/>
<path d="M0.60848 7.5 L0.10405 7.5 L0.21952 7.5 L1.73472 7.5 z"/>
<path d="M0.10141 7.5 L0.20271 7.5 L0.21952 7.5 L0.10405 7.5 z"/>
<path d="M0.10141 12.5 L0.59344 12.5 L1.61129 12.5 L0.20271 12.5 z"/>
<path d="M0.60848 12.5 L1.73472 12.5 L1.61129 12.5 L0.59344 12.5 z"/>
<path d="M0.2047 7.5 L0.2047 0 L0.29991 7.5 z"/>
<path d="M0.29991 7.5 L0.2047 0 L0.4586 0 L0.4586 7.5 z"/>
<path d="M0.36339 12.5 L0.4586 20 L0.2047 20 L0.2047 12.5 z"/>
<path d="M0.4586 12.5 L0.4586 20 L0.36339 12.5 z"/>
<path d="M1.73472 12.5 L1.73472 7.93368 L2.79057 8.19764 L2.79057 12.5 z"/>
<path d="M1.73472 7.93368 L1.73472 7.5 L2.79057 7.5 L2.79057 8.19764 z"/>
<path d="M1.73472 7.5 L0.21952 7.5 L0.23128 7.5 L2.79057 7.5 z"/>
<path d="M0.21952 7.5 L0.2047 7.5 L0.23128 7.5 z"/>
<path d="M0.2047 12.5 L1.61129 12.5 L2.4707 12.5 z"/>
<path d="M1.61129 12.5 L1.73472 12.5 L2.79057 12.5 L2.4707 12.5 z"/>
<path d="M0.4586 7.5 L0.4586 0 L0.59053 7.5 z"/>
<path d="M0.59053 7.5 L0.4586 0 L0.8104 0 L0.8104 7.5 z"/>
<path d="M0.67847 12.5 L0.8104 20 L0.4586 20 L0.4586 12.5 z"/>
<path d="M0.8104 12.5 L0.8104 20 L0.67847 12.5 z"/>
<path d="M2.79057 12.5 L2.79057 8.19764 L3.79381 8.44845 L3.79381 12.5 z"/>
<path d="M2.79057 8.19764 L2.79057 7.5 L3.79381 7.5 L3.79381 8.44845 z"/>
<path d="M2.79057 7.5 L0.4586 7.5 L3.79381 7.5 z"/>
<path d="M0.4586 12.5 L2.4707 12.5 L3.2011 12.5 z"/>
<path d="M2.4707 12.5 L2.79057 12.5 L3.79381 12.5 L3.2011 12.5 z"/>
<path d="M0.8104 7.5 L0.8104 0 L0.97769 7.5 z"/>
<path d="M0.97769 7.5 L0.8104 0 L1.2565 0 L1.2565 7.5 z"/>
<path d="M1.08921 12.5 L1.2565 20 L0.8104 20 L0.8104 12.5 z"/>
<path d="M1.2565 12.5 L1.2565 20 L1.08921 12.5 z"/>
<path d="M3.79381 12.5 L3.79381 8.44845 L4.76241 8.6906 L4.76241 12.5 z"/>
<path d="M3.79381 8.44845 L3.79381 7.5 L4.76241 7.5 L4.76241 8.6906 z"/>
<path d="M3.79381 7.5 L0.8104 7.5 L4.76241 7.5 z"/>
<path d="M3.2011 12.5 L3.8244 12.5 L0.8104 12.5 z"/>
<path d="M3.2011 12.5 L3.79381 12.5 L4.76241 12.5 L3.8244 12.5 z"/>
<path d="M1.2565 7.5 L1.2565 0 L1.45746 7.5 z"/>
<path d="M1.45746 7.5 L1.2565 0 L1.7924 0 L1.7924 7.5 z"/>
<path d="M1.59144 12.5 L1.7924 20 L1.2565 20 L1.2565 12.5 z"/>
<path d="M1.7924 12.5 L1.7924 20 L1.59144 12.5 z"/>
<path d="M4.76241 12.5 L4.76241 8.6906 L5.71163 8.92791 L5.71163 12.5 z"/>
<path d="M4.76241 8.6906 L4.76241 7.5 L5.71163 7.5 L5.71163 8.92791 z"/>
<path d="M4.76241 7.5 L1.2565 7.5 L5.71163 7.5 z"/>
<path d="M1.2565 12.5 L3.8244 12.5 L4.35445 12.5 z"/>
<path d="M3.8244 12.5 L4.76241 12.5 L5.71163 12.5 L4.35445 12.5 z"/>
<path d="M1.7924 7.5 L1.7924 0 L2.0249 7.5 z"/>
<path d="M2.0249 7.5 L1.7924 0 L2.4124 0 L2.4124 7.5 z"/>
<path d="M2.1799 12.5 L2.4124 20 L1.7924 20 L1.7924 12.5 z"/>
<path d="M2.4124 12.5 L2.4124 20 L2.1799 12.5 z"/>
<path d="M5.71163 12.5 L5.71163 8.92791 L6.65897 9.16474 L6.65897 12.5 z"/>
<path d="M5.71163 8.92791 L5.71163 7.5 L6.65897 7.5 L6.65897 9.16474 z"/>
<path d="M5.71163 7.5 L1.7924 7.5 L6.65897 7.5 z"/>
<path d="M1.7924 12.5 L4.35445 12.5 L4.80093 12.5 z"/>
<path d="M4.35445 12.5 L5.71163 12.5 L6.65897 12.5 L4.80093 12.5 z"/>
<path d="M2.4124 7.5 L2.4124 0 L2.67411 7.5 z"/>
<path d="M2.67411 7.5 L2.4124 0 L3.1103 0 L3.1103 7.5 z"/>
<path d="M2.84859 12.5 L3.1103 20 L2.4124 20 L2.4124 12.5 z"/>
<path d="M3.1103 12.5 L3.1103 20 L2.84859 12.5 z"/>
<path d="M6.65897 12.5 L6.65897 9.16474 L7.62745 9.40686 L7.62745 12.5 z"/>
<path d="M6.65897 9.16474 L6.65897 7.5 L7.62745 7.5 L7.62745 9.40686 z"/>
<path d="M6.65897 7.5 L2.4124 7.5 L7.62745 7.5 z"/>
<path d="M2.4124 12.5 L4.80093 12.5 L5.17017 12.5 z"/>
<path d="M4.80093 12.5 L6.65897 12.5 L7.62745 12.5 L5.17017 12.5 z"/>
<path d="M3.1103 7.5 L3.1103 0 L3.39852 7.5 z"/>
<path d="M3.39852 7.5 L3.1103 0 L3.8789 0 L3.8789 7.5 z"/>
<path d="M3.59067 12.5 L3.8789 20 L3.1103 20 L3.1103 12.5 z"/>
<path d="M3.8789 12.5 L3.8789 20 L3.59067 12.5 z"/>
<path d="M7.62745 12.5 L7.62745 9.40686 L8.64518 9.66129 L8.64518 12.5 z"/>
<path d="M7.62745 9.40686 L7.62745 7.5 L8.64518 7.5 L8.64518 9.66129 z"/>
<path d="M7.62745 7.5 L3.1103 7.5 L8.64518 7.5 z"/>
<path d="M3.1103 12.5 L5.17017 12.5 L5.46347 12.5 z"/>
<path d="M5.17017 12.5 L7.62745 12.5 L8.64518 12.5 L5.46347 12.5 z"/>
<path d="M3.8789 7.5 L3.8789 0 L4.19071 7.5 z"/>
<path d="M4.19071 7.5 L3.8789 0 L4.7104 0 L4.7104 7.5 z"/>
<path d="M4.39859 12.5 L4.7104 20 L3.8789 20 L3.8789 12.5 z"/>
<path d="M4.7104 12.5 L4.7104 20 L4.39859 12.5 z"/>
<path d="M8.64518 12.5 L8.64518 9.66129 L9.75976 9.93994 L9.75976 12.5 z"/>
<path d="M8.64518 9.66129 L8.64518 7.5 L9.75976 7.5 L9.75976 9.93994 z"/>
<path d="M8.64518 7.5 L3.8789 7.5 L9.75976 7.5 z"/>
<path d="M3.8789 12.5 L5.46347 12.5 L5.67908 12.5 z"/>
<path d="M5.46347 12.5 L8.64518 12.5 L9.75976 12.5 L5.67908 12.5 z"/>
<path d="M4.7104 7.5 L4.7104 0 L5.04254 7.5 z"/>
<path d="M5.04254 7.5 L4.7104 0 L5.5961 0 L5.5961 7.5 z"/>
<path d="M5.26396 12.5 L5.5961 20 L4.7104 20 L4.7104 12.5 z"/>
<path d="M5.5961 12.5 L5.5961 20 L5.26396 12.5 z"/>
<path d="M9.75976 12.5 L9.75976 9.93994 L11.04074 10.26019 L11.04074 12.5 z"/>
<path d="M9.75976 9.93994 L9.75976 7.5 L11.04074 7.5 L11.04074 10.26019 z"/>
<path d="M9.75976 7.5 L4.7104 7.5 L11.04074 7.5 z"/>
<path d="M5.67908 12.5 L5.80837 12.5 L4.7104 12.5 z"/>
<path d="M5.67908 12.5 L9.75976 12.5 L11.04074 12.5 L5.80837 12.5 z"/>
<path d="M5.5961 7.5 L5.5961 0 L5.94515 7.5 z"/>
<path d="M5.94515 7.5 L5.5961 0 L6.5269 0 L6.5269 7.5 z"/>
<path d="M6.17785 12.5 L6.5269 20 L5.5961 20 L5.5961 12.5 z"/>
<path d="M6.5269 12.5 L6.5269 20 L6.17785 12.5 z"/>
<path d="M11.04074 12.5 L11.04074 10.26019 L12.6371 10.65927 L12.6371 12.5 z"/>
<path d="M11.04074 10.26019 L11.04074 7.5 L12.6371 7.5 L12.6371 10.65927 z"/>
<path d="M11.04074 7.5 L5.5961 7.5 L12.6371 7.5 z"/>
<path d="M5.5961 12.5 L5.80837 12.5 L5.83711 12.5 z"/>
<path d="M5.80837 12.5 L11.04074 12.5 L12.6371 12.5 L5.83711 12.5 z"/>
<path d="M6.5269 7.5 L6.5269 0 L6.88938 7.5 z"/>
<path d="M6.88938 7.5 L6.5269 0 L7.4935 0 L7.4935 7.5 z"/>
<path d="M7.13103 12.5 L7.4935 20 L6.5269 20 L6.5269 12.5 z"/>
<path d="M7.4935 12.5 L7.4935 20 L7.13103 12.5 z"/>
<path d="M12.6371 12.5 L12.6371 10.65927 L14.88466 11.22116 L14.88466 12.5 z"/>
<path d="M12.6371 10.65927 L12.6371 7.5 L14.88466 7.5 L14.88466 11.22116 z"/>
<path d="M12.6371 7.5 L6.5269 7.5 L14.88466 7.5 z"/>
<path d="M6.5269 12.5 L12.6371 12.5 L14.88466 12.5 z"/>
<path d="M7.4935 7.5 L7.4935 0 L7.86557 7.5 z"/>
<path d="M7.86558 7.5 L7.4935 0 L8.4857 0 L8.4857 7.5 z"/>
<path d="M8.11363 12.5 L8.4857 20 L7.4935 20 L7.4935 12.5 z"/>
<path d="M8.4857 12.5 L8.4857 20 L8.11363 12.5 z"/>
<path d="M14.88466 12.5 L14.88466 11.22116 L18.77898 12.19475 L18.77898 12.5 z"/>
<path d="M14.88466 11.22116 L14.88466 7.5 L18.77898 7.5 L18.77898 12.19475 z"/>
<path d="M14.88466 7.5 L7.4935 7.5 L18.77898 7.5 z"/>
<path d="M7.4935 12.5 L14.88466 12.5 L18.77898 12.5 z"/>
<path d="M8.4857 7.5 L8.4857 0 L8.86363 7.5 z"/>
<path d="M8.86363 7.5 L8.4857 0 L9.4935 0 L9.4935 7.5 z"/>
<path d="M9.11558 12.5 L9.4935 20 L8.4857 20 L8.4857 12.5 z"/>
<path d="M9.4935 12.5 L9.4935 20 L9.11558 12.5 z"/>
<path d="M18.77898 12.19475 L20 12.5 L18.77898 12.5 z"/>
<path d="M18.77898 7.5 L20 7.5 L20 12.5 L18.77898 12.19475 z"/>
<path d="M20 12.5 L20 12.5 L20 7.5 L20 7.97211 z"/>
<path d="M20 7.97211 L20 7.5 L20 7.5 z"/>
<path d="M18.77898 7.5 L8.4857 7.5 L17.62934 7.5 L20 7.5 z"/>
<path d="M20 7.5 L20 7.5 L17.62934 7.5 z"/>
<path d="M20 12.5 L20 12.5 L8.4857 12.5 L18.77898 12.5 z"/>
<path d="M9.4935 7.5 L9.4935 0 L9.87338 7.5 z"/>
<path d="M9.87338 7.5 L9.4935 0 L10.5065 0 L10.5065 7.5 z"/>
<path d="M10.12662 12.5 L10.5065 20 L9.4935 20 L9.4935 12.5 z"/>
<path d="M10.5065 12.5 L10.5065 20 L10.12662 12.5 z"/>
<path d="M20 7.97211 L20 8.5064 L20 12.5 L20 12.5 z"/>
<path d="M20 7.5 L20 7.5 L20 8.5064 L20 7.97211 z"/>
<path d="M17.62934 7.5 L9.4935 7.5 L15.9744 7.5 z"/>
<path d="M17.62934 7.5 L15.9744 7.5 L20 7.5 L20 7.5 z"/>
<path d="M9.4935 12.5 L20 12.5 L20 12.5 z"/>
<path d="M10.5065 7.5 L10.5065 0 L10.88443 7.5 z"/>
<path d="M10.88443 7.5 L10.5065 0 L11.5143 0 L11.5143 7.5 z"/>
<path d="M11.13638 12.5 L11.5143 20 L10.5065 20 L10.5065 12.5 z"/>
<path d="M11.5143 12.5 L11.5143 20 L11.13638 12.5 z"/>
<path d="M20 12.5 L20 8.5064 L20 8.98918 L20 12.5 z"/>
<path d="M20 8.5064 L20 7.5 L20 7.5 L20 8.98918 z"/>
<path d="M15.9744 7.5 L10.5065 7.5 L15.05016 7.5 z"/>
<path d="M20 7.5 L15.9744 7.5 L15.05016 7.5 L20 7.5 z"/>
<path d="M10.5065 12.5 L20 12.5 L20 12.5 z"/>
<path d="M11.5143 7.5 L11.5143 0 L11.88638 7.5 z"/>
<path d="M11.88638 7.5 L11.5143 0 L12.5065 0 L12.5065 7.5 z"/>
<path d="M12.13442 12.5 L12.5065 20 L11.5143 20 L11.5143 12.5 z"/>
<path d="M12.5065 12.5 L12.5065 20 L12.13442 12.5 z"/>
<path d="M20 12.5 L20 8.98918 L20 9.42957 L20 12.5 z"/>
<path d="M20 8.98918 L20 7.5 L20 7.5 L20 9.42957 z"/>
<path d="M15.05016 7.5 L11.5143 7.5 L14.52995 7.5 z"/>
<path d="M20 7.5 L15.05016 7.5 L14.52995 7.5 L20 7.5 z"/>
<path d="M11.5143 12.5 L20 12.5 L20 12.5 z"/>
<path d="M12.5065 7.5 L12.5065 0 L12.86898 7.5 z"/>
<path d="M12.86898 7.5 L12.5065 0 L13.4731 0 L13.4731 7.5 z"/>
<path d="M13.11063 12.5 L13.4731 20 L12.5065 20 L12.5065 12.5 z"/>
<path d="M13.4731 12.5 L13.4731 20 L13.11063 12.5 z"/>
<path d="M20 12.5 L20 9.42957 L20 9.83526 L20 12.5 z"/>
<path d="M20 9.42957 L20 7.5 L20 7.5 L20 9.83526 z"/>
<path d="M14.52995 7.5 L12.5065 7.5 L14.26072 7.5 z"/>
<path d="M20 7.5 L14.52995 7.5 L14.26072 7.5 L20 7.5 z"/>
<path d="M12.5065 12.5 L20 12.5 L20 12.5 z"/>
<path d="M13.4731 7.5 L13.4731 0 L13.82215 7.5 z"/>
<path d="M13.82215 7.5 L13.4731 0 L14.4039 0 L14.4039 7.5 z"/>
<path d="M14.05485 12.5 L14.4039 20 L13.4731 20 L13.4731 12.5 z"/>
<path d="M14.4039 12.5 L14.4039 20 L14.05485 12.5 z"/>
<path d="M20 12.5 L20 9.83526 L20 10.21192 L20 12.5 z"/>
<path d="M20 9.83526 L20 7.5 L20 7.5 L20 10.21192 z"/>
<path d="M14.26072 7.5 L13.4731 7.5 L14.16289 7.5 z"/>
<path d="M20 7.5 L14.26072 7.5 L14.16289 7.5 L20 7.5 z"/>
<path d="M13.4731 12.5 L20 12.5 L20 12.5 z"/>
<path d="M14.4039 7.5 L14.4039 0 L14.73604 7.5 z"/>
<path d="M14.73604 7.5 L14.4039 0 L15.2896 0 L15.2896 7.5 z"/>
<path d="M14.95746 12.5 L15.2896 20 L14.4039 20 L14.4039 12.5 z"/>
<path d="M15.2896 12.5 L15.2896 20 L14.95746 12.5 z"/>
<path d="M20 12.5 L20 10.21192 L20 10.56403 L20 12.5 z"/>
<path d="M20 10.21192 L20 7.5 L20 7.5 L20 10.56403 z"/>
<path d="M20 7.5 L14.4039 7.5 L20 7.5 z"/>
<path d="M20 12.5 L20 12.5 L14.4039 12.5 z"/>
<path d="M15.2896 7.5 L15.2896 0 L15.60141 7.5 z"/>
<path d="M15.60141 7.5 L15.2896 0 L16.1211 0 L16.1211 7.5 z"/>
<path d="M15.80929 12.5 L16.1211 20 L15.2896 20 L15.2896 12.5 z"/>
<path d="M16.1211 12.5 L16.1211 20 L15.80929 12.5 z"/>
<path d="M20 12.5 L20 10.56403 L20 10.89567 L20 12.5 z"/>
<path d="M20 10.56403 L20 7.5 L20 7.5 L20 10.89567 z"/>
<path d="M20 7.5 L15.2896 7.5 L20 7.5 z"/>
<path d="M15.2896 12.5 L20 12.5 L20 12.5 z"/>
<path d="M16.1211 7.5 L16.1211 0 L16.40933 7.5 z"/>
<path d="M16.40933 7.5 L16.1211 0 L16.8897 0 L16.8897 7.5 z"/>
<path d="M16.60148 12.5 L16.8897 20 L16.1211 20 L16.1211 12.5 z"/>
<path d="M16.8897 12.5 L16.8897 20 L16.60148 12.5 z"/>
<path d="M20 12.5 L20 10.89567 L20 11.21126 L20 12.5 z"/>
<path d="M20 10.89567 L20 7.5 L20 7.5 L20 11.21126 z"/>
<path d="M20 7.5 L16.1211 7.5 L20 7.5 z"/>
<path d="M16.1211 12.5 L20 12.5 L20 12.5 z"/>
<path d="M16.8897 7.5 L16.8897 0 L17.15141 7.5 z"/>
<path d="M17.15141 7.5 L16.8897 0 L17.5876 0 L17.5876 7.5 z"/>
<path d="M17.32589 12.5 L17.5876 20 L16.8897 20 L16.8897 12.5 z"/>
<path d="M17.5876 12.5 L17.5876 20 L17.32589 12.5 z"/>
<path d="M20 12.5 L20 11.21126 L20 11.51209 L20 12.5 z"/>
<path d="M20 11.21126 L20 7.5 L20 7.5 L20 11.51209 z"/>
<path d="M20 7.5 L16.8897 7.5 L20 7.5 z"/>
<path d="M16.8897 12.5 L20 12.5 L20 12.5 z"/>
<path d="M17.5876 7.5 L17.5876 0 L17.8201 7.5 z"/>
<path d="M17.8201 7.5 L17.5876 0 L18.2076 0 L18.2076 7.5 z"/>
<path d="M17.9751 12.5 L18.2076 20 L17.5876 20 L17.5876 12.5 z"/>
<path d="M18.2076 12.5 L18.2076 20 L17.9751 12.5 z"/>
<path d="M20 12.5 L20 11.51209 L20 11.80148 L20 12.5 z"/>
<path d="M20 11.51209 L20 7.5 L20 7.5 L20 11.80148 z"/>
<path d="M20 7.5 L17.5876 7.5 L20 7.5 z"/>
<path d="M17.5876 12.5 L20 12.5 L20 12.5 z"/>
<path d="M18.2076 7.5 L18.2076 0 L18.40856 7.5 z"/>
<path d="M18.40856 7.5 L18.2076 0 L18.7435 0 L18.7435 7.5 z"/>
<path d="M18.54254 12.5 L18.7435 20 L18.2076 20 L18.2076 12.5 z"/>
<path d="M18.7435 12.5 L18.7435 20 L18.54254 12.5 z"/>
<path d="M20 12.5 L20 11.80148 L20 12.08135 L20 12.5 z"/>
<path d="M20 11.80148 L20 7.5 L20 7.5 L20 12.08135 z"/>
<path d="M20 7.5 L18.2076 7.5 L20 7.5 z"/>
<path d="M18.2076 12.5 L20 12.5 L20 12.5 z"/>
<path d="M18.7435 7.5 L18.7435 0 L18.91079 7.5 z"/>
<path d="M18.91079 7.5 L18.7435 0 L19.1896 0 L19.1896 7.5 z"/>
<path d="M19.02231 12.5 L19.1896 20 L18.7435 20 L18.7435 12.5 z"/>
<path d="M19.1896 12.5 L19.1896 20 L19.02231 12.5 z"/>
<path d="M20 12.5 L20 12.08135 L20 12.35422 L20 12.5 z"/>
<path d="M20 12.08135 L20 7.5 L20 7.5 L20 12.35422 z"/>
<path d="M20 7.5 L18.7435 7.5 L20 7.5 z"/>
<path d="M18.7435 12.5 L20 12.5 L20 12.5 z"/>
<path d="M19.1896 7.5 L19.1896 0 L19.32152 7.5 z"/>
<path d="M19.32152 7.5 L19.1896 0 L19.5414 0 L19.5414 7.5 z"/>
<path d="M19.40947 12.5 L19.5414 20 L19.1896 20 L19.1896 12.5 z"/>
<path d="M19.5414 12.5 L19.5414 20 L19.40947 12.5 z"/>
<path d="M19.90935 12.5 L20 12.5 L20 7.5 L19.90935 7.52266 z"/>
<path d="M19.90935 7.52266 L20 7.5 L19.90935 7.5 z"/>
<path d="M20 12.35422 L20 12.5 L20 12.5 z"/>
<path d="M20 7.5 L20 7.5 L20 12.5 L20 12.35422 z"/>
<path d="M20 7.5 L19.1896 7.5 L19.90935 7.5 L20 7.5 z"/>
<path d="M19.88875 12.5 L20 12.5 L19.90935 12.5 z"/>
<path d="M19.1896 12.5 L20 12.5 L20 12.5 L19.88875 12.5 z"/>
<path d="M19.5414 7.5 L19.5414 0 L19.63661 7.5 z"/>
<path d="M19.63661 7.5 L19.5414 0 L19.7953 0 L19.7953 7.5 z"/>
<path d="M19.70009 12.5 L19.7953 20 L19.5414 20 L19.5414 12.5 z"/>
<path d="M19.7953 12.5 L19.7953 20 L19.70009 12.5 z"/>
<path d="M19.90935 7.52266 L19.79867 7.55033 L19.79867 12.5 L19.90935 12.5 z"/>
<path d="M19.90935 7.5 L19.79867 7.5 L19.79867 7.55033 L19.90935 7.52266 z"/>
<path d="M19.90935 7.5 L19.5414 7.5 L19.79867 7.5 z"/>
<path d="M19.76872 12.5 L19.88875 12.5 L19.90935 12.5 L19.79867 12.5 z"/>
<path d="M19.5414 12.5 L19.88875 12.5 L19.76872 12.5 z"/>
<path d="M19.79729 0.25966 L19.9487 20 L19.79729 20 z"/>
<path d="M19.79729 0.25966 L19.79729 0 L19.9487 0 L19.9487 20 z"/>
<path d="M19.79729 0.25966 L19.79729 7.5 L19.7953 7.5 L19.7953 0 z"/>
<path d="M19.79729 0.25966 L19.7953 0 L19.79729 0 z"/>
<path d="M19.79729 12.5 L19.79729 20 L19.7953 20 L19.7953 12.5 z"/>
<path d="M19.79867 12.5 L19.79867 7.55033 L19.79729 7.55068 L19.79729 12.5 z"/>
<path d="M19.79867 7.55033 L19.79867 7.5 L19.79729 7.5 L19.79729 7.55068 z"/>
<path d="M19.79867 7.5 L19.7953 7.5 L19.79729 7.5 z"/>
<path d="M19.7953 12.5 L19.79867 12.5 L19.79729 12.5 z"/>
<path d="M19.9487 20 L19.9487 0 L20 20 z"/>
<path d="M20 20 L19.9487 0 L20 0 z"/>
<path d="M20 20 L20 0 L19.9487 20 z"/>
<path d="M19.9487 20 L20 0 L19.9487 0 z"/>
<path d="M19.9487 0 L19.79729 0 L19.79662 0 L20 0 z"/>
<path d="M19.79662 0 L19.69361 0 L20 0 z"/>
<path d="M19.69361 0 L19.589 0 L20 0 z"/>
<path d="M19.589 0 L19.48218 0 L20 0 z"/>
<path d="M19.48218 0 L19.37249 0 L20 0 z"/>
<path d="M19.37249 0 L19.25928 0 L20 0 z"/>
<path d="M19.25928 0 L19.14174 0 L20 0 z"/>
<path d="M19.14174 0 L19.01897 0 L20 0 z"/>
<path d="M19.01897 0 L18.88989 0 L20 0 z"/>
<path d="M18.88989 0 L18.75337 0 L20 0 z"/>
<path d="M18.75337 0 L18.60797 0 L20 0 z"/>
<path d="M18.60797 0 L18.45188 0 L20 0 z"/>
<path d="M18.45188 0 L18.28306 0 L20 0 z"/>
<path d="M18.28306 0 L18.09887 0 L20 0 z"/>
<path d="M18.09887 0 L17.89601 0 L20 0 z"/>
<path d="M17.89601 0 L17.67028 0 L20 0 z"/>
<path d="M17.67028 0 L17.41623 0 L20 0 z"/>
<path d="M17.41623 0 L17.1265 0 L20 0 z"/>
<path d="M17.1265 0 L16.79129 0 L20 0 z"/>
<path d="M16.79129 0 L16.39668 0 L20 0 z"/>
<path d="M16.39668 0 L15.92273 0 L20 0 z"/>
<path d="M15.92273 0 L15.33942 0 L20 0 z"/>
<path d="M15.33942 0 L14.59981 0 L20 0 z"/>
<path d="M14.59981 0 L13.62557 0 L20 0 z"/>
<path d="M13.62557 0 L12.2755 0 L20 0 z"/>
<path d="M12.2755 0 L10.26798 0 L20 0 z"/>
<path d="M10.26798 0 L6.94455 0 L20 0 z"/>
<path d="M6.94455 0 L0.33254 0 L20 0 z"/>
<path d="M0.33254 0 L0.20271 0 L0.0513 0 L20 0 z"/>
<path d="M20 0 L0.0513 0 L0 0 z"/>
<path d="M20 0 L0 0 L0.0513 0 z"/>
<path d="M20 0 L0.0513 0 L0.2047 0 z"/>
<path d="M20 0 L0.2047 0 L0.4586 0 z"/>
<path d="M20 0 L0.4586 0 L0.8104 0 z"/>
<path d="M20 0 L0.8104 0 L1.2565 0 z"/>
<path d="M20 0 L1.2565 0 L1.7924 0 z"/>
<path d="M20 0 L1.7924 0 L2.4124 0 z"/>
<path d="M20 0 L2.4124 0 L3.1103 0 z"/>
<path d="M20 0 L3.1103 0 L3.8789 0 z"/>
<path d="M20 0 L3.8789 0 L4.7104 0 z"/>
<path d="M20 0 L4.7104 0 L5.5961 0 z"/>
<path d="M20 0 L5.5961 0 L6.5269 0 z"/>
<path d="M20 0 L6.5269 0 L7.4935 0 z"/>
<path d="M20 0 L7.4935 0 L8.4857 0 z"/>
<path d="M20 0 L8.4857 0 L9.4935 0 z"/>
<path d="M20 0 L9.4935 0 L10.5065 0 z"/>
<path d="M20 0 L10.5065 0 L11.5143 0 z"/>
<path d="M20 0 L11.5143 0 L12.5065 0 z"/>
<path d="M20 0 L12.5065 0 L13.4731 0 z"/>
<path d="M20 0 L13.4731 0 L14.4039 0 z"/>
<path d="M20 0 L14.4039 0 L15.2896 0 z"/>
<path d="M20 0 L15.2896 0 L16.1211 0 z"/>
<path d="M20 0 L16.1211 0 L16.8897 0 z"/>
<path d="M20 0 L16.8897 0 L17.5876 0 z"/>
<path d="M20 0 L17.5876 0 L18.2076 0 z"/>
<path d="M20 0 L18.2076 0 L18.7435 0 z"/>
<path d="M20 0 L18.7435 0 L19.1896 0 z"/>
<path d="M20 0 L19.1896 0 L19.5414 0 z"/>
<path d="M20 0 L19.5414 0 L19.7953 0 z"/>
<path d="M20 0 L19.7953 0 L19.9487 0 z"/>
<path d="M19.79729 0 L19.7953 0 L19.79662 0 z"/>
<path d="M19.79662 0 L19.7953 0 L19.5414 0 L19.69361 0 z"/>
<path d="M19.69361 0 L19.5414 0 L19.1896 0 L19.589 0 z"/>
<path d="M19.589 0 L19.1896 0 L18.7435 0 L19.48218 0 z"/>
<path d="M19.48218 0 L18.7435 0 L18.2076 0 L19.37249 0 z"/>
<path d="M19.37249 0 L18.2076 0 L17.5876 0 L19.25928 0 z"/>
<path d="M19.25928 0 L17.5876 0 L16.8897 0 L19.14174 0 z"/>
<path d="M19.14174 0 L16.8897 0 L16.1211 0 L19.01897 0 z"/>
<path d="M19.01897 0 L16.1211 0 L15.2896 0 L18.88989 0 z"/>
<path d="M18.88989 0 L15.2896 0 L14.4039 0 L18.75337 0 z"/>
<path d="M18.75337 0 L14.4039 0 L13.4731 0 L18.60797 0 z"/>
<path d="M18.60797 0 L13.4731 0 L12.5065 0 L18.45188 0 z"/>
<path d="M18.45188 0 L12.5065 0 L11.5143 0 L18.28306 0 z"/>
<path d="M18.28306 0 L11.5143 0 L10.5065 0 L18.09887 0 z"/>
<path d="M18.09887 0 L10.5065 0 L9.4935 0 L17.89601 0 z"/>
<path d="M17.89601 0 L9.4935 0 L8.4857 0 L17.67028 0 z"/>
<path d="M17.67028 0 L8.4857 0 L7.4935 0 L17.41623 0 z"/>
<path d="M17.41623 0 L7.4935 0 L6.5269 0 L17.1265 0 z"/>
<path d="M17.1265 0 L6.5269 0 L5.5961 0 L16.79129 0 z"/>
<path d="M16.79129 0 L5.5961 0 L4.7104 0 L16.39668 0 z"/>
<path d="M16.39668 0 L4.7104 0 L3.8789 0 L15.92273 0 z"/>
<path d="M15.92273 0 L3.8789 0 L3.1103 0 L15.33942 0 z"/>
<path d="M15.33942 0 L3.1103 0 L2.4124 0 L14.59981 0 z"/>
<path d="M14.59981 0 L2.4124 0 L1.7924 0 L13.62557 0 z"/>
<path d="M13.62557 0 L1.7924 0 L1.2565 0 L12.2755 0 z"/>
<path d="M12.2755 0 L1.2565 0 L0.8104 0 L10.26798 0 z"/>
<path d="M10.26798 0 L0.8104 0 L0.4586 0 L6.94455 0 z"/>
<path d="M6.94455 0 L0.4586 0 L0.2047 0 L0.33254 0 z"/>
<path d="M0.33254 0 L0.2047 0 L0.20271 0 z"/>
<path d="M19.9487 20 L19.7953 20 L19.5414 20 z"/>
<path d="M19.9487 20 L19.5414 20 L19.1896 20 z"/>
<path d="M19.9487 20 L19.1896 20 L18.7435 20 z"/>
<path d="M19.9487 20 L18.7435 20 L18.2076 20 z"/>
<path d="M19.9487 20 L18.2076 20 L17.5876 20 z"/>
<path d="M19.9487 20 L17.5876 20 L16.8897 20 z"/>
<path d="M19.9487 20 L16.8897 20 L16.1211 20 z"/>
<path d="M19.9487 20 L16.1211 20 L15.2896 20 z"/>
<path d="M19.9487 20 L15.2896 20 L14.4039 20 z"/>
<path d="M19.9487 20 L14.4039 20 L13.4731 20 z"/>
<path d="M19.9487 20 L13.4731 20 L12.5065 20 z"/>
<path d="M19.9487 20 L12.5065 20 L11.5143 20 z"/>
<path d="M19.9487 20 L11.5143 20 L10.5065 20 z"/>
<path d="M19.9487 20 L10.5065 20 L9.4935 20 z"/>
<path d="M19.9487 20 L9.4935 20 L8.4857 20 z"/>
<path d="M19.9487 20 L8.4857 20 L7.4935 20 z"/>
<path d="M19.9487 20 L7.4935 20 L6.5269 20 z"/>
<path d="M19.9487 20 L6.5269 20 L5.5961 20 z"/>
<path d="M19.9487 20 L5.5961 20 L4.7104 20 z"/>
<path d="M19.9487 20 L4.7104 20 L3.8789 20 z"/>
<path d="M19.9487 20 L3.8789 20 L3.1103 20 z"/>
<path d="M19.9487 20 L3.1103 20 L2.4124 20 z"/>
<path d="M19.9487 20 L2.4124 20 L1.7924 20 z"/>
<path d="M19.9487 20 L1.7924 20 L1.2565 20 z"/>
<path d="M19.9487 20 L1.2565 20 L0.8104 20 z"/>
<path d="M19.9487 20 L0.8104 20 L0.4586 20 z"/>
<path d="M19.9487 20 L0.4586 20 L0.2047 20 z"/>
<path d="M19.9487 20 L0.2047 20 L0.0513 20 z"/>
<path d="M19.9487 20 L0.0513 20 L0 20 z"/>
<path d="M19.9487 20 L0 20 L0.0513 20 z"/>
<path d="M0.0513 20 L0.20271 20 L0.28956 20 L19.9487 20 z"/>
<path d="M0.28956 20 L5.29353 20 L19.9487 20 z"/>
<path d="M5.29353 20 L8.31695 20 L19.9487 20 z"/>
<path d="M8.31695 20 L10.34969 20 L19.9487 20 z"/>
<path d="M10.34969 20 L11.81692 20 L19.9487 20 z"/>
<path d="M11.81692 20 L12.93059 20 L19.9487 20 z"/>
<path d="M12.93059 20 L13.80891 20 L19.9487 20 z"/>
<path d="M13.80891 20 L14.52268 20 L19.9487 20 z"/>
<path d="M14.52268 20 L15.11687 20 L19.9487 20 z"/>
<path d="M15.11687 20 L15.62167 20 L19.9487 20 z"/>
<path d="M15.62167 20 L16.05789 20 L19.9487 20 z"/>
<path d="M16.05789 20 L16.44051 20 L19.9487 20 z"/>
<path d="M16.44051 20 L16.7804 20 L19.9487 20 z"/>
<path d="M16.7804 20 L17.08588 20 L19.9487 20 z"/>
<path d="M17.08588 20 L17.36325 20 L19.9487 20 z"/>
<path d="M17.36325 20 L17.61748 20 L19.9487 20 z"/>
<path d="M17.61748 20 L17.85249 20 L19.9487 20 z"/>
<path d="M17.85249 20 L18.0715 20 L19.9487 20 z"/>
<path d="M18.0715 20 L18.27705 20 L19.9487 20 z"/>
<path d="M18.27705 20 L18.47137 20 L19.9487 20 z"/>
<path d="M18.47137 20 L18.6563 20 L19.9487 20 z"/>
<path d="M18.6563 20 L18.8333 20 L19.9487 20 z"/>
<path d="M18.8333 20 L19.00378 20 L19.9487 20 z"/>
<path d="M19.00378 20 L19.1689 20 L19.9487 20 z"/>
<path d="M19.1689 20 L19.32979 20 L19.9487 20 z"/>
<path d="M19.32979 20 L19.48734 20 L19.9487 20 z"/>
<path d="M19.48734 20 L19.64244 20 L19.9487 20 z"/>
<path d="M19.64244 20 L19.79596 20 L19.9487 20 z"/>
<path d="M19.79596 20 L19.79729 20 L19.9487 20 L19.9487 20 z"/>
<path d="M19.9487 20 L19.9487 20 L20 20 z"/>
<path d="M0.20271 20 L0.2047 20 L0.28956 20 z"/>
<path d="M0.28956 20 L0.2047 20 L0.4586 20 L5.29353 20 z"/>
<path d="M5.29353 20 L0.4586 20 L0.8104 20 L8.31695 20 z"/>
<path d="M8.31695 20 L0.8104 20 L1.2565 20 L10.34969 20 z"/>
<path d="M10.34969 20 L1.2565 20 L1.7924 20 L11.81692 20 z"/>
<path d="M11.81692 20 L1.7924 20 L2.4124 20 L12.93059 20 z"/>
<path d="M12.93059 20 L2.4124 20 L3.1103 20 L13.80891 20 z"/>
<path d="M13.80891 20 L3.1103 20 L3.8789 20 L14.52268 20 z"/>
<path d="M14.52268 20 L3.8789 20 L4.7104 20 L15.11687 20 z"/>
<path d="M15.11687 20 L4.7104 20 L5.5961 20 L15.62167 20 z"/>
<path d="M15.62167 20 L5.5961 20 L6.5269 20 L16.05789 20 z"/>
<path d="M16.05789 20 L6.5269 20 L7.4935 20 L16.44051 20 z"/>
<path d="M16.44051 20 L7.4935 20 L8.4857 20 L16.7804 20 z"/>
<path d="M16.7804 20 L8.4857 20 L9.4935 20 L17.08588 20 z"/>
<path d="M17.08588 20 L9.4935 20 L10.5065 20 L17.36325 20 z"/>
<path d="M17.36325 20 L10.5065 20 L11.5143 20 L17.61748 20 z"/>
<path d="M17.61748 20 L11.5143 20 L12.5065 20 L17.85249 20 z"/>
<path d="M17.85249 20 L12.5065 20 L13.4731 20 L18.0715 20 z"/>
<path d="M18.0715 20 L13.4731 20 L14.4039 20 L18.27705 20 z"/>
<path d="M18.27705 20 L14.4039 20 L15.2896 20 L18.47137 20 z"/>
<path d="M18.47137 20 L15.2896 20 L16.1211 20 L18.6563 20 z"/>
<path d="M18.6563 20 L16.1211 20 L16.8897 20 L18.8333 20 z"/>
<path d="M18.8333 20 L16.8897 20 L17.5876 20 L19.00378 20 z"/>
<path d="M19.00378 20 L17.5876 20 L18.2076 20 L19.1689 20 z"/>
<path d="M19.1689 20 L18.2076 20 L18.7435 20 L19.32979 20 z"/>
<path d="M19.32979 20 L18.7435 20 L19.1896 20 L19.48734 20 z"/>
<path d="M19.48734 20 L19.1896 20 L19.5414 20 L19.64244 20 z"/>
<path d="M19.64244 20 L19.5414 20 L19.7953 20 L19.79596 20 z"/>
<path d="M19.79596 20 L19.7953 20 L19.79729 20 z"/>
</svg>