<?xml version="1.0" encoding="UTF-8"?>
<!-- Generated by jsxcad -->
<!DOCTYPE svg PUBLIC "-//W3C//DTD SVG 1.1 Tiny//EN" "http://www.w3.org/Graphics/SVG/1.1/DTD/svg11-tiny.dtd">
<svg baseProfile="tiny" height="20 mm" width="1000 mm" viewBox="0 0 1000 20" version="1.1" stroke="black" stroke-width=".1" fill="none" xmlns="http://www.w3.org/2000/svg">
<path d="M999.09 20 L999.09 0 L996.355 20 z"/>
<path d="M996.355 20 L999.09 0 L996.355 0 z"/>
<path d="M996.355 20 L996.355 0 L991.81 20 z"/>
<path d="M991.81 20 L996.355 0 L991.81 0 z"/>
<path d="M991.81 20 L991.81 0 L985.47 20 z"/>
<path d="M985.47 20 L991.81 0 L985.47 0 z"/>
<path d="M985.47 20 L985.47 0 L977.36 20 z"/>
<path d="M977.36 20 L985.47 0 L977.36 0 z"/>
<path d="M977.36 20 L977.36 0 L967.51 20 z"/>
<path d="M967.51 20 L977.36 0 L967.51 0 z"/>
<path d="M967.51 20 L967.51 0 L955.95 20 z"/>
<path d="M955.95 20 L967.51 0 L955.95 0 z"/>
<path d="M955.95 20 L955.95 0 L942.73 20 z"/>
<path d="M942.73 20 L955.95 0 L942.73 0 z"/>
<path d="M942.73 20 L942.73 0 L927.89 20 z"/>
<path d="M927.89 20 L942.73 0 L927.89 0 z"/>
<path d="M927.89 20 L927.89 0 L911.49 20 z"/>
<path d="M911.49 20 L927.89 0 L911.49 0 z"/>
<path d="M911.49 20 L911.49 0 L893.59 20 z"/>
<path d="M893.59 20 L911.49 0 L893.59 0 z"/>
<path d="M893.59 20 L893.59 0 L874.255 20 z"/>
<path d="M874.255 20 L893.59 0 L874.255 0 z"/>
<path d="M874.255 20 L874.255 0 L853.555 20 z"/>
<path d="M853.555 20 L874.255 0 L853.555 0 z"/>
<path d="M853.555 20 L853.555 0 L831.56 20 z"/>
<path d="M831.56 20 L853.555 0 L831.56 0 z"/>
<path d="M831.56 20 L831.56 0 L808.36 20 z"/>
<path d="M808.36 20 L831.56 0 L808.36 0 z"/>
<path d="M808.36 20 L808.36 0 L784.03 20 z"/>
<path d="M784.03 20 L808.36 0 L784.03 0 z"/>
<path d="M784.03 20 L784.03 0 L758.67 20 z"/>
<path d="M758.67 20 L784.03 0 L758.67 0 z"/>
<path d="M758.67 20 L758.67 0 L732.36 20 z"/>
<path d="M732.36 20 L758.67 0 L732.36 0 z"/>
<path d="M732.36 20 L732.36 0 L705.205 20 z"/>
<path d="M705.205 20 L732.36 0 L705.205 0 z"/>
<path d="M705.205 20 L705.205 0 L677.3 20 z"/>
<path d="M677.3 20 L705.205 0 L677.3 0 z"/>
<path d="M677.3 20 L677.3 0 L648.75 20 z"/>
<path d="M648.75 20 L677.3 0 L648.75 0 z"/>
<path d="M648.75 20 L648.75 0 L619.66 20 z"/>
<path d="M619.66 20 L648.75 0 L619.66 0 z"/>
<path d="M619.66 20 L619.66 0 L590.13 20 z"/>
<path d="M590.13 20 L619.66 0 L590.13 0 z"/>
<path d="M590.13 20 L590.13 0 L560.27 20 z"/>
<path d="M560.27 20 L590.13 0 L560.27 0 z"/>
<path d="M560.27 20 L560.27 0 L530.19 20 z"/>
<path d="M530.19 20 L560.27 0 L530.19 0 z"/>
<path d="M530.19 20 L530.19 0 L500 20 z"/>
<path d="M500 20 L530.19 0 L500 0 z"/>
<path d="M500 20 L500 0 L469.81 20 z"/>
<path d="M469.81 20 L500 0 L469.81 0 z"/>
<path d="M469.81 20 L469.81 0 L439.73 20 z"/>
<path d="M439.73 20 L469.81 0 L439.73 0 z"/>
<path d="M439.73 20 L439.73 0 L409.87 20 z"/>
<path d="M409.87 20 L439.73 0 L409.87 0 z"/>
<path d="M409.87 20 L409.87 0 L380.34 20 z"/>
<path d="M380.34 20 L409.87 0 L380.34 0 z"/>
<path d="M380.34 20 L380.34 0 L351.25 20 z"/>
<path d="M351.25 20 L380.34 0 L351.25 0 z"/>
<path d="M351.25 20 L351.25 0 L322.7 20 z"/>
<path d="M322.7 20 L351.25 0 L322.7 0 z"/>
<path d="M322.7 20 L322.7 0 L294.795 20 z"/>
<path d="M294.795 20 L322.7 0 L294.795 0 z"/>
<path d="M294.795 20 L294.795 0 L267.64 20 z"/>
<path d="M267.64 20 L294.795 0 L267.64 0 z"/>
<path d="M267.64 20 L267.64 0 L241.33 20 z"/>
<path d="M241.33 20 L267.64 0 L241.33 0 z"/>
<path d="M241.33 20 L241.33 0 L215.97 20 z"/>
<path d="M215.97 20 L241.33 0 L215.97 0 z"/>
<path d="M215.97 20 L215.97 0 L191.64 20 z"/>
<path d="M191.64 20 L215.97 0 L191.64 0 z"/>
<path d="M191.64 20 L191.64 0 L168.44 20 z"/>
<path d="M168.44 20 L191.64 0 L168.44 0 z"/>
<path d="M168.44 20 L168.44 0 L146.445 20 z"/>
<path d="M146.445 20 L168.44 0 L146.445 0 z"/>
<path d="M146.445 20 L146.445 0 L125.745 20 z"/>
<path d="M125.745 20 L146.445 0 L125.745 0 z"/>
<path d="M125.745 20 L125.745 0 L106.41 20 z"/>
<path d="M106.41 20 L125.745 0 L106.41 0 z"/>
<path d="M106.41 20 L106.41 0 L88.51 20 z"/>
<path d="M88.51 20 L106.41 0 L88.51 0 z"/>
<path d="M88.51 20 L88.51 0 L72.11 20 z"/>
<path d="M72.11 20 L88.51 0 L72.11 0 z"/>
<path d="M72.11 20 L72.11 0 L57.27 20 z"/>
<path d="M57.27 20 L72.11 0 L57.27 0 z"/>
<path d="M57.27 20 L57.27 0 L44.05 20 z"/>
<path d="M44.05 20 L57.27 0 L44.05 0 z"/>
<path d="M44.05 20 L44.05 0 L32.49 20 z"/>
<path d="M32.49 20 L44.05 0 L32.49 0 z"/>
<path d="M32.49 20 L32.49 0 L22.64 20 z"/>
<path d="M22.64 20 L32.49 0 L22.64 0 z"/>
<path d="M22.64 20 L22.64 0 L14.53 20 z"/>
<path d="M14.53 20 L22.64 0 L14.53 0 z"/>
<path d="M14.53 20 L14.53 0 L8.19 20 z"/>
<path d="M8.19 20 L14.53 0 L8.19 0 z"/>
<path d="M8.19 20 L8.19 0 L3.645 20 z"/>
<path d="M3.645 20 L8.19 0 L3.645 0 z"/>
<path d="M3.645 20 L3.645 0 L0.91 20 z"/>
<path d="M0.91 20 L3.645 0 L0.91 0 z"/>
<path d="M0.91 0 L0.30142 13.37529 L0.30142 20 z"/>
<path d="M0.91 0 L0.30142 20 L0.91 20 z"/>
<path d="M0.30142 13.37529 L0.91 0 L0.30142 0 z"/>
<path d="M0.30142 13.37529 L0 20 L0.30142 20 z"/>
<path d="M0.30142 13.37529 L0.30142 0 L0 0 z"/>
<path d="M0.30142 13.37529 L0 0 L0 20 z"/>
<path d="M0 20 L0 0 L0.91 20 z"/>
<path d="M0.91 20 L0 0 L0.91 0 z"/>
<path d="M0.91 20 L0.91 0 L3.645 20 z"/>
<path d="M3.645 20 L0.91 0 L3.645 0 z"/>
<path d="M3.645 20 L3.645 0 L8.19 20 z"/>
<path d="M8.19 20 L3.645 0 L8.19 0 z"/>
<path d="M8.19 20 L8.19 0 L14.53 20 z"/>
<path d="M14.53 20 L8.19 0 L14.53 0 z"/>
<path d="M14.53 20 L14.53 0 L22.64 20 z"/>
<path d="M22.64 20 L14.53 0 L22.64 0 z"/>
<path d="M22.64 20 L22.64 0 L32.49 20 z"/>
<path d="M32.49 20 L22.64 0 L32.49 0 z"/>
<path d="M32.49 20 L32.49 0 L44.05 20 z"/>
<path d="M44.05 20 L32.49 0 L44.05 0 z"/>
<path d="M44.05 20 L44.05 0 L57.27 20 z"/>
<path d="M57.27 20 L44.05 0 L57.27 0 z"/>
<path d="M57.27 20 L57.27 0 L72.11 20 z"/>
<path d="M72.11 20 L57.27 0 L72.11 0 z"/>
<path d="M72.11 20 L72.11 0 L88.51 20 z"/>
<path d="M88.51 20 L72.11 0 L88.51 0 z"/>
<path d="M88.51 20 L88.51 0 L106.41 20 z"/>
<path d="M106.41 20 L88.51 0 L106.41 0 z"/>
<path d="M106.41 20 L106.41 0 L125.745 20 z"/>
<path d="M125.745 20 L106.41 0 L125.745 0 z"/>
<path d="M125.745 20 L125.745 0 L146.445 20 z"/>
<path d="M146.445 20 L125.745 0 L146.445 0 z"/>
<path d="M146.445 20 L146.445 0 L168.44 20 z"/>
<path d="M168.44 20 L146.445 0 L168.44 0 z"/>
<path d="M168.44 20 L168.44 0 L191.64 20 z"/>
<path d="M191.64 20 L168.44 0 L191.64 0 z"/>
<path d="M191.64 20 L191.64 0 L215.97 20 z"/>
<path d="M215.97 20 L191.64 0 L215.97 0 z"/>
<path d="M215.97 20 L215.97 0 L241.33 20 z"/>
<path d="M241.33 20 L215.97 0 L241.33 0 z"/>
<path d="M241.33 20 L241.33 0 L267.64 20 z"/>
<path d="M267.64 20 L241.33 0 L267.64 0 z"/>
<path d="M267.64 20 L267.64 0 L294.795 20 z"/>
<path d="M294.795 20 L267.64 0 L294.795 0 z"/>
<path d="M294.795 20 L294.795 0 L322.7 20 z"/>
<path d="M322.7 20 L294.795 0 L322.7 0 z"/>
<path d="M322.7 20 L322.7 0 L351.25 20 z"/>
<path d="M351.25 20 L322.7 0 L351.25 0 z"/>
<path d="M351.25 20 L351.25 0 L380.34 20 z"/>
<path d="M380.34 20 L351.25 0 L380.34 0 z"/>
<path d="M380.34 20 L380.34 0 L409.87 20 z"/>
<path d="M409.87 20 L380.34 0 L409.87 0 z"/>
<path d="M409.87 20 L409.87 0 L439.73 20 z"/>
<path d="M439.73 20 L409.87 0 L439.73 0 z"/>
<path d="M439.73 20 L439.73 0 L469.81 20 z"/>
<path d="M469.81 20 L439.73 0 L469.81 0 z"/>
<path d="M469.81 20 L469.81 0 L500 20 z"/>
<path d="M500 20 L469.81 0 L500 0 z"/>
<path d="M500 0 L502 1.32494 L502 20 z"/>
<path d="M500 0 L502 20 L500 20 z"/>
<path d="M502 1.32494 L500 0 L502 0 z"/>
<path d="M502 1.32494 L530.19 20 L502 20 z"/>
<path d="M502 1.32494 L502 0 L530.19 0 z"/>
<path d="M502 1.32494 L530.19 0 L530.19 20 z"/>
<path d="M530.19 20 L530.19 0 L560.27 20 z"/>
<path d="M560.27 20 L530.19 0 L560.27 0 z"/>
<path d="M560.27 20 L560.27 0 L590.13 20 z"/>
<path d="M590.13 20 L560.27 0 L590.13 0 z"/>
<path d="M590.13 20 L590.13 0 L619.66 20 z"/>
<path d="M619.66 20 L590.13 0 L619.66 0 z"/>
<path d="M619.66 20 L619.66 0 L648.75 20 z"/>
<path d="M648.75 20 L619.66 0 L648.75 0 z"/>
<path d="M648.75 20 L648.75 0 L677.3 20 z"/>
<path d="M677.3 20 L648.75 0 L677.3 0 z"/>
<path d="M677.3 20 L677.3 0 L705.205 20 z"/>
<path d="M705.205 20 L677.3 0 L705.205 0 z"/>
<path d="M705.205 20 L705.205 0 L732.36 20 z"/>
<path d="M732.36 20 L705.205 0 L732.36 0 z"/>
<path d="M732.36 20 L732.36 0 L758.67 20 z"/>
<path d="M758.67 20 L732.36 0 L758.67 0 z"/>
<path d="M758.67 20 L758.67 0 L784.03 20 z"/>
<path d="M784.03 20 L758.67 0 L784.03 0 z"/>
<path d="M784.03 20 L784.03 0 L808.36 20 z"/>
<path d="M808.36 20 L784.03 0 L808.36 0 z"/>
<path d="M808.36 20 L808.36 0 L831.56 20 z"/>
<path d="M831.56 20 L808.36 0 L831.56 0 z"/>
<path d="M831.56 20 L831.56 0 L853.555 20 z"/>
<path d="M853.555 20 L831.56 0 L853.555 0 z"/>
<path d="M853.555 20 L853.555 0 L874.255 20 z"/>
<path d="M874.255 20 L853.555 0 L874.255 0 z"/>
<path d="M874.255 20 L874.255 0 L893.59 20 z"/>
<path d="M893.59 20 L874.255 0 L893.59 0 z"/>
<path d="M893.59 20 L893.59 0 L911.49 20 z"/>
<path d="M911.49 20 L893.59 0 L911.49 0 z"/>
<path d="M911.49 20 L911.49 0 L927.89 20 z"/>
<path d="M927.89 20 L911.49 0 L927.89 0 z"/>
<path d="M927.89 20 L927.89 0 L942.73 20 z"/>
<path d="M942.73 20 L927.89 0 L942.73 0 z"/>
<path d="M942.73 20 L942.73 0 L955.95 20 z"/>
<path d="M955.95 20 L942.73 0 L955.95 0 z"/>
<path d="M955.95 20 L955.95 0 L967.51 20 z"/>
<path d="M967.51 20 L955.95 0 L967.51 0 z"/>
<path d="M967.51 20 L967.51 0 L977.36 20 z"/>
<path d="M977.36 20 L967.51 0 L977.36 0 z"/>
<path d="M977.36 20 L977.36 0 L985.47 20 z"/>
<path d="M985.47 20 L977.36 0 L985.47 0 z"/>
<path d="M985.47 20 L985.47 0 L991.81 20 z"/>
<path d="M991.81 20 L985.47 0 L991.81 0 z"/>
<path d="M991.81 20 L991.81 0 L996.355 20 z"/>
<path d="M996.355 20 L991.81 0 L996.355 0 z"/>
<path d="M996.355 20 L996.355 0 L999.09 20 z"/>
<path d="M999.09 20 L996.355 0 L999.09 0 z"/>
<path d="M999.09 0 L999.69858 13.37529 L999.69858 20 z"/>
<path d="M999.09 0 L999.69858 20 L999.09 20 z"/>
<path d="M999.69858 13.37529 L999.09 0 L999.69858 0 z"/>
<path d="M999.69858 13.37529 L1000 20 L999.69858 20 z"/>
<path d="M999.69858 13.37529 L999.69858 0 L1000 0 z"/>
<path d="M999.69858 13.37529 L1000 0 L1000 20 z"/>
<path d="M999.69858 6.62471 L999.09 20 L999.69858 20 z"/>
<path d="M999.69858 6.62471 L999.69858 0 L999.09 0 z"/>
<path d="M999.69858 6.62471 L999.09 0 L999.09 20 z"/>
<path d="M1000 0 L999.69858 6.62471 L999.69858 20 z"/>
<path d="M1000 0 L999.69858 20 L1000 20 z"/>
<path d="M999.69858 6.62471 L1000 0 L999.69858 0 z"/>
<path d="M0.30142 0 L0.91 0 L669.06592 0 z"/>
<path d="M669.06592 0 L0.91 0 L3.645 0 z"/>
<path d="M669.06592 0 L3.645 0 L834.68475 0 z"/>
<path d="M834.68475 0 L3.645 0 L8.19 0 z"/>
<path d="M834.68475 0 L8.19 0 L889.95784 0 z"/>
<path d="M889.95784 0 L8.19 0 L14.53 0 z"/>
<path d="M889.95784 0 L14.53 0 L917.64416 0 z"/>
<path d="M917.64416 0 L14.53 0 L22.64 0 z"/>
<path d="M917.64416 0 L22.64 0 L934.29513 0 z"/>
<path d="M934.29513 0 L22.64 0 L32.49 0 z"/>
<path d="M934.29513 0 L32.49 0 L945.43091 0 z"/>
<path d="M945.43091 0 L32.49 0 L44.05 0 z"/>
<path d="M945.43091 0 L44.05 0 L953.41488 0 z"/>
<path d="M953.41488 0 L44.05 0 L57.27 0 z"/>
<path d="M953.41488 0 L57.27 0 L959.42804 0 z"/>
<path d="M959.42804 0 L57.27 0 L72.11 0 z"/>
<path d="M959.42804 0 L72.11 0 L964.12843 0 z"/>
<path d="M964.12843 0 L72.11 0 L88.51 0 z"/>
<path d="M964.12843 0 L88.51 0 L967.90867 0 z"/>
<path d="M967.90867 0 L88.51 0 L106.41 0 z"/>
<path d="M967.90867 0 L106.41 0 L971.02121 0 z"/>
<path d="M971.02121 0 L106.41 0 L125.745 0 z"/>
<path d="M971.02121 0 L125.745 0 L973.63207 0 z"/>
<path d="M973.63207 0 L125.745 0 L146.445 0 z"/>
<path d="M973.63207 0 L146.445 0 L975.85793 0 z"/>
<path d="M975.85793 0 L146.445 0 L168.44 0 z"/>
<path d="M975.85793 0 L168.44 0 L977.78092 0 z"/>
<path d="M977.78092 0 L168.44 0 L191.64 0 z"/>
<path d="M977.78092 0 L191.64 0 L979.46188 0 z"/>
<path d="M979.46188 0 L191.64 0 L215.97 0 z"/>
<path d="M979.46188 0 L215.97 0 L980.94656 0 z"/>
<path d="M980.94656 0 L215.97 0 L241.33 0 z"/>
<path d="M980.94656 0 L241.33 0 L982.26951 0 z"/>
<path d="M982.26951 0 L241.33 0 L267.64 0 z"/>
<path d="M982.26951 0 L267.64 0 L983.45809 0 z"/>
<path d="M983.45809 0 L267.64 0 L294.795 0 z"/>
<path d="M983.45809 0 L294.795 0 L984.53328 0 z"/>
<path d="M984.53328 0 L294.795 0 L322.7 0 z"/>
<path d="M984.53328 0 L322.7 0 L985.51261 0 z"/>
<path d="M985.51261 0 L322.7 0 L351.25 0 z"/>
<path d="M985.51261 0 L351.25 0 L986.40963 0 z"/>
<path d="M986.40963 0 L351.25 0 L380.34 0 z"/>
<path d="M986.40963 0 L380.34 0 L987.23587 0 z"/>
<path d="M987.23587 0 L380.34 0 L409.87 0 z"/>
<path d="M987.23587 0 L409.87 0 L988.00085 0 z"/>
<path d="M988.00085 0 L409.87 0 L439.73 0 z"/>
<path d="M988.00085 0 L439.73 0 L988.71231 0 z"/>
<path d="M988.71231 0 L439.73 0 L469.81 0 z"/>
<path d="M988.71231 0 L469.81 0 L989.37687 0 z"/>
<path d="M989.37687 0 L469.81 0 L500 0 z"/>
<path d="M989.37687 0 L500 0 L990 0 z"/>
<path d="M990 0 L500 0 L530.19 0 z"/>
<path d="M990 0 L530.19 0 L990.58667 0 z"/>
<path d="M990.58667 0 L530.19 0 L560.27 0 z"/>
<path d="M990.58667 0 L560.27 0 L991.14082 0 z"/>
<path d="M991.14082 0 L560.27 0 L590.13 0 z"/>
<path d="M991.14082 0 L590.13 0 L991.66609 0 z"/>
<path d="M991.66609 0 L590.13 0 L619.66 0 z"/>
<path d="M991.66609 0 L619.66 0 L992.16553 0 z"/>
<path d="M992.16553 0 L619.66 0 L648.75 0 z"/>
<path d="M992.16553 0 L648.75 0 L992.64182 0 z"/>
<path d="M992.64182 0 L648.75 0 L677.3 0 z"/>
<path d="M992.64182 0 L677.3 0 L993.09747 0 z"/>
<path d="M993.09747 0 L677.3 0 L705.205 0 z"/>
<path d="M993.09747 0 L705.205 0 L993.53449 0 z"/>
<path d="M993.53449 0 L705.205 0 L732.36 0 z"/>
<path d="M993.53449 0 L732.36 0 L993.95478 0 z"/>
<path d="M993.95478 0 L732.36 0 L758.67 0 z"/>
<path d="M993.95478 0 L758.67 0 L994.36 0 z"/>
<path d="M994.36 0 L758.67 0 L784.03 0 z"/>
<path d="M994.36 0 L784.03 0 L994.75151 0 z"/>
<path d="M994.75151 0 L784.03 0 L808.36 0 z"/>
<path d="M994.75151 0 L808.36 0 L995.13097 0 z"/>
<path d="M995.13097 0 L808.36 0 L831.56 0 z"/>
<path d="M995.13097 0 L831.56 0 L995.49933 0 z"/>
<path d="M995.49933 0 L831.56 0 L853.555 0 z"/>
<path d="M995.49933 0 L853.555 0 L995.85793 0 z"/>
<path d="M995.85793 0 L853.555 0 L874.255 0 z"/>
<path d="M995.85793 0 L874.255 0 L996.20747 0 z"/>
<path d="M996.20747 0 L874.255 0 L893.59 0 z"/>
<path d="M996.20747 0 L893.59 0 L996.54916 0 z"/>
<path d="M996.54916 0 L893.59 0 L911.49 0 z"/>
<path d="M996.54916 0 L911.49 0 L996.88378 0 z"/>
<path d="M996.88378 0 L911.49 0 L927.89 0 z"/>
<path d="M996.88378 0 L927.89 0 L997.21228 0 z"/>
<path d="M997.21228 0 L927.89 0 L942.73 0 z"/>
<path d="M997.21228 0 L942.73 0 L997.53529 0 z"/>
<path d="M997.53529 0 L942.73 0 L955.95 0 z"/>
<path d="M997.53529 0 L955.95 0 L997.85337 0 z"/>
<path d="M997.85337 0 L955.95 0 L967.51 0 z"/>
<path d="M997.85337 0 L967.51 0 L998.16751 0 z"/>
<path d="M998.16751 0 L967.51 0 L977.36 0 z"/>
<path d="M998.16751 0 L977.36 0 L998.47798 0 z"/>
<path d="M998.47798 0 L977.36 0 L985.47 0 z"/>
<path d="M998.47798 0 L985.47 0 L998.78573 0 z"/>
<path d="M998.78573 0 L985.47 0 L991.81 0 z"/>
<path d="M998.78573 0 L991.81 0 L999.09131 0 z"/>
<path d="M999.09131 0 L991.81 0 L996.355 0 z"/>
<path d="M999.09131 0 L996.355 0 L999.39522 0 z"/>
<path d="M999.39522 0 L996.355 0 L999.09 0 z"/>
<path d="M999.39522 0 L999.09 0 L999.69858 0 z"/>
<path d="M502 0 L500 0 L502 0 z"/>
<path d="M502 0 L500 0 L469.81 0 z"/>
<path d="M502 0 L469.81 0 L502 0 z"/>
<path d="M502 0 L469.81 0 L439.73 0 z"/>
<path d="M502 0 L439.73 0 L502 0 z"/>
<path d="M502 0 L439.73 0 L409.87 0 z"/>
<path d="M502 0 L409.87 0 L502 0 z"/>
<path d="M502 0 L409.87 0 L380.34 0 z"/>
<path d="M502 0 L380.34 0 L502 0 z"/>
<path d="M502 0 L380.34 0 L351.25 0 z"/>
<path d="M502 0 L351.25 0 L502 0 z"/>
<path d="M502 0 L351.25 0 L322.7 0 z"/>
<path d="M502 0 L322.7 0 L502 0 z"/>
<path d="M502 0 L322.7 0 L294.795 0 z"/>
<path d="M502 0 L294.795 0 L502 0 z"/>
<path d="M502 0 L294.795 0 L267.64 0 z"/>
<path d="M502 0 L267.64 0 L502 0 z"/>
<path d="M502 0 L267.64 0 L241.33 0 z"/>
<path d="M502 0 L241.33 0 L502 0 z"/>
<path d="M502 0 L241.33 0 L215.97 0 z"/>
<path d="M502 0 L215.97 0 L502 0 z"/>
<path d="M502 0 L215.97 0 L191.64 0 z"/>
<path d="M502 0 L191.64 0 L502 0 z"/>
<path d="M502 0 L191.64 0 L168.44 0 z"/>
<path d="M502 0 L168.44 0 L502 0 z"/>
<path d="M502 0 L168.44 0 L146.445 0 z"/>
<path d="M502 0 L146.445 0 L502 0 z"/>
<path d="M502 0 L146.445 0 L125.745 0 z"/>
<path d="M502 0 L125.745 0 L502 0 z"/>
<path d="M502 0 L125.745 0 L106.41 0 z"/>
<path d="M502 0 L106.41 0 L502 0 z"/>
<path d="M502 0 L106.41 0 L88.51 0 z"/>
<path d="M502 0 L88.51 0 L502 0 z"/>
<path d="M502 0 L88.51 0 L72.11 0 z"/>
<path d="M502 0 L72.11 0 L502 0 z"/>
<path d="M502 0 L72.11 0 L57.27 0 z"/>
<path d="M502 0 L57.27 0 L502 0 z"/>
<path d="M502 0 L57.27 0 L44.05 0 z"/>
<path d="M502 0 L44.05 0 L502 0 z"/>
<path d="M502 0 L44.05 0 L32.49 0 z"/>
<path d="M502 0 L32.49 0 L502 0 z"/>
<path d="M502 0 L32.49 0 L22.64 0 z"/>
<path d="M502 0 L22.64 0 L502 0 z"/>
<path d="M502 0 L22.64 0 L14.53 0 z"/>
<path d="M502 0 L14.53 0 L502 0 z"/>
<path d="M502 0 L14.53 0 L8.19 0 z"/>
<path d="M502 0 L8.19 0 L502 0 z"/>
<path d="M502 0 L8.19 0 L3.645 0 z"/>
<path d="M502 0 L3.645 0 L502 0 z"/>
<path d="M502 0 L3.645 0 L0.91 0 z"/>
<path d="M502 0 L0.91 0 L502 0 z"/>
<path d="M502 0 L0.91 0 L0 0 z"/>
<path d="M502 0 L0 0 L502 0 z"/>
<path d="M0.30142 0 L502 0 L502 0 z"/>
<path d="M0.30142 0 L502 0 L0 0 z"/>
<path d="M999.69858 0 L999.09 0 L996.355 0 z"/>
<path d="M999.69858 0 L996.355 0 L999.39522 0 z"/>
<path d="M999.39522 0 L996.355 0 L991.81 0 z"/>
<path d="M999.39522 0 L991.81 0 L999.09131 0 z"/>
<path d="M999.09131 0 L991.81 0 L985.47 0 z"/>
<path d="M999.09131 0 L985.47 0 L998.78573 0 z"/>
<path d="M998.78573 0 L985.47 0 L977.36 0 z"/>
<path d="M998.78573 0 L977.36 0 L998.47798 0 z"/>
<path d="M998.47798 0 L977.36 0 L967.51 0 z"/>
<path d="M998.47798 0 L967.51 0 L998.16751 0 z"/>
<path d="M998.16751 0 L967.51 0 L955.95 0 z"/>
<path d="M998.16751 0 L955.95 0 L997.85337 0 z"/>
<path d="M997.85337 0 L955.95 0 L942.73 0 z"/>
<path d="M997.85337 0 L942.73 0 L997.53529 0 z"/>
<path d="M997.53529 0 L942.73 0 L927.89 0 z"/>
<path d="M997.53529 0 L927.89 0 L997.21228 0 z"/>
<path d="M997.21228 0 L927.89 0 L911.49 0 z"/>
<path d="M997.21228 0 L911.49 0 L996.88378 0 z"/>
<path d="M996.88378 0 L911.49 0 L893.59 0 z"/>
<path d="M996.88378 0 L893.59 0 L996.54916 0 z"/>
<path d="M996.54916 0 L893.59 0 L874.255 0 z"/>
<path d="M996.54916 0 L874.255 0 L996.20747 0 z"/>
<path d="M996.20747 0 L874.255 0 L853.555 0 z"/>
<path d="M996.20747 0 L853.555 0 L995.85793 0 z"/>
<path d="M995.85793 0 L853.555 0 L831.56 0 z"/>
<path d="M995.85793 0 L831.56 0 L995.49933 0 z"/>
<path d="M995.49933 0 L831.56 0 L808.36 0 z"/>
<path d="M995.49933 0 L808.36 0 L995.13097 0 z"/>
<path d="M995.13097 0 L808.36 0 L784.03 0 z"/>
<path d="M995.13097 0 L784.03 0 L994.75151 0 z"/>
<path d="M994.75151 0 L784.03 0 L758.67 0 z"/>
<path d="M994.75151 0 L758.67 0 L994.36 0 z"/>
<path d="M994.36 0 L758.67 0 L732.36 0 z"/>
<path d="M994.36 0 L732.36 0 L993.95478 0 z"/>
<path d="M993.95478 0 L732.36 0 L705.205 0 z"/>
<path d="M993.95478 0 L705.205 0 L993.53449 0 z"/>
<path d="M993.53449 0 L705.205 0 L677.3 0 z"/>
<path d="M993.53449 0 L677.3 0 L993.09747 0 z"/>
<path d="M993.09747 0 L677.3 0 L648.75 0 z"/>
<path d="M993.09747 0 L648.75 0 L992.64182 0 z"/>
<path d="M992.64182 0 L648.75 0 L619.66 0 z"/>
<path d="M992.64182 0 L619.66 0 L992.16553 0 z"/>
<path d="M992.16553 0 L619.66 0 L590.13 0 z"/>
<path d="M992.16553 0 L590.13 0 L991.66609 0 z"/>
<path d="M991.66609 0 L590.13 0 L560.27 0 z"/>
<path d="M991.66609 0 L560.27 0 L991.14082 0 z"/>
<path d="M991.14082 0 L560.27 0 L530.19 0 z"/>
<path d="M991.14082 0 L530.19 0 L990.58667 0 z"/>
<path d="M502 0 L502 0 L990 0 z"/>
<path d="M502 0 L990 0 L990.58667 0 z"/>
<path d="M502 0 L990.58667 0 L530.19 0 z"/>
<path d="M502 0 L989.37687 0 L990 0 z"/>
<path d="M502 0 L990 0 L502 0 z"/>
<path d="M502 0 L988.71231 0 L989.37687 0 z"/>
<path d="M502 0 L989.37687 0 L502 0 z"/>
<path d="M502 0 L988.00085 0 L988.71231 0 z"/>
<path d="M502 0 L988.71231 0 L502 0 z"/>
<path d="M502 0 L987.23587 0 L988.00085 0 z"/>
<path d="M502 0 L988.00085 0 L502 0 z"/>
<path d="M502 0 L986.40963 0 L987.23587 0 z"/>
<path d="M502 0 L987.23587 0 L502 0 z"/>
<path d="M502 0 L985.51261 0 L986.40963 0 z"/>
<path d="M502 0 L986.40963 0 L502 0 z"/>
<path d="M502 0 L984.53328 0 L985.51261 0 z"/>
<path d="M502 0 L985.51261 0 L502 0 z"/>
<path d="M502 0 L983.45809 0 L984.53328 0 z"/>
<path d="M502 0 L984.53328 0 L502 0 z"/>
<path d="M502 0 L982.26951 0 L983.45809 0 z"/>
<path d="M502 0 L983.45809 0 L502 0 z"/>
<path d="M502 0 L980.94656 0 L982.26951 0 z"/>
<path d="M502 0 L982.26951 0 L502 0 z"/>
<path d="M502 0 L979.46188 0 L980.94656 0 z"/>
<path d="M502 0 L980.94656 0 L502 0 z"/>
<path d="M502 0 L977.78092 0 L979.46188 0 z"/>
<path d="M502 0 L979.46188 0 L502 0 z"/>
<path d="M502 0 L975.85793 0 L977.78092 0 z"/>
<path d="M502 0 L977.78092 0 L502 0 z"/>
<path d="M502 0 L973.63207 0 L975.85793 0 z"/>
<path d="M502 0 L975.85793 0 L502 0 z"/>
<path d="M502 0 L971.02121 0 L973.63207 0 z"/>
<path d="M502 0 L973.63207 0 L502 0 z"/>
<path d="M502 0 L967.90867 0 L971.02121 0 z"/>
<path d="M502 0 L971.02121 0 L502 0 z"/>
<path d="M502 0 L964.12843 0 L967.90867 0 z"/>
<path d="M502 0 L967.90867 0 L502 0 z"/>
<path d="M502 0 L959.42804 0 L964.12843 0 z"/>
<path d="M502 0 L964.12843 0 L502 0 z"/>
<path d="M502 0 L953.41488 0 L959.42804 0 z"/>
<path d="M502 0 L959.42804 0 L502 0 z"/>
<path d="M502 0 L945.43091 0 L953.41488 0 z"/>
<path d="M502 0 L953.41488 0 L502 0 z"/>
<path d="M502 0 L934.29513 0 L945.43091 0 z"/>
<path d="M502 0 L945.43091 0 L502 0 z"/>
<path d="M502 0 L917.64416 0 L934.29513 0 z"/>
<path d="M502 0 L934.29513 0 L502 0 z"/>
<path d="M502 0 L889.95784 0 L917.64416 0 z"/>
<path d="M502 0 L917.64416 0 L502 0 z"/>
<path d="M502 0 L834.68475 0 L889.95784 0 z"/>
<path d="M502 0 L889.95784 0 L502 0 z"/>
<path d="M502 0 L669.06592 0 L834.68475 0 z"/>
<path d="M502 0 L834.68475 0 L502 0 z"/>
<path d="M502 0 L669.06592 0 L502 0 z"/>
<path d="M999.69858 0 L999.39522 0 L1000 0 z"/>
<path d="M999.39522 0 L999.09131 0 L1000 0 z"/>
<path d="M999.09131 0 L998.78573 0 L1000 0 z"/>
<path d="M998.78573 0 L998.47798 0 L1000 0 z"/>
<path d="M998.47798 0 L998.16751 0 L1000 0 z"/>
<path d="M998.16751 0 L997.85337 0 L1000 0 z"/>
<path d="M997.85337 0 L997.53529 0 L1000 0 z"/>
<path d="M997.53529 0 L997.21228 0 L1000 0 z"/>
<path d="M997.21228 0 L996.88378 0 L1000 0 z"/>
<path d="M996.88378 0 L996.54916 0 L1000 0 z"/>
<path d="M996.54916 0 L996.20747 0 L1000 0 z"/>
<path d="M996.20747 0 L995.85793 0 L1000 0 z"/>
<path d="M995.85793 0 L995.49933 0 L1000 0 z"/>
<path d="M995.49933 0 L995.13097 0 L1000 0 z"/>
<path d="M995.13097 0 L994.75151 0 L1000 0 z"/>
<path d="M994.75151 0 L994.36 0 L1000 0 z"/>
<path d="M994.36 0 L993.95478 0 L1000 0 z"/>
<path d="M993.95478 0 L993.53449 0 L1000 0 z"/>
<path d="M993.53449 0 L993.09747 0 L1000 0 z"/>
<path d="M993.09747 0 L992.64182 0 L1000 0 z"/>
<path d="M992.64182 0 L992.16553 0 L1000 0 z"/>
<path d="M992.16553 0 L991.66609 0 L1000 0 z"/>
<path d="M991.66609 0 L991.14082 0 L1000 0 z"/>
<path d="M991.14082 0 L990.58667 0 L1000 0 z"/>
<path d="M990 0 L1000 0 L990.58667 0 z"/>
<path d="M989.37687 0 L1000 0 L990 0 z"/>
<path d="M988.71231 0 L1000 0 L989.37687 0 z"/>
<path d="M988.00085 0 L1000 0 L988.71231 0 z"/>
<path d="M987.23587 0 L1000 0 L988.00085 0 z"/>
<path d="M986.40963 0 L1000 0 L987.23587 0 z"/>
<path d="M985.51261 0 L1000 0 L986.40963 0 z"/>
<path d="M984.53328 0 L1000 0 L985.51261 0 z"/>
<path d="M983.45809 0 L1000 0 L984.53328 0 z"/>
<path d="M982.26951 0 L1000 0 L983.45809 0 z"/>
<path d="M980.94656 0 L1000 0 L982.26951 0 z"/>
<path d="M979.46188 0 L1000 0 L980.94656 0 z"/>
<path d="M977.78092 0 L1000 0 L979.46188 0 z"/>
<path d="M975.85793 0 L1000 0 L977.78092 0 z"/>
<path d="M973.63207 0 L1000 0 L975.85793 0 z"/>
<path d="M971.02121 0 L1000 0 L973.63207 0 z"/>
<path d="M967.90867 0 L1000 0 L971.02121 0 z"/>
<path d="M964.12843 0 L1000 0 L967.90867 0 z"/>
<path d="M959.42804 0 L1000 0 L964.12843 0 z"/>
<path d="M953.41488 0 L1000 0 L959.42804 0 z"/>
<path d="M945.43091 0 L1000 0 L953.41488 0 z"/>
<path d="M934.29513 0 L1000 0 L945.43091 0 z"/>
<path d="M917.64416 0 L1000 0 L934.29513 0 z"/>
<path d="M889.95784 0 L1000 0 L917.64416 0 z"/>
<path d="M834.68475 0 L1000 0 L889.95784 0 z"/>
<path d="M669.06592 0 L1000 0 L834.68475 0 z"/>
<path d="M512 0 L1000 0 L669.06592 0 z"/>
<path d="M512 0 L669.06592 0 L512 0 z"/>
<path d="M512 0 L669.06592 0 L1000 0 z"/>
<path d="M512 0 L1000 0 L512 0 z"/>
<path d="M669.06592 0 L834.68475 0 L1000 0 z"/>
<path d="M834.68475 0 L889.95784 0 L1000 0 z"/>
<path d="M889.95784 0 L917.64416 0 L1000 0 z"/>
<path d="M917.64416 0 L934.29513 0 L1000 0 z"/>
<path d="M934.29513 0 L945.43091 0 L1000 0 z"/>
<path d="M945.43091 0 L953.41488 0 L1000 0 z"/>
<path d="M953.41488 0 L959.42804 0 L1000 0 z"/>
<path d="M959.42804 0 L964.12843 0 L1000 0 z"/>
<path d="M964.12843 0 L967.90867 0 L1000 0 z"/>
<path d="M967.90867 0 L971.02121 0 L1000 0 z"/>
<path d="M971.02121 0 L973.63207 0 L1000 0 z"/>
<path d="M973.63207 0 L975.85793 0 L1000 0 z"/>
<path d="M975.85793 0 L977.78092 0 L1000 0 z"/>
<path d="M977.78092 0 L979.46188 0 L1000 0 z"/>
<path d="M979.46188 0 L980.94656 0 L1000 0 z"/>
<path d="M980.94656 0 L982.26951 0 L1000 0 z"/>
<path d="M982.26951 0 L983.45809 0 L1000 0 z"/>
<path d="M983.45809 0 L984.53328 0 L1000 0 z"/>
<path d="M984.53328 0 L985.51261 0 L1000 0 z"/>
<path d="M985.51261 0 L986.40963 0 L1000 0 z"/>
<path d="M986.40963 0 L987.23587 0 L1000 0 z"/>
<path d="M987.23587 0 L988.00085 0 L1000 0 z"/>
<path d="M988.00085 0 L988.71231 0 L1000 0 z"/>
<path d="M988.71231 0 L989.37687 0 L1000 0 z"/>
<path d="M989.37687 0 L990 0 L1000 0 z"/>
<path d="M990 0 L990.58667 0 L1000 0 z"/>
<path d="M990.58667 0 L991.14082 0 L1000 0 z"/>
<path d="M991.14082 0 L991.66609 0 L1000 0 z"/>
<path d="M991.66609 0 L992.16553 0 L1000 0 z"/>
<path d="M992.16553 0 L992.64182 0 L1000 0 z"/>
<path d="M992.64182 0 L993.09747 0 L1000 0 z"/>
<path d="M993.09747 0 L993.53449 0 L1000 0 z"/>
<path d="M993.53449 0 L993.95478 0 L1000 0 z"/>
<path d="M993.95478 0 L994.36 0 L1000 0 z"/>
<path d="M994.36 0 L994.75151 0 L1000 0 z"/>
<path d="M994.75151 0 L995.13097 0 L1000 0 z"/>
<path d="M995.13097 0 L995.49933 0 L1000 0 z"/>
<path d="M995.49933 0 L995.85793 0 L1000 0 z"/>
<path d="M995.85793 0 L996.20747 0 L1000 0 z"/>
<path d="M996.20747 0 L996.54916 0 L1000 0 z"/>
<path d="M996.54916 0 L996.88378 0 L1000 0 z"/>
<path d="M996.88378 0 L997.21228 0 L1000 0 z"/>
<path d="M997.21228 0 L997.53529 0 L1000 0 z"/>
<path d="M997.53529 0 L997.85337 0 L1000 0 z"/>
<path d="M997.85337 0 L998.16751 0 L1000 0 z"/>
<path d="M998.16751 0 L998.47798 0 L1000 0 z"/>
<path d="M998.47798 0 L998.78573 0 L1000 0 z"/>
<path d="M998.78573 0 L999.09131 0 L1000 0 z"/>
<path d="M999.09131 0 L999.39522 0 L1000 0 z"/>
<path d="M999.39522 0 L999.69858 0 L1000 0 z"/>
<path d="M502 0 L512 0 L512 0 z"/>
<path d="M502 0 L512 0 L502 0 z"/>
<path d="M512 0 L512 0 L502 0 z"/>
<path d="M512 0 L502 0 L502 0 z"/>
<path d="M999.09 20 L996.355 20 L991.81 20 z"/>
<path d="M999.09 20 L991.81 20 L985.47 20 z"/>
<path d="M999.09 20 L985.47 20 L977.36 20 z"/>
<path d="M999.09 20 L977.36 20 L967.51 20 z"/>
<path d="M999.09 20 L967.51 20 L955.95 20 z"/>
<path d="M999.09 20 L955.95 20 L942.73 20 z"/>
<path d="M999.09 20 L942.73 20 L927.89 20 z"/>
<path d="M999.09 20 L927.89 20 L911.49 20 z"/>
<path d="M999.09 20 L911.49 20 L893.59 20 z"/>
<path d="M999.09 20 L893.59 20 L874.255 20 z"/>
<path d="M999.09 20 L874.255 20 L853.555 20 z"/>
<path d="M999.09 20 L853.555 20 L831.56 20 z"/>
<path d="M999.09 20 L831.56 20 L808.36 20 z"/>
<path d="M999.09 20 L808.36 20 L784.03 20 z"/>
<path d="M999.09 20 L784.03 20 L758.67 20 z"/>
<path d="M999.09 20 L758.67 20 L732.36 20 z"/>
<path d="M999.09 20 L732.36 20 L705.205 20 z"/>
<path d="M999.09 20 L705.205 20 L677.3 20 z"/>
<path d="M999.09 20 L677.3 20 L648.75 20 z"/>
<path d="M999.09 20 L648.75 20 L619.66 20 z"/>
<path d="M999.09 20 L619.66 20 L590.13 20 z"/>
<path d="M999.09 20 L590.13 20 L560.27 20 z"/>
<path d="M999.09 20 L560.27 20 L530.19 20 z"/>
<path d="M999.09 20 L530.19 20 L500 20 z"/>
<path d="M999.09 20 L500 20 L469.81 20 z"/>
<path d="M999.09 20 L469.81 20 L439.73 20 z"/>
<path d="M999.09 20 L439.73 20 L409.87 20 z"/>
<path d="M999.09 20 L409.87 20 L380.34 20 z"/>
<path d="M999.09 20 L380.34 20 L351.25 20 z"/>
<path d="M999.09 20 L351.25 20 L322.7 20 z"/>
<path d="M999.09 20 L322.7 20 L294.795 20 z"/>
<path d="M999.09 20 L294.795 20 L267.64 20 z"/>
<path d="M999.09 20 L267.64 20 L241.33 20 z"/>
<path d="M999.09 20 L241.33 20 L215.97 20 z"/>
<path d="M999.09 20 L215.97 20 L191.64 20 z"/>
<path d="M999.09 20 L191.64 20 L168.44 20 z"/>
<path d="M999.09 20 L168.44 20 L146.445 20 z"/>
<path d="M999.09 20 L146.445 20 L125.745 20 z"/>
<path d="M999.09 20 L125.745 20 L106.41 20 z"/>
<path d="M999.09 20 L106.41 20 L88.51 20 z"/>
<path d="M999.09 20 L88.51 20 L72.11 20 z"/>
<path d="M999.09 20 L72.11 20 L57.27 20 z"/>
<path d="M999.09 20 L57.27 20 L44.05 20 z"/>
<path d="M999.09 20 L44.05 20 L32.49 20 z"/>
<path d="M999.09 20 L32.49 20 L22.64 20 z"/>
<path d="M999.09 20 L22.64 20 L14.53 20 z"/>
<path d="M999.09 20 L14.53 20 L8.19 20 z"/>
<path d="M999.09 20 L8.19 20 L3.645 20 z"/>
<path d="M999.09 20 L3.645 20 L0.91 20 z"/>
<path d="M0.91 20 L0.30142 20 L330.93408 20 z"/>
<path d="M0.91 20 L330.93408 20 L999.09 20 z"/>
<path d="M330.93408 20 L665.31633 20 L999.09 20 z"/>
<path d="M665.31633 20 L776.91407 20 L999.09 20 z"/>
<path d="M776.91407 20 L832.81448 20 L999.09 20 z"/>
<path d="M832.81448 20 L866.43557 20 L999.09 20 z"/>
<path d="M866.43557 20 L888.91606 20 L999.09 20 z"/>
<path d="M888.91606 20 L905.03412 20 L999.09 20 z"/>
<path d="M905.03412 20 L917.17553 20 L999.09 20 z"/>
<path d="M917.17553 20 L926.66438 20 L999.09 20 z"/>
<path d="M926.66438 20 L934.29831 20 L999.09 20 z"/>
<path d="M934.29831 20 L940.58128 20 L999.09 20 z"/>
<path d="M940.58128 20 L945.85352 20 L999.09 20 z"/>
<path d="M945.85352 20 L950.34685 20 L999.09 20 z"/>
<path d="M950.34685 20 L954.22973 20 L999.09 20 z"/>
<path d="M954.22973 20 L957.62374 20 L999.09 20 z"/>
<path d="M957.62374 20 L960.62095 20 L999.09 20 z"/>
<path d="M960.62095 20 L963.29215 20 L999.09 20 z"/>
<path d="M963.29215 20 L965.69152 20 L999.09 20 z"/>
<path d="M965.69152 20 L967.86278 20 L999.09 20 z"/>
<path d="M967.86278 20 L969.83975 20 L999.09 20 z"/>
<path d="M969.83975 20 L971.65115 20 L999.09 20 z"/>
<path d="M971.65115 20 L973.31936 20 L999.09 20 z"/>
<path d="M973.31936 20 L974.86364 20 L999.09 20 z"/>
<path d="M974.86364 20 L976.30005 20 L999.09 20 z"/>
<path d="M976.30005 20 L977.64173 20 L999.09 20 z"/>
<path d="M977.64173 20 L978.9 20 L999.09 20 z"/>
<path d="M978.9 20 L980.08431 20 L999.09 20 z"/>
<path d="M980.08431 20 L981.20327 20 L999.09 20 z"/>
<path d="M981.20327 20 L982.26375 20 L999.09 20 z"/>
<path d="M982.26375 20 L983.27218 20 L999.09 20 z"/>
<path d="M983.27218 20 L984.23391 20 L999.09 20 z"/>
<path d="M984.23391 20 L985.15371 20 L999.09 20 z"/>
<path d="M985.15371 20 L986.03607 20 L999.09 20 z"/>
<path d="M986.03607 20 L986.88459 20 L999.09 20 z"/>
<path d="M986.88459 20 L987.70271 20 L999.09 20 z"/>
<path d="M987.70271 20 L988.49342 20 L999.09 20 z"/>
<path d="M988.49342 20 L989.25921 20 L999.09 20 z"/>
<path d="M989.25921 20 L990.00312 20 L999.09 20 z"/>
<path d="M990.00312 20 L990.72686 20 L999.09 20 z"/>
<path d="M990.72686 20 L991.43296 20 L999.09 20 z"/>
<path d="M991.43296 20 L992.12271 20 L999.09 20 z"/>
<path d="M992.12271 20 L992.79833 20 L999.09 20 z"/>
<path d="M992.79833 20 L993.46132 20 L999.09 20 z"/>
<path d="M993.46132 20 L994.11344 20 L999.09 20 z"/>
<path d="M994.11344 20 L994.75594 20 L999.09 20 z"/>
<path d="M994.75594 20 L995.38985 20 L999.09 20 z"/>
<path d="M995.38985 20 L996.01708 20 L999.09 20 z"/>
<path d="M996.01708 20 L996.63818 20 L999.09 20 z"/>
<path d="M996.63818 20 L997.25491 20 L999.09 20 z"/>
<path d="M997.25491 20 L997.8684 20 L999.09 20 z"/>
<path d="M997.8684 20 L998.47957 20 L999.09 20 z"/>
<path d="M998.47957 20 L999.09 20 L999.09 20 z"/>
<path d="M999.09 20 L999.69858 20 L999.09 20 z"/>
<path d="M0.30142 20 L0 20 L330.93408 20 z"/>
<path d="M0 20 L0.91 20 L502 20 z"/>
<path d="M0 20 L502 20 L502 20 z"/>
<path d="M0 20 L502 20 L330.93408 20 z"/>
<path d="M502 20 L0.91 20 L3.645 20 z"/>
<path d="M502 20 L3.645 20 L502 20 z"/>
<path d="M502 20 L3.645 20 L8.19 20 z"/>
<path d="M502 20 L8.19 20 L502 20 z"/>
<path d="M502 20 L8.19 20 L14.53 20 z"/>
<path d="M502 20 L14.53 20 L502 20 z"/>
<path d="M502 20 L14.53 20 L22.64 20 z"/>
<path d="M502 20 L22.64 20 L502 20 z"/>
<path d="M502 20 L22.64 20 L32.49 20 z"/>
<path d="M502 20 L32.49 20 L502 20 z"/>
<path d="M502 20 L32.49 20 L44.05 20 z"/>
<path d="M502 20 L44.05 20 L502 20 z"/>
<path d="M502 20 L44.05 20 L57.27 20 z"/>
<path d="M502 20 L57.27 20 L502 20 z"/>
<path d="M502 20 L57.27 20 L72.11 20 z"/>
<path d="M502 20 L72.11 20 L502 20 z"/>
<path d="M502 20 L72.11 20 L88.51 20 z"/>
<path d="M502 20 L88.51 20 L502 20 z"/>
<path d="M502 20 L88.51 20 L106.41 20 z"/>
<path d="M502 20 L106.41 20 L502 20 z"/>
<path d="M502 20 L106.41 20 L125.745 20 z"/>
<path d="M502 20 L125.745 20 L502 20 z"/>
<path d="M502 20 L125.745 20 L146.445 20 z"/>
<path d="M502 20 L146.445 20 L502 20 z"/>
<path d="M502 20 L146.445 20 L168.44 20 z"/>
<path d="M502 20 L168.44 20 L502 20 z"/>
<path d="M502 20 L168.44 20 L191.64 20 z"/>
<path d="M502 20 L191.64 20 L502 20 z"/>
<path d="M502 20 L191.64 20 L215.97 20 z"/>
<path d="M502 20 L215.97 20 L502 20 z"/>
<path d="M502 20 L215.97 20 L241.33 20 z"/>
<path d="M502 20 L241.33 20 L502 20 z"/>
<path d="M502 20 L241.33 20 L267.64 20 z"/>
<path d="M502 20 L267.64 20 L502 20 z"/>
<path d="M502 20 L267.64 20 L294.795 20 z"/>
<path d="M502 20 L294.795 20 L502 20 z"/>
<path d="M502 20 L294.795 20 L322.7 20 z"/>
<path d="M502 20 L322.7 20 L502 20 z"/>
<path d="M502 20 L322.7 20 L351.25 20 z"/>
<path d="M502 20 L351.25 20 L502 20 z"/>
<path d="M502 20 L351.25 20 L380.34 20 z"/>
<path d="M502 20 L380.34 20 L502 20 z"/>
<path d="M502 20 L380.34 20 L409.87 20 z"/>
<path d="M502 20 L409.87 20 L502 20 z"/>
<path d="M502 20 L409.87 20 L439.73 20 z"/>
<path d="M502 20 L439.73 20 L502 20 z"/>
<path d="M502 20 L439.73 20 L469.81 20 z"/>
<path d="M502 20 L469.81 20 L502 20 z"/>
<path d="M502 20 L469.81 20 L500 20 z"/>
<path d="M502 20 L500 20 L502 20 z"/>
<path d="M502 20 L500 20 L502 20 z"/>
<path d="M502 20 L502 20 L556.82895 20 z"/>
<path d="M502 20 L668.10371 20 L556.82895 20 z"/>
<path d="M502 20 L556.82895 20 L502 20 z"/>
<path d="M502 20 L735.0295 20 L668.10371 20 z"/>
<path d="M502 20 L668.10371 20 L502 20 z"/>
<path d="M502 20 L779.77892 20 L735.0295 20 z"/>
<path d="M502 20 L735.0295 20 L502 20 z"/>
<path d="M502 20 L811.86337 20 L779.77892 20 z"/>
<path d="M502 20 L779.77892 20 L502 20 z"/>
<path d="M502 20 L836.03192 20 L811.86337 20 z"/>
<path d="M502 20 L811.86337 20 L502 20 z"/>
<path d="M502 20 L854.92033 20 L836.03192 20 z"/>
<path d="M502 20 L836.03192 20 L502 20 z"/>
<path d="M502 20 L870.11636 20 L854.92033 20 z"/>
<path d="M502 20 L854.92033 20 L502 20 z"/>
<path d="M502 20 L882.62316 20 L870.11636 20 z"/>
<path d="M502 20 L870.11636 20 L502 20 z"/>
<path d="M502 20 L893.11803 20 L882.62316 20 z"/>
<path d="M502 20 L882.62316 20 L502 20 z"/>
<path d="M502 20 L902.0624 20 L893.11803 20 z"/>
<path d="M502 20 L893.11803 20 L502 20 z"/>
<path d="M502 20 L909.79163 20 L902.0624 20 z"/>
<path d="M502 20 L902.0624 20 L502 20 z"/>
<path d="M502 20 L916.54769 20 L909.79163 20 z"/>
<path d="M502 20 L909.79163 20 L502 20 z"/>
<path d="M502 20 L922.51391 20 L916.54769 20 z"/>
<path d="M502 20 L916.54769 20 L502 20 z"/>
<path d="M502 20 L927.83119 20 L922.51391 20 z"/>
<path d="M502 20 L922.51391 20 L502 20 z"/>
<path d="M502 20 L932.60735 20 L927.83119 20 z"/>
<path d="M502 20 L927.83119 20 L502 20 z"/>
<path d="M502 20 L936.92943 20 L932.60735 20 z"/>
<path d="M502 20 L932.60735 20 L502 20 z"/>
<path d="M502 20 L940.86476 20 L936.92943 20 z"/>
<path d="M502 20 L936.92943 20 L502 20 z"/>
<path d="M502 20 L944.47052 20 L940.86476 20 z"/>
<path d="M502 20 L940.86476 20 L502 20 z"/>
<path d="M502 20 L947.79123 20 L944.47052 20 z"/>
<path d="M502 20 L944.47052 20 L502 20 z"/>
<path d="M502 20 L950.86527 20 L947.79123 20 z"/>
<path d="M502 20 L947.79123 20 L502 20 z"/>
<path d="M502 20 L953.72458 20 L950.86527 20 z"/>
<path d="M502 20 L950.86527 20 L502 20 z"/>
<path d="M502 20 L956.3953 20 L953.72458 20 z"/>
<path d="M502 20 L953.72458 20 L502 20 z"/>
<path d="M502 20 L958.9 20 L956.3953 20 z"/>
<path d="M502 20 L956.3953 20 L502 20 z"/>
<path d="M502 20 L961.25747 20 L958.9 20 z"/>
<path d="M502 20 L958.9 20 L502 20 z"/>
<path d="M502 20 L530.19 20 L963.48486 20 z"/>
<path d="M502 20 L963.48486 20 L961.25747 20 z"/>
<path d="M502 20 L961.25747 20 L502 20 z"/>
<path d="M963.48486 20 L530.19 20 L560.27 20 z"/>
<path d="M963.48486 20 L560.27 20 L965.59585 20 z"/>
<path d="M965.59585 20 L560.27 20 L590.13 20 z"/>
<path d="M965.59585 20 L590.13 20 L967.60321 20 z"/>
<path d="M967.60321 20 L590.13 20 L619.66 20 z"/>
<path d="M967.60321 20 L619.66 20 L969.51762 20 z"/>
<path d="M969.51762 20 L619.66 20 L648.75 20 z"/>
<path d="M969.51762 20 L648.75 20 L971.34857 20 z"/>
<path d="M971.34857 20 L648.75 20 L677.3 20 z"/>
<path d="M971.34857 20 L677.3 20 L973.10499 20 z"/>
<path d="M973.10499 20 L677.3 20 L705.205 20 z"/>
<path d="M973.10499 20 L705.205 20 L974.79404 20 z"/>
<path d="M974.79404 20 L705.205 20 L732.36 20 z"/>
<path d="M974.79404 20 L732.36 20 L976.42257 20 z"/>
<path d="M976.42257 20 L732.36 20 L758.67 20 z"/>
<path d="M976.42257 20 L758.67 20 L977.99657 20 z"/>
<path d="M977.99657 20 L758.67 20 L784.03 20 z"/>
<path d="M977.99657 20 L784.03 20 L979.52094 20 z"/>
<path d="M979.52094 20 L784.03 20 L808.36 20 z"/>
<path d="M979.52094 20 L808.36 20 L981.00175 20 z"/>
<path d="M981.00175 20 L808.36 20 L831.56 20 z"/>
<path d="M981.00175 20 L831.56 20 L982.44242 20 z"/>
<path d="M982.44242 20 L831.56 20 L853.555 20 z"/>
<path d="M982.44242 20 L853.555 20 L983.84797 20 z"/>
<path d="M983.84797 20 L853.555 20 L874.255 20 z"/>
<path d="M983.84797 20 L874.255 20 L985.22098 20 z"/>
<path d="M985.22098 20 L874.255 20 L893.59 20 z"/>
<path d="M985.22098 20 L893.59 20 L986.56587 20 z"/>
<path d="M986.56587 20 L893.59 20 L911.49 20 z"/>
<path d="M986.56587 20 L911.49 20 L987.88561 20 z"/>
<path d="M987.88561 20 L911.49 20 L927.89 20 z"/>
<path d="M987.88561 20 L927.89 20 L989.18372 20 z"/>
<path d="M989.18372 20 L927.89 20 L942.73 20 z"/>
<path d="M989.18372 20 L942.73 20 L990.46266 20 z"/>
<path d="M990.46266 20 L942.73 20 L955.95 20 z"/>
<path d="M990.46266 20 L955.95 20 L991.72452 20 z"/>
<path d="M991.72452 20 L955.95 20 L967.51 20 z"/>
<path d="M991.72452 20 L967.51 20 L992.97308 20 z"/>
<path d="M992.97308 20 L967.51 20 L977.36 20 z"/>
<path d="M992.97308 20 L977.36 20 L994.20943 20 z"/>
<path d="M994.20943 20 L977.36 20 L985.47 20 z"/>
<path d="M994.20943 20 L985.47 20 L995.4371 20 z"/>
<path d="M995.4371 20 L985.47 20 L991.81 20 z"/>
<path d="M995.4371 20 L991.81 20 L996.65829 20 z"/>
<path d="M996.65829 20 L991.81 20 L996.355 20 z"/>
<path d="M996.65829 20 L996.355 20 L997.87488 20 z"/>
<path d="M997.87488 20 L996.355 20 L999.09 20 z"/>
<path d="M997.87488 20 L999.09 20 L999.09 20 z"/>
<path d="M999.09 20 L999.09 20 L999.69858 20 z"/>
<path d="M512 20 L665.31633 20 L512 20 z"/>
<path d="M512 20 L556.82895 20 L776.91407 20 z"/>
<path d="M512 20 L776.91407 20 L665.31633 20 z"/>
<path d="M512 20 L665.31633 20 L512 20 z"/>
<path d="M668.10371 20 L832.81448 20 L776.91407 20 z"/>
<path d="M668.10371 20 L776.91407 20 L556.82895 20 z"/>
<path d="M735.0295 20 L866.43557 20 L832.81448 20 z"/>
<path d="M735.0295 20 L832.81448 20 L668.10371 20 z"/>
<path d="M779.77892 20 L888.91606 20 L866.43557 20 z"/>
<path d="M779.77892 20 L866.43557 20 L735.0295 20 z"/>
<path d="M811.86337 20 L905.03412 20 L888.91606 20 z"/>
<path d="M811.86337 20 L888.91606 20 L779.77892 20 z"/>
<path d="M836.03192 20 L917.17553 20 L905.03412 20 z"/>
<path d="M836.03192 20 L905.03412 20 L811.86337 20 z"/>
<path d="M854.92033 20 L926.66438 20 L917.17553 20 z"/>
<path d="M854.92033 20 L917.17553 20 L836.03192 20 z"/>
<path d="M870.11636 20 L934.29831 20 L926.66438 20 z"/>
<path d="M870.11636 20 L926.66438 20 L854.92033 20 z"/>
<path d="M882.62316 20 L940.58128 20 L934.29831 20 z"/>
<path d="M882.62316 20 L934.29831 20 L870.11636 20 z"/>
<path d="M893.11803 20 L945.85352 20 L940.58128 20 z"/>
<path d="M893.11803 20 L940.58128 20 L882.62316 20 z"/>
<path d="M902.0624 20 L950.34685 20 L945.85352 20 z"/>
<path d="M902.0624 20 L945.85352 20 L893.11803 20 z"/>
<path d="M909.79163 20 L954.22973 20 L950.34685 20 z"/>
<path d="M909.79163 20 L950.34685 20 L902.0624 20 z"/>
<path d="M916.54769 20 L957.62374 20 L954.22973 20 z"/>
<path d="M916.54769 20 L954.22973 20 L909.79163 20 z"/>
<path d="M922.51391 20 L960.62095 20 L957.62374 20 z"/>
<path d="M922.51391 20 L957.62374 20 L916.54769 20 z"/>
<path d="M927.83119 20 L963.29215 20 L960.62095 20 z"/>
<path d="M927.83119 20 L960.62095 20 L922.51391 20 z"/>
<path d="M932.60735 20 L965.69152 20 L963.29215 20 z"/>
<path d="M932.60735 20 L963.29215 20 L927.83119 20 z"/>
<path d="M936.92943 20 L967.86278 20 L965.69152 20 z"/>
<path d="M936.92943 20 L965.69152 20 L932.60735 20 z"/>
<path d="M940.86476 20 L969.83975 20 L967.86278 20 z"/>
<path d="M940.86476 20 L967.86278 20 L936.92943 20 z"/>
<path d="M944.47052 20 L971.65115 20 L969.83975 20 z"/>
<path d="M944.47052 20 L969.83975 20 L940.86476 20 z"/>
<path d="M947.79123 20 L973.31936 20 L971.65115 20 z"/>
<path d="M947.79123 20 L971.65115 20 L944.47052 20 z"/>
<path d="M950.86527 20 L974.86364 20 L973.31936 20 z"/>
<path d="M950.86527 20 L973.31936 20 L947.79123 20 z"/>
<path d="M953.72458 20 L976.30005 20 L974.86364 20 z"/>
<path d="M953.72458 20 L974.86364 20 L950.86527 20 z"/>
<path d="M956.3953 20 L977.64173 20 L976.30005 20 z"/>
<path d="M956.3953 20 L976.30005 20 L953.72458 20 z"/>
<path d="M958.9 20 L978.9 20 L977.64173 20 z"/>
<path d="M958.9 20 L977.64173 20 L956.3953 20 z"/>
<path d="M961.25747 20 L980.08431 20 L978.9 20 z"/>
<path d="M961.25747 20 L978.9 20 L958.9 20 z"/>
<path d="M963.48486 20 L981.20327 20 L980.08431 20 z"/>
<path d="M963.48486 20 L980.08431 20 L961.25747 20 z"/>
<path d="M963.48486 20 L965.59585 20 L982.26375 20 z"/>
<path d="M963.48486 20 L982.26375 20 L981.20327 20 z"/>
<path d="M965.59585 20 L967.60321 20 L983.27218 20 z"/>
<path d="M965.59585 20 L983.27218 20 L982.26375 20 z"/>
<path d="M967.60321 20 L969.51762 20 L984.23391 20 z"/>
<path d="M967.60321 20 L984.23391 20 L983.27218 20 z"/>
<path d="M969.51762 20 L971.34857 20 L985.15371 20 z"/>
<path d="M969.51762 20 L985.15371 20 L984.23391 20 z"/>
<path d="M971.34857 20 L973.10499 20 L986.03607 20 z"/>
<path d="M971.34857 20 L986.03607 20 L985.15371 20 z"/>
<path d="M973.10499 20 L974.79404 20 L986.88459 20 z"/>
<path d="M973.10499 20 L986.88459 20 L986.03607 20 z"/>
<path d="M974.79404 20 L976.42257 20 L987.70271 20 z"/>
<path d="M974.79404 20 L987.70271 20 L986.88459 20 z"/>
<path d="M976.42257 20 L977.99657 20 L988.49342 20 z"/>
<path d="M976.42257 20 L988.49342 20 L987.70271 20 z"/>
<path d="M977.99657 20 L979.52094 20 L989.25921 20 z"/>
<path d="M977.99657 20 L989.25921 20 L988.49342 20 z"/>
<path d="M979.52094 20 L981.00175 20 L990.00312 20 z"/>
<path d="M979.52094 20 L990.00312 20 L989.25921 20 z"/>
<path d="M981.00175 20 L982.44242 20 L990.72686 20 z"/>
<path d="M981.00175 20 L990.72686 20 L990.00312 20 z"/>
<path d="M982.44242 20 L983.84797 20 L991.43296 20 z"/>
<path d="M982.44242 20 L991.43296 20 L990.72686 20 z"/>
<path d="M983.84797 20 L985.22098 20 L992.12271 20 z"/>
<path d="M983.84797 20 L992.12271 20 L991.43296 20 z"/>
<path d="M985.22098 20 L986.56587 20 L992.79833 20 z"/>
<path d="M985.22098 20 L992.79833 20 L992.12271 20 z"/>
<path d="M986.56587 20 L987.88561 20 L993.46132 20 z"/>
<path d="M986.56587 20 L993.46132 20 L992.79833 20 z"/>
<path d="M987.88561 20 L989.18372 20 L994.11344 20 z"/>
<path d="M987.88561 20 L994.11344 20 L993.46132 20 z"/>
<path d="M989.18372 20 L990.46266 20 L994.75594 20 z"/>
<path d="M989.18372 20 L994.75594 20 L994.11344 20 z"/>
<path d="M990.46266 20 L991.72452 20 L995.38985 20 z"/>
<path d="M990.46266 20 L995.38985 20 L994.75594 20 z"/>
<path d="M991.72452 20 L992.97308 20 L996.01708 20 z"/>
<path d="M991.72452 20 L996.01708 20 L995.38985 20 z"/>
<path d="M992.97308 20 L994.20943 20 L996.63818 20 z"/>
<path d="M992.97308 20 L996.63818 20 L996.01708 20 z"/>
<path d="M994.20943 20 L995.4371 20 L997.25491 20 z"/>
<path d="M994.20943 20 L997.25491 20 L996.63818 20 z"/>
<path d="M995.4371 20 L996.65829 20 L997.8684 20 z"/>
<path d="M995.4371 20 L997.8684 20 L997.25491 20 z"/>
<path d="M996.65829 20 L997.87488 20 L998.47957 20 z"/>
<path d="M996.65829 20 L998.47957 20 L997.8684 20 z"/>
<path d="M997.87488 20 L999.09 20 L999.09 20 z"/>
<path d="M997.87488 20 L999.09 20 L998.47957 20 z"/>
<path d="M999.09 20 L999.69858 20 L1000 20 z"/>
<path d="M999.09 20 L1000 20 L999.69858 20 z"/>
<path d="M999.09 20 L999.69858 20 L999.09 20 z"/>
<path d="M512 20 L512 20 L502 20 z"/>
<path d="M512 20 L502 20 L502 20 z"/>
<path d="M512 20 L512 20 L502 20 z"/>
<path d="M512 20 L502 20 L502 20 z"/>
<path d="M502 12.5 L512 7.5 L512 12.5 z"/>
<path d="M502 7.5 L512 7.5 L502 12.5 z"/>
<path d="M502 12.5 L502 7.5 L502 12.5 z"/>
<path d="M502 7.5 L502 7.5 L502 12.5 z"/>
<path d="M512 12.5 L502 7.5 L502 12.5 z"/>
<path d="M512 7.5 L502 7.5 L512 12.5 z"/>
<path d="M512 12.5 L512 7.5 L512 12.5 z"/>
<path d="M512 7.5 L512 7.5 L512 12.5 z"/>
<path d="M502 7.5 L502 7.5 L512 7.5 z"/>
<path d="M512 7.5 L502 7.5 L512 7.5 z"/>
<path d="M502 12.5 L502 12.5 L512 12.5 z"/>
<path d="M512 12.5 L502 12.5 L512 12.5 z"/>
</svg>