<?xml version="1.0" encoding="UTF-8"?>
<!-- Generated by jsxcad -->
<!DOCTYPE svg PUBLIC "-//W3C//DTD SVG 1.1 Tiny//EN" "http://www.w3.org/Graphics/SVG/1.1/DTD/svg11-tiny.dtd">
<svg viewBox="-250 -250 500 500" width="500" height="500" xmlns="http://www.w3.org/2000/svg"><path d="M-16.693278041980626,-103.82203143061962L12.63829885199515,-112.43559243383878L1.3042015717462018e-13,-109.67795326685004zM12.63829885199515,-112.43559243383878L48.02941888298079,-113.64534355484601L16.83215566181018,-113.35066996022577zM-32.730384526690116,-95.98376933431477L-49.40830668864529,-47.71497998205912L-28.244583778856953,-98.1762441526158zM-47.6151353064814,-86.40875620716896L-49.40830668864529,-47.71497998205912L-32.730384526690116,-95.98376933431477zM-28.244583778856953,-98.1762441526158L-24.421679840298484,-54.524100042275144L-16.693278041980626,-103.82203143061962zM16.83215566181018,-113.35066996022577L48.02941888298079,-113.64534355484601L33.26857567552671,-114.6881502529133zM-60.87610853550259,-75.38503804305431L-49.40830668864529,-47.71497998205912L-47.6151353064814,-86.40875620716896zM-16.693278041980626,-103.82203143061962L-24.421679840298484,-54.524100042275144L12.63829885199515,-112.43559243383878zM-69.5954369078708,-65.92782756628125L-49.40830668864529,-47.71497998205912L-60.87610853550259,-75.38503804305431zM-72.07155054861549,-63.24217094996154L-74.63882181144217,-40.839397632645L-69.5954369078708,-65.92782756628125zM-80.79672060648278,-50.350600520100244L-74.63882181144217,-40.839397632645L-72.07155054861549,-63.24217094996154zM12.63829885199515,-112.43559243383878L2.4690331137959833,-61.85210811933909L48.02941888298079,-113.64534355484601zM-49.40830668864529,-47.71497998205912L-69.5954369078708,-65.92782756628125L-74.63882181144217,-40.839397632645zM-74.63882181144217,-40.839397632645L-80.79672060648278,-50.350600520100244L-86.47447379351921,-37.614055049137384zM-24.421679840298484,-54.524100042275144L-28.244583778856953,-98.1762441526158L-49.40830668864529,-47.71497998205912z" style="fill:rgb(83,212,212)"/><path d="M-46.45958000154073,63.96615504289219L-84.90378435698642,0.012078985994618987L-48.08656192923147,61.76468574050535z" style="fill:rgb(21,57,142)"/><path d="M48.02941888298079,-113.64534355484601L74.05487937787163,-104.3891976079805L48.76271847507567,-113.59354163905434zM2.4690331137959833,-61.85210811933909L12.63829885199515,-112.43559243383878L-24.421679840298484,-54.524100042275144zM48.76271847507567,-113.59354163905434L74.05487937787163,-104.3891976079805L62.76459015530528,-110.03376424498718z" style="fill:rgb(83,212,212)"/><path d="M-40.616596096362215,71.87229522047892L-83.28428848856831,2.1676550546911098L-46.45958000154073,63.96615504289219z" style="fill:rgb(21,57,142)"/><path d="M90.57570809550116,-85.40888466286422L120.30201315057862,-6.040742697410328L117.11051256698558,-18.283227390344447z" style="fill:rgb(246,167,149)"/><path d="M-37.69897763231911,74.13643525039458L-77.463421195245,9.915309447193238L-40.616596096362215,71.87229522047892z" style="fill:rgb(34,46,160)"/><path d="M48.02941888298079,-113.64534355484601L34.91015263288412,-70.69265621442099L74.05487937787163,-104.3891976079805zM34.91015263288412,-70.69265621442099L48.02941888298079,-113.64534355484601L2.4690331137959833,-61.85210811933909z" style="fill:rgb(83,212,212)"/><path d="M-18.27546855916046,-14.985144492915774L-1.3229510632043806,56.78805173573748L15.188727247324941,48.79529620071457z" style="fill:rgb(162,50,222)"/><path d="M-32.73101254745276,77.99170127035775L-74.49390351593408,12.097304687171164L-37.69897763231911,74.13643525039458z" style="fill:rgb(34,46,160)"/><path d="M-35.83105349707963,-6.447876283685066L-16.568827455190245,66.96229491861516L-1.3229510632043806,56.78805173573748z" style="fill:rgb(183,62,221)"/><path d="M120.30201315057862,-6.040742697410328L93.42824334193634,-69.30657935997358L120.22732485711097,-2.0503970079505813z" style="fill:rgb(246,149,167)"/><path d="M6.980909987464553e-15,-21.111304974590656L15.188727247324941,48.79529620071457L32.459006218779145,43.23337709962614z" style="fill:rgb(139,40,220)"/><path d="M-84.90378435698642,0.012078985994618987L-46.45958000154073,63.96615504289219L-83.28428848856831,2.1676550546911098z" style="fill:rgb(21,57,142)"/><path d="M-16.568827455190245,66.96229491861516L-66.68472389624542,16.762172813488707L-30.068480969524842,79.01652503780531z" style="fill:rgb(203,77,216)"/><path d="M-30.5951102821381,79.64920556943136L-69.434548229109,15.814906969488337L-32.73101254745276,77.99170127035775z" style="fill:rgb(34,46,160)"/><path d="M-30.068480969524842,79.01652503780531L-67.25818958473587,17.41409189722935L-30.5951102821381,79.64920556943136z" style="fill:rgb(220,94,208)"/><path d="M18.442050902973058,-24.615393165217505L32.459006218779145,43.23337709962614L49.95714849305615,40.29735710468561z" style="fill:rgb(115,34,214)"/><path d="M74.05487937787163,-104.3891976079805L81.61066664824439,-83.41904630036434L74.73369404671345,-104.0498214540771z" style="fill:rgb(83,212,212)"/><path d="M120.22732485711097,-2.0503970079505813L92.99746727784026,-59.85573998294307L120.050551756734,7.394825663598596z" style="fill:rgb(246,149,167)"/><path d="M-84.06562953031789,-156.84912478129323L-63.41301933876485,-169.20534048889078L-68.17367031333295,-166.86681157361284z" style="fill:rgb(83,212,212)"/><path d="M-83.28428848856831,2.1676550546911098L-40.616596096362215,71.87229522047892L-77.463421195245,9.915309447193238z" style="fill:rgb(21,57,142)"/><path d="M81.61066664824439,-83.41904630036434L74.05487937787163,-104.3891976079805L34.91015263288412,-70.69265621442099zM74.73369404671345,-104.0498214540771L81.61066664824439,-83.41904630036434L84.15748183638833,-95.76780077337926zM-63.41301933876485,-169.20534048889078L-20.2355009248575,-184.9117389054953L-51.15361763254021,-175.22745229520874zM-98.33356976781849,-145.47155064853476L-63.41301933876485,-169.20534048889078L-84.06562953031789,-156.84912478129323z" style="fill:rgb(83,212,212)"/><path d="M36.477050387084084,-25.34189329675823L49.95714849305615,40.29735710468561L67.13216575205998,40.123523690401115z" style="fill:rgb(92,32,204)"/><path d="M-51.15361763254021,-175.22745229520874L-20.2355009248575,-184.9117389054953L-33.52422719484922,-181.67308752658656z" style="fill:rgb(83,212,212)"/><path d="M120.30201315057862,-6.040742697410328L90.57570809550116,-85.40888466286422L93.61008943371263,-73.29619275502981z" style="fill:rgb(246,167,149)"/><path d="M120.050551756734,7.394825663598596L90.40607712382811,-51.41652366732073L117.7937229521531,15.751194061303538z" style="fill:rgb(242,130,183)"/><path d="M-77.463421195245,9.915309447193238L-37.69897763231911,74.13643525039458L-74.49390351593408,12.097304687171164z" style="fill:rgb(34,46,160)"/><path d="M84.15748183638833,-95.76780077337926L81.61066664824439,-83.41904630036434L88.8634212759156,-88.17249218536513z" style="fill:rgb(83,212,212)"/><path d="M-1.3229510632043806,56.78805173573748L-18.27546855916046,-14.985144492915774L-35.83105349707963,-6.447876283685066z" style="fill:rgb(162,50,222)"/><path d="M117.7937229521531,15.751194061303538L88.62276139226638,-45.608893807382096L116.24174677569269,21.49772009388744z" style="fill:rgb(242,130,183)"/><path d="M93.42824334193634,-69.30657935997358L120.30201315057862,-6.040742697410328L93.61008943371263,-73.29619275502981z" style="fill:rgb(246,149,167)"/><path d="M-16.568827455190245,66.96229491861516L-35.83105349707963,-6.447876283685066L-52.136075657282554,4.238415759226992z" style="fill:rgb(183,62,221)"/><path d="M15.188727247324941,48.79529620071457L6.980909987464553e-15,-21.111304974590656L-18.27546855916046,-14.985144492915774z" style="fill:rgb(139,40,220)"/><path d="M-74.49390351593408,12.097304687171164L-32.73101254745276,77.99170127035775L-69.434548229109,15.814906969488337z" style="fill:rgb(34,46,160)"/><path d="M53.515080062508666,-23.198135573666548L67.13216575205998,40.123523690401115L83.41769348962404,42.782200637724976z" style="fill:rgb(71,33,192)"/><path d="M-66.68472389624542,16.762172813488707L-16.568827455190245,66.96229491861516L-52.136075657282554,4.238415759226992z" style="fill:rgb(203,77,216)"/><path d="M90.33545145977807,-85.79663861382086L88.8634212759156,-88.17249218536513L81.61066664824439,-83.41904630036434zM-20.2355009248575,-184.9117389054953L16.785354716478064,-187.60122386275478L-15.824328861802853,-185.98680386469z" style="fill:rgb(83,212,212)"/><path d="M32.459006218779145,43.23337709962614L18.442050902973058,-24.615393165217505L6.420132253922645e-15,-21.111304974590656z" style="fill:rgb(115,34,214)"/><path d="M116.24174677569269,21.49772009388744L83.83581165749817,-37.04055274042756L111.90380059873809,29.903306144814668z" style="fill:rgb(233,112,197)"/><path d="M-69.434548229109,15.814906969488337L-30.5951102821381,79.64920556943136L-67.25818958473587,17.41409189722935z" style="fill:rgb(34,46,160)"/><path d="M92.99746727784026,-59.85573998294307L120.22732485711097,-2.0503970079505813L93.42824334193634,-69.30657935997358z" style="fill:rgb(246,149,167)"/><path d="M-67.25818958473587,17.41409189722935L-30.068480969524842,79.01652503780531L-66.68472389624542,16.762172813488707z" style="fill:rgb(220,94,208)"/><path d="M-15.824328861802853,-185.98680386469L16.785354716478064,-187.60122386275478L1.390100029253583,-187.9965452866402z" style="fill:rgb(83,212,212)"/><path d="M98.24005214079642,48.268011092908026L53.515080062508666,-23.198135573666548L83.41769348962404,42.782200637724976z" style="fill:rgb(51,38,177)"/><path d="M111.90380059873809,29.903306144814668L80.54731120975426,-31.154348331576482L108.92557635446137,35.67417912950641z" style="fill:rgb(233,112,197)"/><path d="M49.95714849305615,40.29735710468561L36.477050387084084,-25.34189329675823L18.442050902973058,-24.615393165217505z" style="fill:rgb(92,32,204)"/><path d="M-83.28428848856831,2.1676550546911098L-105.10941130034955,-33.87830719268628L-84.90378435698642,0.012078985994618987z" style="fill:rgb(21,57,142)"/><path d="M108.92557635446137,35.67417912950641L77.11510782205403,-26.97891417430277L105.7686183575854,39.73247884241594z" style="fill:rgb(220,94,208)"/><path d="M90.40607712382811,-51.41652366732073L120.050551756734,7.394825663598596L92.99746727784026,-59.85573998294307z" style="fill:rgb(242,130,183)"/><path d="M105.7686183575854,39.73247884241594L72.0865513400387,-20.86143828894883L101.14495320247033,45.676250421326664zM101.14495320247033,45.676250421326664L69.67704835215426,-17.93015867655867L98.93014459437998,48.523412945251344z" style="fill:rgb(220,94,208)"/><path d="M98.83259241784538,48.648812453213466L68.95751278599504,-18.16469099359207L98.24005214079642,48.268011092908026z" style="fill:rgb(34,46,160)"/><path d="M98.93014459437998,48.523412945251344L69.5709148911399,-17.80104336357239L98.83259241784538,48.648812453213466z" style="fill:rgb(220,94,208)"/><path d="M-77.463421195245,9.915309447193238L-103.499573904157,-31.757248547551264L-83.28428848856831,2.1676550546911098z" style="fill:rgb(21,57,142)"/><path d="M88.62276139226638,-45.608893807382096L117.7937229521531,15.751194061303538L90.40607712382811,-51.41652366732073z" style="fill:rgb(242,130,183)"/><path d="M67.13216575205998,40.123523690401115L53.515080062508666,-23.198135573666548L36.477050387084084,-25.34189329675823z" style="fill:rgb(71,33,192)"/><path d="M76.00660045651743,-122.26465194244095L93.61008943371263,-73.29619275502981L90.57570809550116,-85.40888466286422z" style="fill:rgb(246,167,149)"/><path d="M-105.10941130034955,-33.87830719268628L-83.28428848856831,2.1676550546911098L-103.499573904157,-31.757248547551264z" style="fill:rgb(21,57,142)"/><path d="M-98.33356976781849,-145.47155064853476L-116.33153575015531,-58.444222484414325L-63.41301933876485,-169.20534048889078z" style="fill:rgb(83,212,212)"/><path d="M83.83581165749817,-37.04055274042756L116.24174677569269,21.49772009388744L88.62276139226638,-45.608893807382096z" style="fill:rgb(233,112,197)"/><path d="M16.785354716478064,-187.60122386275478L43.727205246999155,-179.61222280461388L17.550637517127896,-187.58157636967968zM-110.508585343786,-133.07004244607006L-125.07905047733034,-67.97149951376713L-107.81491959213989,-135.8138136960793z" style="fill:rgb(83,212,212)"/><path d="M-74.49390351593408,12.097304687171164L-97.71086775717481,-24.130250188861037L-77.463421195245,9.915309447193238z" style="fill:rgb(34,46,160)"/><path d="M-63.41301933876485,-169.20534048889078L-111.20175644923405,-54.93988241759951L-20.2355009248575,-184.9117389054953zM-120.15559960599549,-120.01924158954813L-126.67420928700827,-70.04841109527582L-110.508585343786,-133.07004244607006zM-107.81491959213989,-135.8138136960793L-116.33153575015531,-58.444222484414325L-98.33356976781849,-145.47155064853476zM17.550637517127896,-187.58157636967968L43.727205246999155,-179.61222280461388L32.084531503754434,-184.6814328141478z" style="fill:rgb(83,212,212)"/><path d="M80.54731120975426,-31.154348331576482L111.90380059873809,29.903306144814668L83.83581165749817,-37.04055274042756z" style="fill:rgb(233,112,197)"/><path d="M-36.673564386106705,-50.05064145050193L-35.83105349707963,-6.447876283685066L-18.27546855916046,-14.985144492915774z" style="fill:rgb(162,50,222)"/><path d="M-69.434548229109,15.814906969488337L-94.71973518042734,-22.005036269171114L-74.49390351593408,12.097304687171164z" style="fill:rgb(34,46,160)"/><path d="M-54.80220582606245,-41.21241439547325L-52.136075657282554,4.238415759226992L-35.83105349707963,-6.447876283685066z" style="fill:rgb(183,62,221)"/><path d="M-103.499573904157,-31.757248547551264L-77.463421195245,9.915309447193238L-97.71086775717481,-24.130250188861037z" style="fill:rgb(21,57,142)"/><path d="M93.61008943371263,-73.29619275502981L78.69022488176486,-106.29377642499716L93.42824334193634,-69.30657935997358z" style="fill:rgb(246,149,167)"/><path d="M-17.85084533404605,-56.49769234681658L-18.27546855916046,-14.985144492915774L5.8593545203807374e-15,-21.111304974590656z" style="fill:rgb(139,40,220)"/><path d="M77.11510782205403,-26.97891417430277L108.92557635446137,35.67417912950641L80.54731120975426,-31.154348331576482z" style="fill:rgb(220,94,208)"/><path d="M-126.88412991206668,-106.73165330258404L-126.67420928700827,-70.04841109527582L-120.15559960599549,-120.01924158954813z" style="fill:rgb(83,212,212)"/><path d="M53.515080062508666,-23.198135573666548L98.24005214079642,48.268011092908026L68.95751278599504,-18.16469099359207z" style="fill:rgb(51,38,177)"/><path d="M72.0865513400387,-20.86143828894883L105.7686183575854,39.73247884241594L77.11510782205403,-26.97891417430277z" style="fill:rgb(220,94,208)"/><path d="M-52.136075657282554,4.238415759226992L-86.82841954838334,-17.485828967706155L-66.68472389624542,16.762172813488707z" style="fill:rgb(203,77,216)"/><path d="M-67.25818958473587,17.41409189722935L-89.62188901207831,-18.38298998496272L-69.434548229109,15.814906969488337z" style="fill:rgb(34,46,160)"/><path d="M93.61008943371263,-73.29619275502981L76.00660045651743,-122.26465194244095L78.93627360913864,-110.26972371203937z" style="fill:rgb(246,167,149)"/><path d="M-20.2355009248575,-184.9117389054953L-108.99375875641195,-53.431518113642554L16.785354716478064,-187.60122386275478zM-130.34262178716943,-81.26303309470488L-126.88412991206668,-106.73165330258404L-130.3634623982633,-93.65450797657044z" style="fill:rgb(83,212,212)"/><path d="M-66.68472389624542,16.762172813488707L-87.42831348337529,-16.82445124431242L-67.25818958473587,17.41409189722935z" style="fill:rgb(220,94,208)"/><path d="M1.100758716984572,-60.33386133016209L7.541687721006461e-15,-21.111304974590656L18.442050902973058,-24.615393165217505z" style="fill:rgb(115,34,214)"/><path d="M69.67704835215426,-17.93015867655867L101.14495320247033,45.676250421326664L72.0865513400387,-20.86143828894883z" style="fill:rgb(220,94,208)"/><path d="M-97.71086775717481,-24.130250188861037L-74.49390351593408,12.097304687171164L-94.71973518042734,-22.005036269171114zM68.95751278599504,-18.16469099359207L98.83259241784538,48.648812453213466L69.5709148911399,-17.80104336357239z" style="fill:rgb(34,46,160)"/><path d="M69.5709148911399,-17.80104336357239L98.93014459437998,48.523412945251344L69.67704835215426,-17.93015867655867z" style="fill:rgb(220,94,208)"/><path d="M93.42824334193634,-69.30657935997358L78.10711852854658,-96.87125710885682L92.99746727784026,-59.85573998294307z" style="fill:rgb(246,149,167)"/><path d="M-35.83105349707963,-6.447876283685066L-36.673564386106705,-50.05064145050193L-54.80220582606245,-41.21241439547325z" style="fill:rgb(162,50,222)"/><path d="M78.69022488176486,-106.29377642499716L93.61008943371263,-73.29619275502981L78.93627360913864,-110.26972371203937z" style="fill:rgb(246,149,167)"/><path d="M-52.136075657282554,4.238415759226992L-54.80220582606245,-41.21241439547325L-71.69362858137231,-30.251901364879963z" style="fill:rgb(183,62,221)"/><path d="M-18.27546855916046,-14.985144492915774L-17.85084533404605,-56.49769234681658L-36.673564386106705,-50.05064145050193z" style="fill:rgb(139,40,220)"/><path d="M-94.71973518042734,-22.005036269171114L-69.434548229109,15.814906969488337L-89.62188901207831,-18.38298998496272z" style="fill:rgb(34,46,160)"/><path d="M-103.499573904157,-31.757248547551264L-126.67420928700827,-70.04841109527582L-105.10941130034955,-33.87830719268628z" style="fill:rgb(21,57,142)"/><path d="M-86.82841954838334,-17.485828967706155L-52.136075657282554,4.238415759226992L-71.69362858137231,-30.251901364879963z" style="fill:rgb(203,77,216)"/><path d="M19.595686635918895,-61.39283190865547L18.442050902973058,-24.615393165217505L36.477050387084084,-25.34189329675823z" style="fill:rgb(92,32,204)"/><path d="M-110.508585343786,-133.07004244607006L-126.67420928700827,-70.04841109527582L-125.07905047733034,-67.97149951376713z" style="fill:rgb(83,212,212)"/><path d="M7.541687721006461e-15,-21.111304974590656L1.100758716984572,-60.33386133016209L-17.85084533404605,-56.49769234681658z" style="fill:rgb(115,34,214)"/><path d="M-126.88412991206668,-106.73165330258404L-130.34262178716943,-81.26303309470488L-126.67420928700827,-70.04841109527582z" style="fill:rgb(83,212,212)"/><path d="M92.99746727784026,-59.85573998294307L75.32173148502015,-88.41061082084079L90.40607712382811,-51.41652366732073z" style="fill:rgb(242,130,183)"/><path d="M-89.62188901207831,-18.38298998496272L-67.25818958473587,17.41409189722935L-87.42831348337529,-16.82445124431242z" style="fill:rgb(34,46,160)"/><path d="M78.10711852854658,-96.87125710885682L93.42824334193634,-69.30657935997358L78.69022488176486,-106.29377642499716z" style="fill:rgb(246,149,167)"/><path d="M-87.42831348337529,-16.82445124431242L-66.68472389624542,16.762172813488707L-86.82841954838334,-17.485828967706155z" style="fill:rgb(220,94,208)"/><path d="M43.727205246999155,-179.61222280461388L58.74163430927777,-164.26657501238765L44.42777896476944,-179.30719972702556z" style="fill:rgb(83,212,212)"/><path d="M-97.71086775717481,-24.130250188861037L-125.07905047733034,-67.97149951376713L-103.499573904157,-31.757248547551264z" style="fill:rgb(21,57,142)"/><path d="M43.727205246999155,-179.61222280461388L16.785354716478064,-187.60122386275478L-108.36508944425424,-54.10212367083825zM-119.34034578263147,-60.499652814908224L-107.81491959213989,-135.8138136960793L-125.07905047733034,-67.97149951376713z" style="fill:rgb(83,212,212)"/><path d="M90.40607712382811,-51.41652366732073L73.40415826014954,-82.58595697200343L88.62276139226638,-45.608893807382096z" style="fill:rgb(242,130,183)"/><path d="M60.45233623821381,-161.61260259910037L78.93627360913864,-110.26972371203937L76.00660045651743,-122.26465194244095z" style="fill:rgb(246,167,149)"/><path d="M18.442050902973058,-24.615393165217505L19.595686635918895,-61.39283190865547L1.100758716984572,-60.33386133016209z" style="fill:rgb(92,32,204)"/><path d="M44.42777896476944,-179.30719972702556L58.74163430927777,-164.26657501238765L54.04438400472614,-171.5538892173494z" style="fill:rgb(83,212,212)"/><path d="M37.03157370018774,-59.569115992175696L36.477050387084084,-25.34189329675823L53.515080062508666,-23.198135573666548z" style="fill:rgb(71,33,192)"/><path d="M-111.20175644923405,-54.93988241759951L-63.41301933876485,-169.20534048889078L-116.33153575015531,-58.444222484414325zM-107.81491959213989,-135.8138136960793L-119.34034578263147,-60.499652814908224L-116.33153575015531,-58.444222484414325z" style="fill:rgb(83,212,212)"/><path d="M75.32173148502015,-88.41061082084079L92.99746727784026,-59.85573998294307L78.10711852854658,-96.87125710885682z" style="fill:rgb(242,130,183)"/><path d="M-126.67420928700827,-70.04841109527582L-103.499573904157,-31.757248547551264L-125.07905047733034,-67.97149951376713z" style="fill:rgb(21,57,142)"/><path d="M88.62276139226638,-45.608893807382096L68.36111468028145,-73.94864646931187L83.83581165749817,-37.04055274042756z" style="fill:rgb(233,112,197)"/><path d="M-94.71973518042734,-22.005036269171114L-119.34034578263147,-60.499652814908224L-97.71086775717481,-24.130250188861037z" style="fill:rgb(34,46,160)"/><path d="M-108.99375875641195,-53.431518113642554L-20.2355009248575,-184.9117389054953L-111.20175644923405,-54.93988241759951z" style="fill:rgb(83,212,212)"/><path d="M73.40415826014954,-82.58595697200343L90.40607712382811,-51.41652366732073L75.32173148502015,-88.41061082084079z" style="fill:rgb(242,130,183)"/><path d="M68.95751278599504,-18.16469099359207L37.03157370018774,-59.569115992175696L53.515080062508666,-23.198135573666548z" style="fill:rgb(51,38,177)"/><path d="M36.477050387084084,-25.34189329675823L37.03157370018774,-59.569115992175696L19.595686635918895,-61.39283190865547z" style="fill:rgb(71,33,192)"/><path d="M83.83581165749817,-37.04055274042756L64.8955190723154,-68.01306263683644L80.54731120975426,-31.154348331576482z" style="fill:rgb(233,112,197)"/><path d="M-56.33484081784242,-87.52367599858972L-54.80220582606245,-41.21241439547325L-36.673564386106705,-50.05064145050193z" style="fill:rgb(162,50,222)"/><path d="M99.91117934164862,13.094157731980022L132.05470035368614,95.07912736757368L128.39264991158038,80.25401641187753z" style="fill:rgb(246,167,149)"/><path d="M-89.62188901207831,-18.38298998496272L-116.33153575015531,-58.444222484414325L-94.71973518042734,-22.005036269171114z" style="fill:rgb(34,46,160)"/><path d="M-75.07519639718298,-78.36256838251532L-71.69362858137231,-30.251901364879963L-54.80220582606245,-41.21241439547325z" style="fill:rgb(183,62,221)"/><path d="M-125.07905047733034,-67.97149951376713L-97.71086775717481,-24.130250188861037L-119.34034578263147,-60.499652814908224z" style="fill:rgb(21,57,142)"/><path d="M58.74163430927777,-164.26657501238765L43.727205246999155,-179.61222280461388L-92.59650607148049,-67.1147302856067z" style="fill:rgb(83,212,212)"/><path d="M78.93627360913864,-110.26972371203937L62.9369498234998,-145.82890732296661L78.69022488176486,-106.29377642499716z" style="fill:rgb(246,149,167)"/><path d="M-36.931521612548536,-94.3220188411682L-36.673564386106705,-50.05064145050193L-17.85084533404605,-56.49769234681658z" style="fill:rgb(139,40,220)"/><path d="M80.54731120975426,-31.154348331576482L61.30800615742086,-63.78117296906004L77.11510782205403,-26.97891417430277z" style="fill:rgb(220,94,208)"/><path d="M68.36111468028145,-73.94864646931187L88.62276139226638,-45.608893807382096L73.40415826014954,-82.58595697200343z" style="fill:rgb(233,112,197)"/><path d="M-71.69362858137231,-30.251901364879963L-108.36508944425424,-54.10212367083825L-86.82841954838334,-17.485828967706155z" style="fill:rgb(203,77,216)"/><path d="M-87.42831348337529,-16.82445124431242L-111.20175644923405,-54.93988241759951L-89.62188901207831,-18.38298998496272z" style="fill:rgb(34,46,160)"/><path d="M77.11510782205403,-26.97891417430277L56.05088399101085,-57.57978269569036L72.0865513400387,-20.86143828894883z" style="fill:rgb(220,94,208)"/><path d="M78.93627360913864,-110.26972371203937L60.45233623821381,-161.61260259910037L63.25573977282015,-149.77985489153585z" style="fill:rgb(246,167,149)"/><path d="M-86.82841954838334,-17.485828967706155L-108.99375875641195,-53.431518113642554L-87.42831348337529,-16.82445124431242z" style="fill:rgb(220,94,208)"/><path d="M-17.44275848510375,-98.52858904209111L-17.85084533404605,-56.49769234681658L1.100758716984572,-60.33386133016209z" style="fill:rgb(115,34,214)"/><path d="M72.0865513400387,-20.86143828894883L53.53143086933688,-54.60778358818601L69.67704835215426,-17.93015867655867z" style="fill:rgb(220,94,208)"/><path d="M69.5709148911399,-17.80104336357239L52.79653543289852,-54.82876001462508L68.95751278599504,-18.16469099359207zM-119.34034578263147,-60.499652814908224L-94.71973518042734,-22.005036269171114L-116.33153575015531,-58.444222484414325z" style="fill:rgb(34,46,160)"/><path d="M69.67704835215426,-17.93015867655867L53.42044785575529,-54.476869788616426L69.5709148911399,-17.80104336357239z" style="fill:rgb(220,94,208)"/><path d="M-33.061554332339846,190.51669957695717L-85.52515685211867,119.29780225492631L-44.565080032215306,180.0699233898068z" style="fill:rgb(34,46,160)"/><path d="M64.8955190723154,-68.01306263683644L83.83581165749817,-37.04055274042756L68.36111468028145,-73.94864646931187z" style="fill:rgb(233,112,197)"/><path d="M78.69022488176486,-106.29377642499716L62.18109691056962,-136.46134293326614L78.10711852854658,-96.87125710885682z" style="fill:rgb(246,149,167)"/><path d="M-54.80220582606245,-41.21241439547325L-56.33484081784242,-87.52367599858972L-75.07519639718298,-78.36256838251532z" style="fill:rgb(162,50,222)"/><path d="M62.9369498234998,-145.82890732296661L78.93627360913864,-110.26972371203937L63.25573977282015,-149.77985489153585z" style="fill:rgb(246,149,167)"/><path d="M58.74163430927777,-164.26657501238765L62.9369498234998,-145.82890732296661L60.45233623821381,-161.61260259910037z" style="fill:rgb(83,212,212)"/><path d="M-71.69362858137231,-30.251901364879963L-75.07519639718298,-78.36256838251532L-92.59650607148049,-67.1147302856067z" style="fill:rgb(183,62,221)"/><path d="M-36.673564386106705,-50.05064145050193L-36.931521612548536,-94.3220188411682L-56.33484081784242,-87.52367599858972z" style="fill:rgb(139,40,220)"/><path d="M61.30800615742086,-63.78117296906004L80.54731120975426,-31.154348331576482L64.8955190723154,-68.01306263683644z" style="fill:rgb(220,94,208)"/><path d="M-116.33153575015531,-58.444222484414325L-89.62188901207831,-18.38298998496272L-111.20175644923405,-54.93988241759951z" style="fill:rgb(34,46,160)"/><path d="M37.03157370018774,-59.569115992175696L68.95751278599504,-18.16469099359207L52.79653543289852,-54.82876001462508z" style="fill:rgb(51,38,177)"/><path d="M-108.36508944425424,-54.10212367083825L-71.69362858137231,-30.251901364879963L-92.59650607148049,-67.1147302856067z" style="fill:rgb(203,77,216)"/><path d="M1.5335406955956021,-99.96538420600359L1.100758716984572,-60.33386133016209L19.595686635918895,-61.39283190865547z" style="fill:rgb(92,32,204)"/><path d="M56.05088399101085,-57.57978269569036L77.11510782205403,-26.97891417430277L61.30800615742086,-63.78117296906004z" style="fill:rgb(220,94,208)"/><path d="M-17.85084533404605,-56.49769234681658L-17.44275848510375,-98.52858904209111L-36.931521612548536,-94.3220188411682z" style="fill:rgb(115,34,214)"/><path d="M62.9369498234998,-145.82890732296661L58.74163430927777,-164.26657501238765L-75.07519639718298,-78.36256838251532z" style="fill:rgb(83,212,212)"/><path d="M78.10711852854658,-96.87125710885682L59.18046338151132,-127.99678685803437L75.32173148502015,-88.41061082084079z" style="fill:rgb(242,130,183)"/><path d="M-111.20175644923405,-54.93988241759951L-87.42831348337529,-16.82445124431242L-108.99375875641195,-53.431518113642554z" style="fill:rgb(34,46,160)"/><path d="M62.18109691056962,-136.46134293326614L78.69022488176486,-106.29377642499716L62.9369498234998,-145.82890732296661z" style="fill:rgb(246,149,167)"/><path d="M60.45233623821381,-161.61260259910037L62.9369498234998,-145.82890732296661L63.25573977282015,-149.77985489153585z" style="fill:rgb(83,212,212)"/><path d="M-108.99375875641195,-53.431518113642554L-86.82841954838334,-17.485828967706155L-108.36508944425424,-54.10212367083825zM53.53143086933688,-54.60778358818601L72.0865513400387,-20.86143828894883L56.05088399101085,-57.57978269569036z" style="fill:rgb(220,94,208)"/><path d="M132.05470035368614,95.07912736757368L102.86602036509555,44.27210503943187L131.93501429224006,111.19273700134612z" style="fill:rgb(246,149,167)"/><path d="M52.79653543289852,-54.82876001462508L69.5709148911399,-17.80104336357239L53.42044785575529,-54.476869788616426z" style="fill:rgb(34,46,160)"/><path d="M53.42044785575529,-54.476869788616426L69.67704835215426,-17.93015867655867L53.53143086933688,-54.60778358818601z" style="fill:rgb(220,94,208)"/><path d="M-18.532541747979394,198.2902799561557L-73.79777543221857,129.6028155897276L-33.061554332339846,190.51669957695717z" style="fill:rgb(51,38,177)"/><path d="M75.32173148502015,-88.41061082084079L57.113839183222964,-122.1669975392976L73.40415826014954,-82.58595697200343z" style="fill:rgb(242,130,183)"/><path d="M1.100758716984572,-60.33386133016209L1.5335406955956021,-99.96538420600359L-17.44275848510375,-98.52858904209111z" style="fill:rgb(92,32,204)"/><path d="M19.382094908139415,-98.51282364355886L19.595686635918895,-61.39283190865547L37.03157370018774,-59.569115992175696z" style="fill:rgb(71,33,192)"/><path d="M59.18046338151132,-127.99678685803437L78.10711852854658,-96.87125710885682L62.18109691056962,-136.46134293326614z" style="fill:rgb(242,130,183)"/><path d="M132.05470035368614,95.07912736757368L99.91117934164862,13.094157731980022L103.40370768115737,27.958539734478038z" style="fill:rgb(246,167,149)"/><path d="M73.40415826014954,-82.58595697200343L51.78981956847996,-113.47217553587416L68.36111468028145,-73.94864646931187z" style="fill:rgb(233,112,197)"/><path d="M59.18046338151132,-127.99678685803437L62.9369498234998,-145.82890732296661L-56.33484081784242,-87.52367599858972z" style="fill:rgb(83,212,212)"/><path d="M131.93501429224006,111.19273700134612L98.14848360129426,61.394436094390265L127.88761180651615,127.95744506639012zM57.113839183222964,-122.1669975392976L75.32173148502015,-88.41061082084079L59.18046338151132,-127.99678685803437z" style="fill:rgb(242,130,183)"/><path d="M52.79653543289852,-54.82876001462508L19.382094908139415,-98.51282364355886L37.03157370018774,-59.569115992175696z" style="fill:rgb(51,38,177)"/><path d="M19.595686635918895,-61.39283190865547L19.382094908139415,-98.51282364355886L1.5335406955956021,-99.96538420600359z" style="fill:rgb(71,33,192)"/><path d="M68.36111468028145,-73.94864646931187L48.129826410729194,-107.49492452596229L64.8955190723154,-68.01306263683644z" style="fill:rgb(233,112,197)"/><path d="M62.9369498234998,-145.82890732296661L59.18046338151132,-127.99678685803437L62.18109691056962,-136.46134293326614z" style="fill:rgb(83,212,212)"/><path d="M-85.52515685211867,119.29780225492631L-33.061554332339846,190.51669957695717L-73.79777543221857,129.6028155897276z" style="fill:rgb(34,46,160)"/><path d="M64.8955190723154,-68.01306263683644L44.37319010868405,-103.20899640496624L61.30800615742086,-63.78117296906004z" style="fill:rgb(220,94,208)"/><path d="M102.86602036509555,44.27210503943187L132.05470035368614,95.07912736757368L103.40370768115737,27.958539734478038z" style="fill:rgb(246,149,167)"/><path d="M51.78981956847996,-113.47217553587416L73.40415826014954,-82.58595697200343L57.113839183222964,-122.1669975392976z" style="fill:rgb(233,112,197)"/><path d="M-40.951278551545975,141.40536499051174L-18.532541747979394,198.2902799561557L-1.4990736194327121,202.95051615353236z" style="fill:rgb(71,33,192)"/><path d="M61.30800615742086,-63.78117296906004L38.86709038185355,-96.92709897605036L56.05088399101085,-57.57978269569036z" style="fill:rgb(220,94,208)"/><path d="M51.78981956847996,-113.47217553587416L59.18046338151132,-127.99678685803437L-36.931521612548536,-94.3220188411682zM-93.6075448777244,106.74154725567706L102.69388105936447,44.896854501494474L-97.73323780081834,93.03952335480514z" style="fill:rgb(83,212,212)"/><path d="M56.05088399101085,-57.57978269569036L36.227830193423465,-93.9159684374746L53.53143086933688,-54.60778358818601z" style="fill:rgb(220,94,208)"/><path d="M53.42044785575529,-54.476869788616426L35.477193693748866,-94.12079924882786L52.79653543289852,-54.82876001462508z" style="fill:rgb(34,46,160)"/><path d="M127.88761180651615,127.95744506639012L89.2999779829211,78.59312655373141L119.94992373879124,144.65608814885746z" style="fill:rgb(233,112,197)"/><path d="M53.53143086933688,-54.60778358818601L36.111562398361414,-93.78331694937849L53.42044785575529,-54.476869788616426z" style="fill:rgb(220,94,208)"/><path d="M48.129826410729194,-107.49492452596229L68.36111468028145,-73.94864646931187L51.78981956847996,-113.47217553587416z" style="fill:rgb(233,112,197)"/><path d="M44.37319010868405,-103.20899640496624L64.8955190723154,-68.01306263683644L48.129826410729194,-107.49492452596229z" style="fill:rgb(220,94,208)"/><path d="M59.18046338151132,-127.99678685803437L51.78981956847996,-113.47217553587416L57.113839183222964,-122.1669975392976z" style="fill:rgb(83,212,212)"/><path d="M-21.074073314095063,142.15099047255546L-1.4990736194327121,202.95051615353236L17.354214267133553,204.18621464434906z" style="fill:rgb(92,32,204)"/><path d="M44.37319010868405,-103.20899640496624L51.78981956847996,-113.47217553587416L-17.44275848510375,-98.52858904209111z" style="fill:rgb(83,212,212)"/><path d="M19.382094908139415,-98.51282364355886L52.79653543289852,-54.82876001462508L35.477193693748866,-94.12079924882786zM-73.79777543221857,129.6028155897276L-18.532541747979394,198.2902799561557L-58.76341298875589,137.11994272582314z" style="fill:rgb(51,38,177)"/><path d="M38.86709038185355,-96.92709897605036L61.30800615742086,-63.78117296906004L44.37319010868405,-103.20899640496624z" style="fill:rgb(220,94,208)"/><path d="M98.14848360129426,61.394436094390265L131.93501429224006,111.19273700134612L102.86602036509555,44.27210503943187z" style="fill:rgb(242,130,183)"/><path d="M102.69388105936447,44.896854501494474L-93.6075448777244,106.74154725567706L-85.52515685211867,119.29780225492631z" style="fill:rgb(83,212,212)"/><path d="M119.94992373879124,144.65608814885746L76.59144285797669,95.08103937443249L108.36364491716628,160.52861086828548zM36.227830193423465,-93.9159684374746L56.05088399101085,-57.57978269569036L38.86709038185355,-96.92709897605036z" style="fill:rgb(220,94,208)"/><path d="M35.477193693748866,-94.12079924882786L53.42044785575529,-54.476869788616426L36.111562398361414,-93.78331694937849z" style="fill:rgb(34,46,160)"/><path d="M36.111562398361414,-93.78331694937849L53.53143086933688,-54.60778358818601L36.227830193423465,-93.9159684374746z" style="fill:rgb(220,94,208)"/><path d="M44.37319010868405,-103.20899640496624L1.5335406955956021,-99.96538420600359L38.86709038185355,-96.92709897605036z" style="fill:rgb(83,212,212)"/><path d="M4.8958998377547136e-14,139.22233138045803L17.354214267133553,204.18621464434906L37.20706743827199,201.85068565852947z" style="fill:rgb(115,34,214)"/><path d="M84.1240225348437,-24.13225091563269L103.40370768115737,27.958539734478038L99.91117934164862,13.094157731980022z" style="fill:rgb(246,167,149)"/><path d="M51.78981956847996,-113.47217553587416L44.37319010868405,-103.20899640496624L48.129826410729194,-107.49492452596229z" style="fill:rgb(83,212,212)"/><path d="M108.36364491716628,160.52861086828548L60.521198037559714,110.06630389623857L93.57941898800478,174.81994329804056z" style="fill:rgb(203,77,216)"/><path d="M-18.532541747979394,198.2902799561557L-40.951278551545975,141.40536499051174L-58.76341298875589,137.11994272582314z" style="fill:rgb(71,33,192)"/><path d="M60.521198037559714,110.06630389623857L76.24113645963588,186.83391355142197L93.57941898800478,174.81994329804056z" style="fill:rgb(183,62,221)"/><path d="M21.295890499598052,132.68445622824532L37.20706743827199,201.85068565852947L57.14938553065258,195.98651185619894z" style="fill:rgb(139,40,220)"/><path d="M38.86709038185355,-96.92709897605036L19.382094908139415,-98.51282364355886L36.227830193423465,-93.9159684374746z" style="fill:rgb(83,212,212)"/><path d="M-97.73323780081834,93.03952335480514L86.5183276968283,7.696725395729851L-120.20661785504049,59.40715148811567z" style="fill:rgb(127,37,217)"/><path d="M102.69388105936447,44.896854501494474L-85.52515685211867,119.29780225492631L-73.79777543221857,129.6028155897276z" style="fill:rgb(83,212,212)"/><path d="M41.79727128180636,122.81005720934867L57.14938553065258,195.98651185619894L76.24113645963588,186.83391355142197z" style="fill:rgb(162,50,222)"/><path d="M89.2999779829211,78.59312655373141L127.88761180651615,127.95744506639012L98.14848360129426,61.394436094390265z" style="fill:rgb(233,112,197)"/><path d="M86.5183276968283,7.696725395729851L-97.73323780081834,93.03952335480514L102.69388105936447,44.896854501494474z" style="fill:rgb(127,37,217)"/><path d="M36.227830193423465,-93.9159684374746L35.477193693748866,-94.12079924882786L36.111562398361414,-93.78331694937849z" style="fill:rgb(83,212,212)"/><path d="M-1.4990736194327121,202.95051615353236L-21.074073314095063,142.15099047255546L-40.951278551545975,141.40536499051174z" style="fill:rgb(92,32,204)"/><path d="M-121.87240831658113,-39.693749623577574L-120.8152077170358,59.296464886063156L-108.36508944425424,-54.10212367083825zM-132.64101510129632,-24.30764085383631L-132.70294424867873,49.300524700474405L-121.87240831658113,-39.693749623577574zM102.69388105936447,44.896854501494474L-73.79777543221857,129.6028155897276L-58.76341298875589,137.11994272582314zM-108.36508944425424,-54.10212367083825L-105.2876578289474,66.38064908542712L-92.59650607148049,-67.1147302856067zM-140.2353218202926,-8.412385655269217L-140.6297463240297,36.93294818218044L-132.64101510129632,-24.30764085383631z" style="fill:rgb(83,212,212)"/><path d="M76.59144285797669,95.08103937443249L119.94992373879124,144.65608814885746L89.2999779829211,78.59312655373141z" style="fill:rgb(220,94,208)"/><path d="M-92.59650607148049,-67.1147302856067L-86.65309907013844,70.11087239490544L-75.07519639718298,-78.36256838251532z" style="fill:rgb(83,212,212)"/><path d="M103.40370768115737,27.958539734478038L84.1240225348437,-24.13225091563269L87.49829693331533,-9.303043328488895z" style="fill:rgb(246,167,149)"/><path d="M-144.47208745312633,22.787495473814875L-140.2353218202926,-8.412385655269217L-144.27791631249534,7.473666597922907zM-75.07519639718298,-78.36256838251532L-65.65190755874062,70.18849117892616L-56.33484081784242,-87.52367599858972z" style="fill:rgb(83,212,212)"/><path d="M103.40370768115737,27.958539734478038L86.70478265764396,7.0668343942063405L102.86602036509555,44.27210503943187z" style="fill:rgb(246,149,167)"/><path d="M17.354214267133553,204.18621464434906L4.8958998377547136e-14,139.22233138045803L-21.074073314095063,142.15099047255546z" style="fill:rgb(115,34,214)"/><path d="M102.69388105936447,44.896854501494474L-58.76341298875589,137.11994272582314L-40.951278551545975,141.40536499051174z" style="fill:rgb(83,212,212)"/><path d="M60.521198037559714,110.06630389623857L108.36364491716628,160.52861086828548L76.59144285797669,95.08103937443249z" style="fill:rgb(203,77,216)"/><path d="M-56.33484081784242,-87.52367599858972L-43.2046354071726,66.49862840799122L-36.931521612548536,-94.3220188411682zM102.69388105936447,44.896854501494474L89.2999779829211,78.59312655373141L98.14848360129426,61.394436094390265z" style="fill:rgb(83,212,212)"/><path d="M102.86602036509555,44.27210503943187L86.5183276968283,7.696725395729851L102.69388105936447,44.896854501494474z" style="fill:rgb(242,130,183)"/><path d="M37.20706743827199,201.85068565852947L21.295890499598052,132.68445622824532L5.4150405012856474e-14,139.22233138045803z" style="fill:rgb(139,40,220)"/><path d="M86.70478265764396,7.0668343942063405L103.40370768115737,27.958539734478038L87.49829693331533,-9.303043328488895z" style="fill:rgb(246,149,167)"/><path d="M-36.931521612548536,-94.3220188411682L-20.360390510089392,59.137141206994976L-17.44275848510375,-98.52858904209111z" style="fill:rgb(83,212,212)"/><path d="M76.24113645963588,186.83391355142197L60.521198037559714,110.06630389623857L41.79727128180636,122.81005720934867z" style="fill:rgb(183,62,221)"/><path d="M57.14938553065258,195.98651185619894L41.79727128180636,122.81005720934867L21.295890499598052,132.68445622824532z" style="fill:rgb(162,50,222)"/><path d="M102.69388105936447,44.896854501494474L-40.951278551545975,141.40536499051174L-21.074073314095063,142.15099047255546zM-140.2353218202926,-8.412385655269217L-144.47208745312633,22.787495473814875L-140.6297463240297,36.93294818218044zM102.69388105936447,44.896854501494474L76.59144285797669,95.08103937443249L89.2999779829211,78.59312655373141zM-17.44275848510375,-98.52858904209111L1.775320681984143,48.417738079949636L1.5335406955956021,-99.96538420600359zM102.69388105936447,44.896854501494474L-21.074073314095063,142.15099047255546L-1.829180552699e-13,139.22233138045803zM102.69388105936447,44.896854501494474L60.521198037559714,110.06630389623857L76.59144285797669,95.08103937443249zM-132.64101510129632,-24.30764085383631L-140.6297463240297,36.93294818218044L-132.70294424867873,49.300524700474405z" style="fill:rgb(83,212,212)"/><path d="M67.15105339324936,-64.15483867919987L87.49829693331533,-9.303043328488895L84.1240225348437,-24.13225091563269z" style="fill:rgb(246,167,149)"/><path d="M86.5183276968283,7.696725395729851L102.86602036509555,44.27210503943187L86.70478265764396,7.0668343942063405z" style="fill:rgb(242,130,183)"/><path d="M102.69388105936447,44.896854501494474L-1.829180552699e-13,139.22233138045803L21.295890499598052,132.68445622824532zM1.5335406955956021,-99.96538420600359L22.124457820116664,34.85571495130946L19.382094908139415,-98.51282364355886zM102.69388105936447,44.896854501494474L41.79727128180636,122.81005720934867L60.521198037559714,110.06630389623857zM102.69388105936447,44.896854501494474L21.295890499598052,132.68445622824532L41.79727128180636,122.81005720934867zM19.382094908139415,-98.51282364355886L39.719867590179575,19.129275406190324L35.477193693748866,-94.12079924882786zM-121.87240831658113,-39.693749623577574L-132.70294424867873,49.300524700474405L-120.8152077170358,59.296464886063156z" style="fill:rgb(83,212,212)"/><path d="M-96.43390621295747,95.75443081059811L-132.70294424867873,49.300524700474405L-108.25158460224793,85.5787927358122z" style="fill:rgb(34,46,160)"/><path d="M-108.36508944425424,-54.10212367083825L-120.8152077170358,59.296464886063156L-105.2876578289474,66.38064908542712zM35.477193693748866,-94.12079924882786L39.719867590179575,19.129275406190324L49.19551586918962,-86.82269367119511z" style="fill:rgb(83,212,212)"/><path d="M87.49829693331533,-9.303043328488895L67.15105339324936,-64.15483867919987L70.37879601101227,-49.408845304260396z" style="fill:rgb(246,167,149)"/><path d="M49.19551586918962,-86.82269367119511L63.73522079600066,-15.630356766460775L59.93647631697347,-76.75135771056796z" style="fill:rgb(83,212,212)"/><path d="M87.49829693331533,-9.303043328488895L69.29095018907915,-33.02208560087687L86.70478265764396,7.0668343942063405z" style="fill:rgb(246,149,167)"/><path d="M-92.59650607148049,-67.1147302856067L-105.2876578289474,66.38064908542712L-86.65309907013844,70.11087239490544zM59.93647631697347,-76.75135771056796L69.29095018907915,-33.02208560087687L67.15105339324936,-64.15483867919987z" style="fill:rgb(83,212,212)"/><path d="M-81.15003936381686,103.08146669963637L-120.8152077170358,59.296464886063156L-96.43390621295747,95.75443081059811z" style="fill:rgb(51,38,177)"/><path d="M-132.70294424867873,49.300524700474405L-96.43390621295747,95.75443081059811L-120.8152077170358,59.296464886063156z" style="fill:rgb(34,46,160)"/><path d="M69.29095018907915,-33.02208560087687L87.49829693331533,-9.303043328488895L70.37879601101227,-49.408845304260396z" style="fill:rgb(246,149,167)"/><path d="M-75.07519639718298,-78.36256838251532L-86.65309907013844,70.11087239490544L-65.65190755874062,70.18849117892616z" style="fill:rgb(83,212,212)"/><path d="M86.70478265764396,7.0668343942063405L63.73522079600066,-15.630356766460775L81.59238758666919,24.338088109685124z" style="fill:rgb(242,130,183)"/><path d="M67.15105339324936,-64.15483867919987L69.29095018907915,-33.02208560087687L70.37879601101227,-49.408845304260396zM-56.33484081784242,-87.52367599858972L-65.65190755874062,70.18849117892616L-43.2046354071726,66.49862840799122zM59.93647631697347,-76.75135771056796L63.73522079600066,-15.630356766460775L69.29095018907915,-33.02208560087687zM-36.931521612548536,-94.3220188411682L-43.2046354071726,66.49862840799122L-20.360390510089392,59.137141206994976z" style="fill:rgb(83,212,212)"/><path d="M-120.8152077170358,59.296464886063156L-81.15003936381686,103.08146669963637L-105.2876578289474,66.38064908542712z" style="fill:rgb(51,38,177)"/><path d="M-86.65309907013844,70.11087239490544L-81.15003936381686,103.08146669963637L-62.93171127527455,107.11605528270044z" style="fill:rgb(71,33,192)"/><path d="M63.73522079600066,-15.630356766460775L86.70478265764396,7.0668343942063405L69.29095018907915,-33.02208560087687z" style="fill:rgb(242,130,183)"/><path d="M49.19551586918962,-86.82269367119511L53.77572032219278,2.0240493742615233L63.73522079600066,-15.630356766460775zM-17.44275848510375,-98.52858904209111L-20.360390510089392,59.137141206994976L1.775320681984143,48.417738079949636z" style="fill:rgb(83,212,212)"/><path d="M81.59238758666919,24.338088109685124L53.77572032219278,2.0240493742615233L72.217032304089,41.77250109190243z" style="fill:rgb(233,112,197)"/><path d="M1.5335406955956021,-99.96538420600359L1.775320681984143,48.417738079949636L22.124457820116664,34.85571495130946zM19.382094908139415,-98.51282364355886L22.124457820116664,34.85571495130946L39.719867590179575,19.129275406190324zM49.19551586918962,-86.82269367119511L39.719867590179575,19.129275406190324L53.77572032219278,2.0240493742615233z" style="fill:rgb(83,212,212)"/><path d="M-81.15003936381686,103.08146669963637L-86.65309907013844,70.11087239490544L-105.2876578289474,66.38064908542712z" style="fill:rgb(71,33,192)"/><path d="M-65.65190755874062,70.18849117892616L-62.93171127527455,107.11605528270044L-42.50558632492755,107.55386423255914z" style="fill:rgb(92,32,204)"/><path d="M53.77572032219278,2.0240493742615233L81.59238758666919,24.338088109685124L63.73522079600066,-15.630356766460775z" style="fill:rgb(233,112,197)"/><path d="M72.217032304089,41.77250109190243L39.719867590179575,19.129275406190324L58.86684102499965,58.570136978528495z" style="fill:rgb(220,94,208)"/><path d="M-43.2046354071726,66.49862840799122L-42.50558632492755,107.55386423255914L-20.76549780450994,104.2690480867182z" style="fill:rgb(115,34,214)"/><path d="M-62.93171127527455,107.11605528270044L-65.65190755874062,70.18849117892616L-86.65309907013844,70.11087239490544z" style="fill:rgb(92,32,204)"/><path d="M58.86684102499965,58.570136978528495L22.124457820116664,34.85571495130946L42.06782814419968,73.92030323522877z" style="fill:rgb(203,77,216)"/><path d="M-20.360390510089392,59.137141206994976L-20.76549780450994,104.2690480867182L1.2777212553758839,97.34086408445923z" style="fill:rgb(139,40,220)"/><path d="M22.124457820116664,34.85571495130946L22.564951594413095,87.06125391641928L42.06782814419968,73.92030323522877z" style="fill:rgb(183,62,221)"/><path d="M39.719867590179575,19.129275406190324L72.217032304089,41.77250109190243L53.77572032219278,2.0240493742615233z" style="fill:rgb(220,94,208)"/><path d="M1.775320681984143,48.417738079949636L1.2777212553758839,97.34086408445923L22.564951594413095,87.06125391641928z" style="fill:rgb(162,50,222)"/><path d="M-42.50558632492755,107.55386423255914L-43.2046354071726,66.49862840799122L-65.65190755874062,70.18849117892616z" style="fill:rgb(115,34,214)"/><path d="M22.124457820116664,34.85571495130946L58.86684102499965,58.570136978528495L39.719867590179575,19.129275406190324z" style="fill:rgb(203,77,216)"/><path d="M-20.76549780450994,104.2690480867182L-20.360390510089392,59.137141206994976L-43.2046354071726,66.49862840799122z" style="fill:rgb(139,40,220)"/><path d="M22.564951594413095,87.06125391641928L22.124457820116664,34.85571495130946L1.775320681984143,48.417738079949636z" style="fill:rgb(183,62,221)"/><path d="M1.2777212553758839,97.34086408445923L1.775320681984143,48.417738079949636L-20.360390510089392,59.137141206994976z" style="fill:rgb(162,50,222)"/></svg>
