<svg viewBox="-250 -250 500 500" width="500" height="500" xmlns="http://www.w3.org/2000/svg"><path d="M157.80944883742268,-68.03808920497198L114.15796746465927,-79.19968759861409L108.1851058442734,-79.13687069677773zM157.80944883742268,-68.03808920497198L124.99010795120945,-78.5652169038904L114.15796746465927,-79.19968759861409zM157.80944883742268,-68.03808920497198L134.8963303552455,-77.14924284707931L124.99010795120945,-78.5652169038904zM157.80944883742268,-68.03808920497198L143.75273674240862,-74.93170670906672L134.8963303552455,-77.14924284707931zM157.80944883742268,-68.03808920497198L151.43273419840514,-71.8975085432596L143.75273674240862,-74.93170670906672z" style="fill:rgb(82,237,172)"/><path d="M108.10559945732676,-79.3608852641443L-105.25300466827682,97.2379349633318L108.1851058442734,-79.13687069677773z" style="fill:rgb(217,127,217)"/><path d="M166.15520321208825,-57.8512675861287L218.32395569526835,98.70555630103095L215.93371431222675,90.52064757518521z" style="fill:rgb(246,166,151)"/><path d="M-155.6481853658441,81.13225834810264L-90.60862406830918,216.44538348503778L-86.4442811065049,223.91327302070025z" style="fill:rgb(15,71,152)"/><path d="M167.890229127798,-51.553819410632684L219.0534385956655,107.60658247188529L218.32395569526835,98.70555630103095z" style="fill:rgb(245,161,162)"/><path d="M157.80944883742268,-68.03808920497198L166.15520321208825,-57.8512675861287L162.7570688848437,-63.35284574912688z" style="fill:rgb(82,237,172)"/><path d="M-157.3212621115652,78.28106724360427L-158.96781069256897,75.4750258447927L-90.60862406830918,216.44538348503778z" style="fill:rgb(15,71,152)"/><path d="M82.25254510047927,-152.2220655725785L-144.5273272829372,13.197529472591093L108.10559945732676,-79.3608852641443z" style="fill:rgb(217,127,217)"/><path d="M-150.53169731872592,86.09134467959105L-86.4442811065049,223.91327302070025L-80.59096633957988,230.7208266693647z" style="fill:rgb(20,68,163)"/><path d="M166.15520321208825,-57.8512675861287L167.0157792053785,-54.72769304356507L218.32395569526835,98.70555630103095z" style="fill:rgb(246,166,151)"/><path d="M157.80944883742268,-68.03808920497198L108.1851058442734,-79.13687069677773L-105.25300466827682,97.2379349633318zM74.53699590980581,-182.5777127405901L-62.83337177849083,-194.48021833076783L-77.71256076030866,-188.54259052054843zM74.53699590980581,-182.5777127405901L-77.71256076030866,-188.54259052054843L-92.4832876394613,-182.35021259305964z" style="fill:rgb(82,237,172)"/><path d="M-155.6481853658441,81.13225834810264L-157.3212621115652,78.28106724360427L-90.60862406830918,216.44538348503778z" style="fill:rgb(15,71,152)"/><path d="M74.53699590980581,-182.5777127405901L-47.933643434718604,-200.12749581723483L-62.83337177849083,-194.48021833076783zM74.53699590980581,-182.5777127405901L-92.4832876394613,-182.35021259305964L-107.05801554218277,-175.9389606073008zM74.53699590980581,-182.5777127405901L-33.101983169773646,-205.44911364235867L-47.933643434718604,-200.12749581723483zM74.53699590980581,-182.5777127405901L-107.05801554218277,-175.9389606073008L-121.3486272545538,-169.34591862479633z" style="fill:rgb(82,237,172)"/><path d="M167.0157792053785,-54.72769304356507L167.890229127798,-51.553819410632684L218.32395569526835,98.70555630103095z" style="fill:rgb(246,166,151)"/><path d="M74.53699590980581,-182.5777127405901L-18.428686162627724,-210.4090966686221L-33.101983169773646,-205.44911364235867zM74.53699590980581,-182.5777127405901L-121.3486272545538,-169.34591862479633L-135.2652749132521,-162.6089124496426zM157.80944883742268,-68.03808920497198L167.890229127798,-51.553819410632684L166.15520321208825,-57.8512675861287z" style="fill:rgb(82,237,172)"/><path d="M167.86133060143862,-44.494049634942115L218.03815372812747,117.15026921620506L219.0534385956655,107.60658247188529z" style="fill:rgb(242,155,174)"/><path d="M74.53699590980581,-182.5777127405901L-4.006977732804123,-214.9714099604846L-18.428686162627724,-210.4090966686221zM74.53699590980581,-182.5777127405901L-135.2652749132521,-162.6089124496426L-148.71612241060595,-155.76732025430164z" style="fill:rgb(82,237,172)"/><path d="M-153.11021716097005,83.59221718253045L-155.6481853658441,81.13225834810264L-86.4442811065049,223.91327302070025z" style="fill:rgb(20,68,163)"/><path d="M74.53699590980581,-182.5777127405901L10.067075590892182,-219.09975127508235L-4.006977732804123,-214.9714099604846zM74.53699590980581,-182.5777127405901L-148.71612241060595,-155.76732025430164L-161.60657073759606,-148.86259634182073z" style="fill:rgb(82,237,172)"/><path d="M-143.59336275789556,90.25869227536673L-80.59096633957988,230.7208266693647L-73.04185146544333,236.75696954286585z" style="fill:rgb(26,66,175)"/><path d="M167.890229127798,-51.553819410632684L167.87591713674436,-48.05194159664463L219.0534385956655,107.60658247188529z" style="fill:rgb(245,161,162)"/><path d="M157.80944883742268,-68.03808920497198L167.86133060143862,-44.494049634942115L167.890229127798,-51.553819410632684z" style="fill:rgb(82,237,172)"/><path d="M-150.53169731872592,86.09134467959105L-153.11021716097005,83.59221718253045L-86.4442811065049,223.91327302070025z" style="fill:rgb(20,68,163)"/><path d="M74.53699590980581,-182.5777127405901L23.693180401960284,-222.75670328295877L10.067075590892182,-219.09975127508235zM74.53699590980581,-182.5777127405901L-161.60657073759606,-148.86259634182073L-173.83843212531903,-141.9384400942591z" style="fill:rgb(82,237,172)"/><path d="M167.87591713674436,-48.05194159664463L167.86133060143862,-44.494049634942115L219.0534385956655,107.60658247188529z" style="fill:rgb(245,161,162)"/><path d="M165.98318346124955,-36.71990510574134L215.21289003298673,127.24698565843723L218.03815372812747,117.15026921620506z" style="fill:rgb(239,149,184)"/><path d="M74.53699590980581,-182.5777127405901L36.76641293390958,-225.90451033332167L23.693180401960284,-222.75670328295877zM74.53699590980581,-182.5777127405901L-173.83843212531903,-141.9384400942591L-185.31042926087179,-135.0417837931861z" style="fill:rgb(82,237,172)"/><path d="M-147.08941102222434,88.15884083333773L-150.53169731872592,86.09134467959105L-80.59096633957988,230.7208266693647z" style="fill:rgb(26,66,175)"/><path d="M157.80944883742268,-68.03808920497198L165.98318346124955,-36.71990510574134L167.86133060143862,-44.494049634942115z" style="fill:rgb(82,237,172)"/><path d="M-134.8340571680689,93.5441953157641L-73.04185146544333,236.75696954286585L-63.81579214008255,241.91216890101546z" style="fill:rgb(32,65,185)"/><path d="M-194.24573136824114,1.8094996230452605L-158.96781069256897,75.4750258447927L-157.3212621115652,78.28106724360427z" style="fill:rgb(15,71,152)"/><path d="M167.86133060143862,-44.494049634942115L166.92952574232376,-40.63697305813254L218.03815372812747,117.15026921620506z" style="fill:rgb(242,155,174)"/><path d="M74.53699590980581,-182.5777127405901L49.17702174598458,-228.505043667014L36.76641293390958,-225.90451033332167zM74.53699590980581,-182.5777127405901L-185.31042926087179,-135.0417837931861L-195.91699369323297,-128.22226570901398z" style="fill:rgb(82,237,172)"/><path d="M-143.59336275789556,90.25869227536673L-147.08941102222434,88.15884083333773L-80.59096633957988,230.7208266693647z" style="fill:rgb(26,66,175)"/><path d="M166.92952574232376,-40.63697305813254L165.98318346124955,-36.71990510574134L218.03815372812747,117.15026921620506z" style="fill:rgb(242,155,174)"/><path d="M-193.5359980424555,2.9627811139128752L-157.3212621115652,78.28106724360427L-155.6481853658441,81.13225834810264z" style="fill:rgb(15,71,152)"/><path d="M162.1918123137063,-28.295098634692415L210.5363770506597,137.79024866966034L215.21289003298673,127.24698565843723z" style="fill:rgb(234,143,195)"/><path d="M-194.24573136824114,1.8094996230452605L-196.34017124287163,-1.5940188612228516L-158.96781069256897,75.4750258447927z" style="fill:rgb(15,71,152)"/><path d="M157.80944883742268,-68.03808920497198L162.1918123137063,-28.295098634692415L165.98318346124955,-36.71990510574134zM74.53699590980581,-182.5777127405901L60.81059298828004,-230.52009461325602L49.17702174598458,-228.505043667014zM74.53699590980581,-182.5777127405901L-195.91699369323297,-128.22226570901398L-205.5491778950156,-121.5332096869366z" style="fill:rgb(82,237,172)"/><path d="M-139.24634830078372,91.88909002019075L-143.59336275789556,90.25869227536673L-73.04185146544333,236.75696954286585z" style="fill:rgb(32,65,185)"/><path d="M-124.28585377774952,95.86505701401492L-63.81579214008255,241.91216890101546L-52.95981244065833,246.08208925010035z" style="fill:rgb(40,64,196)"/><path d="M-193.5359980424555,2.9627811139128752L-194.24573136824114,1.8094996230452605L-157.3212621115652,78.28106724360427z" style="fill:rgb(15,71,152)"/><path d="M165.98318346124955,-36.71990510574134L164.10169025748795,-32.5390185497927L215.21289003298673,127.24698565843723z" style="fill:rgb(239,149,184)"/><path d="M-190.0563457126453,5.826533245264542L-155.6481853658441,81.13225834810264L-153.11021716097005,83.59221718253045z" style="fill:rgb(20,68,163)"/><path d="M74.53699590980581,-182.5777127405901L71.54699551947681,-231.911561649042L60.81059298828004,-230.52009461325602zM74.53699590980581,-182.5777127405901L-205.5491778950156,-121.5332096869366L-214.09458223902885,-115.0314177504322z" style="fill:rgb(82,237,172)"/><path d="M-134.8340571680689,93.5441953157641L-139.24634830078372,91.88909002019075L-73.04185146544333,236.75696954286585z" style="fill:rgb(32,65,185)"/><path d="M157.80944883742268,-68.03808920497198L156.44926199508848,-19.299451195754752L162.1918123137063,-28.295098634692415z" style="fill:rgb(82,237,172)"/><path d="M156.44926199508848,-19.299451195754752L203.99535493672767,148.6581015761349L210.5363770506597,137.79024866966034z" style="fill:rgb(228,137,204)"/><path d="M164.10169025748795,-32.5390185497927L162.1918123137063,-28.295098634692415L215.21289003298673,127.24698565843723z" style="fill:rgb(239,149,184)"/><path d="M-188.87743909006892,6.796739138352276L-153.11021716097005,83.59221718253045L-150.53169731872592,86.09134467959105zM-190.0563457126453,5.826533245264542L-193.5359980424555,2.9627811139128752L-155.6481853658441,81.13225834810264z" style="fill:rgb(20,68,163)"/><path d="M138.94428913255885,-138.95710970491672L109.98699332129527,-225.26831222762715L139.2747471636667,-137.6856400138535z" style="fill:rgb(246,166,150)"/><path d="M74.53699590980581,-182.5777127405901L81.26217131992503,-232.64239399835418L71.54699551947681,-231.911561649042z" style="fill:rgb(82,237,172)"/><path d="M-112.0139476232968,97.14793251802146L-52.95981244065833,246.08208925010035L-40.553097133819385,249.17109991075063z" style="fill:rgb(49,63,205)"/><path d="M74.53699590980581,-182.5777127405901L-214.09458223902885,-115.0314177504322L-221.43818680826493,-108.77805280742942z" style="fill:rgb(82,237,172)"/><path d="M108.10559945732676,-79.3608852641443L-144.5273272829372,13.197529472591093L-105.25300466827682,97.2379349633318z" style="fill:rgb(217,127,217)"/><path d="M-129.59749533343117,94.69639977158324L-134.8340571680689,93.5441953157641L-63.81579214008255,241.91216890101546z" style="fill:rgb(40,64,196)"/><path d="M157.80944883742268,-68.03808920497198L148.74820822803446,-9.830108552712431L156.44926199508848,-19.299451195754752z" style="fill:rgb(82,237,172)"/><path d="M-194.24573136824114,1.8094996230452605L-236.1145588738755,-83.61635389451692L-196.34017124287163,-1.5940188612228516z" style="fill:rgb(15,71,152)"/><path d="M162.1918123137063,-28.295098634692415L159.34100192607858,-23.82925265902221L210.5363770506597,137.79024866966034z" style="fill:rgb(234,143,195)"/><path d="M-188.87743909006892,6.796739138352276L-190.0563457126453,5.826533245264542L-153.11021716097005,83.59221718253045z" style="fill:rgb(20,68,163)"/><path d="M-124.28585377774952,95.86505701401492L-129.59749533343117,94.69639977158324L-63.81579214008255,241.91216890101546z" style="fill:rgb(40,64,196)"/><path d="M-183.98543917362383,9.059434131097746L-150.53169731872592,86.09134467959105L-147.08941102222434,88.15884083333773z" style="fill:rgb(26,66,175)"/><path d="M148.74820822803446,-9.830108552712431L195.60826397244216,159.71342768312226L203.99535493672767,148.6581015761349z" style="fill:rgb(221,130,213)"/><path d="M74.53699590980581,-182.5777127405901L89.82776423802714,-232.67737832057608L81.26217131992503,-232.64239399835418z" style="fill:rgb(82,237,172)"/><path d="M159.34100192607858,-23.82925265902221L156.44926199508848,-19.299451195754752L210.5363770506597,137.79024866966034z" style="fill:rgb(234,143,195)"/><path d="M139.2747471636667,-137.6856400138535L110.87203257854395,-221.43142881374703L140.28236175503935,-133.80783137030514z" style="fill:rgb(246,166,151)"/><path d="M74.53699590980581,-182.5777127405901L-221.43818680826493,-108.77805280742942L-227.4637173455845,-102.83769679509784zM157.80944883742268,-68.03808920497198L139.1163923135686,0L148.74820822803446,-9.830108552712431z" style="fill:rgb(82,237,172)"/><path d="M-98.12072483274919,97.33278181580874L-40.553097133819385,249.17109991075063L-26.707413123625695,251.0956823737631z" style="fill:rgb(58,64,214)"/><path d="M-182.32860996543897,9.825851003980532L-147.08941102222434,88.15884083333773L-143.59336275789556,90.25869227536673z" style="fill:rgb(26,66,175)"/><path d="M-193.5359980424555,2.9627811139128752L-233.90069904870398,-80.31723171410249L-194.24573136824114,1.8094996230452605z" style="fill:rgb(15,71,152)"/><path d="M157.80944883742268,-68.03808920497198L-105.25300466827682,97.2379349633318L-98.12072483274919,97.33278181580874z" style="fill:rgb(82,237,172)"/><path d="M-183.98543917362383,9.059434131097746L-188.87743909006892,6.796739138352276L-150.53169731872592,86.09134467959105z" style="fill:rgb(26,66,175)"/><path d="M139.2747471636667,-137.6856400138535L109.98699332129527,-225.26831222762715L110.87203257854395,-221.43142881374703z" style="fill:rgb(246,166,151)"/><path d="M140.28236175503935,-133.80783137030514L110.87203257854395,-221.43142881374703L140.16271423824227,-132.34256496038245z" style="fill:rgb(245,161,162)"/><path d="M-118.1905760394655,96.50222243448489L-124.28585377774952,95.86505701401492L-52.95981244065833,246.08208925010035z" style="fill:rgb(49,63,205)"/><path d="M156.44926199508848,-19.299451195754752L152.6244751927807,-14.596542437673444L203.99535493672767,148.6581015761349z" style="fill:rgb(228,137,204)"/><path d="M139.1163923135686,0L185.4293124400802,170.80672377195214L195.60826397244216,159.71342768312226z" style="fill:rgb(213,124,221)"/><path d="M-194.24573136824114,1.8094996230452605L-233.90069904870398,-80.31723171410249L-236.1145588738755,-83.61635389451692z" style="fill:rgb(15,71,152)"/><path d="M74.53699590980581,-182.5777127405901L97.11321718527302,-231.98351979482192L89.82776423802714,-232.67737832057608z" style="fill:rgb(82,237,172)"/><path d="M-190.0563457126453,5.826533245264542L-233.90069904870398,-80.31723171410249L-193.5359980424555,2.9627811139128752z" style="fill:rgb(20,68,163)"/><path d="M157.80944883742268,-68.03808920497198L127.62027452807764,10.06279429701343L139.1163923135686,0z" style="fill:rgb(82,237,172)"/><path d="M-112.0139476232968,97.14793251802146L-118.1905760394655,96.50222243448489L-52.95981244065833,246.08208925010035z" style="fill:rgb(49,63,205)"/><path d="M74.53699590980581,-182.5777127405901L-227.4637173455845,-102.83769679509784L-232.0548059273413,-97.27870134769161zM157.80944883742268,-68.03808920497198L-98.12072483274919,97.33278181580874L-82.7466909758107,96.37626811668763z" style="fill:rgb(82,237,172)"/><path d="M82.25254510047927,-152.2220655725785L-144.65573299975352,12.922634981351957L-144.5273272829372,13.197529472591093z" style="fill:rgb(217,127,217)"/><path d="M-176.0164428613248,11.429414046228134L-143.59336275789556,90.25869227536673L-139.24634830078372,91.88909002019075z" style="fill:rgb(32,65,185)"/><path d="M-182.32860996543897,9.825851003980532L-183.98543917362383,9.059434131097746L-147.08941102222434,88.15884083333773z" style="fill:rgb(26,66,175)"/><path d="M152.6244751927807,-14.596542437673444L148.74820822803446,-9.830108552712431L203.99535493672767,148.6581015761349z" style="fill:rgb(228,137,204)"/><path d="M-82.7466909758107,96.37626811668763L-26.707413123625695,251.0956823737631L-11.569009361541005,251.78782564282832z" style="fill:rgb(69,65,222)"/><path d="M140.16271423824227,-132.34256496038245L109.87186862132013,-216.79068856875594L139.79808184875043,-127.87465154897889z" style="fill:rgb(245,161,162)"/><path d="M157.80944883742268,-68.03808920497198L114.36742145904046,20.21727100426031L127.62027452807764,10.06279429701343zM157.80944883742268,-68.03808920497198L-82.7466909758107,96.37626811668763L-66.0701647721839,94.25418936861495z" style="fill:rgb(82,237,172)"/><path d="M-173.87975910717375,11.972036739403594L-139.24634830078372,91.88909002019075L-134.8340571680689,93.5441953157641z" style="fill:rgb(32,65,185)"/><path d="M-105.10987094696728,97.23980227142684L-112.0139476232968,97.14793251802146L-40.553097133819385,249.17109991075063z" style="fill:rgb(58,64,214)"/><path d="M127.62027452807764,10.06279429701343L173.5493046287382,181.7779382344096L185.4293124400802,170.80672377195214z" style="fill:rgb(204,117,228)"/><path d="M74.53699590980581,-182.5777127405901L102.98712126053096,-230.53182363147545L97.11321718527302,-231.98351979482192z" style="fill:rgb(82,237,172)"/><path d="M-176.0164428613248,11.429414046228134L-182.32860996543897,9.825851003980532L-143.59336275789556,90.25869227536673z" style="fill:rgb(32,65,185)"/><path d="M74.53699590980581,-182.5777127405901L-232.0548059273413,-97.27870134769161L-235.09793276574123,-92.1725856242146z" style="fill:rgb(82,237,172)"/><path d="M-188.87743909006892,6.796739138352276L-229.77263736816195,-77.76958389204295L-190.0563457126453,5.826533245264542z" style="fill:rgb(20,68,163)"/><path d="M148.74820822803446,-9.830108552712431L143.9618399975124,-4.945316041047774L195.60826397244216,159.71342768312226z" style="fill:rgb(221,130,213)"/><path d="M140.16271423824227,-132.34256496038245L110.87203257854395,-221.43142881374703L109.87186862132013,-216.79068856875594z" style="fill:rgb(245,161,162)"/><path d="M139.79808184875043,-127.87465154897889L109.87186862132013,-216.79068856875594L139.20731258210822,-126.22329619076756z" style="fill:rgb(242,155,174)"/><path d="M-98.12072483274919,97.33278181580874L-105.10987094696728,97.23980227142684L-40.553097133819385,249.17109991075063z" style="fill:rgb(58,64,214)"/><path d="M157.80944883742268,-68.03808920497198L99.50647441553512,30.312640412871467L114.36742145904046,20.21727100426031z" style="fill:rgb(82,237,172)"/><path d="M-66.0701647721839,94.25418936861495L-11.569009361541005,251.78782564282832L4.682249415029563,251.1992393407102z" style="fill:rgb(79,66,228)"/><path d="M157.80944883742268,-68.03808920497198L-66.0701647721839,94.25418936861495L-48.3062320684293,90.96529846814995z" style="fill:rgb(82,237,172)"/><path d="M143.9618399975124,-4.945316041047774L139.1163923135686,0L195.60826397244216,159.71342768312226z" style="fill:rgb(221,130,213)"/><path d="M-190.0563457126453,5.826533245264542L-229.77263736816195,-77.76958389204295L-233.90069904870398,-80.31723171410249z" style="fill:rgb(20,68,163)"/><path d="M-183.98543917362383,9.059434131097746L-229.77263736816195,-77.76958389204295L-188.87743909006892,6.796739138352276z" style="fill:rgb(26,66,175)"/><path d="M-166.16325247896762,12.864236233880316L-134.8340571680689,93.5441953157641L-129.59749533343117,94.69639977158324z" style="fill:rgb(40,64,196)"/><path d="M-173.87975910717375,11.972036739403594L-176.0164428613248,11.429414046228134L-139.24634830078372,91.88909002019075z" style="fill:rgb(32,65,185)"/><path d="M114.36742145904046,20.21727100426031L160.09777481759565,192.46125855577213L173.5493046287382,181.7779382344096z" style="fill:rgb(195,111,234)"/><path d="M157.80944883742268,-68.03808920497198L83.22701057912407,40.191462110407194L99.50647441553512,30.312640412871467zM157.80944883742268,-68.03808920497198L-48.3062320684293,90.96529846814995L-29.702847335868736,86.53208664050284zM74.53699590980581,-182.5777127405901L107.32002092965745,-228.2990778416745L102.98712126053096,-230.53182363147545z" style="fill:rgb(82,237,172)"/><path d="M-90.47576273548128,96.85704376175299L-98.12072483274919,97.33278181580874L-26.707413123625695,251.0956823737631z" style="fill:rgb(69,65,222)"/><path d="M74.53699590980581,-182.5777127405901L-235.09793276574123,-92.1725856242146L-236.48443346208074,-87.59341356371853z" style="fill:rgb(82,237,172)"/><path d="M-48.3062320684293,90.96529846814995L4.682249415029563,251.1992393407102L21.835308570967005,249.30412897338567z" style="fill:rgb(91,68,234)"/><path d="M157.80944883742268,-68.03808920497198L65.75581299793605,49.695282870359065L83.22701057912407,40.191462110407194zM157.80944883742268,-68.03808920497198L-29.702847335868736,86.53208664050284L-10.535296651533562,81.00204387541174z" style="fill:rgb(82,237,172)"/><path d="M139.1163923135686,0L133.40006275351274,5.003521383210553L185.4293124400802,170.80672377195214z" style="fill:rgb(213,124,221)"/><path d="M-163.55314887020847,13.165963069476575L-129.59749533343117,94.69639977158324L-124.28585377774952,95.86505701401492z" style="fill:rgb(40,64,196)"/><path d="M139.20731258210822,-126.22329619076756L106.90117524211703,-211.36131819349592L137.40647774850484,-121.19000947727734z" style="fill:rgb(242,155,174)"/><path d="M-82.7466909758107,96.37626811668763L-90.47576273548128,96.85704376175299L-26.707413123625695,251.0956823737631z" style="fill:rgb(69,65,222)"/><path d="M157.80944883742268,-68.03808920497198L47.351925359239374,58.66850107973567L65.75581299793605,49.695282870359065zM157.80944883742268,-68.03808920497198L-10.535296651533562,81.00204387541174L8.901312034298815,74.44726465953947z" style="fill:rgb(82,237,172)"/><path d="M-166.16325247896762,12.864236233880316L-173.87975910717375,11.972036739403594L-134.8340571680689,93.5441953157641z" style="fill:rgb(40,64,196)"/><path d="M99.50647441553512,30.312640412871467L145.24135416554103,202.68898874214437L160.09777481759565,192.46125855577213z" style="fill:rgb(184,105,239)"/><path d="M157.80944883742268,-68.03808920497198L28.29999106402703,66.96389843692005L47.351925359239374,58.66850107973567z" style="fill:rgb(82,237,172)"/><path d="M133.40006275351274,5.003521383210553L127.62027452807764,10.06279429701343L185.4293124400802,170.80672377195214z" style="fill:rgb(213,124,221)"/><path d="M157.80944883742268,-68.03808920497198L8.901312034298815,74.44726465953947L28.29999106402703,66.96389843692005z" style="fill:rgb(82,237,172)"/><path d="M-182.32860996543897,9.825851003980532L-223.68178088577667,-76.04342585214249L-183.98543917362383,9.059434131097746z" style="fill:rgb(26,66,175)"/><path d="M137.40647774850484,-121.19000947727734L106.90117524211703,-211.36131819349592L136.32862165238214,-119.36422554032595z" style="fill:rgb(239,149,184)"/><path d="M-29.702847335868736,86.53208664050284L21.835308570967005,249.30412897338567L39.651853419220046,246.1012108390602z" style="fill:rgb(102,71,239)"/><path d="M139.20731258210822,-126.22329619076756L109.87186862132013,-216.79068856875594L106.90117524211703,-211.36131819349592z" style="fill:rgb(242,155,174)"/><path d="M-74.44830447863173,95.32021557651007L-82.7466909758107,96.37626811668763L-11.569009361541005,251.78782564282832z" style="fill:rgb(79,66,228)"/><path d="M74.53699590980581,-182.5777127405901L109.98699332129527,-225.26831222762715L107.32002092965745,-228.2990778416745z" style="fill:rgb(82,237,172)"/><path d="M-154.47376617549276,13.302144449194722L-124.28585377774952,95.86505701401492L-118.1905760394655,96.50222243448489z" style="fill:rgb(49,63,205)"/><path d="M83.22701057912407,40.191462110407194L129.1814032533999,212.29649833403192L145.24135416554103,202.68898874214437z" style="fill:rgb(174,99,242)"/><path d="M74.53699590980581,-182.5777127405901L-236.48443346208074,-87.59341356371853L-236.1145588738755,-83.61635389451692z" style="fill:rgb(82,237,172)"/><path d="M-176.0164428613248,11.429414046228134L-223.68178088577667,-76.04342585214249L-182.32860996543897,9.825851003980532z" style="fill:rgb(32,65,185)"/><path d="M-183.98543917362383,9.059434131097746L-223.68178088577667,-76.04342585214249L-229.77263736816195,-77.76958389204295z" style="fill:rgb(26,66,175)"/><path d="M-163.55314887020847,13.165963069476575L-166.16325247896762,12.864236233880316L-129.59749533343117,94.69639977158324z" style="fill:rgb(40,64,196)"/><path d="M127.62027452807764,10.06279429701343L121.02584762254342,15.115536997997028L173.5493046287382,181.7779382344096z" style="fill:rgb(204,117,228)"/><path d="M-10.535296651533562,81.00204387541174L39.651853419220046,246.1012108390602L57.87079647251231,241.6160497952922z" style="fill:rgb(114,75,243)"/><path d="M-66.0701647721839,94.25418936861495L-74.44830447863173,95.32021557651007L-11.569009361541005,251.78782564282832z" style="fill:rgb(79,66,228)"/><path d="M65.75581299793605,49.695282870359065L112.15001414210754,221.1272916773126L129.1814032533999,212.29649833403192z" style="fill:rgb(162,93,245)"/><path d="M121.02584762254342,15.115536997997028L114.36742145904046,20.21727100426031L173.5493046287382,181.7779382344096z" style="fill:rgb(204,117,228)"/><path d="M-151.4055213532852,13.348168987263113L-118.1905760394655,96.50222243448489L-112.0139476232968,97.14793251802146z" style="fill:rgb(49,63,205)"/><path d="M8.901312034298815,74.44726465953947L57.87079647251231,241.6160497952922L76.21601826006831,235.9018377013778z" style="fill:rgb(126,79,245)"/><path d="M47.351925359239374,58.66850107973567L94.40358119694511,229.03756586000665L112.15001414210754,221.1272916773126z" style="fill:rgb(151,88,246)"/><path d="M28.29999106402703,66.96389843692005L76.21601826006831,235.9018377013778L94.40358119694511,229.03756586000665z" style="fill:rgb(139,83,246)"/><path d="M136.32862165238214,-119.36422554032595L101.89797292568205,-205.17217752231483L133.04430052483102,-113.80137662711152z" style="fill:rgb(239,149,184)"/><path d="M-154.47376617549276,13.302144449194722L-163.55314887020847,13.165963069476575L-124.28585377774952,95.86505701401492z" style="fill:rgb(49,63,205)"/><path d="M-57.223701426978636,92.61634864449027L-66.0701647721839,94.25418936861495L4.682249415029563,251.1992393407102z" style="fill:rgb(91,68,234)"/><path d="M114.36742145904046,20.21727100426031L106.96723506494034,25.244275842318142L160.09777481759565,192.46125855577213z" style="fill:rgb(195,111,234)"/><path d="M74.53699590980581,-182.5777127405901L110.87203257854395,-221.43142881374703L109.98699332129527,-225.26831222762715z" style="fill:rgb(82,237,172)"/><path d="M-173.87975910717375,11.972036739403594L-215.6069180722892,-75.20189962600155L-176.0164428613248,11.429414046228134z" style="fill:rgb(32,65,185)"/><path d="M-48.3062320684293,90.96529846814995L-57.223701426978636,92.61634864449027L4.682249415029563,251.1992393407102z" style="fill:rgb(91,68,234)"/><path d="M74.53699590980581,-182.5777127405901L-236.1145588738755,-83.61635389451692L-233.90069904870398,-80.31723171410249z" style="fill:rgb(82,237,172)"/><path d="M-144.65573299975352,12.922634981351957L-112.0139476232968,97.14793251802146L-105.25300466827682,97.2379349633318z" style="fill:rgb(58,64,214)"/><path d="M133.04430052483102,-113.80137662711152L101.89797292568205,-205.17217752231483L131.4698015287547,-111.81634449879694z" style="fill:rgb(234,143,195)"/><path d="M106.96723506494034,25.244275842318142L99.50647441553512,30.312640412871467L160.09777481759565,192.46125855577213z" style="fill:rgb(195,111,234)"/><path d="M136.32862165238214,-119.36422554032595L106.90117524211703,-211.36131819349592L101.89797292568205,-205.17217752231483z" style="fill:rgb(239,149,184)"/><path d="M-151.4055213532852,13.348168987263113L-154.47376617549276,13.302144449194722L-118.1905760394655,96.50222243448489z" style="fill:rgb(49,63,205)"/><path d="M-39.034169308576864,88.7557293643046L-48.3062320684293,90.96529846814995L21.835308570967005,249.30412897338567z" style="fill:rgb(102,71,239)"/><path d="M-166.16325247896762,12.864236233880316L-215.6069180722892,-75.20189962600155L-173.87975910717375,11.972036739403594z" style="fill:rgb(40,64,196)"/><path d="M-176.0164428613248,11.429414046228134L-215.6069180722892,-75.20189962600155L-223.68178088577667,-76.04342585214249z" style="fill:rgb(32,65,185)"/><path d="M99.50647441553512,30.312640412871467L91.3931858161844,35.236009730355065L145.24135416554103,202.68898874214437z" style="fill:rgb(184,105,239)"/><path d="M-29.702847335868736,86.53208664050284L-39.034169308576864,88.7557293643046L21.835308570967005,249.30412897338567z" style="fill:rgb(102,71,239)"/><path d="M91.3931858161844,35.236009730355065L83.22701057912407,40.191462110407194L145.24135416554103,202.68898874214437z" style="fill:rgb(184,105,239)"/><path d="M-144.65573299975352,12.922634981351957L-151.4055213532852,13.348168987263113L-112.0139476232968,97.14793251802146z" style="fill:rgb(58,64,214)"/><path d="M74.53699590980581,-182.5777127405901L109.87186862132013,-216.79068856875594L110.87203257854395,-221.43142881374703z" style="fill:rgb(82,237,172)"/><path d="M-20.141141511984934,83.77340114116986L-29.702847335868736,86.53208664050284L39.651853419220046,246.1012108390602z" style="fill:rgb(114,75,243)"/><path d="M74.53699590980581,-182.5777127405901L-233.90069904870398,-80.31723171410249L-229.77263736816195,-77.76958389204295z" style="fill:rgb(82,237,172)"/><path d="M131.4698015287547,-111.81634449879694L94.82914481205356,-198.2679014508122L126.67575674857606,-105.77279004253681z" style="fill:rgb(234,143,195)"/><path d="M83.22701057912407,40.191462110407194L74.51210654627113,44.93201406806939L129.1814032533999,212.29649833403192z" style="fill:rgb(174,99,242)"/><path d="M-10.535296651533562,81.00204387541174L-20.141141511984934,83.77340114116986L39.651853419220046,246.1012108390602z" style="fill:rgb(114,75,243)"/><path d="M74.51210654627113,44.93201406806939L65.75581299793605,49.695282870359065L129.1814032533999,212.29649833403192z" style="fill:rgb(174,99,242)"/><path d="M-163.55314887020847,13.165963069476575L-205.55810163851743,-75.29954139813064L-166.16325247896762,12.864236233880316z" style="fill:rgb(40,64,196)"/><path d="M-0.8302362947762771,77.7291527700314L-10.535296651533562,81.00204387541174L57.87079647251231,241.6160497952922z" style="fill:rgb(126,79,245)"/><path d="M65.75581299793605,49.695282870359065L56.56734012542886,54.175473807800884L112.15001414210754,221.1272916773126z" style="fill:rgb(162,93,245)"/><path d="M8.901312034298815,74.44726465953947L-0.8302362947762771,77.7291527700314L57.87079647251231,241.6160497952922z" style="fill:rgb(126,79,245)"/><path d="M126.67575674857606,-105.77279004253681L94.82914481205356,-198.2679014508122L124.60290911210994,-103.64801302535734z" style="fill:rgb(228,137,204)"/><path d="M56.56734012542886,54.175473807800884L47.351925359239374,58.66850107973567L112.15001414210754,221.1272916773126z" style="fill:rgb(162,93,245)"/><path d="M18.596450101401373,70.70720072836026L8.901312034298815,74.44726465953947L76.21601826006831,235.9018377013778z" style="fill:rgb(139,83,246)"/><path d="M47.351925359239374,58.66850107973567L37.83085508405327,62.81406931616845L94.40358119694511,229.03756586000665z" style="fill:rgb(151,88,246)"/><path d="M131.4698015287547,-111.81634449879694L101.89797292568205,-205.17217752231483L94.82914481205356,-198.2679014508122z" style="fill:rgb(234,143,195)"/><path d="M28.29999106402703,66.96389843692005L18.596450101401373,70.70720072836026L76.21601826006831,235.9018377013778z" style="fill:rgb(139,83,246)"/><path d="M37.83085508405327,62.81406931616845L28.29999106402703,66.96389843692005L94.40358119694511,229.03756586000665z" style="fill:rgb(151,88,246)"/><path d="M-154.47376617549276,13.302144449194722L-205.55810163851743,-75.29954139813064L-163.55314887020847,13.165963069476575z" style="fill:rgb(49,63,205)"/><path d="M74.53699590980581,-182.5777127405901L106.90117524211703,-211.36131819349592L109.87186862132013,-216.79068856875594z" style="fill:rgb(82,237,172)"/><path d="M-166.16325247896762,12.864236233880316L-205.55810163851743,-75.29954139813064L-215.6069180722892,-75.20189962600155z" style="fill:rgb(40,64,196)"/><path d="M74.53699590980581,-182.5777127405901L-229.77263736816195,-77.76958389204295L-223.68178088577667,-76.04342585214249z" style="fill:rgb(82,237,172)"/><path d="M124.60290911210994,-103.64801302535734L85.6954453523215,-190.71010274436827L118.2973705944266,-97.18468904302183z" style="fill:rgb(228,137,204)"/><path d="M-151.4055213532852,13.348168987263113L-193.5827962548669,-76.37847269736426L-154.47376617549276,13.302144449194722z" style="fill:rgb(49,63,205)"/><path d="M118.2973705944266,-97.18468904302183L85.6954453523215,-190.71010274436827L115.7333216251306,-94.94372415013954z" style="fill:rgb(221,130,213)"/><path d="M74.53699590980581,-182.5777127405901L101.89797292568205,-205.17217752231483L106.90117524211703,-211.36131819349592z" style="fill:rgb(82,237,172)"/><path d="M124.60290911210994,-103.64801302535734L94.82914481205356,-198.2679014508122L85.6954453523215,-190.71010274436827z" style="fill:rgb(228,137,204)"/><path d="M74.53699590980581,-182.5777127405901L-223.68178088577667,-76.04342585214249L-215.6069180722892,-75.20189962600155z" style="fill:rgb(82,237,172)"/><path d="M-141.03377931983127,12.694332077290134L-193.5827962548669,-76.37847269736426L-151.4055213532852,13.348168987263113z" style="fill:rgb(58,64,214)"/><path d="M-154.47376617549276,13.302144449194722L-193.5827962548669,-76.37847269736426L-205.55810163851743,-75.29954139813064z" style="fill:rgb(49,63,205)"/><path d="M115.7333216251306,-94.94372415013954L74.53699590980581,-182.5777127405901L107.9423802651755,-88.1346630119571z" style="fill:rgb(221,130,213)"/><path d="M-137.5326294787911,12.473681315455686L-179.76861423909537,-78.46585711248628L-141.03377931983127,12.694332077290134z" style="fill:rgb(58,64,214)"/><path d="M74.53699590980581,-182.5777127405901L94.82914481205356,-198.2679014508122L101.89797292568205,-205.17217752231483zM74.53699590980581,-182.5777127405901L-215.6069180722892,-75.20189962600155L-205.55810163851743,-75.29954139813064z" style="fill:rgb(82,237,172)"/><path d="M107.9423802651755,-88.1346630119571L74.53699590980581,-182.5777127405901L104.90437176950063,-85.80528052254218z" style="fill:rgb(213,124,221)"/><path d="M-125.96904566510828,11.008998478548373L-179.76861423909537,-78.46585711248628L-137.5326294787911,12.473681315455686z" style="fill:rgb(69,65,222)"/><path d="M115.7333216251306,-94.94372415013954L85.6954453523215,-190.71010274436827L74.53699590980581,-182.5777127405901z" style="fill:rgb(221,130,213)"/><path d="M-141.03377931983127,12.694332077290134L-179.76861423909537,-78.46585711248628L-193.5827962548669,-76.37847269736426z" style="fill:rgb(58,64,214)"/><path d="M104.90437176950063,-85.80528052254218L61.43670227096686,-173.96772753793107L95.68498045256786,-78.73650411638293z" style="fill:rgb(213,124,221)"/><path d="M74.53699590980581,-182.5777127405901L85.6954453523215,-190.71010274436827L94.82914481205356,-198.2679014508122zM74.53699590980581,-182.5777127405901L-205.55810163851743,-75.29954139813064L-193.5827962548669,-76.37847269736426z" style="fill:rgb(82,237,172)"/><path d="M-122.07039407645489,10.515130141329406L-164.24536319262683,-81.57120255698032L-125.96904566510828,11.008998478548373z" style="fill:rgb(69,65,222)"/><path d="M95.68498045256786,-78.73650411638293L61.43670227096686,-173.96772753793107L92.20083089876421,-76.3499127624837z" style="fill:rgb(204,117,228)"/><path d="M-109.44598411841079,8.232473916904874L-164.24536319262683,-81.57120255698032L-122.07039407645489,10.515130141329406z" style="fill:rgb(79,66,228)"/><path d="M104.90437176950063,-85.80528052254218L74.53699590980581,-182.5777127405901L61.43670227096686,-173.96772753793107z" style="fill:rgb(213,124,221)"/><path d="M92.20083089876421,-76.3499127624837L46.522142824326906,-164.99279220319133L81.64237689968353,-69.11837554575642z" style="fill:rgb(204,117,228)"/><path d="M-125.96904566510828,11.008998478548373L-164.24536319262683,-81.57120255698032L-179.76861423909537,-78.46585711248628z" style="fill:rgb(69,65,222)"/><path d="M74.53699590980581,-182.5777127405901L-193.5827962548669,-76.37847269736426L-179.76861423909537,-78.46585711248628z" style="fill:rgb(82,237,172)"/><path d="M-105.1958422944751,7.4639497076954955L-147.18772472185412,-85.68354612401741L-109.44598411841079,8.232473916904874z" style="fill:rgb(79,66,228)"/><path d="M81.64237689968353,-69.11837554575642L46.522142824326906,-164.99279220319133L77.75014120374998,-66.7093992250099z" style="fill:rgb(195,111,234)"/><path d="M-91.67108399882876,4.37336758628447L-147.18772472185412,-85.68354612401741L-105.1958422944751,7.4639497076954955z" style="fill:rgb(91,68,234)"/><path d="M92.20083089876421,-76.3499127624837L61.43670227096686,-173.96772753793107L46.522142824326906,-164.99279220319133z" style="fill:rgb(204,117,228)"/><path d="M74.53699590980581,-182.5777127405901L-179.76861423909537,-78.46585711248628L-164.24536319262683,-81.57120255698032z" style="fill:rgb(82,237,172)"/><path d="M77.75014120374998,-66.7093992250099L29.967481129100012,-155.78054816856712L65.97488381142203,-59.42122320651954z" style="fill:rgb(195,111,234)"/><path d="M-87.12539018769573,3.334655908134674L-128.8124599329219,-90.77071576503329L-91.67108399882876,4.37336758628447z" style="fill:rgb(91,68,234)"/><path d="M-109.44598411841079,8.232473916904874L-147.18772472185412,-85.68354612401741L-164.24536319262683,-81.57120255698032z" style="fill:rgb(79,66,228)"/><path d="M65.97488381142203,-59.42122320651954L29.967481129100012,-155.78054816856712L61.72406288387472,-57.02655858805648z" style="fill:rgb(184,105,239)"/><path d="M-72.8880265631729,-0.5369400054751878L-128.8124599329219,-90.77071576503329L-87.12539018769573,3.334655908134674z" style="fill:rgb(102,71,239)"/><path d="M74.53699590980581,-182.5777127405901L46.522142824326906,-164.99279220319133L61.43670227096686,-173.96772753793107zM74.53699590980581,-182.5777127405901L-164.24536319262683,-81.57120255698032L-147.18772472185412,-85.68354612401741z" style="fill:rgb(82,237,172)"/><path d="M61.72406288387472,-57.02655858805648L11.990728735778433,-146.46995664190158L48.88554708747716,-49.794080780468484z" style="fill:rgb(184,105,239)"/><path d="M-68.11099441790692,-1.8359163880960396L-109.37632010831258,-96.77737322535081L-72.8880265631729,-0.5369400054751878z" style="fill:rgb(102,71,239)"/><path d="M77.75014120374998,-66.7093992250099L46.522142824326906,-164.99279220319133L29.967481129100012,-155.78054816856712z" style="fill:rgb(195,111,234)"/><path d="M48.88554708747716,-49.794080780468484L11.990728735778433,-146.46995664190158L44.335074289706085,-47.45192917173179z" style="fill:rgb(174,99,242)"/><path d="M-53.372062893437764,-6.44278959460075L-109.37632010831258,-96.77737322535081L-68.11099441790692,-1.8359163880960396z" style="fill:rgb(114,75,243)"/><path d="M-91.67108399882876,4.37336758628447L-128.8124599329219,-90.77071576503329L-147.18772472185412,-85.68354612401741z" style="fill:rgb(91,68,234)"/><path d="M44.335074289706085,-47.45192917173179L-7.149719276452291,-137.20866480931443L30.616064578798113,-40.39069755394128z" style="fill:rgb(174,99,242)"/><path d="M74.53699590980581,-182.5777127405901L29.967481129100012,-155.78054816856712L46.522142824326906,-164.99279220319133zM74.53699590980581,-182.5777127405901L-147.18772472185412,-85.68354612401741L-128.8124599329219,-90.77071576503329z" style="fill:rgb(82,237,172)"/><path d="M-48.4356259130599,-7.985864916725364L-89.16904698914794,-103.62622680604039L-53.372062893437764,-6.44278959460075z" style="fill:rgb(114,75,243)"/><path d="M30.616064578798113,-40.39069755394128L-7.149719276452291,-137.20866480931443L25.833243713027617,-38.13928892808094z" style="fill:rgb(162,93,245)"/><path d="M-33.422968323872425,-13.265814122237641L-89.16904698914794,-103.62622680604039L-48.4356259130599,-7.985864916725364z" style="fill:rgb(126,79,245)"/><path d="M25.833243713027617,-38.13928892808094L-27.16111002165807,-128.14748937646226L11.441529378232973,-31.364926711515952z" style="fill:rgb(162,93,245)"/><path d="M-28.404704540890705,-15.030885599437608L-68.50763492457973,-111.21816249785289L-33.422968323872425,-13.265814122237641z" style="fill:rgb(126,79,245)"/><path d="M11.441529378232973,-31.364926711515952L-27.16111002165807,-128.14748937646226L6.500557633339704,-29.24175821381981z" style="fill:rgb(151,88,246)"/><path d="M61.72406288387472,-57.02655858805648L29.967481129100012,-155.78054816856712L11.990728735778433,-146.46995664190158z" style="fill:rgb(184,105,239)"/><path d="M-13.357902804243846,-20.905457375850002L-68.50763492457973,-111.21816249785289L-28.404704540890705,-15.030885599437608z" style="fill:rgb(139,83,246)"/><path d="M6.500557633339704,-29.24175821381981L-47.72524875370034,-119.43612336413605L-8.337727561455331,-22.86526146640717z" style="fill:rgb(151,88,246)"/><path d="M-8.337727561455331,-22.86526146640717L-47.72524875370034,-119.43612336413605L-13.357902804243846,-20.905457375850002z" style="fill:rgb(139,83,246)"/><path d="M74.53699590980581,-182.5777127405901L11.990728735778433,-146.46995664190158L29.967481129100012,-155.78054816856712zM74.53699590980581,-182.5777127405901L-128.8124599329219,-90.77071576503329L-109.37632010831258,-96.77737322535081z" style="fill:rgb(82,237,172)"/><path d="M-72.8880265631729,-0.5369400054751878L-109.37632010831258,-96.77737322535081L-128.8124599329219,-90.77071576503329z" style="fill:rgb(102,71,239)"/><path d="M74.53699590980581,-182.5777127405901L-7.149719276452291,-137.20866480931443L11.990728735778433,-146.46995664190158zM74.53699590980581,-182.5777127405901L-109.37632010831258,-96.77737322535081L-89.16904698914794,-103.62622680604039z" style="fill:rgb(82,237,172)"/><path d="M44.335074289706085,-47.45192917173179L11.990728735778433,-146.46995664190158L-7.149719276452291,-137.20866480931443z" style="fill:rgb(174,99,242)"/><path d="M-53.372062893437764,-6.44278959460075L-89.16904698914794,-103.62622680604039L-109.37632010831258,-96.77737322535081z" style="fill:rgb(114,75,243)"/><path d="M74.53699590980581,-182.5777127405901L-27.16111002165807,-128.14748937646226L-7.149719276452291,-137.20866480931443zM74.53699590980581,-182.5777127405901L-89.16904698914794,-103.62622680604039L-68.50763492457973,-111.21816249785289zM74.53699590980581,-182.5777127405901L-47.72524875370034,-119.43612336413605L-27.16111002165807,-128.14748937646226zM74.53699590980581,-182.5777127405901L-68.50763492457973,-111.21816249785289L-47.72524875370034,-119.43612336413605z" style="fill:rgb(82,237,172)"/><path d="M25.833243713027617,-38.13928892808094L-7.149719276452291,-137.20866480931443L-27.16111002165807,-128.14748937646226z" style="fill:rgb(162,93,245)"/><path d="M-33.422968323872425,-13.265814122237641L-68.50763492457973,-111.21816249785289L-89.16904698914794,-103.62622680604039z" style="fill:rgb(126,79,245)"/><path d="M6.500557633339704,-29.24175821381981L-27.16111002165807,-128.14748937646226L-47.72524875370034,-119.43612336413605z" style="fill:rgb(151,88,246)"/><path d="M-13.357902804243846,-20.905457375850002L-47.72524875370034,-119.43612336413605L-68.50763492457973,-111.21816249785289z" style="fill:rgb(139,83,246)"/></svg>