<?xml version="1.0" encoding="UTF-8"?>
<!-- Generated by jsxcad -->
<!DOCTYPE svg PUBLIC "-//W3C//DTD SVG 1.1 Tiny//EN" "http://www.w3.org/Graphics/SVG/1.1/DTD/svg11-tiny.dtd">
<svg viewBox="-250 -250 500 500" width="500" height="500" xmlns="http://www.w3.org/2000/svg"><path d="M160.98970921358918,-65.42589657655073L206.20941080156885,68.9915624446032L198.94071803165485,46.58139863757529z" style="fill:rgb(246,167,149)"/><path d="M-51.88007487022513,218.39642123775604L-138.6341474905953,105.4885137541613L-69.39906693218842,201.5430980975193z" style="fill:rgb(34,46,160)"/><path d="M206.20941080156885,68.9915624446032L168.8028563551815,-18.0737034689357L207.57635888469238,93.79631881644002z" style="fill:rgb(246,149,167)"/><path d="M-29.29054266118315,231.23577751205232L-120.72163021897633,122.01524589663579L-51.88007487022513,218.39642123775604z" style="fill:rgb(51,38,177)"/><path d="M206.20941080156885,68.9915624446032L160.98970921358918,-65.42589657655073L168.16659349459047,-43.176204904943z" style="fill:rgb(246,167,149)"/><path d="M207.57635888469238,93.79631881644002L162.40519785083714,8.92673526464399L202.60610840522912,120.02423135353692z" style="fill:rgb(242,130,183)"/><path d="M-138.6341474905953,105.4885137541613L-51.88007487022513,218.39642123775604L-120.72163021897633,122.01524589663579z" style="fill:rgb(34,46,160)"/><path d="M168.8028563551815,-18.0737034689357L206.20941080156885,68.9915624446032L168.16659349459047,-43.176204904943z" style="fill:rgb(246,149,167)"/><path d="M-68.08710191372931,141.31888651761872L-29.29054266118315,231.23577751205232L-2.384385599200169,239.22032012282773z" style="fill:rgb(71,33,192)"/><path d="M-150.33765420754463,85.6547223391421L168.57127066053303,-17.0963849071557L-155.6065654218517,64.32212038680647z" style="fill:rgb(83,212,212)"/><path d="M202.60610840522912,120.02423135353692L148.83222637143479,36.632045069318316L191.1716453755729,146.5087455597213z" style="fill:rgb(233,112,197)"/><path d="M-35.25932776712873,142.56504362924613L-2.384385599200169,239.22032012282773L27.747318833399746,241.7063052274112z" style="fill:rgb(92,32,204)"/><path d="M-120.72163021897633,122.01524589663579L-29.29054266118315,231.23577751205232L-96.95802926856724,134.24969920242782z" style="fill:rgb(51,38,177)"/><path d="M168.57127066053303,-17.0963849071557L-150.33765420754463,85.6547223391421L-138.6341474905953,105.4885137541613z" style="fill:rgb(83,212,212)"/><path d="M162.40519785083714,8.92673526464399L207.57635888469238,93.79631881644002L168.8028563551815,-18.0737034689357z" style="fill:rgb(242,130,183)"/><path d="M191.1716453755729,146.5087455597213L128.38182453941482,63.66873074541732L173.52428441071922,171.9492119488496z" style="fill:rgb(220,94,208)"/><path d="M3.929462066809976e-14,137.64737758345666L27.747318833399746,241.7063052274112L59.71441154101582,238.33640333711344z" style="fill:rgb(115,34,214)"/><path d="M138.61880866174778,-131.4505692606269L168.16659349459047,-43.176204904943L160.98970921358918,-65.42589657655073z" style="fill:rgb(246,167,149)"/><path d="M173.52428441071922,171.9492119488496L101.83832556159814,88.58238853843162L150.33047039107498,195.00499222420913z" style="fill:rgb(203,77,216)"/><path d="M-29.29054266118315,231.23577751205232L-68.08710191372931,141.31888651761872L-96.95802926856724,134.24969920242782z" style="fill:rgb(71,33,192)"/><path d="M101.83832556159814,88.58238853843162L122.65927131922214,214.41285545839438L150.33047039107498,195.00499222420913z" style="fill:rgb(183,62,221)"/><path d="M35.88469395360256,126.62077182841783L59.71441154101582,238.33640333711344L91.9140845389397,229.10952052708473z" style="fill:rgb(139,40,220)"/><path d="M168.57127066053303,-17.0963849071557L-138.6341474905953,105.4885137541613L-120.72163021897633,122.01524589663579z" style="fill:rgb(83,212,212)"/><path d="M-155.6065654218517,64.32212038680647L145.50316554828206,-83.54961349924588L-195.49246727965325,7.969627448541672z" style="fill:rgb(127,37,217)"/><path d="M70.45818867626284,109.96953767851538L91.9140845389397,229.10952052708473L122.65927131922214,214.41285545839438z" style="fill:rgb(162,50,222)"/><path d="M148.83222637143479,36.632045069318316L202.60610840522912,120.02423135353692L162.40519785083714,8.92673526464399z" style="fill:rgb(233,112,197)"/><path d="M145.50316554828206,-83.54961349924588L-155.6065654218517,64.32212038680647L168.57127066053303,-17.0963849071557z" style="fill:rgb(127,37,217)"/><path d="M-120.72163021897633,122.01524589663579L-179.54966016175084,48.723606574433624L-138.6341474905953,105.4885137541613z" style="fill:rgb(34,46,160)"/><path d="M-2.384385599200169,239.22032012282773L-35.25932776712873,142.56504362924613L-68.08710191372931,141.31888651761872z" style="fill:rgb(92,32,204)"/><path d="M168.57127066053303,-17.0963849071557L-120.72163021897633,122.01524589663579L-96.95802926856724,134.24969920242782zM-214.8012750264951,-127.03413761534163L-225.74806404510957,-15.370602056335091L-196.10182265092126,-150.07614874064384zM-196.10182265092126,-150.07614874064384L-207.82249470802998,0.0702408489933418L-173.52798844975467,-171.7446151551716zM-228.89128580351692,-103.20881273830673L-236.5637249325293,-34.42446415926404L-214.8012750264951,-127.03413761534163zM-173.52798844975467,-171.7446151551716L-183.026474577619,10.890017528415319L-147.80994733451482,-191.52891260428098z" style="fill:rgb(83,212,212)"/><path d="M128.38182453941482,63.66873074541732L191.1716453755729,146.5087455597213L148.83222637143479,36.632045069318316z" style="fill:rgb(220,94,208)"/><path d="M168.16659349459047,-43.176204904943L138.61880866174778,-131.4505692606269L145.6530800142997,-109.5564777939309z" style="fill:rgb(246,167,149)"/><path d="M-240.3980496499773,-56.05854875303244L-228.89128580351692,-103.20881273830673L-237.64894990104577,-79.28615975984984zM-147.80994733451482,-191.52891260428098L-152.052984726189,16.204118914836638L-119.66925684062825,-208.98047510005284z" style="fill:rgb(83,212,212)"/><path d="M168.16659349459047,-43.176204904943L145.76820626534703,-84.53366883250686L168.8028563551815,-18.0737034689357z" style="fill:rgb(246,149,167)"/><path d="M-190.9027673968158,29.163397836627894L145.50316554828206,-83.54961349924588L-195.49246727965325,7.969627448541672z" style="fill:rgb(83,212,212)"/><path d="M27.747318833399746,241.7063052274112L3.929462066809976e-14,137.64737758345666L-35.25932776712873,142.56504362924613z" style="fill:rgb(115,34,214)"/><path d="M168.57127066053303,-17.0963849071557L-96.95802926856724,134.24969920242782L-68.08710191372931,141.31888651761872zM-119.66925684062825,-208.98047510005284L-116.09582096925834,15.36843752969379L-89.8252367071799,-223.6968582946405z" style="fill:rgb(83,212,212)"/><path d="M101.83832556159814,88.58238853843162L173.52428441071922,171.9492119488496L128.38182453941482,63.66873074541732z" style="fill:rgb(203,77,216)"/><path d="M-96.95802926856724,134.24969920242782L-161.56383800631983,64.83436416465818L-120.72163021897633,122.01524589663579z" style="fill:rgb(51,38,177)"/><path d="M168.57127066053303,-17.0963849071557L148.83222637143479,36.632045069318316L162.40519785083714,8.92673526464399z" style="fill:rgb(83,212,212)"/><path d="M168.8028563551815,-18.0737034689357L145.50316554828206,-83.54961349924588L168.57127066053303,-17.0963849071557z" style="fill:rgb(242,130,183)"/><path d="M-179.54966016175084,48.723606574433624L-120.72163021897633,122.01524589663579L-161.56383800631983,64.83436416465818z" style="fill:rgb(34,46,160)"/><path d="M-89.8252367071799,-223.6968582946405L-76.83190448341493,8.095233265538084L-59.00783333750519,-235.30922536585626z" style="fill:rgb(83,212,212)"/><path d="M59.71441154101582,238.33640333711344L35.88469395360256,126.62077182841783L4.583873006944694e-14,137.64737758345666z" style="fill:rgb(139,40,220)"/><path d="M145.76820626534703,-84.53366883250686L168.16659349459047,-43.176204904943L145.6530800142997,-109.5564777939309z" style="fill:rgb(246,149,167)"/><path d="M122.65927131922214,214.41285545839438L101.83832556159814,88.58238853843162L70.45818867626284,109.96953767851538z" style="fill:rgb(183,62,221)"/><path d="M168.57127066053303,-17.0963849071557L-68.08710191372931,141.31888651761872L-35.25932776712873,142.56504362924613zM-228.89128580351692,-103.20881273830673L-240.3980496499773,-56.05854875303244L-236.5637249325293,-34.42446415926404z" style="fill:rgb(83,212,212)"/><path d="M91.9140845389397,229.10952052708473L70.45818867626284,109.96953767851538L35.88469395360256,126.62077182841783z" style="fill:rgb(162,50,222)"/><path d="M145.50316554828206,-83.54961349924588L-190.9027673968158,29.163397836627894L-179.54966016175084,48.723606574433624zM168.57127066053303,-17.0963849071557L128.38182453941482,63.66873074541732L148.83222637143479,36.632045069318316zM-59.00783333750519,-235.30922536585626L-36.321901563210524,-5.459273650107637L-27.974368752044214,-243.47501516728644z" style="fill:rgb(83,212,212)"/><path d="M168.57127066053303,-17.0963849071557L138.4365898040272,-57.311866170847544L162.40519785083714,8.92673526464399z" style="fill:rgb(242,130,183)"/><path d="M168.57127066053303,-17.0963849071557L-35.25932776712873,142.56504362924613L-3.190287206874342e-13,137.64737758345666zM168.57127066053303,-17.0963849071557L101.83832556159814,88.58238853843162L128.38182453941482,63.66873074541732zM-27.974368752044214,-243.47501516728644L3.168616747791274,-24.662658264293892L2.4727849374150503,-247.87711150352882z" style="fill:rgb(83,212,212)"/><path d="M113.41002301477681,-205.8509093055362L145.6530800142997,-109.5564777939309L138.61880866174778,-131.4505692606269z" style="fill:rgb(246,167,149)"/><path d="M-214.8012750264951,-127.03413761534163L-236.5637249325293,-34.42446415926404L-225.74806404510957,-15.370602056335091z" style="fill:rgb(83,212,212)"/><path d="M145.50316554828206,-83.54961349924588L168.8028563551815,-18.0737034689357L145.76820626534703,-84.53366883250686z" style="fill:rgb(242,130,183)"/><path d="M168.57127066053303,-17.0963849071557L-3.190287206874342e-13,137.64737758345666L35.88469395360256,126.62077182841783zM168.57127066053303,-17.0963849071557L70.45818867626284,109.96953767851538L101.83832556159814,88.58238853843162zM168.57127066053303,-17.0963849071557L35.88469395360256,126.62077182841783L70.45818867626284,109.96953767851538zM145.50316554828206,-83.54961349924588L-179.54966016175084,48.723606574433624L-161.56383800631983,64.83436416465818z" style="fill:rgb(83,212,212)"/><path d="M-161.56383800631983,64.83436416465818L-96.95802926856724,134.24969920242782L-137.25288151787038,76.49612040110712z" style="fill:rgb(51,38,177)"/><path d="M2.4727849374150503,-247.87711150352882L39.400449010598905,-48.446010490259L31.470704533113924,-248.23116783623135z" style="fill:rgb(83,212,212)"/><path d="M-107.34214767867483,82.82625891536276L-96.95802926856724,134.24969920242782L-68.08710191372931,141.31888651761872z" style="fill:rgb(71,33,192)"/><path d="M138.4365898040272,-57.311866170847544L168.57127066053303,-17.0963849071557L145.50316554828206,-83.54961349924588z" style="fill:rgb(242,130,183)"/><path d="M-196.10182265092126,-150.07614874064384L-225.74806404510957,-15.370602056335091L-207.82249470802998,0.0702408489933418z" style="fill:rgb(83,212,212)"/><path d="M162.40519785083714,8.92673526464399L123.50927182164091,-29.08456544268255L148.83222637143479,36.632045069318316z" style="fill:rgb(233,112,197)"/><path d="M31.470704533113924,-248.23116783623135L70.39810248608599,-75.41329595471615L58.0864017757838,-244.30209899690027z" style="fill:rgb(83,212,212)"/><path d="M-161.56383800631983,64.83436416465818L-225.74806404510957,-15.370602056335091L-179.54966016175084,48.723606574433624z" style="fill:rgb(34,46,160)"/><path d="M-96.95802926856724,134.24969920242782L-107.34214767867483,82.82625891536276L-137.25288151787038,76.49612040110712z" style="fill:rgb(71,33,192)"/><path d="M145.50316554828206,-83.54961349924588L-161.56383800631983,64.83436416465818L-137.25288151787038,76.49612040110712zM58.0864017757838,-244.30209899690027L94.64252376331724,-103.99781950677237L81.31814792873485,-235.93136953265164z" style="fill:rgb(83,212,212)"/><path d="M-73.0070736923006,83.16878002221526L-68.08710191372931,141.31888651761872L-35.25932776712873,142.56504362924613z" style="fill:rgb(92,32,204)"/><path d="M-173.52798844975467,-171.7446151551716L-207.82249470802998,0.0702408489933418L-183.026474577619,10.890017528415319z" style="fill:rgb(83,212,212)"/><path d="M145.6530800142997,-109.5564777939309L113.41002301477681,-205.8509093055362L120.20443878030373,-184.59081029420912z" style="fill:rgb(246,167,149)"/><path d="M123.50927182164091,-29.08456544268255L162.40519785083714,8.92673526464399L138.4365898040272,-57.311866170847544z" style="fill:rgb(233,112,197)"/><path d="M148.83222637143479,36.632045069318316L101.31482990859269,-1.255203585040805L128.38182453941482,63.66873074541732z" style="fill:rgb(220,94,208)"/><path d="M81.31814792873485,-235.93136953265164L111.182180580039,-132.6309670606454L100.11346884407517,-223.0750168491215z" style="fill:rgb(83,212,212)"/><path d="M145.6530800142997,-109.5564777939309L119.65067550108068,-159.88845039219242L145.76820626534703,-84.53366883250686z" style="fill:rgb(246,149,167)"/><path d="M145.50316554828206,-83.54961349924588L-137.25288151787038,76.49612040110712L-107.34214767867483,82.82625891536276z" style="fill:rgb(83,212,212)"/><path d="M-35.847012054994806,77.20298921310687L-35.25932776712873,142.56504362924613L2.2113340604657155e-15,137.64737758345666z" style="fill:rgb(115,34,214)"/><path d="M-68.08710191372931,141.31888651761872L-73.0070736923006,83.16878002221526L-107.34214767867483,82.82625891536276z" style="fill:rgb(92,32,204)"/><path d="M100.11346884407517,-223.0750168491215L119.65067550108068,-159.88845039219242L113.41002301477681,-205.8509093055362z" style="fill:rgb(83,212,212)"/><path d="M-137.25288151787038,76.49612040110712L-207.82249470802998,0.0702408489933418L-161.56383800631983,64.83436416465818z" style="fill:rgb(51,38,177)"/><path d="M128.38182453941482,63.66873074541732L72.71337785805697,24.66374119464667L101.83832556159814,88.58238853843162z" style="fill:rgb(203,77,216)"/><path d="M145.50316554828206,-83.54961349924588L123.50927182164091,-29.08456544268255L138.4365898040272,-57.311866170847544zM-147.80994733451482,-191.52891260428098L-183.026474577619,10.890017528415319L-152.052984726189,16.204118914836638z" style="fill:rgb(83,212,212)"/><path d="M-225.74806404510957,-15.370602056335091L-161.56383800631983,64.83436416465818L-207.82249470802998,0.0702408489933418z" style="fill:rgb(34,46,160)"/><path d="M72.71337785805697,24.66374119464667L70.45818867626284,109.96953767851538L101.83832556159814,88.58238853843162z" style="fill:rgb(183,62,221)"/><path d="M2.211955086631314,65.0267180916794L4.392703860914775e-15,137.64737758345666L35.88469395360256,126.62077182841783z" style="fill:rgb(139,40,220)"/><path d="M101.31482990859269,-1.255203585040805L148.83222637143479,36.632045069318316L123.50927182164091,-29.08456544268255z" style="fill:rgb(220,94,208)"/><path d="M119.65067550108068,-159.88845039219242L145.6530800142997,-109.5564777939309L120.20443878030373,-184.59081029420912z" style="fill:rgb(246,149,167)"/><path d="M39.08077958697588,47.18997780516235L35.88469395360256,126.62077182841783L70.45818867626284,109.96953767851538z" style="fill:rgb(162,50,222)"/><path d="M145.50316554828206,-83.54961349924588L-107.34214767867483,82.82625891536276L-73.0070736923006,83.16878002221526zM145.50316554828206,-83.54961349924588L101.31482990859269,-1.255203585040805L123.50927182164091,-29.08456544268255z" style="fill:rgb(83,212,212)"/><path d="M-35.25932776712873,142.56504362924613L-35.847012054994806,77.20298921310687L-73.0070736923006,83.16878002221526z" style="fill:rgb(115,34,214)"/><path d="M-119.66925684062825,-208.98047510005284L-152.052984726189,16.204118914836638L-116.09582096925834,15.36843752969379z" style="fill:rgb(83,212,212)"/><path d="M145.76820626534703,-84.53366883250686L111.182180580039,-132.6309670606454L138.4365898040272,-57.311866170847544z" style="fill:rgb(242,130,183)"/><path d="M113.41002301477681,-205.8509093055362L119.65067550108068,-159.88845039219242L120.20443878030373,-184.59081029420912zM145.50316554828206,-83.54961349924588L-73.0070736923006,83.16878002221526L-35.847012054994806,77.20298921310687z" style="fill:rgb(83,212,212)"/><path d="M72.71337785805697,24.66374119464667L128.38182453941482,63.66873074541732L101.31482990859269,-1.255203585040805z" style="fill:rgb(203,77,216)"/><path d="M145.50316554828206,-83.54961349924588L72.71337785805697,24.66374119464667L101.31482990859269,-1.255203585040805z" style="fill:rgb(83,212,212)"/><path d="M4.392703860914775e-15,137.64737758345666L2.211955086631314,65.0267180916794L-35.847012054994806,77.20298921310687z" style="fill:rgb(139,40,220)"/><path d="M145.50316554828206,-83.54961349924588L-35.847012054994806,77.20298921310687L2.211955086631314,65.0267180916794zM-89.8252367071799,-223.6968582946405L-116.09582096925834,15.36843752969379L-76.83190448341493,8.095233265538084zM100.11346884407517,-223.0750168491215L111.182180580039,-132.6309670606454L119.65067550108068,-159.88845039219242zM145.50316554828206,-83.54961349924588L39.08077958697588,47.18997780516235L72.71337785805697,24.66374119464667zM145.50316554828206,-83.54961349924588L2.211955086631314,65.0267180916794L39.08077958697588,47.18997780516235z" style="fill:rgb(83,212,212)"/><path d="M70.45818867626284,109.96953767851538L72.71337785805697,24.66374119464667L39.08077958697588,47.18997780516235z" style="fill:rgb(183,62,221)"/><path d="M35.88469395360256,126.62077182841783L39.08077958697588,47.18997780516235L2.211955086631314,65.0267180916794z" style="fill:rgb(162,50,222)"/><path d="M-207.82249470802998,0.0702408489933418L-137.25288151787038,76.49612040110712L-183.026474577619,10.890017528415319z" style="fill:rgb(51,38,177)"/><path d="M-152.052984726189,16.204118914836638L-137.25288151787038,76.49612040110712L-107.34214767867483,82.82625891536276z" style="fill:rgb(71,33,192)"/><path d="M111.182180580039,-132.6309670606454L145.76820626534703,-84.53366883250686L119.65067550108068,-159.88845039219242z" style="fill:rgb(242,130,183)"/><path d="M81.31814792873485,-235.93136953265164L94.64252376331724,-103.99781950677237L111.182180580039,-132.6309670606454zM-59.00783333750519,-235.30922536585626L-76.83190448341493,8.095233265538084L-36.321901563210524,-5.459273650107637z" style="fill:rgb(83,212,212)"/><path d="M138.4365898040272,-57.311866170847544L94.64252376331724,-103.99781950677237L123.50927182164091,-29.08456544268255z" style="fill:rgb(233,112,197)"/><path d="M58.0864017757838,-244.30209899690027L70.39810248608599,-75.41329595471615L94.64252376331724,-103.99781950677237zM-27.974368752044214,-243.47501516728644L-36.321901563210524,-5.459273650107637L3.168616747791274,-24.662658264293892zM31.470704533113924,-248.23116783623135L39.400449010598905,-48.446010490259L70.39810248608599,-75.41329595471615zM2.4727849374150503,-247.87711150352882L3.168616747791274,-24.662658264293892L39.400449010598905,-48.446010490259z" style="fill:rgb(83,212,212)"/><path d="M-137.25288151787038,76.49612040110712L-152.052984726189,16.204118914836638L-183.026474577619,10.890017528415319z" style="fill:rgb(71,33,192)"/><path d="M-116.09582096925834,15.36843752969379L-107.34214767867483,82.82625891536276L-73.0070736923006,83.16878002221526z" style="fill:rgb(92,32,204)"/><path d="M94.64252376331724,-103.99781950677237L138.4365898040272,-57.311866170847544L111.182180580039,-132.6309670606454z" style="fill:rgb(233,112,197)"/><path d="M123.50927182164091,-29.08456544268255L70.39810248608599,-75.41329595471615L101.31482990859269,-1.255203585040805z" style="fill:rgb(220,94,208)"/><path d="M-76.83190448341493,8.095233265538084L-73.0070736923006,83.16878002221526L-35.847012054994806,77.20298921310687z" style="fill:rgb(115,34,214)"/><path d="M-107.34214767867483,82.82625891536276L-116.09582096925834,15.36843752969379L-152.052984726189,16.204118914836638z" style="fill:rgb(92,32,204)"/><path d="M101.31482990859269,-1.255203585040805L39.400449010598905,-48.446010490259L72.71337785805697,24.66374119464667z" style="fill:rgb(203,77,216)"/><path d="M39.400449010598905,-48.446010490259L39.08077958697588,47.18997780516235L72.71337785805697,24.66374119464667z" style="fill:rgb(183,62,221)"/><path d="M-36.321901563210524,-5.459273650107637L-35.847012054994806,77.20298921310687L2.211955086631314,65.0267180916794z" style="fill:rgb(139,40,220)"/><path d="M70.39810248608599,-75.41329595471615L123.50927182164091,-29.08456544268255L94.64252376331724,-103.99781950677237z" style="fill:rgb(220,94,208)"/><path d="M3.168616747791274,-24.662658264293892L2.211955086631314,65.0267180916794L39.08077958697588,47.18997780516235z" style="fill:rgb(162,50,222)"/><path d="M-73.0070736923006,83.16878002221526L-76.83190448341493,8.095233265538084L-116.09582096925834,15.36843752969379z" style="fill:rgb(115,34,214)"/><path d="M39.400449010598905,-48.446010490259L101.31482990859269,-1.255203585040805L70.39810248608599,-75.41329595471615z" style="fill:rgb(203,77,216)"/><path d="M-35.847012054994806,77.20298921310687L-36.321901563210524,-5.459273650107637L-76.83190448341493,8.095233265538084z" style="fill:rgb(139,40,220)"/><path d="M39.08077958697588,47.18997780516235L39.400449010598905,-48.446010490259L3.168616747791274,-24.662658264293892z" style="fill:rgb(183,62,221)"/><path d="M2.211955086631314,65.0267180916794L3.168616747791274,-24.662658264293892L-36.321901563210524,-5.459273650107637z" style="fill:rgb(162,50,222)"/></svg>
